<?xml version="1.0" encoding="UTF-8" standalone="no"?>
<!DOCTYPE svg PUBLIC "-//W3C//DTD SVG 1.1//EN"
 "http://www.w3.org/Graphics/SVG/1.1/DTD/svg11.dtd">
<!-- Generated by graphviz version 2.36.0 (20140111.2315)
 -->
<!-- Title: IGraphicsPathBase.h Pages: 1 -->
<svg width="1776pt" height="532pt"
 viewBox="0.00 0.00 1776.23 532.00" xmlns="http://www.w3.org/2000/svg" xmlns:xlink="http://www.w3.org/1999/xlink">
<g id="graph0" class="graph" transform="scale(1 1) rotate(0) translate(4 528)">
<title>IGraphicsPathBase.h</title>
<polygon fill="white" stroke="none" points="-4,4 -4,-528 1772.23,-528 1772.23,4 -4,4"/>
<!-- Node1 -->
<g id="node1" class="node"><title>Node1</title>
<polygon fill="#bfbfbf" stroke="black" points="808,-504.5 808,-523.5 918,-523.5 918,-504.5 808,-504.5"/>
<text text-anchor="middle" x="863" y="-511.5" font-family="Helvetica,sans-Serif" font-size="10.00">IGraphicsPathBase.h</text>
</g>
<!-- Node2 -->
<g id="node2" class="node"><title>Node2</title>
<polygon fill="white" stroke="#bfbfbf" points="144,-56.5 144,-75.5 200,-75.5 200,-56.5 144,-56.5"/>
<text text-anchor="middle" x="172" y="-63.5" font-family="Helvetica,sans-Serif" font-size="10.00">algorithm</text>
</g>
<!-- Node1&#45;&gt;Node2 -->
<g id="edge1" class="edge"><title>Node1&#45;&gt;Node2</title>
<path fill="none" stroke="midnightblue" d="M807.703,-511.79C617.229,-506.901 0,-484.75 0,-403 0,-403 0,-403 0,-289 0,-192.555 102.697,-112.607 149.381,-81.2458"/>
<polygon fill="midnightblue" stroke="midnightblue" points="151.49,-84.0482 157.925,-75.631 147.645,-78.1985 151.49,-84.0482"/>
</g>
<!-- Node3 -->
<g id="node3" class="node"><title>Node3</title>
<polygon fill="white" stroke="#bfbfbf" points="28.5,-392.5 28.5,-411.5 69.5,-411.5 69.5,-392.5 28.5,-392.5"/>
<text text-anchor="middle" x="49" y="-399.5" font-family="Helvetica,sans-Serif" font-size="10.00">stack</text>
</g>
<!-- Node1&#45;&gt;Node3 -->
<g id="edge2" class="edge"><title>Node1&#45;&gt;Node3</title>
<path fill="none" stroke="midnightblue" d="M807.852,-508.198C679.887,-496.544 353.165,-463.853 84,-412 82.5368,-411.718 81.0439,-411.411 79.5393,-411.086"/>
<polygon fill="midnightblue" stroke="midnightblue" points="80.169,-407.639 69.633,-408.754 78.5646,-414.452 80.169,-407.639"/>
</g>
<!-- Node4 -->
<g id="node4" class="node"><title>Node4</title>
<g id="a_node4"><a xlink:href="_i_graphics_8h.html" target="_top" xlink:title="The lowest level base class of an IGraphics context. ">
<polygon fill="white" stroke="black" points="1122.5,-448.5 1122.5,-467.5 1189.5,-467.5 1189.5,-448.5 1122.5,-448.5"/>
<text text-anchor="middle" x="1156" y="-455.5" font-family="Helvetica,sans-Serif" font-size="10.00">IGraphics.h</text>
</a>
</g>
</g>
<!-- Node1&#45;&gt;Node4 -->
<g id="edge3" class="edge"><title>Node1&#45;&gt;Node4</title>
<path fill="none" stroke="midnightblue" d="M909.427,-504.444C965.061,-494.19 1057.58,-477.139 1112.08,-467.095"/>
<polygon fill="midnightblue" stroke="midnightblue" points="1112.92,-470.498 1122.12,-465.244 1111.65,-463.614 1112.92,-470.498"/>
</g>
<!-- Node27 -->
<g id="node27" class="node"><title>Node27</title>
<polygon fill="white" stroke="#bfbfbf" points="986,-168.5 986,-187.5 1048,-187.5 1048,-168.5 986,-168.5"/>
<text text-anchor="middle" x="1017" y="-175.5" font-family="Helvetica,sans-Serif" font-size="10.00">nanosvg.h</text>
</g>
<!-- Node1&#45;&gt;Node27 -->
<g id="edge86" class="edge"><title>Node1&#45;&gt;Node27</title>
<path fill="none" stroke="midnightblue" d="M918.308,-513.505C1003.33,-513.023 1160.29,-506.735 1198,-468 1256.93,-407.471 1216.88,-350.275 1170,-280 1140.78,-236.194 1085.42,-206.825 1049.92,-191.529"/>
<polygon fill="midnightblue" stroke="midnightblue" points="1051.05,-188.207 1040.47,-187.587 1048.35,-194.667 1051.05,-188.207"/>
</g>
<!-- Node4&#45;&gt;Node3 -->
<g id="edge84" class="edge"><title>Node4&#45;&gt;Node3</title>
<path fill="none" stroke="midnightblue" d="M1122.3,-456.537C963.793,-454.212 291.535,-442.691 84,-412 82.5259,-411.782 81.0241,-411.527 79.5125,-411.244"/>
<polygon fill="midnightblue" stroke="midnightblue" points="80.1001,-407.789 69.5814,-409.057 78.5946,-414.626 80.1001,-407.789"/>
</g>
<!-- Node5 -->
<g id="node5" class="node"><title>Node5</title>
<g id="a_node5"><a xlink:href="_i_plug_constants_8h.html" target="_top" xlink:title="IPlug Constant definitions, Types, magic numbers. ">
<polygon fill="white" stroke="black" points="1587,-56.5 1587,-75.5 1679,-75.5 1679,-56.5 1587,-56.5"/>
<text text-anchor="middle" x="1633" y="-63.5" font-family="Helvetica,sans-Serif" font-size="10.00">IPlugConstants.h</text>
</a>
</g>
</g>
<!-- Node4&#45;&gt;Node5 -->
<g id="edge4" class="edge"><title>Node4&#45;&gt;Node5</title>
<path fill="none" stroke="midnightblue" d="M1189.74,-457.044C1286.42,-456.68 1562.56,-452.067 1642,-412 1749.73,-357.666 1784.36,-286.371 1761,-168 1755.79,-141.603 1756.88,-131.17 1738,-112 1722.39,-96.1535 1700.31,-85.5549 1680.42,-78.6475"/>
<polygon fill="midnightblue" stroke="midnightblue" points="1681.46,-75.3059 1670.87,-75.5462 1679.3,-81.9637 1681.46,-75.3059"/>
</g>
<!-- Node6 -->
<g id="node6" class="node"><title>Node6</title>
<g id="a_node6"><a xlink:href="_i_plug_logger_8h.html" target="_top" xlink:title="IPlug logging a.k.a tracing functionality. ">
<polygon fill="white" stroke="black" points="1218.5,-168.5 1218.5,-187.5 1295.5,-187.5 1295.5,-168.5 1218.5,-168.5"/>
<text text-anchor="middle" x="1257" y="-175.5" font-family="Helvetica,sans-Serif" font-size="10.00">IPlugLogger.h</text>
</a>
</g>
</g>
<!-- Node4&#45;&gt;Node6 -->
<g id="edge5" class="edge"><title>Node4&#45;&gt;Node6</title>
<path fill="none" stroke="midnightblue" d="M1189.55,-452.308C1269.37,-440.205 1464,-404.774 1464,-347 1464,-347 1464,-347 1464,-289 1464,-217.829 1367.4,-192.563 1306.18,-183.696"/>
<polygon fill="midnightblue" stroke="midnightblue" points="1306.31,-180.183 1295.94,-182.317 1305.38,-187.12 1306.31,-180.183"/>
</g>
<!-- Node20 -->
<g id="node20" class="node"><title>Node20</title>
<g id="a_node20"><a xlink:href="_i_graphics_constants_8h_source.html" target="_top" xlink:title="IGraphicsConstants.h">
<polygon fill="white" stroke="black" points="1622,-168.5 1622,-187.5 1734,-187.5 1734,-168.5 1622,-168.5"/>
<text text-anchor="middle" x="1678" y="-175.5" font-family="Helvetica,sans-Serif" font-size="10.00">IGraphicsConstants.h</text>
</a>
</g>
</g>
<!-- Node4&#45;&gt;Node20 -->
<g id="edge28" class="edge"><title>Node4&#45;&gt;Node20</title>
<path fill="none" stroke="midnightblue" d="M1189.85,-457.11C1305.52,-456.59 1678,-447.14 1678,-347 1678,-347 1678,-347 1678,-289 1678,-256.948 1678,-219.643 1678,-197.749"/>
<polygon fill="midnightblue" stroke="midnightblue" points="1681.5,-197.558 1678,-187.558 1674.5,-197.558 1681.5,-197.558"/>
</g>
<!-- Node21 -->
<g id="node21" class="node"><title>Node21</title>
<g id="a_node21"><a xlink:href="_i_graphics_structs_8h_source.html" target="_top" xlink:title="IGraphicsStructs.h">
<polygon fill="white" stroke="black" points="1241,-224.5 1241,-243.5 1339,-243.5 1339,-224.5 1241,-224.5"/>
<text text-anchor="middle" x="1290" y="-231.5" font-family="Helvetica,sans-Serif" font-size="10.00">IGraphicsStructs.h</text>
</a>
</g>
</g>
<!-- Node4&#45;&gt;Node21 -->
<g id="edge30" class="edge"><title>Node4&#45;&gt;Node21</title>
<path fill="none" stroke="midnightblue" d="M1161.25,-448.297C1181.18,-415.286 1252.33,-297.404 1279.42,-252.522"/>
<polygon fill="midnightblue" stroke="midnightblue" points="1282.47,-254.254 1284.64,-243.884 1276.47,-250.636 1282.47,-254.254"/>
</g>
<!-- Node28 -->
<g id="node28" class="node"><title>Node28</title>
<g id="a_node28"><a xlink:href="_i_graphics_utilities_8h_source.html" target="_top" xlink:title="IGraphicsUtilities.h">
<polygon fill="white" stroke="black" points="1492,-280.5 1492,-299.5 1592,-299.5 1592,-280.5 1492,-280.5"/>
<text text-anchor="middle" x="1542" y="-287.5" font-family="Helvetica,sans-Serif" font-size="10.00">IGraphicsUtilities.h</text>
</a>
</g>
</g>
<!-- Node4&#45;&gt;Node28 -->
<g id="edge46" class="edge"><title>Node4&#45;&gt;Node28</title>
<path fill="none" stroke="midnightblue" d="M1189.67,-456.106C1262.52,-453.575 1431.96,-444.287 1478,-412 1513.23,-387.296 1530.64,-337.012 1537.81,-309.687"/>
<polygon fill="midnightblue" stroke="midnightblue" points="1541.25,-310.372 1540.22,-299.828 1534.45,-308.715 1541.25,-310.372"/>
</g>
<!-- Node29 -->
<g id="node29" class="node"><title>Node29</title>
<g id="a_node29"><a xlink:href="_i_graphics_popup_menu_8h.html" target="_top" xlink:title="A class for setting the contents of a pop up menu. ">
<polygon fill="white" stroke="black" points="332.5,-168.5 332.5,-187.5 451.5,-187.5 451.5,-168.5 332.5,-168.5"/>
<text text-anchor="middle" x="392" y="-175.5" font-family="Helvetica,sans-Serif" font-size="10.00">IGraphicsPopupMenu.h</text>
</a>
</g>
</g>
<!-- Node4&#45;&gt;Node29 -->
<g id="edge49" class="edge"><title>Node4&#45;&gt;Node29</title>
<path fill="none" stroke="midnightblue" d="M1122.3,-456.413C999.671,-453.62 579.173,-438.12 479,-356 427.628,-313.886 404.154,-233.951 395.797,-197.704"/>
<polygon fill="midnightblue" stroke="midnightblue" points="399.14,-196.605 393.599,-187.575 392.299,-198.089 399.14,-196.605"/>
</g>
<!-- Node30 -->
<g id="node30" class="node"><title>Node30</title>
<g id="a_node30"><a xlink:href="_i_graphics_editor_delegate_8h.html" target="_top" xlink:title="An editor delgate base class for a SOMETHING that uses IGraphics for it&#39;s UI. ">
<polygon fill="white" stroke="black" points="699.5,-392.5 699.5,-411.5 830.5,-411.5 830.5,-392.5 699.5,-392.5"/>
<text text-anchor="middle" x="765" y="-399.5" font-family="Helvetica,sans-Serif" font-size="10.00">IGraphicsEditorDelegate.h</text>
</a>
</g>
</g>
<!-- Node4&#45;&gt;Node30 -->
<g id="edge56" class="edge"><title>Node4&#45;&gt;Node30</title>
<path fill="none" stroke="midnightblue" d="M1122.33,-452.349C1059.13,-443.622 921.524,-424.617 836.713,-412.904"/>
<polygon fill="midnightblue" stroke="midnightblue" points="837.026,-409.414 826.641,-411.513 836.068,-416.348 837.026,-409.414"/>
</g>
<!-- Node35 -->
<g id="node35" class="node"><title>Node35</title>
<polygon fill="white" stroke="#bfbfbf" points="800,-168.5 800,-187.5 852,-187.5 852,-168.5 800,-168.5"/>
<text text-anchor="middle" x="826" y="-175.5" font-family="Helvetica,sans-Serif" font-size="10.00">memory</text>
</g>
<!-- Node4&#45;&gt;Node35 -->
<g id="edge85" class="edge"><title>Node4&#45;&gt;Node35</title>
<path fill="none" stroke="midnightblue" d="M1156,-448.442C1156,-429.936 1156,-384.812 1156,-347 1156,-347 1156,-347 1156,-289 1156,-227.621 947.94,-194.362 862.232,-183.266"/>
<polygon fill="midnightblue" stroke="midnightblue" points="862.531,-179.776 852.17,-181.992 861.652,-186.72 862.531,-179.776"/>
</g>
<!-- Node38 -->
<g id="node38" class="node"><title>Node38</title>
<polygon fill="white" stroke="#bfbfbf" points="1068.5,-392.5 1068.5,-411.5 1127.5,-411.5 1127.5,-392.5 1068.5,-392.5"/>
<text text-anchor="middle" x="1098" y="-399.5" font-family="Helvetica,sans-Serif" font-size="10.00">heapbuf.h</text>
</g>
<!-- Node4&#45;&gt;Node38 -->
<g id="edge83" class="edge"><title>Node4&#45;&gt;Node38</title>
<path fill="none" stroke="midnightblue" d="M1146.68,-448.324C1138.11,-440.341 1125.19,-428.313 1114.81,-418.653"/>
<polygon fill="midnightblue" stroke="midnightblue" points="1117.19,-416.086 1107.49,-411.834 1112.42,-421.21 1117.19,-416.086"/>
</g>
<!-- Node6&#45;&gt;Node5 -->
<g id="edge15" class="edge"><title>Node6&#45;&gt;Node5</title>
<path fill="none" stroke="midnightblue" d="M1276.43,-168.4C1307.52,-154.902 1370.58,-128.574 1426,-112 1476.29,-96.9587 1534.85,-84.7013 1576.82,-76.7991"/>
<polygon fill="midnightblue" stroke="midnightblue" points="1577.66,-80.2032 1586.86,-74.9342 1576.38,-73.3212 1577.66,-80.2032"/>
</g>
<!-- Node7 -->
<g id="node7" class="node"><title>Node7</title>
<polygon fill="white" stroke="#bfbfbf" points="676.5,-56.5 676.5,-75.5 719.5,-75.5 719.5,-56.5 676.5,-56.5"/>
<text text-anchor="middle" x="698" y="-63.5" font-family="Helvetica,sans-Serif" font-size="10.00">cstdio</text>
</g>
<!-- Node6&#45;&gt;Node7 -->
<g id="edge6" class="edge"><title>Node6&#45;&gt;Node7</title>
<path fill="none" stroke="midnightblue" d="M1218.13,-172.617C1159.79,-165.739 1046.28,-151.189 951,-132 870.441,-115.775 777.168,-89.9528 729.541,-76.2486"/>
<polygon fill="midnightblue" stroke="midnightblue" points="730.396,-72.8526 719.817,-73.4363 728.451,-79.577 730.396,-72.8526"/>
</g>
<!-- Node8 -->
<g id="node8" class="node"><title>Node8</title>
<polygon fill="white" stroke="#bfbfbf" points="1233,-56.5 1233,-75.5 1279,-75.5 1279,-56.5 1233,-56.5"/>
<text text-anchor="middle" x="1256" y="-63.5" font-family="Helvetica,sans-Serif" font-size="10.00">cctype</text>
</g>
<!-- Node6&#45;&gt;Node8 -->
<g id="edge7" class="edge"><title>Node6&#45;&gt;Node8</title>
<path fill="none" stroke="midnightblue" d="M1265.21,-168.437C1275.86,-156.253 1292.37,-133.052 1286,-112 1282.88,-101.705 1276.55,-91.612 1270.5,-83.6023"/>
<polygon fill="midnightblue" stroke="midnightblue" points="1273.22,-81.3995 1264.21,-75.8175 1267.77,-85.7968 1273.22,-81.3995"/>
</g>
<!-- Node9 -->
<g id="node9" class="node"><title>Node9</title>
<polygon fill="white" stroke="#bfbfbf" points="1169.5,-112.5 1169.5,-131.5 1218.5,-131.5 1218.5,-112.5 1169.5,-112.5"/>
<text text-anchor="middle" x="1194" y="-119.5" font-family="Helvetica,sans-Serif" font-size="10.00">cstdarg</text>
</g>
<!-- Node6&#45;&gt;Node9 -->
<g id="edge8" class="edge"><title>Node6&#45;&gt;Node9</title>
<path fill="none" stroke="midnightblue" d="M1246.88,-168.324C1237.47,-160.263 1223.26,-148.077 1211.93,-138.369"/>
<polygon fill="midnightblue" stroke="midnightblue" points="1214.18,-135.684 1204.31,-131.834 1209.62,-140.999 1214.18,-135.684"/>
</g>
<!-- Node10 -->
<g id="node10" class="node"><title>Node10</title>
<polygon fill="white" stroke="#bfbfbf" points="650,-112.5 650,-131.5 696,-131.5 696,-112.5 650,-112.5"/>
<text text-anchor="middle" x="673" y="-119.5" font-family="Helvetica,sans-Serif" font-size="10.00">cstdint</text>
</g>
<!-- Node6&#45;&gt;Node10 -->
<g id="edge9" class="edge"><title>Node6&#45;&gt;Node10</title>
<path fill="none" stroke="midnightblue" d="M1218.23,-173.415C1110.32,-163.438 807.805,-135.465 706.521,-126.1"/>
<polygon fill="midnightblue" stroke="midnightblue" points="706.55,-122.587 696.27,-125.152 705.905,-129.558 706.55,-122.587"/>
</g>
<!-- Node11 -->
<g id="node11" class="node"><title>Node11</title>
<polygon fill="white" stroke="#bfbfbf" points="676,-0.5 676,-19.5 722,-19.5 722,-0.5 676,-0.5"/>
<text text-anchor="middle" x="699" y="-7.5" font-family="Helvetica,sans-Serif" font-size="10.00">cstring</text>
</g>
<!-- Node6&#45;&gt;Node11 -->
<g id="edge10" class="edge"><title>Node6&#45;&gt;Node11</title>
<path fill="none" stroke="midnightblue" d="M1237.07,-168.348C1217.29,-159.624 1186.23,-145.545 1160,-132 1099.51,-100.758 1091.46,-77.916 1027,-56 923.558,-20.8289 792.891,-13.0782 732.462,-11.4186"/>
<polygon fill="midnightblue" stroke="midnightblue" points="732.438,-7.91713 722.358,-11.1809 732.273,-14.9152 732.438,-7.91713"/>
</g>
<!-- Node12 -->
<g id="node12" class="node"><title>Node12</title>
<polygon fill="white" stroke="#bfbfbf" points="1236.5,-112.5 1236.5,-131.5 1277.5,-131.5 1277.5,-112.5 1236.5,-112.5"/>
<text text-anchor="middle" x="1257" y="-119.5" font-family="Helvetica,sans-Serif" font-size="10.00">ctime</text>
</g>
<!-- Node6&#45;&gt;Node12 -->
<g id="edge11" class="edge"><title>Node6&#45;&gt;Node12</title>
<path fill="none" stroke="midnightblue" d="M1257,-168.083C1257,-161.006 1257,-150.861 1257,-141.986"/>
<polygon fill="midnightblue" stroke="midnightblue" points="1260.5,-141.751 1257,-131.751 1253.5,-141.751 1260.5,-141.751"/>
</g>
<!-- Node13 -->
<g id="node13" class="node"><title>Node13</title>
<polygon fill="white" stroke="#bfbfbf" points="496.5,-112.5 496.5,-131.5 545.5,-131.5 545.5,-112.5 496.5,-112.5"/>
<text text-anchor="middle" x="521" y="-119.5" font-family="Helvetica,sans-Serif" font-size="10.00">cassert</text>
</g>
<!-- Node6&#45;&gt;Node13 -->
<g id="edge12" class="edge"><title>Node6&#45;&gt;Node13</title>
<path fill="none" stroke="midnightblue" d="M1218.44,-174.209C1121.43,-167.182 859.418,-148.169 641,-132 612.324,-129.877 579.797,-127.436 555.848,-125.632"/>
<polygon fill="midnightblue" stroke="midnightblue" points="556.055,-122.137 545.82,-124.876 555.529,-129.117 556.055,-122.137"/>
</g>
<!-- Node14 -->
<g id="node14" class="node"><title>Node14</title>
<polygon fill="white" stroke="#bfbfbf" points="782,-56.5 782,-75.5 846,-75.5 846,-56.5 782,-56.5"/>
<text text-anchor="middle" x="814" y="-63.5" font-family="Helvetica,sans-Serif" font-size="10.00">wdlstring.h</text>
</g>
<!-- Node6&#45;&gt;Node14 -->
<g id="edge13" class="edge"><title>Node6&#45;&gt;Node14</title>
<path fill="none" stroke="midnightblue" d="M1218.37,-170.872C1171.92,-163.196 1091.74,-148.971 1024,-132 961.242,-116.277 889.514,-92.8747 848.216,-78.858"/>
<polygon fill="midnightblue" stroke="midnightblue" points="849.238,-75.5086 838.643,-75.5919 846.977,-82.1336 849.238,-75.5086"/>
</g>
<!-- Node15 -->
<g id="node15" class="node"><title>Node15</title>
<polygon fill="white" stroke="#bfbfbf" points="1435,-112.5 1435,-131.5 1487,-131.5 1487,-112.5 1435,-112.5"/>
<text text-anchor="middle" x="1461" y="-119.5" font-family="Helvetica,sans-Serif" font-size="10.00">mutex.h</text>
</g>
<!-- Node6&#45;&gt;Node15 -->
<g id="edge14" class="edge"><title>Node6&#45;&gt;Node15</title>
<path fill="none" stroke="midnightblue" d="M1289.32,-168.444C1326.35,-158.643 1386.84,-142.632 1425.24,-132.465"/>
<polygon fill="midnightblue" stroke="midnightblue" points="1426.2,-135.831 1434.98,-129.889 1424.41,-129.064 1426.2,-135.831"/>
</g>
<!-- Node16 -->
<g id="node16" class="node"><title>Node16</title>
<g id="a_node16"><a xlink:href="_i_plug_utilities_8h.html" target="_top" xlink:title="Utility functions and macros. ">
<polygon fill="white" stroke="black" points="1033,-112.5 1033,-131.5 1113,-131.5 1113,-112.5 1033,-112.5"/>
<text text-anchor="middle" x="1073" y="-119.5" font-family="Helvetica,sans-Serif" font-size="10.00">IPlugUtilities.h</text>
</a>
</g>
</g>
<!-- Node6&#45;&gt;Node16 -->
<g id="edge16" class="edge"><title>Node6&#45;&gt;Node16</title>
<path fill="none" stroke="midnightblue" d="M1227.84,-168.444C1196.49,-159.241 1146.47,-144.562 1111.8,-134.388"/>
<polygon fill="midnightblue" stroke="midnightblue" points="1112.6,-130.974 1102.02,-131.516 1110.63,-137.691 1112.6,-130.974"/>
</g>
<!-- Node16&#45;&gt;Node2 -->
<g id="edge17" class="edge"><title>Node16&#45;&gt;Node2</title>
<path fill="none" stroke="midnightblue" d="M1032.83,-118.592C882.908,-109.607 357.189,-78.099 210.352,-69.2985"/>
<polygon fill="midnightblue" stroke="midnightblue" points="210.243,-65.7858 200.051,-68.6812 209.824,-72.7733 210.243,-65.7858"/>
</g>
<!-- Node16&#45;&gt;Node5 -->
<g id="edge24" class="edge"><title>Node16&#45;&gt;Node5</title>
<path fill="none" stroke="midnightblue" d="M1113.28,-116.764C1127.98,-115.236 1144.74,-113.515 1160,-112 1310.61,-97.0453 1488.31,-80.4107 1576.9,-72.1867"/>
<polygon fill="midnightblue" stroke="midnightblue" points="1577.36,-75.659 1586.99,-71.25 1576.71,-68.6889 1577.36,-75.659"/>
</g>
<!-- Node16&#45;&gt;Node7 -->
<g id="edge19" class="edge"><title>Node16&#45;&gt;Node7</title>
<path fill="none" stroke="midnightblue" d="M1032.87,-115.221C957.9,-104.426 798.021,-81.4031 729.857,-71.5873"/>
<polygon fill="midnightblue" stroke="midnightblue" points="730.128,-68.0904 719.731,-70.1293 729.13,-75.0189 730.128,-68.0904"/>
</g>
<!-- Node16&#45;&gt;Node8 -->
<g id="edge22" class="edge"><title>Node16&#45;&gt;Node8</title>
<path fill="none" stroke="midnightblue" d="M1102,-112.444C1135.02,-102.699 1188.85,-86.8158 1223.33,-76.6414"/>
<polygon fill="midnightblue" stroke="midnightblue" points="1224.33,-79.9938 1232.93,-73.8067 1222.35,-73.28 1224.33,-79.9938"/>
</g>
<!-- Node16&#45;&gt;Node11 -->
<g id="edge21" class="edge"><title>Node16&#45;&gt;Node11</title>
<path fill="none" stroke="midnightblue" d="M1065.65,-112.089C1053.18,-97.6544 1026.37,-69.4242 997,-56 907.811,-15.2353 789.49,-10.0398 732.497,-10.1816"/>
<polygon fill="midnightblue" stroke="midnightblue" points="732.236,-6.68359 722.266,-10.2675 732.295,-13.6833 732.236,-6.68359"/>
</g>
<!-- Node16&#45;&gt;Node14 -->
<g id="edge23" class="edge"><title>Node16&#45;&gt;Node14</title>
<path fill="none" stroke="midnightblue" d="M1032.82,-112.622C984.796,-102.61 904.831,-85.9377 856.016,-75.76"/>
<polygon fill="midnightblue" stroke="midnightblue" points="856.598,-72.3063 846.095,-73.6915 855.17,-79.159 856.598,-72.3063"/>
</g>
<!-- Node17 -->
<g id="node17" class="node"><title>Node17</title>
<polygon fill="white" stroke="#bfbfbf" points="945,-56.5 945,-75.5 989,-75.5 989,-56.5 945,-56.5"/>
<text text-anchor="middle" x="967" y="-63.5" font-family="Helvetica,sans-Serif" font-size="10.00">cmath</text>
</g>
<!-- Node16&#45;&gt;Node17 -->
<g id="edge18" class="edge"><title>Node16&#45;&gt;Node17</title>
<path fill="none" stroke="midnightblue" d="M1055.97,-112.324C1038.97,-103.664 1012.62,-90.2424 993.007,-80.249"/>
<polygon fill="midnightblue" stroke="midnightblue" points="994.488,-77.0752 983.988,-75.6545 991.31,-83.3125 994.488,-77.0752"/>
</g>
<!-- Node18 -->
<g id="node18" class="node"><title>Node18</title>
<polygon fill="white" stroke="#bfbfbf" points="1257.5,-0.5 1257.5,-19.5 1302.5,-19.5 1302.5,-0.5 1257.5,-0.5"/>
<text text-anchor="middle" x="1280" y="-7.5" font-family="Helvetica,sans-Serif" font-size="10.00">cstdlib</text>
</g>
<!-- Node16&#45;&gt;Node18 -->
<g id="edge20" class="edge"><title>Node16&#45;&gt;Node18</title>
<path fill="none" stroke="midnightblue" d="M1089.24,-112.368C1125.22,-93.2515 1211.82,-47.229 1254.86,-24.361"/>
<polygon fill="midnightblue" stroke="midnightblue" points="1256.64,-27.3748 1263.83,-19.5914 1253.36,-21.1933 1256.64,-27.3748"/>
</g>
<!-- Node19 -->
<g id="node19" class="node"><title>Node19</title>
<g id="a_node19"><a xlink:href="_i_plug_platform_8h.html" target="_top" xlink:title="Include to get consistently named preprocessor macros for different platforms and logging functionali...">
<polygon fill="white" stroke="black" points="1331,-56.5 1331,-75.5 1415,-75.5 1415,-56.5 1331,-56.5"/>
<text text-anchor="middle" x="1373" y="-63.5" font-family="Helvetica,sans-Serif" font-size="10.00">IPlugPlatform.h</text>
</a>
</g>
</g>
<!-- Node16&#45;&gt;Node19 -->
<g id="edge25" class="edge"><title>Node16&#45;&gt;Node19</title>
<path fill="none" stroke="midnightblue" d="M1113.15,-113.773C1166.73,-104.129 1261.7,-87.0332 1320.79,-76.3972"/>
<polygon fill="midnightblue" stroke="midnightblue" points="1321.45,-79.8351 1330.67,-74.6189 1320.21,-72.9459 1321.45,-79.8351"/>
</g>
<!-- Node19&#45;&gt;Node11 -->
<g id="edge26" class="edge"><title>Node19&#45;&gt;Node11</title>
<path fill="none" stroke="midnightblue" d="M1330.65,-60.2699C1317.04,-58.8155 1301.89,-57.2658 1288,-56 1076.5,-36.728 821.764,-19.1894 732.133,-13.1903"/>
<polygon fill="midnightblue" stroke="midnightblue" points="732.246,-9.69016 722.035,-12.5166 731.78,-16.6746 732.246,-9.69016"/>
</g>
<!-- Node19&#45;&gt;Node18 -->
<g id="edge27" class="edge"><title>Node19&#45;&gt;Node18</title>
<path fill="none" stroke="midnightblue" d="M1358.06,-56.324C1343.41,-47.8215 1320.87,-34.7288 1303.76,-24.7975"/>
<polygon fill="midnightblue" stroke="midnightblue" points="1305.31,-21.6491 1294.9,-19.6545 1301.8,-27.7027 1305.31,-21.6491"/>
</g>
<!-- Node20&#45;&gt;Node19 -->
<g id="edge29" class="edge"><title>Node20&#45;&gt;Node19</title>
<path fill="none" stroke="midnightblue" d="M1671.33,-168.204C1660,-153.935 1635.52,-125.937 1608,-112 1549.88,-82.5636 1474.76,-72.3054 1425.3,-68.775"/>
<polygon fill="midnightblue" stroke="midnightblue" points="1425.35,-65.2712 1415.14,-68.1192 1424.9,-72.2567 1425.35,-65.2712"/>
</g>
<!-- Node21&#45;&gt;Node2 -->
<g id="edge34" class="edge"><title>Node21&#45;&gt;Node2</title>
<path fill="none" stroke="midnightblue" d="M1240.8,-231.794C1049.61,-226.966 364.541,-208.317 323,-188 283.073,-168.472 292.765,-139.694 258,-112 241.473,-98.8347 220.504,-87.7703 203.409,-79.9073"/>
<polygon fill="midnightblue" stroke="midnightblue" points="204.414,-76.5235 193.854,-75.6559 201.568,-82.919 204.414,-76.5235"/>
</g>
<!-- Node21&#45;&gt;Node6 -->
<g id="edge44" class="edge"><title>Node21&#45;&gt;Node6</title>
<path fill="none" stroke="midnightblue" d="M1284.55,-224.083C1279.99,-216.613 1273.33,-205.724 1267.71,-196.52"/>
<polygon fill="midnightblue" stroke="midnightblue" points="1270.55,-194.459 1262.35,-187.751 1264.58,-198.109 1270.55,-194.459"/>
</g>
<!-- Node21&#45;&gt;Node13 -->
<g id="edge32" class="edge"><title>Node21&#45;&gt;Node13</title>
<path fill="none" stroke="midnightblue" d="M1242.82,-224.478C1203.93,-216.825 1147.63,-204.293 1100,-188 1079.68,-181.048 1076.78,-173.424 1056,-168 1031.76,-161.674 670.757,-134.224 555.848,-125.602"/>
<polygon fill="midnightblue" stroke="midnightblue" points="556.058,-122.108 545.824,-124.851 555.534,-129.088 556.058,-122.108"/>
</g>
<!-- Node21&#45;&gt;Node14 -->
<g id="edge39" class="edge"><title>Node21&#45;&gt;Node14</title>
<path fill="none" stroke="midnightblue" d="M1249.17,-224.479C1215.87,-216.866 1167.97,-204.385 1128,-188 1111.06,-181.058 1108.65,-175.593 1092,-168 1069.01,-157.518 917.045,-103.453 848.014,-79.0163"/>
<polygon fill="midnightblue" stroke="midnightblue" points="849.051,-75.6706 838.457,-75.6346 846.716,-82.2697 849.051,-75.6706"/>
</g>
<!-- Node21&#45;&gt;Node15 -->
<g id="edge38" class="edge"><title>Node21&#45;&gt;Node15</title>
<path fill="none" stroke="midnightblue" d="M1339.16,-227.169C1385.64,-220.524 1450.53,-207.928 1466,-188 1476.18,-174.892 1473.06,-155.477 1468.53,-141.279"/>
<polygon fill="midnightblue" stroke="midnightblue" points="1471.72,-139.814 1464.99,-131.629 1465.15,-142.223 1471.72,-139.814"/>
</g>
<!-- Node21&#45;&gt;Node16 -->
<g id="edge43" class="edge"><title>Node21&#45;&gt;Node16</title>
<path fill="none" stroke="midnightblue" d="M1274.03,-224.42C1250.5,-211.824 1205.07,-187.687 1166,-168 1144.04,-156.934 1118.93,-144.815 1100.34,-135.943"/>
<polygon fill="midnightblue" stroke="midnightblue" points="1101.8,-132.761 1091.26,-131.623 1098.79,-139.082 1101.8,-132.761"/>
</g>
<!-- Node21&#45;&gt;Node17 -->
<g id="edge31" class="edge"><title>Node21&#45;&gt;Node17</title>
<path fill="none" stroke="midnightblue" d="M1262.98,-224.378C1237.57,-215.997 1198.68,-202.447 1166,-188 1148.54,-180.282 1145.51,-175.588 1128,-168 1083.12,-148.554 1064.59,-159.297 1024,-132 1005.2,-119.357 988.755,-99.027 978.423,-84.4693"/>
<polygon fill="midnightblue" stroke="midnightblue" points="981.083,-82.1584 972.552,-75.8753 975.303,-86.1069 981.083,-82.1584"/>
</g>
<!-- Node21&#45;&gt;Node19 -->
<g id="edge42" class="edge"><title>Node21&#45;&gt;Node19</title>
<path fill="none" stroke="midnightblue" d="M1294.46,-224.075C1307.64,-197.719 1346.56,-119.878 1364.17,-84.6608"/>
<polygon fill="midnightblue" stroke="midnightblue" points="1367.37,-86.0777 1368.72,-75.5681 1361.11,-82.9471 1367.37,-86.0777"/>
</g>
<!-- Node21&#45;&gt;Node20 -->
<g id="edge45" class="edge"><title>Node21&#45;&gt;Node20</title>
<path fill="none" stroke="midnightblue" d="M1339.14,-226.161C1408.23,-216.546 1534.25,-199.006 1611.61,-188.239"/>
<polygon fill="midnightblue" stroke="midnightblue" points="1612.31,-191.676 1621.73,-186.831 1611.34,-184.743 1612.31,-191.676"/>
</g>
<!-- Node22 -->
<g id="node22" class="node"><title>Node22</title>
<polygon fill="white" stroke="#bfbfbf" points="908.5,-168.5 908.5,-187.5 967.5,-187.5 967.5,-168.5 908.5,-168.5"/>
<text text-anchor="middle" x="938" y="-175.5" font-family="Helvetica,sans-Serif" font-size="10.00">functional</text>
</g>
<!-- Node21&#45;&gt;Node22 -->
<g id="edge33" class="edge"><title>Node21&#45;&gt;Node22</title>
<path fill="none" stroke="midnightblue" d="M1241,-227.249C1181.2,-219.943 1076.82,-206.268 977.645,-187.98"/>
<polygon fill="midnightblue" stroke="midnightblue" points="978.228,-184.529 967.756,-186.138 976.946,-191.41 978.228,-184.529"/>
</g>
<!-- Node23 -->
<g id="node23" class="node"><title>Node23</title>
<polygon fill="white" stroke="#bfbfbf" points="1514.5,-168.5 1514.5,-187.5 1565.5,-187.5 1565.5,-168.5 1514.5,-168.5"/>
<text text-anchor="middle" x="1540" y="-175.5" font-family="Helvetica,sans-Serif" font-size="10.00">numeric</text>
</g>
<!-- Node21&#45;&gt;Node23 -->
<g id="edge35" class="edge"><title>Node21&#45;&gt;Node23</title>
<path fill="none" stroke="midnightblue" d="M1330.28,-224.495C1372.58,-215.536 1441,-200.958 1500,-188 1501.43,-187.685 1502.9,-187.362 1504.37,-187.035"/>
<polygon fill="midnightblue" stroke="midnightblue" points="1505.19,-190.44 1514.19,-184.848 1503.67,-183.607 1505.19,-190.44"/>
</g>
<!-- Node24 -->
<g id="node24" class="node"><title>Node24</title>
<polygon fill="white" stroke="#bfbfbf" points="1352,-168.5 1352,-187.5 1398,-187.5 1398,-168.5 1352,-168.5"/>
<text text-anchor="middle" x="1375" y="-175.5" font-family="Helvetica,sans-Serif" font-size="10.00">chrono</text>
</g>
<!-- Node21&#45;&gt;Node24 -->
<g id="edge36" class="edge"><title>Node21&#45;&gt;Node24</title>
<path fill="none" stroke="midnightblue" d="M1303.66,-224.324C1316.92,-215.9 1337.27,-202.971 1352.85,-193.074"/>
<polygon fill="midnightblue" stroke="midnightblue" points="1354.81,-195.971 1361.38,-187.655 1351.06,-190.063 1354.81,-195.971"/>
</g>
<!-- Node25 -->
<g id="node25" class="node"><title>Node25</title>
<polygon fill="white" stroke="#bfbfbf" points="1416.5,-168.5 1416.5,-187.5 1457.5,-187.5 1457.5,-168.5 1416.5,-168.5"/>
<text text-anchor="middle" x="1437" y="-175.5" font-family="Helvetica,sans-Serif" font-size="10.00">string</text>
</g>
<!-- Node21&#45;&gt;Node25 -->
<g id="edge37" class="edge"><title>Node21&#45;&gt;Node25</title>
<path fill="none" stroke="midnightblue" d="M1313.29,-224.444C1338.53,-215.173 1378.89,-200.346 1406.61,-190.165"/>
<polygon fill="midnightblue" stroke="midnightblue" points="1408.01,-193.377 1416.19,-186.643 1405.6,-186.806 1408.01,-193.377"/>
</g>
<!-- Node26 -->
<g id="node26" class="node"><title>Node26</title>
<polygon fill="white" stroke="#bfbfbf" points="200.5,-112.5 200.5,-131.5 249.5,-131.5 249.5,-112.5 200.5,-112.5"/>
<text text-anchor="middle" x="225" y="-119.5" font-family="Helvetica,sans-Serif" font-size="10.00">ptrlist.h</text>
</g>
<!-- Node21&#45;&gt;Node26 -->
<g id="edge40" class="edge"><title>Node21&#45;&gt;Node26</title>
<path fill="none" stroke="midnightblue" d="M1240.84,-231.776C1045.65,-226.787 333.88,-207.343 290,-188 267.05,-177.884 247.782,-155.692 236.324,-140.063"/>
<polygon fill="midnightblue" stroke="midnightblue" points="239.113,-137.945 230.511,-131.761 233.379,-141.96 239.113,-137.945"/>
</g>
<!-- Node21&#45;&gt;Node27 -->
<g id="edge41" class="edge"><title>Node21&#45;&gt;Node27</title>
<path fill="none" stroke="midnightblue" d="M1246.71,-224.489C1200.84,-215.465 1126.31,-200.777 1062,-188 1060.91,-187.783 1059.8,-187.562 1058.68,-187.339"/>
<polygon fill="midnightblue" stroke="midnightblue" points="1058.96,-183.827 1048.47,-185.304 1057.59,-190.692 1058.96,-183.827"/>
</g>
<!-- Node28&#45;&gt;Node20 -->
<g id="edge47" class="edge"><title>Node28&#45;&gt;Node20</title>
<path fill="none" stroke="midnightblue" d="M1552.67,-280.368C1575.71,-261.733 1630.36,-217.532 1659.29,-194.134"/>
<polygon fill="midnightblue" stroke="midnightblue" points="1661.8,-196.601 1667.38,-187.591 1657.4,-191.159 1661.8,-196.601"/>
</g>
<!-- Node28&#45;&gt;Node21 -->
<g id="edge48" class="edge"><title>Node28&#45;&gt;Node21</title>
<path fill="none" stroke="midnightblue" d="M1502.07,-280.444C1458.11,-271.023 1387.37,-255.866 1339.82,-245.675"/>
<polygon fill="midnightblue" stroke="midnightblue" points="1340.25,-242.189 1329.74,-243.516 1338.79,-249.034 1340.25,-242.189"/>
</g>
<!-- Node29&#45;&gt;Node7 -->
<g id="edge52" class="edge"><title>Node29&#45;&gt;Node7</title>
<path fill="none" stroke="midnightblue" d="M392.524,-168.264C393.875,-154.08 398.71,-126.202 416,-112 453.742,-80.9983 600.435,-71.0613 666.012,-68.1282"/>
<polygon fill="midnightblue" stroke="midnightblue" points="666.334,-71.6179 676.178,-67.7011 666.04,-64.6241 666.334,-71.6179"/>
</g>
<!-- Node29&#45;&gt;Node11 -->
<g id="edge51" class="edge"><title>Node29&#45;&gt;Node11</title>
<path fill="none" stroke="midnightblue" d="M390.086,-168.347C387.621,-154.776 385.058,-128.35 398,-112 464.133,-28.4488 602.028,-13.4895 665.593,-11.173"/>
<polygon fill="midnightblue" stroke="midnightblue" points="665.952,-14.6644 675.85,-10.887 665.757,-7.66715 665.952,-14.6644"/>
</g>
<!-- Node29&#45;&gt;Node13 -->
<g id="edge53" class="edge"><title>Node29&#45;&gt;Node13</title>
<path fill="none" stroke="midnightblue" d="M412.44,-168.444C433.67,-159.557 467.099,-145.563 491.255,-135.451"/>
<polygon fill="midnightblue" stroke="midnightblue" points="492.782,-138.606 500.655,-131.516 490.079,-132.149 492.782,-138.606"/>
</g>
<!-- Node29&#45;&gt;Node14 -->
<g id="edge54" class="edge"><title>Node29&#45;&gt;Node14</title>
<path fill="none" stroke="midnightblue" d="M397.257,-168.47C406.653,-154.063 427.816,-125.191 454,-112 468.049,-104.922 679.455,-81.4816 771.599,-71.5307"/>
<polygon fill="midnightblue" stroke="midnightblue" points="772.136,-74.9932 781.703,-70.442 771.386,-68.0335 772.136,-74.9932"/>
</g>
<!-- Node29&#45;&gt;Node17 -->
<g id="edge50" class="edge"><title>Node29&#45;&gt;Node17</title>
<path fill="none" stroke="midnightblue" d="M404.051,-168.251C427.513,-151.292 477.838,-115.311 487,-112 508.074,-104.385 829.842,-78.0156 934.43,-69.6017"/>
<polygon fill="midnightblue" stroke="midnightblue" points="935.008,-73.0667 944.695,-68.7775 934.447,-66.0892 935.008,-73.0667"/>
</g>
<!-- Node29&#45;&gt;Node26 -->
<g id="edge55" class="edge"><title>Node29&#45;&gt;Node26</title>
<path fill="none" stroke="midnightblue" d="M365.538,-168.444C336.824,-159.159 290.871,-144.3 259.38,-134.117"/>
<polygon fill="midnightblue" stroke="midnightblue" points="260.296,-130.735 249.705,-130.988 258.143,-137.395 260.296,-130.735"/>
</g>
<!-- Node31 -->
<g id="node31" class="node"><title>Node31</title>
<g id="a_node31"><a xlink:href="_i_plug_editor_delegate_8h.html" target="_top" xlink:title="This pure virtual interface delegates communication in both directions between a UI editor and someth...">
<polygon fill="white" stroke="black" points="488,-336.5 488,-355.5 600,-355.5 600,-336.5 488,-336.5"/>
<text text-anchor="middle" x="544" y="-343.5" font-family="Helvetica,sans-Serif" font-size="10.00">IPlugEditorDelegate.h</text>
</a>
</g>
</g>
<!-- Node30&#45;&gt;Node31 -->
<g id="edge57" class="edge"><title>Node30&#45;&gt;Node31</title>
<path fill="none" stroke="midnightblue" d="M729.982,-392.444C691.752,-383.102 630.433,-368.119 588.743,-357.933"/>
<polygon fill="midnightblue" stroke="midnightblue" points="589.399,-354.49 578.854,-355.516 587.738,-361.29 589.399,-354.49"/>
</g>
<!-- Node31&#45;&gt;Node11 -->
<g id="edge59" class="edge"><title>Node31&#45;&gt;Node11</title>
<path fill="none" stroke="midnightblue" d="M493.035,-336.475C429.057,-325.583 325.628,-307.269 309,-300 186.957,-246.65 44.6406,-153.856 135,-56 171.107,-16.8975 550.329,-11.7505 665.812,-11.0915"/>
<polygon fill="midnightblue" stroke="midnightblue" points="665.856,-14.5914 675.838,-11.042 665.821,-7.59148 665.856,-14.5914"/>
</g>
<!-- Node31&#45;&gt;Node13 -->
<g id="edge58" class="edge"><title>Node31&#45;&gt;Node13</title>
<path fill="none" stroke="midnightblue" d="M538.566,-336.244C528.37,-319.242 506.708,-280.238 499,-244 491.257,-207.598 504.257,-164.672 513.343,-140.981"/>
<polygon fill="midnightblue" stroke="midnightblue" points="516.655,-142.126 517.154,-131.543 510.164,-139.505 516.655,-142.126"/>
</g>
<!-- Node31&#45;&gt;Node26 -->
<g id="edge61" class="edge"><title>Node31&#45;&gt;Node26</title>
<path fill="none" stroke="midnightblue" d="M487.738,-337.544C408.735,-323.718 267.595,-285.971 205,-188 195.6,-173.287 203.733,-153.884 212.28,-140.117"/>
<polygon fill="midnightblue" stroke="midnightblue" points="215.331,-141.854 218.053,-131.615 209.54,-137.922 215.331,-141.854"/>
</g>
<!-- Node32 -->
<g id="node32" class="node"><title>Node32</title>
<polygon fill="white" stroke="#bfbfbf" points="546.5,-280.5 546.5,-299.5 595.5,-299.5 595.5,-280.5 546.5,-280.5"/>
<text text-anchor="middle" x="571" y="-287.5" font-family="Helvetica,sans-Serif" font-size="10.00">stdint.h</text>
</g>
<!-- Node31&#45;&gt;Node32 -->
<g id="edge60" class="edge"><title>Node31&#45;&gt;Node32</title>
<path fill="none" stroke="midnightblue" d="M548.459,-336.083C552.154,-328.691 557.523,-317.953 562.094,-308.811"/>
<polygon fill="midnightblue" stroke="midnightblue" points="565.283,-310.261 566.624,-299.751 559.022,-307.13 565.283,-310.261"/>
</g>
<!-- Node33 -->
<g id="node33" class="node"><title>Node33</title>
<g id="a_node33"><a xlink:href="_i_plug_parameter_8h.html" target="_top" xlink:title="IPlug&#39;s parameter class. ">
<polygon fill="white" stroke="black" points="688,-224.5 688,-243.5 780,-243.5 780,-224.5 688,-224.5"/>
<text text-anchor="middle" x="734" y="-231.5" font-family="Helvetica,sans-Serif" font-size="10.00">IPlugParameter.h</text>
</a>
</g>
</g>
<!-- Node31&#45;&gt;Node33 -->
<g id="edge62" class="edge"><title>Node31&#45;&gt;Node33</title>
<path fill="none" stroke="midnightblue" d="M600.001,-340.081C632.531,-334.703 672.573,-323.465 701,-300 715.466,-288.059 724.243,-268.156 729.07,-253.513"/>
<polygon fill="midnightblue" stroke="midnightblue" points="732.534,-254.143 732.019,-243.561 725.822,-252.154 732.534,-254.143"/>
</g>
<!-- Node36 -->
<g id="node36" class="node"><title>Node36</title>
<g id="a_node36"><a xlink:href="_i_plug_midi_8h.html" target="_top" xlink:title="MIDI and sysex structs/utilites. ">
<polygon fill="white" stroke="black" points="508.5,-224.5 508.5,-243.5 573.5,-243.5 573.5,-224.5 508.5,-224.5"/>
<text text-anchor="middle" x="541" y="-231.5" font-family="Helvetica,sans-Serif" font-size="10.00">IPlugMidi.h</text>
</a>
</g>
</g>
<!-- Node31&#45;&gt;Node36 -->
<g id="edge69" class="edge"><title>Node31&#45;&gt;Node36</title>
<path fill="none" stroke="midnightblue" d="M542.261,-336.419C540.528,-327.399 537.987,-312.77 537,-300 535.8,-284.481 537.048,-266.855 538.457,-253.877"/>
<polygon fill="midnightblue" stroke="midnightblue" points="541.945,-254.187 539.68,-243.837 534.997,-253.341 541.945,-254.187"/>
</g>
<!-- Node37 -->
<g id="node37" class="node"><title>Node37</title>
<g id="a_node37"><a xlink:href="_i_plug_structs_8h_source.html" target="_top" xlink:title="IPlugStructs.h">
<polygon fill="white" stroke="black" points="613.5,-280.5 613.5,-299.5 692.5,-299.5 692.5,-280.5 613.5,-280.5"/>
<text text-anchor="middle" x="653" y="-287.5" font-family="Helvetica,sans-Serif" font-size="10.00">IPlugStructs.h</text>
</a>
</g>
</g>
<!-- Node31&#45;&gt;Node37 -->
<g id="edge75" class="edge"><title>Node31&#45;&gt;Node37</title>
<path fill="none" stroke="midnightblue" d="M561.513,-336.324C579.072,-327.625 606.331,-314.12 626.531,-304.113"/>
<polygon fill="midnightblue" stroke="midnightblue" points="628.124,-307.23 635.531,-299.655 625.016,-300.958 628.124,-307.23"/>
</g>
<!-- Node33&#45;&gt;Node11 -->
<g id="edge64" class="edge"><title>Node33&#45;&gt;Node11</title>
<path fill="none" stroke="midnightblue" d="M687.69,-229.58C582.77,-221.611 335.069,-201.462 323,-188 269.68,-128.524 167.868,-194.228 434,-56 510.131,-16.4578 613.576,-10.5011 665.847,-10.285"/>
<polygon fill="midnightblue" stroke="midnightblue" points="665.887,-13.7851 675.896,-10.313 665.906,-6.7851 665.887,-13.7851"/>
</g>
<!-- Node33&#45;&gt;Node14 -->
<g id="edge67" class="edge"><title>Node33&#45;&gt;Node14</title>
<path fill="none" stroke="midnightblue" d="M738,-224.133C743.68,-211.587 754.456,-187.959 764,-168 778.016,-138.689 794.886,-104.908 805.011,-84.7879"/>
<polygon fill="midnightblue" stroke="midnightblue" points="808.263,-86.1129 809.64,-75.6079 802.012,-82.9612 808.263,-86.1129"/>
</g>
<!-- Node33&#45;&gt;Node16 -->
<g id="edge68" class="edge"><title>Node33&#45;&gt;Node16</title>
<path fill="none" stroke="midnightblue" d="M738.973,-224.105C747.546,-209.693 766.562,-181.496 791,-168 829.855,-146.543 952.318,-133.087 1022.42,-126.937"/>
<polygon fill="midnightblue" stroke="midnightblue" points="1023.12,-130.389 1032.78,-126.047 1022.52,-123.415 1023.12,-130.389"/>
</g>
<!-- Node33&#45;&gt;Node22 -->
<g id="edge65" class="edge"><title>Node33&#45;&gt;Node22</title>
<path fill="none" stroke="midnightblue" d="M766.324,-224.444C802.215,-214.943 860.15,-199.607 898.65,-189.416"/>
<polygon fill="midnightblue" stroke="midnightblue" points="899.705,-192.758 908.476,-186.815 897.914,-185.991 899.705,-192.758"/>
</g>
<!-- Node34 -->
<g id="node34" class="node"><title>Node34</title>
<polygon fill="white" stroke="#bfbfbf" points="660,-168.5 660,-187.5 706,-187.5 706,-168.5 660,-168.5"/>
<text text-anchor="middle" x="683" y="-175.5" font-family="Helvetica,sans-Serif" font-size="10.00">atomic</text>
</g>
<!-- Node33&#45;&gt;Node34 -->
<g id="edge63" class="edge"><title>Node33&#45;&gt;Node34</title>
<path fill="none" stroke="midnightblue" d="M725.578,-224.083C718.152,-216.22 707.148,-204.569 698.188,-195.081"/>
<polygon fill="midnightblue" stroke="midnightblue" points="700.676,-192.618 691.265,-187.751 695.587,-197.424 700.676,-192.618"/>
</g>
<!-- Node33&#45;&gt;Node35 -->
<g id="edge66" class="edge"><title>Node33&#45;&gt;Node35</title>
<path fill="none" stroke="midnightblue" d="M748.781,-224.324C763.267,-215.822 785.573,-202.729 802.493,-192.797"/>
<polygon fill="midnightblue" stroke="midnightblue" points="804.403,-195.735 811.255,-187.655 800.859,-189.698 804.403,-195.735"/>
</g>
<!-- Node36&#45;&gt;Node2 -->
<g id="edge73" class="edge"><title>Node36&#45;&gt;Node2</title>
<path fill="none" stroke="midnightblue" d="M508.236,-232.538C434.715,-230.874 259.479,-223.218 214,-188 182.156,-163.341 174.348,-113.005 172.505,-85.6694"/>
<polygon fill="midnightblue" stroke="midnightblue" points="175.993,-85.3292 172.027,-75.5045 169,-85.6577 175.993,-85.3292"/>
</g>
<!-- Node36&#45;&gt;Node6 -->
<g id="edge74" class="edge"><title>Node36&#45;&gt;Node6</title>
<path fill="none" stroke="midnightblue" d="M573.626,-230.539C688.009,-221.913 1071.29,-193.006 1208.02,-182.694"/>
<polygon fill="midnightblue" stroke="midnightblue" points="1208.49,-186.169 1218.2,-181.926 1207.96,-179.188 1208.49,-186.169"/>
</g>
<!-- Node36&#45;&gt;Node7 -->
<g id="edge72" class="edge"><title>Node36&#45;&gt;Node7</title>
<path fill="none" stroke="midnightblue" d="M542.843,-224.479C547.921,-202.886 564.048,-145.367 598,-112 616.99,-93.3378 645.075,-81.636 666.651,-74.8592"/>
<polygon fill="midnightblue" stroke="midnightblue" points="667.747,-78.1852 676.351,-72.002 665.769,-71.4705 667.747,-78.1852"/>
</g>
<!-- Node36&#45;&gt;Node10 -->
<g id="edge71" class="edge"><title>Node36&#45;&gt;Node10</title>
<path fill="none" stroke="midnightblue" d="M551.358,-224.368C573.72,-205.733 626.761,-161.532 654.839,-138.134"/>
<polygon fill="midnightblue" stroke="midnightblue" points="657.249,-140.682 662.69,-131.591 652.767,-135.305 657.249,-140.682"/>
</g>
<!-- Node36&#45;&gt;Node13 -->
<g id="edge70" class="edge"><title>Node36&#45;&gt;Node13</title>
<path fill="none" stroke="midnightblue" d="M539.431,-224.368C536.203,-206.617 528.758,-165.666 524.381,-141.597"/>
<polygon fill="midnightblue" stroke="midnightblue" points="527.795,-140.804 522.562,-131.591 520.907,-142.056 527.795,-140.804"/>
</g>
<!-- Node37&#45;&gt;Node2 -->
<g id="edge76" class="edge"><title>Node37&#45;&gt;Node2</title>
<path fill="none" stroke="midnightblue" d="M613.447,-281.568C610.254,-281.019 607.075,-280.489 604,-280 424.276,-251.395 341.847,-307.966 205,-188 183.277,-168.956 179.601,-159.871 172,-132 167.866,-116.843 168.229,-98.9482 169.419,-85.7759"/>
<polygon fill="midnightblue" stroke="midnightblue" points="172.924,-85.9372 170.587,-75.6034 165.969,-85.139 172.924,-85.9372"/>
</g>
<!-- Node37&#45;&gt;Node5 -->
<g id="edge79" class="edge"><title>Node37&#45;&gt;Node5</title>
<path fill="none" stroke="midnightblue" d="M692.767,-288.539C880.676,-285.94 1673.37,-270.142 1742,-188 1775.71,-147.658 1702.95,-102.086 1660.6,-80.1633"/>
<polygon fill="midnightblue" stroke="midnightblue" points="1662.07,-76.9881 1651.57,-75.6076 1658.92,-83.2375 1662.07,-76.9881"/>
</g>
<!-- Node37&#45;&gt;Node14 -->
<g id="edge77" class="edge"><title>Node37&#45;&gt;Node14</title>
<path fill="none" stroke="midnightblue" d="M648.882,-280.481C636.157,-252.796 600.685,-164.144 641,-112 656.883,-91.4571 725.925,-78.5427 771.84,-72.0615"/>
<polygon fill="midnightblue" stroke="midnightblue" points="772.392,-75.5188 781.828,-70.7009 771.447,-68.5828 772.392,-75.5188"/>
</g>
<!-- Node37&#45;&gt;Node16 -->
<g id="edge82" class="edge"><title>Node37&#45;&gt;Node16</title>
<path fill="none" stroke="midnightblue" d="M687.6,-280.492C715.745,-272.885 756.052,-260.409 789,-244 842.191,-217.509 844.958,-192.709 899,-168 938.774,-149.815 987.155,-138.053 1022.79,-131.132"/>
<polygon fill="midnightblue" stroke="midnightblue" points="1023.77,-134.51 1032.96,-129.223 1022.48,-127.63 1023.77,-134.51"/>
</g>
<!-- Node37&#45;&gt;Node19 -->
<g id="edge80" class="edge"><title>Node37&#45;&gt;Node19</title>
<path fill="none" stroke="midnightblue" d="M692.779,-287.9C862.359,-282.786 1518.76,-258.518 1574,-188 1619.7,-129.66 1498.91,-93.1271 1425.2,-76.8727"/>
<polygon fill="midnightblue" stroke="midnightblue" points="1425.65,-73.3888 1415.14,-74.7135 1424.18,-80.2331 1425.65,-73.3888"/>
</g>
<!-- Node37&#45;&gt;Node26 -->
<g id="edge78" class="edge"><title>Node37&#45;&gt;Node26</title>
<path fill="none" stroke="midnightblue" d="M613.442,-281.282C507.88,-260.505 226.649,-203.889 214,-188 203.446,-174.742 208.78,-155.077 215.154,-140.851"/>
<polygon fill="midnightblue" stroke="midnightblue" points="218.426,-142.132 219.767,-131.623 212.165,-139.003 218.426,-142.132"/>
</g>
<!-- Node37&#45;&gt;Node36 -->
<g id="edge81" class="edge"><title>Node37&#45;&gt;Node36</title>
<path fill="none" stroke="midnightblue" d="M635.005,-280.324C616.962,-271.625 588.953,-258.12 568.197,-248.113"/>
<polygon fill="midnightblue" stroke="midnightblue" points="569.478,-244.845 558.95,-243.655 566.438,-251.15 569.478,-244.845"/>
</g>
</g>
</svg>
