<?xml version="1.0" encoding="UTF-8" standalone="no"?>
<!DOCTYPE svg PUBLIC "-//W3C//DTD SVG 1.1//EN"
 "http://www.w3.org/Graphics/SVG/1.1/DTD/svg11.dtd">
<!-- Generated by graphviz version 2.36.0 (20140111.2315)
 -->
<!-- Title: IGraphics.h Pages: 1 -->
<svg width="1927pt" height="476pt"
 viewBox="0.00 0.00 1927.00 476.00" xmlns="http://www.w3.org/2000/svg" xmlns:xlink="http://www.w3.org/1999/xlink">
<g id="graph0" class="graph" transform="scale(1 1) rotate(0) translate(4 472)">
<title>IGraphics.h</title>
<polygon fill="white" stroke="none" points="-4,4 -4,-472 1923,-472 1923,4 -4,4"/>
<!-- Node1 -->
<g id="node1" class="node"><title>Node1</title>
<polygon fill="#bfbfbf" stroke="black" points="906.5,-448.5 906.5,-467.5 973.5,-467.5 973.5,-448.5 906.5,-448.5"/>
<text text-anchor="middle" x="940" y="-455.5" font-family="Helvetica,sans-Serif" font-size="10.00">IGraphics.h</text>
</g>
<!-- Node2 -->
<g id="node2" class="node"><title>Node2</title>
<g id="a_node2"><a xlink:href="_i_plug_constants_8h.html" target="_top" xlink:title="IPlug Constant definitions, Types, magic numbers. ">
<polygon fill="white" stroke="black" points="523,-56.5 523,-75.5 615,-75.5 615,-56.5 523,-56.5"/>
<text text-anchor="middle" x="569" y="-63.5" font-family="Helvetica,sans-Serif" font-size="10.00">IPlugConstants.h</text>
</a>
</g>
</g>
<!-- Node1&#45;&gt;Node2 -->
<g id="edge1" class="edge"><title>Node1&#45;&gt;Node2</title>
<path fill="none" stroke="midnightblue" d="M906.491,-456.893C787.908,-454.452 387.126,-428.148 235,-188 170.111,-85.5647 401.903,-69.1016 512.939,-66.976"/>
<polygon fill="midnightblue" stroke="midnightblue" points="513.029,-70.4751 522.972,-66.8167 512.918,-63.476 513.029,-70.4751"/>
</g>
<!-- Node3 -->
<g id="node3" class="node"><title>Node3</title>
<g id="a_node3"><a xlink:href="_i_plug_logger_8h.html" target="_top" xlink:title="IPlug logging a.k.a tracing functionality. ">
<polygon fill="white" stroke="black" points="670.5,-168.5 670.5,-187.5 747.5,-187.5 747.5,-168.5 670.5,-168.5"/>
<text text-anchor="middle" x="709" y="-175.5" font-family="Helvetica,sans-Serif" font-size="10.00">IPlugLogger.h</text>
</a>
</g>
</g>
<!-- Node1&#45;&gt;Node3 -->
<g id="edge2" class="edge"><title>Node1&#45;&gt;Node3</title>
<path fill="none" stroke="midnightblue" d="M906.101,-451.736C854.456,-441.575 762,-414.024 762,-347 762,-347 762,-347 762,-289 762,-252.992 738.666,-216.339 722.963,-195.75"/>
<polygon fill="midnightblue" stroke="midnightblue" points="725.55,-193.379 716.594,-187.719 720.065,-197.729 725.55,-193.379"/>
</g>
<!-- Node18 -->
<g id="node18" class="node"><title>Node18</title>
<g id="a_node18"><a xlink:href="_i_graphics_constants_8h_source.html" target="_top" xlink:title="IGraphicsConstants.h">
<polygon fill="white" stroke="black" points="0,-168.5 0,-187.5 112,-187.5 112,-168.5 0,-168.5"/>
<text text-anchor="middle" x="56" y="-175.5" font-family="Helvetica,sans-Serif" font-size="10.00">IGraphicsConstants.h</text>
</a>
</g>
</g>
<!-- Node1&#45;&gt;Node18 -->
<g id="edge25" class="edge"><title>Node1&#45;&gt;Node18</title>
<path fill="none" stroke="midnightblue" d="M906.337,-457.032C776.332,-456.851 307.212,-453.287 165,-412 107.873,-395.415 48,-406.486 48,-347 48,-347 48,-347 48,-289 48,-256.863 51.4386,-219.584 53.807,-197.719"/>
<polygon fill="midnightblue" stroke="midnightblue" points="57.3119,-197.872 54.9541,-187.542 50.3559,-197.087 57.3119,-197.872"/>
</g>
<!-- Node19 -->
<g id="node19" class="node"><title>Node19</title>
<g id="a_node19"><a xlink:href="_i_graphics_structs_8h_source.html" target="_top" xlink:title="IGraphicsStructs.h">
<polygon fill="white" stroke="black" points="460,-224.5 460,-243.5 558,-243.5 558,-224.5 460,-224.5"/>
<text text-anchor="middle" x="509" y="-231.5" font-family="Helvetica,sans-Serif" font-size="10.00">IGraphicsStructs.h</text>
</a>
</g>
</g>
<!-- Node1&#45;&gt;Node19 -->
<g id="edge27" class="edge"><title>Node1&#45;&gt;Node19</title>
<path fill="none" stroke="midnightblue" d="M906.387,-453.321C866.963,-448.072 800.344,-436.25 748,-412 654.356,-368.617 561.242,-285.075 524.919,-250.533"/>
<polygon fill="midnightblue" stroke="midnightblue" points="527.313,-247.979 517.677,-243.575 522.463,-253.027 527.313,-247.979"/>
</g>
<!-- Node26 -->
<g id="node26" class="node"><title>Node26</title>
<g id="a_node26"><a xlink:href="_i_graphics_utilities_8h_source.html" target="_top" xlink:title="IGraphicsUtilities.h">
<polygon fill="white" stroke="black" points="76,-280.5 76,-299.5 176,-299.5 176,-280.5 76,-280.5"/>
<text text-anchor="middle" x="126" y="-287.5" font-family="Helvetica,sans-Serif" font-size="10.00">IGraphicsUtilities.h</text>
</a>
</g>
</g>
<!-- Node1&#45;&gt;Node26 -->
<g id="edge43" class="edge"><title>Node1&#45;&gt;Node26</title>
<path fill="none" stroke="midnightblue" d="M906.116,-456.899C767.842,-456.229 250.731,-451.107 190,-412 153.649,-388.592 136.642,-337.343 129.843,-309.647"/>
<polygon fill="midnightblue" stroke="midnightblue" points="133.208,-308.658 127.591,-299.675 126.38,-310.2 133.208,-308.658"/>
</g>
<!-- Node27 -->
<g id="node27" class="node"><title>Node27</title>
<g id="a_node27"><a xlink:href="_i_graphics_popup_menu_8h.html" target="_top" xlink:title="A class for setting the contents of a pop up menu. ">
<polygon fill="white" stroke="black" points="1320.5,-168.5 1320.5,-187.5 1439.5,-187.5 1439.5,-168.5 1320.5,-168.5"/>
<text text-anchor="middle" x="1380" y="-175.5" font-family="Helvetica,sans-Serif" font-size="10.00">IGraphicsPopupMenu.h</text>
</a>
</g>
</g>
<!-- Node1&#45;&gt;Node27 -->
<g id="edge46" class="edge"><title>Node1&#45;&gt;Node27</title>
<path fill="none" stroke="midnightblue" d="M973.646,-456.157C1129.3,-451.821 1772,-428.957 1772,-347 1772,-347 1772,-347 1772,-289 1772,-222.855 1562.48,-194.632 1449.8,-184.236"/>
<polygon fill="midnightblue" stroke="midnightblue" points="1449.81,-180.723 1439.54,-183.314 1449.18,-187.695 1449.81,-180.723"/>
</g>
<!-- Node28 -->
<g id="node28" class="node"><title>Node28</title>
<g id="a_node28"><a xlink:href="_i_graphics_editor_delegate_8h.html" target="_top" xlink:title="An editor delgate base class for a SOMETHING that uses IGraphics for it&#39;s UI. ">
<polygon fill="white" stroke="black" points="1193.5,-392.5 1193.5,-411.5 1324.5,-411.5 1324.5,-392.5 1193.5,-392.5"/>
<text text-anchor="middle" x="1259" y="-399.5" font-family="Helvetica,sans-Serif" font-size="10.00">IGraphicsEditorDelegate.h</text>
</a>
</g>
</g>
<!-- Node1&#45;&gt;Node28 -->
<g id="edge53" class="edge"><title>Node1&#45;&gt;Node28</title>
<path fill="none" stroke="midnightblue" d="M973.536,-451.323C1026.94,-442.283 1132.08,-424.485 1198.77,-413.195"/>
<polygon fill="midnightblue" stroke="midnightblue" points="1199.45,-416.63 1208.73,-411.51 1198.28,-409.728 1199.45,-416.63"/>
</g>
<!-- Node33 -->
<g id="node33" class="node"><title>Node33</title>
<polygon fill="white" stroke="#bfbfbf" points="1098,-168.5 1098,-187.5 1150,-187.5 1150,-168.5 1098,-168.5"/>
<text text-anchor="middle" x="1124" y="-175.5" font-family="Helvetica,sans-Serif" font-size="10.00">memory</text>
</g>
<!-- Node1&#45;&gt;Node33 -->
<g id="edge82" class="edge"><title>Node1&#45;&gt;Node33</title>
<path fill="none" stroke="midnightblue" d="M973.899,-451.736C1025.54,-441.575 1118,-414.024 1118,-347 1118,-347 1118,-347 1118,-289 1118,-256.9 1120.58,-219.61 1122.36,-197.732"/>
<polygon fill="midnightblue" stroke="midnightblue" points="1125.86,-197.808 1123.22,-187.549 1118.89,-197.219 1125.86,-197.808"/>
</g>
<!-- Node36 -->
<g id="node36" class="node"><title>Node36</title>
<polygon fill="white" stroke="#bfbfbf" points="1800.5,-392.5 1800.5,-411.5 1859.5,-411.5 1859.5,-392.5 1800.5,-392.5"/>
<text text-anchor="middle" x="1830" y="-399.5" font-family="Helvetica,sans-Serif" font-size="10.00">heapbuf.h</text>
</g>
<!-- Node1&#45;&gt;Node36 -->
<g id="edge80" class="edge"><title>Node1&#45;&gt;Node36</title>
<path fill="none" stroke="midnightblue" d="M973.613,-457.001C1087.92,-456.625 1471.97,-452.242 1786,-412 1787.45,-411.814 1788.92,-411.607 1790.41,-411.383"/>
<polygon fill="midnightblue" stroke="midnightblue" points="1791.01,-414.832 1800.28,-409.703 1789.83,-407.931 1791.01,-414.832"/>
</g>
<!-- Node37 -->
<g id="node37" class="node"><title>Node37</title>
<polygon fill="white" stroke="#bfbfbf" points="1877.5,-392.5 1877.5,-411.5 1918.5,-411.5 1918.5,-392.5 1877.5,-392.5"/>
<text text-anchor="middle" x="1898" y="-399.5" font-family="Helvetica,sans-Serif" font-size="10.00">stack</text>
</g>
<!-- Node1&#45;&gt;Node37 -->
<g id="edge81" class="edge"><title>Node1&#45;&gt;Node37</title>
<path fill="none" stroke="midnightblue" d="M973.937,-456.458C1116.93,-454.005 1671.53,-442.778 1867.29,-411.598"/>
<polygon fill="midnightblue" stroke="midnightblue" points="1867.88,-415.048 1877.17,-409.953 1866.74,-408.143 1867.88,-415.048"/>
</g>
<!-- Node3&#45;&gt;Node2 -->
<g id="edge12" class="edge"><title>Node3&#45;&gt;Node2</title>
<path fill="none" stroke="midnightblue" d="M695.016,-168.393C681.189,-159.703 659.608,-145.65 642,-132 621.82,-116.356 600.143,-96.6461 585.7,-83.0548"/>
<polygon fill="midnightblue" stroke="midnightblue" points="587.76,-80.1844 578.099,-75.8365 582.94,-85.2605 587.76,-80.1844"/>
</g>
<!-- Node4 -->
<g id="node4" class="node"><title>Node4</title>
<polygon fill="white" stroke="#bfbfbf" points="1226.5,-56.5 1226.5,-75.5 1269.5,-75.5 1269.5,-56.5 1226.5,-56.5"/>
<text text-anchor="middle" x="1248" y="-63.5" font-family="Helvetica,sans-Serif" font-size="10.00">cstdio</text>
</g>
<!-- Node3&#45;&gt;Node4 -->
<g id="edge3" class="edge"><title>Node3&#45;&gt;Node4</title>
<path fill="none" stroke="midnightblue" d="M747.915,-171.242C799.871,-163.367 894.68,-148.337 975,-132 1062.99,-114.102 1165.78,-88.2852 1216.46,-75.228"/>
<polygon fill="midnightblue" stroke="midnightblue" points="1217.36,-78.6094 1226.17,-72.7177 1215.61,-71.8322 1217.36,-78.6094"/>
</g>
<!-- Node5 -->
<g id="node5" class="node"><title>Node5</title>
<polygon fill="white" stroke="#bfbfbf" points="722,-56.5 722,-75.5 768,-75.5 768,-56.5 722,-56.5"/>
<text text-anchor="middle" x="745" y="-63.5" font-family="Helvetica,sans-Serif" font-size="10.00">cctype</text>
</g>
<!-- Node3&#45;&gt;Node5 -->
<g id="edge4" class="edge"><title>Node3&#45;&gt;Node5</title>
<path fill="none" stroke="midnightblue" d="M727.984,-168.398C741.886,-160.954 759.714,-148.741 768,-132 775.766,-116.31 767.152,-97.333 758.339,-83.9453"/>
<polygon fill="midnightblue" stroke="midnightblue" points="761.08,-81.7614 752.405,-75.679 755.393,-85.8436 761.08,-81.7614"/>
</g>
<!-- Node6 -->
<g id="node6" class="node"><title>Node6</title>
<polygon fill="white" stroke="#bfbfbf" points="651.5,-112.5 651.5,-131.5 700.5,-131.5 700.5,-112.5 651.5,-112.5"/>
<text text-anchor="middle" x="676" y="-119.5" font-family="Helvetica,sans-Serif" font-size="10.00">cstdarg</text>
</g>
<!-- Node3&#45;&gt;Node6 -->
<g id="edge5" class="edge"><title>Node3&#45;&gt;Node6</title>
<path fill="none" stroke="midnightblue" d="M703.551,-168.083C698.986,-160.613 692.332,-149.724 686.707,-140.52"/>
<polygon fill="midnightblue" stroke="midnightblue" points="689.549,-138.459 681.348,-131.751 683.576,-142.109 689.549,-138.459"/>
</g>
<!-- Node7 -->
<g id="node7" class="node"><title>Node7</title>
<polygon fill="white" stroke="#bfbfbf" points="1104,-112.5 1104,-131.5 1150,-131.5 1150,-112.5 1104,-112.5"/>
<text text-anchor="middle" x="1127" y="-119.5" font-family="Helvetica,sans-Serif" font-size="10.00">cstdint</text>
</g>
<!-- Node3&#45;&gt;Node7 -->
<g id="edge6" class="edge"><title>Node3&#45;&gt;Node7</title>
<path fill="none" stroke="midnightblue" d="M747.575,-172.017C829.034,-161.493 1017.36,-137.163 1093.83,-127.285"/>
<polygon fill="midnightblue" stroke="midnightblue" points="1094.39,-130.742 1103.86,-125.99 1093.49,-123.8 1094.39,-130.742"/>
</g>
<!-- Node8 -->
<g id="node8" class="node"><title>Node8</title>
<polygon fill="white" stroke="#bfbfbf" points="1143,-0.5 1143,-19.5 1189,-19.5 1189,-0.5 1143,-0.5"/>
<text text-anchor="middle" x="1166" y="-7.5" font-family="Helvetica,sans-Serif" font-size="10.00">cstring</text>
</g>
<!-- Node3&#45;&gt;Node8 -->
<g id="edge7" class="edge"><title>Node3&#45;&gt;Node8</title>
<path fill="none" stroke="midnightblue" d="M747.883,-169.859C796.631,-160.599 877.18,-144.192 905,-132 932.381,-120.001 989.029,-68.893 1016,-56 1054.35,-37.6692 1101.8,-24.9455 1132.93,-17.8164"/>
<polygon fill="midnightblue" stroke="midnightblue" points="1133.83,-21.2027 1142.83,-15.6132 1132.3,-14.37 1133.83,-21.2027"/>
</g>
<!-- Node9 -->
<g id="node9" class="node"><title>Node9</title>
<polygon fill="white" stroke="#bfbfbf" points="718.5,-112.5 718.5,-131.5 759.5,-131.5 759.5,-112.5 718.5,-112.5"/>
<text text-anchor="middle" x="739" y="-119.5" font-family="Helvetica,sans-Serif" font-size="10.00">ctime</text>
</g>
<!-- Node3&#45;&gt;Node9 -->
<g id="edge8" class="edge"><title>Node3&#45;&gt;Node9</title>
<path fill="none" stroke="midnightblue" d="M713.954,-168.083C718.104,-160.613 724.153,-149.724 729.267,-140.52"/>
<polygon fill="midnightblue" stroke="midnightblue" points="732.341,-142.192 734.138,-131.751 726.222,-138.793 732.341,-142.192"/>
</g>
<!-- Node10 -->
<g id="node10" class="node"><title>Node10</title>
<polygon fill="white" stroke="#bfbfbf" points="1206.5,-112.5 1206.5,-131.5 1255.5,-131.5 1255.5,-112.5 1206.5,-112.5"/>
<text text-anchor="middle" x="1231" y="-119.5" font-family="Helvetica,sans-Serif" font-size="10.00">cassert</text>
</g>
<!-- Node3&#45;&gt;Node10 -->
<g id="edge9" class="edge"><title>Node3&#45;&gt;Node10</title>
<path fill="none" stroke="midnightblue" d="M747.628,-173.163C852.954,-162.699 1138.67,-134.287 1159,-132 1171.2,-130.628 1184.54,-128.996 1196.4,-127.501"/>
<polygon fill="midnightblue" stroke="midnightblue" points="1196.88,-130.968 1206.36,-126.233 1196,-124.024 1196.88,-130.968"/>
</g>
<!-- Node11 -->
<g id="node11" class="node"><title>Node11</title>
<polygon fill="white" stroke="#bfbfbf" points="1025,-56.5 1025,-75.5 1089,-75.5 1089,-56.5 1025,-56.5"/>
<text text-anchor="middle" x="1057" y="-63.5" font-family="Helvetica,sans-Serif" font-size="10.00">wdlstring.h</text>
</g>
<!-- Node3&#45;&gt;Node11 -->
<g id="edge10" class="edge"><title>Node3&#45;&gt;Node11</title>
<path fill="none" stroke="midnightblue" d="M747.516,-170.095C808.029,-159.147 920.33,-138.39 938,-132 974.19,-118.913 1012.69,-96.0343 1035.79,-81.206"/>
<polygon fill="midnightblue" stroke="midnightblue" points="1037.94,-83.9761 1044.41,-75.5821 1034.12,-78.1125 1037.94,-83.9761"/>
</g>
<!-- Node12 -->
<g id="node12" class="node"><title>Node12</title>
<polygon fill="white" stroke="#bfbfbf" points="543,-112.5 543,-131.5 595,-131.5 595,-112.5 543,-112.5"/>
<text text-anchor="middle" x="569" y="-119.5" font-family="Helvetica,sans-Serif" font-size="10.00">mutex.h</text>
</g>
<!-- Node3&#45;&gt;Node12 -->
<g id="edge11" class="edge"><title>Node3&#45;&gt;Node12</title>
<path fill="none" stroke="midnightblue" d="M686.817,-168.444C663.572,-159.478 626.851,-145.314 600.585,-135.183"/>
<polygon fill="midnightblue" stroke="midnightblue" points="601.669,-131.85 591.08,-131.516 599.15,-138.381 601.669,-131.85"/>
</g>
<!-- Node13 -->
<g id="node13" class="node"><title>Node13</title>
<g id="a_node13"><a xlink:href="_i_plug_utilities_8h.html" target="_top" xlink:title="Utility functions and macros. ">
<polygon fill="white" stroke="black" points="816,-112.5 816,-131.5 896,-131.5 896,-112.5 816,-112.5"/>
<text text-anchor="middle" x="856" y="-119.5" font-family="Helvetica,sans-Serif" font-size="10.00">IPlugUtilities.h</text>
</a>
</g>
</g>
<!-- Node3&#45;&gt;Node13 -->
<g id="edge13" class="edge"><title>Node3&#45;&gt;Node13</title>
<path fill="none" stroke="midnightblue" d="M732.293,-168.444C756.807,-159.438 795.596,-145.189 823.2,-135.049"/>
<polygon fill="midnightblue" stroke="midnightblue" points="824.637,-138.25 832.816,-131.516 822.223,-131.679 824.637,-138.25"/>
</g>
<!-- Node13&#45;&gt;Node2 -->
<g id="edge21" class="edge"><title>Node13&#45;&gt;Node2</title>
<path fill="none" stroke="midnightblue" d="M815.792,-113.435C765.977,-104.062 680.836,-88.0423 624.74,-77.4877"/>
<polygon fill="midnightblue" stroke="midnightblue" points="625.094,-73.9929 614.619,-75.5834 623.799,-80.8722 625.094,-73.9929"/>
</g>
<!-- Node13&#45;&gt;Node4 -->
<g id="edge16" class="edge"><title>Node13&#45;&gt;Node4</title>
<path fill="none" stroke="midnightblue" d="M896.109,-115.475C974.248,-104.711 1145.41,-81.1319 1216.29,-71.368"/>
<polygon fill="midnightblue" stroke="midnightblue" points="1216.96,-74.8091 1226.39,-69.9771 1216,-67.8746 1216.96,-74.8091"/>
</g>
<!-- Node13&#45;&gt;Node5 -->
<g id="edge19" class="edge"><title>Node13&#45;&gt;Node5</title>
<path fill="none" stroke="midnightblue" d="M838.166,-112.324C820.284,-103.625 792.525,-90.1202 771.954,-80.113"/>
<polygon fill="midnightblue" stroke="midnightblue" points="773.313,-76.8819 762.79,-75.6545 770.251,-83.1765 773.313,-76.8819"/>
</g>
<!-- Node13&#45;&gt;Node8 -->
<g id="edge18" class="edge"><title>Node13&#45;&gt;Node8</title>
<path fill="none" stroke="midnightblue" d="M861.9,-112.17C871.979,-97.8522 893.969,-69.7859 920,-56 989.347,-19.2747 1083.39,-11.976 1132.7,-10.8587"/>
<polygon fill="midnightblue" stroke="midnightblue" points="1132.85,-14.3568 1142.8,-10.7034 1132.75,-7.35758 1132.85,-14.3568"/>
</g>
<!-- Node13&#45;&gt;Node11 -->
<g id="edge20" class="edge"><title>Node13&#45;&gt;Node11</title>
<path fill="none" stroke="midnightblue" d="M887.849,-112.444C922.398,-103.162 977.682,-88.3093 1015.58,-78.127"/>
<polygon fill="midnightblue" stroke="midnightblue" points="1016.55,-81.4912 1025.3,-75.5164 1014.73,-74.7309 1016.55,-81.4912"/>
</g>
<!-- Node14 -->
<g id="node14" class="node"><title>Node14</title>
<polygon fill="white" stroke="#bfbfbf" points="1466,-56.5 1466,-75.5 1522,-75.5 1522,-56.5 1466,-56.5"/>
<text text-anchor="middle" x="1494" y="-63.5" font-family="Helvetica,sans-Serif" font-size="10.00">algorithm</text>
</g>
<!-- Node13&#45;&gt;Node14 -->
<g id="edge14" class="edge"><title>Node13&#45;&gt;Node14</title>
<path fill="none" stroke="midnightblue" d="M896.394,-117.581C1011.96,-107.8 1342.84,-79.7944 1455.72,-70.2398"/>
<polygon fill="midnightblue" stroke="midnightblue" points="1456.28,-73.705 1465.95,-69.374 1455.69,-66.7299 1456.28,-73.705"/>
</g>
<!-- Node15 -->
<g id="node15" class="node"><title>Node15</title>
<polygon fill="white" stroke="#bfbfbf" points="824,-56.5 824,-75.5 868,-75.5 868,-56.5 824,-56.5"/>
<text text-anchor="middle" x="846" y="-63.5" font-family="Helvetica,sans-Serif" font-size="10.00">cmath</text>
</g>
<!-- Node13&#45;&gt;Node15 -->
<g id="edge15" class="edge"><title>Node13&#45;&gt;Node15</title>
<path fill="none" stroke="midnightblue" d="M854.349,-112.083C853.024,-104.927 851.118,-94.6353 849.461,-85.6911"/>
<polygon fill="midnightblue" stroke="midnightblue" points="852.883,-84.9466 847.621,-75.7511 846,-86.2212 852.883,-84.9466"/>
</g>
<!-- Node16 -->
<g id="node16" class="node"><title>Node16</title>
<polygon fill="white" stroke="#bfbfbf" points="532.5,-0.5 532.5,-19.5 577.5,-19.5 577.5,-0.5 532.5,-0.5"/>
<text text-anchor="middle" x="555" y="-7.5" font-family="Helvetica,sans-Serif" font-size="10.00">cstdlib</text>
</g>
<!-- Node13&#45;&gt;Node16 -->
<g id="edge17" class="edge"><title>Node13&#45;&gt;Node16</title>
<path fill="none" stroke="midnightblue" d="M848.201,-112.263C835.016,-98.0774 806.829,-70.1976 777,-56 714.212,-26.1152 632.247,-16.0452 587.553,-12.6749"/>
<polygon fill="midnightblue" stroke="midnightblue" points="587.768,-9.18155 577.551,-11.9868 587.287,-16.165 587.768,-9.18155"/>
</g>
<!-- Node17 -->
<g id="node17" class="node"><title>Node17</title>
<g id="a_node17"><a xlink:href="_i_plug_platform_8h.html" target="_top" xlink:title="Include to get consistently named preprocessor macros for different platforms and logging functionali...">
<polygon fill="white" stroke="black" points="271,-56.5 271,-75.5 355,-75.5 355,-56.5 271,-56.5"/>
<text text-anchor="middle" x="313" y="-63.5" font-family="Helvetica,sans-Serif" font-size="10.00">IPlugPlatform.h</text>
</a>
</g>
</g>
<!-- Node13&#45;&gt;Node17 -->
<g id="edge22" class="edge"><title>Node13&#45;&gt;Node17</title>
<path fill="none" stroke="midnightblue" d="M815.699,-116.85C800.722,-115.315 783.586,-113.568 768,-112 622.051,-97.3195 449.725,-80.3854 365.15,-72.1006"/>
<polygon fill="midnightblue" stroke="midnightblue" points="365.327,-68.6013 355.033,-71.1099 364.645,-75.5679 365.327,-68.6013"/>
</g>
<!-- Node17&#45;&gt;Node8 -->
<g id="edge23" class="edge"><title>Node17&#45;&gt;Node8</title>
<path fill="none" stroke="midnightblue" d="M355.009,-62.3406C503.234,-52.957 999.997,-21.509 1133.01,-13.0887"/>
<polygon fill="midnightblue" stroke="midnightblue" points="1133.24,-16.5811 1143,-12.4562 1132.8,-9.59509 1133.24,-16.5811"/>
</g>
<!-- Node17&#45;&gt;Node16 -->
<g id="edge24" class="edge"><title>Node17&#45;&gt;Node16</title>
<path fill="none" stroke="midnightblue" d="M351.346,-56.4435C398.602,-45.8987 478.077,-28.1646 522.482,-18.256"/>
<polygon fill="midnightblue" stroke="midnightblue" points="523.454,-21.6254 532.451,-16.0315 521.929,-14.7934 523.454,-21.6254"/>
</g>
<!-- Node18&#45;&gt;Node17 -->
<g id="edge26" class="edge"><title>Node18&#45;&gt;Node17</title>
<path fill="none" stroke="midnightblue" d="M62.7416,-168.348C74.1812,-154.286 98.816,-126.579 126,-112 168.141,-89.3999 221.65,-78.0031 260.623,-72.3475"/>
<polygon fill="midnightblue" stroke="midnightblue" points="261.273,-75.7912 270.705,-70.9649 260.322,-68.8562 261.273,-75.7912"/>
</g>
<!-- Node19&#45;&gt;Node3 -->
<g id="edge41" class="edge"><title>Node19&#45;&gt;Node3</title>
<path fill="none" stroke="midnightblue" d="M540.691,-224.444C575.068,-215.162 630.077,-200.309 667.789,-190.127"/>
<polygon fill="midnightblue" stroke="midnightblue" points="668.716,-193.502 677.458,-187.516 666.891,-186.744 668.716,-193.502"/>
</g>
<!-- Node19&#45;&gt;Node10 -->
<g id="edge29" class="edge"><title>Node19&#45;&gt;Node10</title>
<path fill="none" stroke="midnightblue" d="M558.209,-226.386C614.483,-218.529 709.264,-204.402 790,-188 826.339,-180.617 834.539,-174.756 871,-168 871.25,-167.954 1106.04,-138.614 1196.26,-127.34"/>
<polygon fill="midnightblue" stroke="midnightblue" points="1196.79,-130.802 1206.28,-126.089 1195.92,-123.856 1196.79,-130.802"/>
</g>
<!-- Node19&#45;&gt;Node11 -->
<g id="edge36" class="edge"><title>Node19&#45;&gt;Node11</title>
<path fill="none" stroke="midnightblue" d="M558.151,-229.16C608.985,-224.021 690.019,-212.532 756,-188 772.433,-181.89 773.604,-174.208 790,-168 868.337,-138.338 898.904,-167.012 975,-132 1001.14,-119.973 1026.32,-97.9461 1041.73,-82.8975"/>
<polygon fill="midnightblue" stroke="midnightblue" points="1044.27,-85.3084 1048.85,-75.7541 1039.31,-80.3677 1044.27,-85.3084"/>
</g>
<!-- Node19&#45;&gt;Node12 -->
<g id="edge35" class="edge"><title>Node19&#45;&gt;Node12</title>
<path fill="none" stroke="midnightblue" d="M516.231,-224.459C523.401,-215.706 534.389,-201.504 542,-188 550.521,-172.88 557.898,-154.53 562.778,-141.188"/>
<polygon fill="midnightblue" stroke="midnightblue" points="566.092,-142.313 566.129,-131.718 559.493,-139.977 566.092,-142.313"/>
</g>
<!-- Node19&#45;&gt;Node13 -->
<g id="edge40" class="edge"><title>Node19&#45;&gt;Node13</title>
<path fill="none" stroke="midnightblue" d="M526.394,-224.355C554.237,-210.795 610.797,-184.384 661,-168 709.312,-152.234 766.074,-139.794 805.86,-132.026"/>
<polygon fill="midnightblue" stroke="midnightblue" points="806.688,-135.431 815.847,-130.104 805.366,-128.557 806.688,-135.431"/>
</g>
<!-- Node19&#45;&gt;Node14 -->
<g id="edge31" class="edge"><title>Node19&#45;&gt;Node14</title>
<path fill="none" stroke="midnightblue" d="M558.088,-232.285C746.384,-229.331 1413.69,-216.857 1448,-188 1474.49,-165.72 1451.64,-143.93 1465,-112 1469.12,-102.157 1475.37,-92.0931 1481.02,-83.9854"/>
<polygon fill="midnightblue" stroke="midnightblue" points="1483.94,-85.9238 1487,-75.7789 1478.28,-81.8044 1483.94,-85.9238"/>
</g>
<!-- Node19&#45;&gt;Node15 -->
<g id="edge28" class="edge"><title>Node19&#45;&gt;Node15</title>
<path fill="none" stroke="midnightblue" d="M509.543,-224.179C511.283,-198.97 517.599,-127.437 534,-112 536.551,-109.599 734.709,-82.2385 813.863,-71.3912"/>
<polygon fill="midnightblue" stroke="midnightblue" points="814.344,-74.8581 823.777,-70.0337 813.395,-67.9228 814.344,-74.8581"/>
</g>
<!-- Node19&#45;&gt;Node17 -->
<g id="edge39" class="edge"><title>Node19&#45;&gt;Node17</title>
<path fill="none" stroke="midnightblue" d="M459.792,-232.248C388.863,-230.005 263.278,-221.301 235,-188 205.129,-152.824 258.923,-105.444 291.234,-81.7641"/>
<polygon fill="midnightblue" stroke="midnightblue" points="293.574,-84.3945 299.69,-75.7433 289.514,-78.6922 293.574,-84.3945"/>
</g>
<!-- Node19&#45;&gt;Node18 -->
<g id="edge42" class="edge"><title>Node19&#45;&gt;Node18</title>
<path fill="none" stroke="midnightblue" d="M459.659,-227.118C377.879,-217.37 214.181,-197.856 122.361,-186.911"/>
<polygon fill="midnightblue" stroke="midnightblue" points="122.69,-183.425 112.346,-185.717 121.862,-190.376 122.69,-183.425"/>
</g>
<!-- Node20 -->
<g id="node20" class="node"><title>Node20</title>
<polygon fill="white" stroke="#bfbfbf" points="880.5,-168.5 880.5,-187.5 939.5,-187.5 939.5,-168.5 880.5,-168.5"/>
<text text-anchor="middle" x="910" y="-175.5" font-family="Helvetica,sans-Serif" font-size="10.00">functional</text>
</g>
<!-- Node19&#45;&gt;Node20 -->
<g id="edge30" class="edge"><title>Node19&#45;&gt;Node20</title>
<path fill="none" stroke="midnightblue" d="M558.17,-226.379C638.502,-215.561 796.319,-194.309 870.148,-184.367"/>
<polygon fill="midnightblue" stroke="midnightblue" points="870.968,-187.788 880.412,-182.984 870.034,-180.85 870.968,-187.788"/>
</g>
<!-- Node21 -->
<g id="node21" class="node"><title>Node21</title>
<polygon fill="white" stroke="#bfbfbf" points="244.5,-168.5 244.5,-187.5 295.5,-187.5 295.5,-168.5 244.5,-168.5"/>
<text text-anchor="middle" x="270" y="-175.5" font-family="Helvetica,sans-Serif" font-size="10.00">numeric</text>
</g>
<!-- Node19&#45;&gt;Node21 -->
<g id="edge32" class="edge"><title>Node19&#45;&gt;Node21</title>
<path fill="none" stroke="midnightblue" d="M468.265,-224.448C429.114,-216.131 368.04,-202.907 305.616,-188.081"/>
<polygon fill="midnightblue" stroke="midnightblue" points="306.128,-184.605 295.589,-185.689 304.503,-191.414 306.128,-184.605"/>
</g>
<!-- Node22 -->
<g id="node22" class="node"><title>Node22</title>
<polygon fill="white" stroke="#bfbfbf" points="314,-168.5 314,-187.5 360,-187.5 360,-168.5 314,-168.5"/>
<text text-anchor="middle" x="337" y="-175.5" font-family="Helvetica,sans-Serif" font-size="10.00">chrono</text>
</g>
<!-- Node19&#45;&gt;Node22 -->
<g id="edge33" class="edge"><title>Node19&#45;&gt;Node22</title>
<path fill="none" stroke="midnightblue" d="M481.746,-224.444C451.488,-214.944 402.645,-199.609 370.184,-189.418"/>
<polygon fill="midnightblue" stroke="midnightblue" points="370.854,-185.96 360.265,-186.304 368.758,-192.639 370.854,-185.96"/>
</g>
<!-- Node23 -->
<g id="node23" class="node"><title>Node23</title>
<polygon fill="white" stroke="#bfbfbf" points="378.5,-168.5 378.5,-187.5 419.5,-187.5 419.5,-168.5 378.5,-168.5"/>
<text text-anchor="middle" x="399" y="-175.5" font-family="Helvetica,sans-Serif" font-size="10.00">string</text>
</g>
<!-- Node19&#45;&gt;Node23 -->
<g id="edge34" class="edge"><title>Node19&#45;&gt;Node23</title>
<path fill="none" stroke="midnightblue" d="M491.327,-224.324C473.606,-215.625 446.097,-202.12 425.712,-192.113"/>
<polygon fill="midnightblue" stroke="midnightblue" points="427.149,-188.919 416.63,-187.655 424.064,-195.203 427.149,-188.919"/>
</g>
<!-- Node24 -->
<g id="node24" class="node"><title>Node24</title>
<polygon fill="white" stroke="#bfbfbf" points="1474.5,-112.5 1474.5,-131.5 1523.5,-131.5 1523.5,-112.5 1474.5,-112.5"/>
<text text-anchor="middle" x="1499" y="-119.5" font-family="Helvetica,sans-Serif" font-size="10.00">ptrlist.h</text>
</g>
<!-- Node19&#45;&gt;Node24 -->
<g id="edge37" class="edge"><title>Node19&#45;&gt;Node24</title>
<path fill="none" stroke="midnightblue" d="M558.18,-232.331C750.887,-229.505 1445.8,-217.313 1482,-188 1495.44,-177.121 1499.01,-157.05 1499.64,-142.078"/>
<polygon fill="midnightblue" stroke="midnightblue" points="1503.14,-141.867 1499.66,-131.86 1496.14,-141.852 1503.14,-141.867"/>
</g>
<!-- Node25 -->
<g id="node25" class="node"><title>Node25</title>
<polygon fill="white" stroke="#bfbfbf" points="438,-168.5 438,-187.5 500,-187.5 500,-168.5 438,-168.5"/>
<text text-anchor="middle" x="469" y="-175.5" font-family="Helvetica,sans-Serif" font-size="10.00">nanosvg.h</text>
</g>
<!-- Node19&#45;&gt;Node25 -->
<g id="edge38" class="edge"><title>Node19&#45;&gt;Node25</title>
<path fill="none" stroke="midnightblue" d="M502.395,-224.083C496.745,-216.455 488.455,-205.264 481.549,-195.941"/>
<polygon fill="midnightblue" stroke="midnightblue" points="484.247,-193.703 475.482,-187.751 478.622,-197.87 484.247,-193.703"/>
</g>
<!-- Node26&#45;&gt;Node18 -->
<g id="edge44" class="edge"><title>Node26&#45;&gt;Node18</title>
<path fill="none" stroke="midnightblue" d="M120.507,-280.368C109.006,-262.296 82.2032,-220.176 67.0138,-196.307"/>
<polygon fill="midnightblue" stroke="midnightblue" points="69.7889,-194.149 61.4673,-187.591 63.8832,-197.907 69.7889,-194.149"/>
</g>
<!-- Node26&#45;&gt;Node19 -->
<g id="edge45" class="edge"><title>Node26&#45;&gt;Node19</title>
<path fill="none" stroke="midnightblue" d="M176.071,-281.94C246.465,-272.015 374.468,-253.968 449.589,-243.376"/>
<polygon fill="midnightblue" stroke="midnightblue" points="450.413,-246.795 459.826,-241.933 449.436,-239.864 450.413,-246.795"/>
</g>
<!-- Node27&#45;&gt;Node4 -->
<g id="edge49" class="edge"><title>Node27&#45;&gt;Node4</title>
<path fill="none" stroke="midnightblue" d="M1375.97,-168.41C1369.29,-154.924 1354.78,-128.613 1336,-112 1319.41,-97.3235 1297.17,-86.0058 1279.2,-78.3915"/>
<polygon fill="midnightblue" stroke="midnightblue" points="1280.31,-75.0615 1269.72,-74.5446 1277.67,-81.5478 1280.31,-75.0615"/>
</g>
<!-- Node27&#45;&gt;Node8 -->
<g id="edge48" class="edge"><title>Node27&#45;&gt;Node8</title>
<path fill="none" stroke="midnightblue" d="M1378.98,-168.189C1377.06,-154.868 1371.88,-129.322 1359,-112 1319.32,-58.6119 1243.05,-30.9069 1199.21,-18.7962"/>
<polygon fill="midnightblue" stroke="midnightblue" points="1199.89,-15.3554 1189.32,-16.179 1198.09,-22.1222 1199.89,-15.3554"/>
</g>
<!-- Node27&#45;&gt;Node10 -->
<g id="edge50" class="edge"><title>Node27&#45;&gt;Node10</title>
<path fill="none" stroke="midnightblue" d="M1356.39,-168.444C1331.54,-159.438 1292.23,-145.189 1264.25,-135.049"/>
<polygon fill="midnightblue" stroke="midnightblue" points="1265.09,-131.633 1254.5,-131.516 1262.71,-138.214 1265.09,-131.633"/>
</g>
<!-- Node27&#45;&gt;Node11 -->
<g id="edge51" class="edge"><title>Node27&#45;&gt;Node11</title>
<path fill="none" stroke="midnightblue" d="M1371.86,-168.22C1358.1,-153.973 1328.75,-126.007 1298,-112 1232.73,-82.2675 1148.96,-72.1797 1099.33,-68.7572"/>
<polygon fill="midnightblue" stroke="midnightblue" points="1099.48,-65.2596 1089.28,-68.1233 1099.04,-72.2457 1099.48,-65.2596"/>
</g>
<!-- Node27&#45;&gt;Node15 -->
<g id="edge47" class="edge"><title>Node27&#45;&gt;Node15</title>
<path fill="none" stroke="midnightblue" d="M1363.89,-168.345C1347.3,-159.386 1320.73,-144.918 1298,-132 1282.76,-123.337 1280.64,-117.506 1264,-112 1192.31,-88.285 963.465,-73.5093 878.319,-68.7139"/>
<polygon fill="midnightblue" stroke="midnightblue" points="878.385,-65.2123 868.206,-68.1535 877.997,-72.2016 878.385,-65.2123"/>
</g>
<!-- Node27&#45;&gt;Node24 -->
<g id="edge52" class="edge"><title>Node27&#45;&gt;Node24</title>
<path fill="none" stroke="midnightblue" d="M1398.86,-168.444C1418.27,-159.636 1448.73,-145.812 1470.96,-135.722"/>
<polygon fill="midnightblue" stroke="midnightblue" points="1472.57,-138.836 1480.23,-131.516 1469.68,-132.462 1472.57,-138.836"/>
</g>
<!-- Node29 -->
<g id="node29" class="node"><title>Node29</title>
<g id="a_node29"><a xlink:href="_i_plug_editor_delegate_8h.html" target="_top" xlink:title="This pure virtual interface delegates communication in both directions between a UI editor and someth...">
<polygon fill="white" stroke="black" points="1224,-336.5 1224,-355.5 1336,-355.5 1336,-336.5 1224,-336.5"/>
<text text-anchor="middle" x="1280" y="-343.5" font-family="Helvetica,sans-Serif" font-size="10.00">IPlugEditorDelegate.h</text>
</a>
</g>
</g>
<!-- Node28&#45;&gt;Node29 -->
<g id="edge54" class="edge"><title>Node28&#45;&gt;Node29</title>
<path fill="none" stroke="midnightblue" d="M1262.47,-392.083C1265.31,-384.77 1269.43,-374.181 1272.96,-365.103"/>
<polygon fill="midnightblue" stroke="midnightblue" points="1276.23,-366.34 1276.6,-355.751 1269.71,-363.803 1276.23,-366.34"/>
</g>
<!-- Node29&#45;&gt;Node8 -->
<g id="edge56" class="edge"><title>Node29&#45;&gt;Node8</title>
<path fill="none" stroke="midnightblue" d="M1336.22,-339.464C1472.62,-324.481 1810,-277.471 1810,-179 1810,-179 1810,-179 1810,-121 1810,-58.4605 1332.01,-22.035 1199.63,-13.1461"/>
<polygon fill="midnightblue" stroke="midnightblue" points="1199.51,-9.63073 1189.3,-12.4618 1199.05,-16.6154 1199.51,-9.63073"/>
</g>
<!-- Node29&#45;&gt;Node10 -->
<g id="edge55" class="edge"><title>Node29&#45;&gt;Node10</title>
<path fill="none" stroke="midnightblue" d="M1278.08,-336.297C1270.85,-303.563 1245.21,-187.375 1235.12,-141.666"/>
<polygon fill="midnightblue" stroke="midnightblue" points="1238.53,-140.894 1232.96,-131.884 1231.7,-142.403 1238.53,-140.894"/>
</g>
<!-- Node29&#45;&gt;Node24 -->
<g id="edge58" class="edge"><title>Node29&#45;&gt;Node24</title>
<path fill="none" stroke="midnightblue" d="M1308.82,-336.491C1362.4,-318.911 1476,-272.94 1521,-188 1529.16,-172.604 1520.81,-153.585 1512.16,-140.107"/>
<polygon fill="midnightblue" stroke="midnightblue" points="1514.93,-137.954 1506.32,-131.775 1509.19,-141.972 1514.93,-137.954"/>
</g>
<!-- Node30 -->
<g id="node30" class="node"><title>Node30</title>
<polygon fill="white" stroke="#bfbfbf" points="1282.5,-280.5 1282.5,-299.5 1331.5,-299.5 1331.5,-280.5 1282.5,-280.5"/>
<text text-anchor="middle" x="1307" y="-287.5" font-family="Helvetica,sans-Serif" font-size="10.00">stdint.h</text>
</g>
<!-- Node29&#45;&gt;Node30 -->
<g id="edge57" class="edge"><title>Node29&#45;&gt;Node30</title>
<path fill="none" stroke="midnightblue" d="M1284.46,-336.083C1288.15,-328.691 1293.52,-317.953 1298.09,-308.811"/>
<polygon fill="midnightblue" stroke="midnightblue" points="1301.28,-310.261 1302.62,-299.751 1295.02,-307.13 1301.28,-310.261"/>
</g>
<!-- Node31 -->
<g id="node31" class="node"><title>Node31</title>
<g id="a_node31"><a xlink:href="_i_plug_parameter_8h.html" target="_top" xlink:title="IPlug&#39;s parameter class. ">
<polygon fill="white" stroke="black" points="998,-224.5 998,-243.5 1090,-243.5 1090,-224.5 998,-224.5"/>
<text text-anchor="middle" x="1044" y="-231.5" font-family="Helvetica,sans-Serif" font-size="10.00">IPlugParameter.h</text>
</a>
</g>
</g>
<!-- Node29&#45;&gt;Node31 -->
<g id="edge59" class="edge"><title>Node29&#45;&gt;Node31</title>
<path fill="none" stroke="midnightblue" d="M1242.06,-336.434C1212.52,-328.975 1170.98,-316.725 1137,-300 1108.9,-286.169 1079.84,-264.447 1061.84,-249.971"/>
<polygon fill="midnightblue" stroke="midnightblue" points="1063.9,-247.137 1053.95,-243.512 1059.47,-252.554 1063.9,-247.137"/>
</g>
<!-- Node34 -->
<g id="node34" class="node"><title>Node34</title>
<g id="a_node34"><a xlink:href="_i_plug_midi_8h.html" target="_top" xlink:title="MIDI and sysex structs/utilites. ">
<polygon fill="white" stroke="black" points="1282.5,-224.5 1282.5,-243.5 1347.5,-243.5 1347.5,-224.5 1282.5,-224.5"/>
<text text-anchor="middle" x="1315" y="-231.5" font-family="Helvetica,sans-Serif" font-size="10.00">IPlugMidi.h</text>
</a>
</g>
</g>
<!-- Node29&#45;&gt;Node34 -->
<g id="edge66" class="edge"><title>Node29&#45;&gt;Node34</title>
<path fill="none" stroke="midnightblue" d="M1299.3,-336.48C1313.43,-329.081 1331.56,-316.887 1340,-300 1347.91,-284.184 1338.62,-265.225 1329.21,-251.876"/>
<polygon fill="midnightblue" stroke="midnightblue" points="1331.74,-249.435 1322.88,-243.638 1326.19,-253.7 1331.74,-249.435"/>
</g>
<!-- Node35 -->
<g id="node35" class="node"><title>Node35</title>
<g id="a_node35"><a xlink:href="_i_plug_structs_8h_source.html" target="_top" xlink:title="IPlugStructs.h">
<polygon fill="white" stroke="black" points="1146.5,-280.5 1146.5,-299.5 1225.5,-299.5 1225.5,-280.5 1146.5,-280.5"/>
<text text-anchor="middle" x="1186" y="-287.5" font-family="Helvetica,sans-Serif" font-size="10.00">IPlugStructs.h</text>
</a>
</g>
</g>
<!-- Node29&#45;&gt;Node35 -->
<g id="edge72" class="edge"><title>Node29&#45;&gt;Node35</title>
<path fill="none" stroke="midnightblue" d="M1264.9,-336.324C1250.1,-327.822 1227.31,-314.729 1210.02,-304.797"/>
<polygon fill="midnightblue" stroke="midnightblue" points="1211.48,-301.601 1201.07,-299.655 1207.99,-307.671 1211.48,-301.601"/>
</g>
<!-- Node31&#45;&gt;Node8 -->
<g id="edge61" class="edge"><title>Node31&#45;&gt;Node8</title>
<path fill="none" stroke="midnightblue" d="M1090.14,-230.962C1199.79,-225.768 1469.31,-210.816 1503,-188 1526.21,-172.282 1525.37,-159.232 1532,-132 1536.41,-113.898 1539.37,-66.225 1530,-56 1507.83,-31.8008 1285.26,-17.3916 1199.47,-12.6999"/>
<polygon fill="midnightblue" stroke="midnightblue" points="1199.41,-9.19193 1189.24,-12.1513 1199.04,-16.1819 1199.41,-9.19193"/>
</g>
<!-- Node31&#45;&gt;Node11 -->
<g id="edge64" class="edge"><title>Node31&#45;&gt;Node11</title>
<path fill="none" stroke="midnightblue" d="M1039.12,-224.372C1034.44,-215.552 1027.69,-201.299 1025,-188 1023.24,-179.288 1022.19,-176.433 1025,-168 1031.32,-149.026 1044.95,-150.717 1052,-132 1057.55,-117.254 1058.54,-99.3231 1058.29,-86.0323"/>
<polygon fill="midnightblue" stroke="midnightblue" points="1061.78,-85.5788 1057.84,-75.7438 1054.78,-85.8892 1061.78,-85.5788"/>
</g>
<!-- Node31&#45;&gt;Node13 -->
<g id="edge65" class="edge"><title>Node31&#45;&gt;Node13</title>
<path fill="none" stroke="midnightblue" d="M1032.52,-224.449C1014.85,-211.469 979.698,-186.362 948,-168 927.394,-156.063 903.168,-144.3 884.75,-135.795"/>
<polygon fill="midnightblue" stroke="midnightblue" points="885.988,-132.513 875.437,-131.544 883.08,-138.881 885.988,-132.513"/>
</g>
<!-- Node31&#45;&gt;Node20 -->
<g id="edge62" class="edge"><title>Node31&#45;&gt;Node20</title>
<path fill="none" stroke="midnightblue" d="M1022.77,-224.444C1000.62,-215.517 965.681,-201.439 940.564,-191.317"/>
<polygon fill="midnightblue" stroke="midnightblue" points="941.717,-188.008 931.133,-187.516 939.1,-194.501 941.717,-188.008"/>
</g>
<!-- Node32 -->
<g id="node32" class="node"><title>Node32</title>
<polygon fill="white" stroke="#bfbfbf" points="1034,-168.5 1034,-187.5 1080,-187.5 1080,-168.5 1034,-168.5"/>
<text text-anchor="middle" x="1057" y="-175.5" font-family="Helvetica,sans-Serif" font-size="10.00">atomic</text>
</g>
<!-- Node31&#45;&gt;Node32 -->
<g id="edge60" class="edge"><title>Node31&#45;&gt;Node32</title>
<path fill="none" stroke="midnightblue" d="M1046.15,-224.083C1047.87,-216.927 1050.35,-206.635 1052.5,-197.691"/>
<polygon fill="midnightblue" stroke="midnightblue" points="1055.96,-198.293 1054.89,-187.751 1049.15,-196.654 1055.96,-198.293"/>
</g>
<!-- Node31&#45;&gt;Node33 -->
<g id="edge63" class="edge"><title>Node31&#45;&gt;Node33</title>
<path fill="none" stroke="midnightblue" d="M1056.85,-224.324C1069.22,-215.979 1088.13,-203.212 1102.74,-193.352"/>
<polygon fill="midnightblue" stroke="midnightblue" points="1104.85,-196.15 1111.18,-187.655 1100.93,-190.348 1104.85,-196.15"/>
</g>
<!-- Node34&#45;&gt;Node3 -->
<g id="edge71" class="edge"><title>Node34&#45;&gt;Node3</title>
<path fill="none" stroke="midnightblue" d="M1282.42,-230.097C1182.09,-221.156 877.386,-194.005 757.858,-183.354"/>
<polygon fill="midnightblue" stroke="midnightblue" points="758.159,-179.867 747.888,-182.465 757.538,-186.839 758.159,-179.867"/>
</g>
<!-- Node34&#45;&gt;Node4 -->
<g id="edge69" class="edge"><title>Node34&#45;&gt;Node4</title>
<path fill="none" stroke="midnightblue" d="M1347.76,-233.134C1388.3,-231.658 1457.54,-223.572 1503,-188 1531.47,-165.721 1555.48,-139.492 1532,-112 1499.84,-74.3452 1346.97,-68.0269 1279.79,-67.0902"/>
<polygon fill="midnightblue" stroke="midnightblue" points="1279.81,-63.5903 1269.78,-66.9821 1279.74,-70.5899 1279.81,-63.5903"/>
</g>
<!-- Node34&#45;&gt;Node7 -->
<g id="edge68" class="edge"><title>Node34&#45;&gt;Node7</title>
<path fill="none" stroke="midnightblue" d="M1300.25,-224.368C1267.71,-205.332 1189.58,-159.615 1150.33,-136.65"/>
<polygon fill="midnightblue" stroke="midnightblue" points="1152.08,-133.621 1141.68,-131.591 1148.55,-139.662 1152.08,-133.621"/>
</g>
<!-- Node34&#45;&gt;Node10 -->
<g id="edge67" class="edge"><title>Node34&#45;&gt;Node10</title>
<path fill="none" stroke="midnightblue" d="M1309.08,-224.463C1300.33,-211.919 1283.31,-187.847 1268,-168 1260.66,-158.49 1252.17,-148.12 1245.18,-139.734"/>
<polygon fill="midnightblue" stroke="midnightblue" points="1247.65,-137.238 1238.54,-131.833 1242.29,-141.741 1247.65,-137.238"/>
</g>
<!-- Node34&#45;&gt;Node14 -->
<g id="edge70" class="edge"><title>Node34&#45;&gt;Node14</title>
<path fill="none" stroke="midnightblue" d="M1347.59,-229.839C1400.25,-224.133 1500.92,-210.56 1528,-188 1555.11,-165.41 1566.39,-143.758 1551,-112 1544.6,-98.7996 1532.25,-88.3032 1520.67,-80.7794"/>
<polygon fill="midnightblue" stroke="midnightblue" points="1522.45,-77.7678 1512.08,-75.6099 1518.84,-83.7653 1522.45,-77.7678"/>
</g>
<!-- Node35&#45;&gt;Node2 -->
<g id="edge76" class="edge"><title>Node35&#45;&gt;Node2</title>
<path fill="none" stroke="midnightblue" d="M1146.42,-283.346C1092.54,-275.473 993.18,-260.326 909,-244 738.24,-210.882 628.996,-277.71 534,-132 523.468,-115.845 537.408,-96.2251 550.691,-82.7946"/>
<polygon fill="midnightblue" stroke="midnightblue" points="553.369,-85.0805 558.246,-75.675 548.568,-79.9861 553.369,-85.0805"/>
</g>
<!-- Node35&#45;&gt;Node11 -->
<g id="edge74" class="edge"><title>Node35&#45;&gt;Node11</title>
<path fill="none" stroke="midnightblue" d="M1187.38,-280.146C1191.21,-252.195 1199.25,-164.575 1159,-112 1144.48,-93.027 1120.24,-81.8882 1099.04,-75.4398"/>
<polygon fill="midnightblue" stroke="midnightblue" points="1099.81,-72.0231 1089.24,-72.7166 1097.94,-78.7674 1099.81,-72.0231"/>
</g>
<!-- Node35&#45;&gt;Node13 -->
<g id="edge79" class="edge"><title>Node35&#45;&gt;Node13</title>
<path fill="none" stroke="midnightblue" d="M1146.27,-289.241C1077.93,-287.288 938.928,-272.475 871,-188 860.463,-174.896 857.053,-155.749 856.076,-141.628"/>
<polygon fill="midnightblue" stroke="midnightblue" points="859.572,-141.463 855.723,-131.592 852.576,-141.709 859.572,-141.463"/>
</g>
<!-- Node35&#45;&gt;Node14 -->
<g id="edge73" class="edge"><title>Node35&#45;&gt;Node14</title>
<path fill="none" stroke="midnightblue" d="M1225.6,-283.969C1286.5,-275.887 1400.11,-259.36 1438,-244 1479.24,-227.282 1487.78,-217.605 1521,-188 1550.83,-161.422 1588.68,-146.765 1569,-112 1560.65,-97.2584 1545.34,-86.8192 1530.71,-79.7321"/>
<polygon fill="midnightblue" stroke="midnightblue" points="1531.84,-76.4041 1521.28,-75.5474 1529,-82.8025 1531.84,-76.4041"/>
</g>
<!-- Node35&#45;&gt;Node17 -->
<g id="edge77" class="edge"><title>Node35&#45;&gt;Node17</title>
<path fill="none" stroke="midnightblue" d="M1146.33,-288.849C985.931,-287.637 386.101,-277.12 223,-188 185.475,-167.496 138.506,-146.331 164,-112 186.119,-82.2142 227.37,-71.434 260.869,-67.8409"/>
<polygon fill="midnightblue" stroke="midnightblue" points="261.335,-71.3133 270.987,-66.9434 260.717,-64.3407 261.335,-71.3133"/>
</g>
<!-- Node35&#45;&gt;Node24 -->
<g id="edge75" class="edge"><title>Node35&#45;&gt;Node24</title>
<path fill="none" stroke="midnightblue" d="M1225.68,-282.48C1303.41,-268.789 1471,-234.431 1503,-188 1512.3,-174.498 1509.78,-155.433 1505.85,-141.441"/>
<polygon fill="midnightblue" stroke="midnightblue" points="1509.17,-140.327 1502.74,-131.907 1502.51,-142.499 1509.17,-140.327"/>
</g>
<!-- Node35&#45;&gt;Node34 -->
<g id="edge78" class="edge"><title>Node35&#45;&gt;Node34</title>
<path fill="none" stroke="midnightblue" d="M1206.44,-280.444C1227.67,-271.557 1261.1,-257.563 1285.25,-247.451"/>
<polygon fill="midnightblue" stroke="midnightblue" points="1286.78,-250.606 1294.66,-243.516 1284.08,-244.149 1286.78,-250.606"/>
</g>
</g>
</svg>
