<?xml version="1.0" encoding="UTF-8" standalone="no"?>
<!DOCTYPE svg PUBLIC "-//W3C//DTD SVG 1.1//EN"
 "http://www.w3.org/Graphics/SVG/1.1/DTD/svg11.dtd">
<!-- Generated by graphviz version 2.36.0 (20140111.2315)
 -->
<!-- Title: IPlugPluginBase.h Pages: 1 -->
<!--zoomable 476 -->
<svg id="main" version="1.1" xmlns="http://www.w3.org/2000/svg" xmlns:xlink="http://www.w3.org/1999/xlink" xml:space="preserve" onload="init(evt)">
<style type="text/css"><![CDATA[
.edge:hover path { stroke: red; }
.edge:hover polygon { stroke: red; fill: red; }
]]></style>
<script type="text/javascript"><![CDATA[
var edges = document.getElementsByTagName('g');
if (edges && edges.length) {
  for (var i=0;i<edges.length;i++) {
    if (edges[i].id.substr(0,4)=='edge') {
      edges[i].setAttribute('class','edge');
    }
  }
}
]]></script>
        <defs>
                <circle id="rim" cx="0" cy="0" r="7"/>
                <circle id="rim2" cx="0" cy="0" r="3.5"/>
                <g id="zoomPlus">
                        <use xlink:href="#rim" fill="#404040">
                                <set attributeName="fill" to="#808080" begin="zoomplus.mouseover" end="zoomplus.mouseout"/>
                        </use>
                        <path d="M-4,0h8M0,-4v8" fill="none" stroke="white" stroke-width="1.5" pointer-events="none"/>
                </g>
                <g id="zoomMin">
                        <use xlink:href="#rim" fill="#404040">
                                <set attributeName="fill" to="#808080" begin="zoomminus.mouseover" end="zoomminus.mouseout"/>
                        </use>
                        <path d="M-4,0h8" fill="none" stroke="white" stroke-width="1.5" pointer-events="none"/>
                </g>
                <g id="dirArrow">
                        <path fill="none" stroke="white" stroke-width="1.5" d="M0,-3.0v7 M-2.5,-0.5L0,-3.0L2.5,-0.5"/>
                </g>
               <g id="resetDef">
                       <use xlink:href="#rim2" fill="#404040">
                               <set attributeName="fill" to="#808080" begin="reset.mouseover" end="reset.mouseout"/>
                       </use>
               </g>
        </defs>

<script type="text/javascript">
var viewWidth = 1255;
var viewHeight = 476;
var sectionId = 'dynsection-0';
</script>
<script xlink:href="svgpan.js"/>
<svg id="graph" class="graph">
<g id="viewport">
<title>IPlugPluginBase.h</title>
<polygon fill="white" stroke="none" points="-4,4 -4,-472 1251,-472 1251,4 -4,4"/>
<!-- Node1 -->
<g id="node1" class="node"><title>Node1</title>
<polygon fill="#bfbfbf" stroke="black" points="453.5,-448.5 453.5,-467.5 550.5,-467.5 550.5,-448.5 453.5,-448.5"/>
<text text-anchor="middle" x="502" y="-455.5" font-family="Helvetica,sans-Serif" font-size="10.00">IPlugPluginBase.h</text>
</g>
<!-- Node2 -->
<g id="node2" class="node"><title>Node2</title>
<g id="a_node2"><a xlink:href="_i_plug_delegate__select_8h.html" target="_top" xlink:title="Used for choosing an editor delegate. ">
<polygon fill="white" stroke="black" points="384,-392.5 384,-411.5 502,-411.5 502,-392.5 384,-392.5"/>
<text text-anchor="middle" x="443" y="-399.5" font-family="Helvetica,sans-Serif" font-size="10.00">IPlugDelegate_select.h</text>
</a>
</g>
</g>
<!-- Node1&#45;&gt;Node2 -->
<g id="edge1" class="edge"><title>Node1&#45;&gt;Node2</title>
<path fill="none" stroke="midnightblue" d="M492.521,-448.324C483.799,-440.341 470.657,-428.313 460.102,-418.653"/>
<polygon fill="midnightblue" stroke="midnightblue" points="462.392,-416.004 452.652,-411.834 457.666,-421.167 462.392,-416.004"/>
</g>
<!-- Node8 -->
<g id="node8" class="node"><title>Node8</title>
<g id="a_node8"><a xlink:href="_i_plug_parameter_8h.html" target="_top" xlink:title="IPlug&#39;s parameter class. ">
<polygon fill="white" stroke="black" points="139,-168.5 139,-187.5 231,-187.5 231,-168.5 139,-168.5"/>
<text text-anchor="middle" x="185" y="-175.5" font-family="Helvetica,sans-Serif" font-size="10.00">IPlugParameter.h</text>
</a>
</g>
</g>
<!-- Node1&#45;&gt;Node8 -->
<g id="edge50" class="edge"><title>Node1&#45;&gt;Node8</title>
<path fill="none" stroke="midnightblue" d="M453.356,-450.484C364.275,-437.18 184,-403.3 184,-347 184,-347 184,-347 184,-289 184,-256.947 184.43,-219.642 184.726,-197.748"/>
<polygon fill="midnightblue" stroke="midnightblue" points="188.228,-197.606 184.869,-187.558 181.229,-197.507 188.228,-197.606"/>
</g>
<!-- Node23 -->
<g id="node23" class="node"><title>Node23</title>
<g id="a_node23"><a xlink:href="_i_plug_logger_8h.html" target="_top" xlink:title="IPlug logging a.k.a tracing functionality. ">
<polygon fill="white" stroke="black" points="543.5,-168.5 543.5,-187.5 620.5,-187.5 620.5,-168.5 543.5,-168.5"/>
<text text-anchor="middle" x="582" y="-175.5" font-family="Helvetica,sans-Serif" font-size="10.00">IPlugLogger.h</text>
</a>
</g>
</g>
<!-- Node1&#45;&gt;Node23 -->
<g id="edge52" class="edge"><title>Node1&#45;&gt;Node23</title>
<path fill="none" stroke="midnightblue" d="M510.453,-448.438C526.767,-430.962 561,-389.258 561,-347 561,-347 561,-347 561,-289 561,-256.384 570.018,-219.278 576.235,-197.573"/>
<polygon fill="midnightblue" stroke="midnightblue" points="579.666,-198.315 579.168,-187.732 572.957,-196.316 579.666,-198.315"/>
</g>
<!-- Node27 -->
<g id="node27" class="node"><title>Node27</title>
<g id="a_node27"><a xlink:href="_i_plug_structs_8h_source.html" target="_top" xlink:title="IPlugStructs.h">
<polygon fill="white" stroke="black" points="777.5,-280.5 777.5,-299.5 856.5,-299.5 856.5,-280.5 777.5,-280.5"/>
<text text-anchor="middle" x="817" y="-287.5" font-family="Helvetica,sans-Serif" font-size="10.00">IPlugStructs.h</text>
</a>
</g>
</g>
<!-- Node1&#45;&gt;Node27 -->
<g id="edge51" class="edge"><title>Node1&#45;&gt;Node27</title>
<path fill="none" stroke="midnightblue" d="M518.492,-448.309C570.161,-421.08 729.158,-337.292 791.523,-304.426"/>
<polygon fill="midnightblue" stroke="midnightblue" points="793.456,-307.364 800.671,-299.605 790.192,-301.171 793.456,-307.364"/>
</g>
<!-- Node3 -->
<g id="node3" class="node"><title>Node3</title>
<g id="a_node3"><a xlink:href="_i_plug_editor_delegate_8h.html" target="_top" xlink:title="This pure virtual interface delegates communication in both directions between a UI editor and someth...">
<polygon fill="white" stroke="black" points="331,-336.5 331,-355.5 443,-355.5 443,-336.5 331,-336.5"/>
<text text-anchor="middle" x="387" y="-343.5" font-family="Helvetica,sans-Serif" font-size="10.00">IPlugEditorDelegate.h</text>
</a>
</g>
</g>
<!-- Node2&#45;&gt;Node3 -->
<g id="edge2" class="edge"><title>Node2&#45;&gt;Node3</title>
<path fill="none" stroke="midnightblue" d="M434.003,-392.324C425.806,-384.42 413.494,-372.548 403.528,-362.938"/>
<polygon fill="midnightblue" stroke="midnightblue" points="405.789,-360.256 396.161,-355.834 400.93,-365.295 405.789,-360.256"/>
</g>
<!-- Node4 -->
<g id="node4" class="node"><title>Node4</title>
<polygon fill="white" stroke="#bfbfbf" points="364.5,-112.5 364.5,-131.5 413.5,-131.5 413.5,-112.5 364.5,-112.5"/>
<text text-anchor="middle" x="389" y="-119.5" font-family="Helvetica,sans-Serif" font-size="10.00">cassert</text>
</g>
<!-- Node3&#45;&gt;Node4 -->
<g id="edge3" class="edge"><title>Node3&#45;&gt;Node4</title>
<path fill="none" stroke="midnightblue" d="M378.142,-336.295C359.553,-316.936 319.129,-268.508 331,-224 339.637,-191.617 361.404,-158.828 375.677,-139.733"/>
<polygon fill="midnightblue" stroke="midnightblue" points="378.496,-141.81 381.813,-131.748 372.945,-137.545 378.496,-141.81"/>
</g>
<!-- Node5 -->
<g id="node5" class="node"><title>Node5</title>
<polygon fill="white" stroke="#bfbfbf" points="483,-0.5 483,-19.5 529,-19.5 529,-0.5 483,-0.5"/>
<text text-anchor="middle" x="506" y="-7.5" font-family="Helvetica,sans-Serif" font-size="10.00">cstring</text>
</g>
<!-- Node3&#45;&gt;Node5 -->
<g id="edge4" class="edge"><title>Node3&#45;&gt;Node5</title>
<path fill="none" stroke="midnightblue" d="M362.212,-336.409C325.252,-321.835 260,-288.526 260,-235 260,-235 260,-235 260,-121 260,-28.8537 405.621,-13.3845 472.785,-11.1503"/>
<polygon fill="midnightblue" stroke="midnightblue" points="472.949,-14.6474 482.857,-10.8956 472.772,-7.64962 472.949,-14.6474"/>
</g>
<!-- Node6 -->
<g id="node6" class="node"><title>Node6</title>
<polygon fill="white" stroke="#bfbfbf" points="389.5,-280.5 389.5,-299.5 438.5,-299.5 438.5,-280.5 389.5,-280.5"/>
<text text-anchor="middle" x="414" y="-287.5" font-family="Helvetica,sans-Serif" font-size="10.00">stdint.h</text>
</g>
<!-- Node3&#45;&gt;Node6 -->
<g id="edge5" class="edge"><title>Node3&#45;&gt;Node6</title>
<path fill="none" stroke="midnightblue" d="M391.459,-336.083C395.154,-328.691 400.523,-317.953 405.094,-308.811"/>
<polygon fill="midnightblue" stroke="midnightblue" points="408.283,-310.261 409.624,-299.751 402.022,-307.13 408.283,-310.261"/>
</g>
<!-- Node7 -->
<g id="node7" class="node"><title>Node7</title>
<polygon fill="white" stroke="#bfbfbf" points="340.5,-224.5 340.5,-243.5 389.5,-243.5 389.5,-224.5 340.5,-224.5"/>
<text text-anchor="middle" x="365" y="-231.5" font-family="Helvetica,sans-Serif" font-size="10.00">ptrlist.h</text>
</g>
<!-- Node3&#45;&gt;Node7 -->
<g id="edge6" class="edge"><title>Node3&#45;&gt;Node7</title>
<path fill="none" stroke="midnightblue" d="M385.274,-336.368C381.723,-318.617 373.533,-277.666 368.719,-253.597"/>
<polygon fill="midnightblue" stroke="midnightblue" points="372.112,-252.711 366.718,-243.591 365.247,-254.084 372.112,-252.711"/>
</g>
<!-- Node3&#45;&gt;Node8 -->
<g id="edge7" class="edge"><title>Node3&#45;&gt;Node8</title>
<path fill="none" stroke="midnightblue" d="M330.802,-337.569C302.716,-331.43 269.75,-320.265 246,-300 213.899,-272.609 196.835,-224.197 189.496,-197.67"/>
<polygon fill="midnightblue" stroke="midnightblue" points="192.826,-196.569 186.93,-187.766 186.05,-198.324 192.826,-196.569"/>
</g>
<!-- Node21 -->
<g id="node21" class="node"><title>Node21</title>
<g id="a_node21"><a xlink:href="_i_plug_midi_8h.html" target="_top" xlink:title="MIDI and sysex structs/utilites. ">
<polygon fill="white" stroke="black" points="434.5,-224.5 434.5,-243.5 499.5,-243.5 499.5,-224.5 434.5,-224.5"/>
<text text-anchor="middle" x="467" y="-231.5" font-family="Helvetica,sans-Serif" font-size="10.00">IPlugMidi.h</text>
</a>
</g>
</g>
<!-- Node3&#45;&gt;Node21 -->
<g id="edge25" class="edge"><title>Node3&#45;&gt;Node21</title>
<path fill="none" stroke="midnightblue" d="M403.563,-336.461C417.097,-328.68 435.765,-315.976 447,-300 456.657,-286.268 461.756,-267.738 464.382,-253.976"/>
<polygon fill="midnightblue" stroke="midnightblue" points="467.895,-254.181 466.051,-243.748 460.986,-253.053 467.895,-254.181"/>
</g>
<!-- Node3&#45;&gt;Node27 -->
<g id="edge42" class="edge"><title>Node3&#45;&gt;Node27</title>
<path fill="none" stroke="midnightblue" d="M443.215,-337.94C527.748,-327.325 686.272,-307.417 767,-297.279"/>
<polygon fill="midnightblue" stroke="midnightblue" points="767.903,-300.693 777.389,-295.974 767.031,-293.748 767.903,-300.693"/>
</g>
<!-- Node8&#45;&gt;Node5 -->
<g id="edge9" class="edge"><title>Node8&#45;&gt;Node5</title>
<path fill="none" stroke="midnightblue" d="M188.899,-168.163C200.723,-141.532 235.981,-63.4222 246,-56 281.492,-29.706 411.05,-17.4909 472.815,-13.0641"/>
<polygon fill="midnightblue" stroke="midnightblue" points="473.088,-16.5538 482.823,-12.3728 472.605,-9.57039 473.088,-16.5538"/>
</g>
<!-- Node9 -->
<g id="node9" class="node"><title>Node9</title>
<polygon fill="white" stroke="#bfbfbf" points="0,-112.5 0,-131.5 46,-131.5 46,-112.5 0,-112.5"/>
<text text-anchor="middle" x="23" y="-119.5" font-family="Helvetica,sans-Serif" font-size="10.00">atomic</text>
</g>
<!-- Node8&#45;&gt;Node9 -->
<g id="edge8" class="edge"><title>Node8&#45;&gt;Node9</title>
<path fill="none" stroke="midnightblue" d="M159.331,-168.444C131.356,-159.119 86.5148,-144.172 55.9574,-133.986"/>
<polygon fill="midnightblue" stroke="midnightblue" points="56.7808,-130.571 46.1871,-130.729 54.5671,-137.212 56.7808,-130.571"/>
</g>
<!-- Node10 -->
<g id="node10" class="node"><title>Node10</title>
<polygon fill="white" stroke="#bfbfbf" points="64.5,-112.5 64.5,-131.5 123.5,-131.5 123.5,-112.5 64.5,-112.5"/>
<text text-anchor="middle" x="94" y="-119.5" font-family="Helvetica,sans-Serif" font-size="10.00">functional</text>
</g>
<!-- Node8&#45;&gt;Node10 -->
<g id="edge10" class="edge"><title>Node8&#45;&gt;Node10</title>
<path fill="none" stroke="midnightblue" d="M170.379,-168.324C156.051,-159.822 133.987,-146.729 117.251,-136.797"/>
<polygon fill="midnightblue" stroke="midnightblue" points="118.97,-133.748 108.584,-131.655 115.398,-139.768 118.97,-133.748"/>
</g>
<!-- Node11 -->
<g id="node11" class="node"><title>Node11</title>
<polygon fill="white" stroke="#bfbfbf" points="142,-112.5 142,-131.5 194,-131.5 194,-112.5 142,-112.5"/>
<text text-anchor="middle" x="168" y="-119.5" font-family="Helvetica,sans-Serif" font-size="10.00">memory</text>
</g>
<!-- Node8&#45;&gt;Node11 -->
<g id="edge11" class="edge"><title>Node8&#45;&gt;Node11</title>
<path fill="none" stroke="midnightblue" d="M182.193,-168.083C179.915,-160.849 176.629,-150.409 173.792,-141.397"/>
<polygon fill="midnightblue" stroke="midnightblue" points="177.096,-140.239 170.755,-131.751 170.419,-142.341 177.096,-140.239"/>
</g>
<!-- Node12 -->
<g id="node12" class="node"><title>Node12</title>
<polygon fill="white" stroke="#bfbfbf" points="646,-56.5 646,-75.5 710,-75.5 710,-56.5 646,-56.5"/>
<text text-anchor="middle" x="678" y="-63.5" font-family="Helvetica,sans-Serif" font-size="10.00">wdlstring.h</text>
</g>
<!-- Node8&#45;&gt;Node12 -->
<g id="edge12" class="edge"><title>Node8&#45;&gt;Node12</title>
<path fill="none" stroke="midnightblue" d="M203.414,-168.363C234.131,-154.321 298.082,-126.644 355,-112 407.238,-98.5604 560.647,-80.1982 635.688,-71.6862"/>
<polygon fill="midnightblue" stroke="midnightblue" points="636.193,-75.1514 645.738,-70.552 635.408,-68.1956 636.193,-75.1514"/>
</g>
<!-- Node13 -->
<g id="node13" class="node"><title>Node13</title>
<g id="a_node13"><a xlink:href="_i_plug_utilities_8h.html" target="_top" xlink:title="Utility functions and macros. ">
<polygon fill="white" stroke="black" points="921,-112.5 921,-131.5 1001,-131.5 1001,-112.5 921,-112.5"/>
<text text-anchor="middle" x="961" y="-119.5" font-family="Helvetica,sans-Serif" font-size="10.00">IPlugUtilities.h</text>
</a>
</g>
</g>
<!-- Node8&#45;&gt;Node13 -->
<g id="edge13" class="edge"><title>Node8&#45;&gt;Node13</title>
<path fill="none" stroke="midnightblue" d="M231.218,-173.784C367.778,-164.281 768.72,-136.38 910.565,-126.51"/>
<polygon fill="midnightblue" stroke="midnightblue" points="910.986,-129.989 920.719,-125.803 910.5,-123.006 910.986,-129.989"/>
</g>
<!-- Node13&#45;&gt;Node5 -->
<g id="edge18" class="edge"><title>Node13&#45;&gt;Node5</title>
<path fill="none" stroke="midnightblue" d="M945.224,-112.258C913.929,-94.9448 846.519,-57.7983 841,-56 734.678,-21.3577 601.023,-13.3549 539.638,-11.5271"/>
<polygon fill="midnightblue" stroke="midnightblue" points="539.472,-8.0217 529.384,-11.2602 539.29,-15.0193 539.472,-8.0217"/>
</g>
<!-- Node13&#45;&gt;Node12 -->
<g id="edge20" class="edge"><title>Node13&#45;&gt;Node12</title>
<path fill="none" stroke="midnightblue" d="M920.754,-113.32C867.567,-103.172 774.3,-85.3752 720.168,-75.0461"/>
<polygon fill="midnightblue" stroke="midnightblue" points="720.689,-71.5825 710.21,-73.1461 719.377,-78.4585 720.689,-71.5825"/>
</g>
<!-- Node14 -->
<g id="node14" class="node"><title>Node14</title>
<polygon fill="white" stroke="#bfbfbf" points="777,-56.5 777,-75.5 833,-75.5 833,-56.5 777,-56.5"/>
<text text-anchor="middle" x="805" y="-63.5" font-family="Helvetica,sans-Serif" font-size="10.00">algorithm</text>
</g>
<!-- Node13&#45;&gt;Node14 -->
<g id="edge14" class="edge"><title>Node13&#45;&gt;Node14</title>
<path fill="none" stroke="midnightblue" d="M936.281,-112.444C910.152,-103.399 868.741,-89.064 839.424,-78.9158"/>
<polygon fill="midnightblue" stroke="midnightblue" points="840.198,-75.4801 829.603,-75.5164 837.908,-82.0951 840.198,-75.4801"/>
</g>
<!-- Node15 -->
<g id="node15" class="node"><title>Node15</title>
<polygon fill="white" stroke="#bfbfbf" points="889,-56.5 889,-75.5 933,-75.5 933,-56.5 889,-56.5"/>
<text text-anchor="middle" x="911" y="-63.5" font-family="Helvetica,sans-Serif" font-size="10.00">cmath</text>
</g>
<!-- Node13&#45;&gt;Node15 -->
<g id="edge15" class="edge"><title>Node13&#45;&gt;Node15</title>
<path fill="none" stroke="midnightblue" d="M952.744,-112.083C945.535,-104.298 934.89,-92.8015 926.154,-83.3665"/>
<polygon fill="midnightblue" stroke="midnightblue" points="928.465,-80.7108 919.103,-75.7511 923.329,-85.4666 928.465,-80.7108"/>
</g>
<!-- Node16 -->
<g id="node16" class="node"><title>Node16</title>
<polygon fill="white" stroke="#bfbfbf" points="534.5,-56.5 534.5,-75.5 577.5,-75.5 577.5,-56.5 534.5,-56.5"/>
<text text-anchor="middle" x="556" y="-63.5" font-family="Helvetica,sans-Serif" font-size="10.00">cstdio</text>
</g>
<!-- Node13&#45;&gt;Node16 -->
<g id="edge16" class="edge"><title>Node13&#45;&gt;Node16</title>
<path fill="none" stroke="midnightblue" d="M920.686,-115.625C840.021,-104.869 660.264,-80.9018 587.492,-71.1989"/>
<polygon fill="midnightblue" stroke="midnightblue" points="587.93,-67.7265 577.555,-69.8741 587.005,-74.6651 587.93,-67.7265"/>
</g>
<!-- Node17 -->
<g id="node17" class="node"><title>Node17</title>
<polygon fill="white" stroke="#bfbfbf" points="1005.5,-0.5 1005.5,-19.5 1050.5,-19.5 1050.5,-0.5 1005.5,-0.5"/>
<text text-anchor="middle" x="1028" y="-7.5" font-family="Helvetica,sans-Serif" font-size="10.00">cstdlib</text>
</g>
<!-- Node13&#45;&gt;Node17 -->
<g id="edge17" class="edge"><title>Node13&#45;&gt;Node17</title>
<path fill="none" stroke="midnightblue" d="M962.037,-112.416C963.92,-99.3927 968.797,-74.2307 980,-56 987.123,-44.4081 998.009,-33.8615 1007.61,-25.8969"/>
<polygon fill="midnightblue" stroke="midnightblue" points="1009.91,-28.5412 1015.6,-19.6009 1005.58,-23.0445 1009.91,-28.5412"/>
</g>
<!-- Node18 -->
<g id="node18" class="node"><title>Node18</title>
<polygon fill="white" stroke="#bfbfbf" points="989,-56.5 989,-75.5 1035,-75.5 1035,-56.5 989,-56.5"/>
<text text-anchor="middle" x="1012" y="-63.5" font-family="Helvetica,sans-Serif" font-size="10.00">cctype</text>
</g>
<!-- Node13&#45;&gt;Node18 -->
<g id="edge19" class="edge"><title>Node13&#45;&gt;Node18</title>
<path fill="none" stroke="midnightblue" d="M969.422,-112.083C976.848,-104.22 987.852,-92.5688 996.812,-83.0813"/>
<polygon fill="midnightblue" stroke="midnightblue" points="999.413,-85.4244 1003.74,-75.7511 994.324,-80.618 999.413,-85.4244"/>
</g>
<!-- Node19 -->
<g id="node19" class="node"><title>Node19</title>
<g id="a_node19"><a xlink:href="_i_plug_constants_8h.html" target="_top" xlink:title="IPlug Constant definitions, Types, magic numbers. ">
<polygon fill="white" stroke="black" points="1155,-56.5 1155,-75.5 1247,-75.5 1247,-56.5 1155,-56.5"/>
<text text-anchor="middle" x="1201" y="-63.5" font-family="Helvetica,sans-Serif" font-size="10.00">IPlugConstants.h</text>
</a>
</g>
</g>
<!-- Node13&#45;&gt;Node19 -->
<g id="edge21" class="edge"><title>Node13&#45;&gt;Node19</title>
<path fill="none" stroke="midnightblue" d="M999.029,-112.444C1040.81,-103.043 1107.98,-87.9291 1153.27,-77.7393"/>
<polygon fill="midnightblue" stroke="midnightblue" points="1154.16,-81.1263 1163.15,-75.5164 1152.62,-74.297 1154.16,-81.1263"/>
</g>
<!-- Node20 -->
<g id="node20" class="node"><title>Node20</title>
<g id="a_node20"><a xlink:href="_i_plug_platform_8h.html" target="_top" xlink:title="Include to get consistently named preprocessor macros for different platforms and logging functionali...">
<polygon fill="white" stroke="black" points="1053,-56.5 1053,-75.5 1137,-75.5 1137,-56.5 1053,-56.5"/>
<text text-anchor="middle" x="1095" y="-63.5" font-family="Helvetica,sans-Serif" font-size="10.00">IPlugPlatform.h</text>
</a>
</g>
</g>
<!-- Node13&#45;&gt;Node20 -->
<g id="edge22" class="edge"><title>Node13&#45;&gt;Node20</title>
<path fill="none" stroke="midnightblue" d="M982.233,-112.444C1004.38,-103.517 1039.32,-89.4387 1064.44,-79.3168"/>
<polygon fill="midnightblue" stroke="midnightblue" points="1065.9,-82.5006 1073.87,-75.5164 1063.28,-76.0079 1065.9,-82.5006"/>
</g>
<!-- Node20&#45;&gt;Node5 -->
<g id="edge23" class="edge"><title>Node20&#45;&gt;Node5</title>
<path fill="none" stroke="midnightblue" d="M1052.74,-57.2372C1049.79,-56.7886 1046.85,-56.3703 1044,-56 853.692,-31.3015 623.664,-17.3256 539.179,-12.7192"/>
<polygon fill="midnightblue" stroke="midnightblue" points="539.326,-9.22212 529.152,-12.1795 538.95,-16.212 539.326,-9.22212"/>
</g>
<!-- Node20&#45;&gt;Node17 -->
<g id="edge24" class="edge"><title>Node20&#45;&gt;Node17</title>
<path fill="none" stroke="midnightblue" d="M1084.24,-56.324C1074.23,-48.2631 1059.11,-36.0765 1047.07,-26.3695"/>
<polygon fill="midnightblue" stroke="midnightblue" points="1048.94,-23.3841 1038.96,-19.8339 1044.55,-28.8343 1048.94,-23.3841"/>
</g>
<!-- Node21&#45;&gt;Node4 -->
<g id="edge26" class="edge"><title>Node21&#45;&gt;Node4</title>
<path fill="none" stroke="midnightblue" d="M460.879,-224.368C448.007,-206.215 417.932,-163.802 401.048,-139.99"/>
<polygon fill="midnightblue" stroke="midnightblue" points="403.731,-137.724 395.092,-131.591 398.021,-141.773 403.731,-137.724"/>
</g>
<!-- Node21&#45;&gt;Node14 -->
<g id="edge29" class="edge"><title>Node21&#45;&gt;Node14</title>
<path fill="none" stroke="midnightblue" d="M499.601,-227.765C575.379,-214.894 759.841,-179.279 798,-132 808.35,-119.177 809.211,-99.9916 808.018,-85.7853"/>
<polygon fill="midnightblue" stroke="midnightblue" points="811.469,-85.1686 806.763,-75.6762 804.522,-86.0313 811.469,-85.1686"/>
</g>
<!-- Node21&#45;&gt;Node16 -->
<g id="edge28" class="edge"><title>Node21&#45;&gt;Node16</title>
<path fill="none" stroke="midnightblue" d="M447.825,-224.433C407.261,-205.159 319.302,-156.574 355,-112 375.817,-86.007 472.738,-74.0166 524.005,-69.4125"/>
<polygon fill="midnightblue" stroke="midnightblue" points="524.543,-72.8794 534.208,-68.5398 523.946,-65.9048 524.543,-72.8794"/>
</g>
<!-- Node22 -->
<g id="node22" class="node"><title>Node22</title>
<polygon fill="white" stroke="#bfbfbf" points="432,-112.5 432,-131.5 478,-131.5 478,-112.5 432,-112.5"/>
<text text-anchor="middle" x="455" y="-119.5" font-family="Helvetica,sans-Serif" font-size="10.00">cstdint</text>
</g>
<!-- Node21&#45;&gt;Node22 -->
<g id="edge27" class="edge"><title>Node21&#45;&gt;Node22</title>
<path fill="none" stroke="midnightblue" d="M466.058,-224.368C464.122,-206.617 459.655,-165.666 457.029,-141.597"/>
<polygon fill="midnightblue" stroke="midnightblue" points="460.501,-141.153 455.937,-131.591 453.542,-141.912 460.501,-141.153"/>
</g>
<!-- Node21&#45;&gt;Node23 -->
<g id="edge30" class="edge"><title>Node21&#45;&gt;Node23</title>
<path fill="none" stroke="midnightblue" d="M485.222,-224.444C503.896,-215.675 533.156,-201.935 554.617,-191.858"/>
<polygon fill="midnightblue" stroke="midnightblue" points="556.299,-194.935 563.863,-187.516 553.324,-188.599 556.299,-194.935"/>
</g>
<!-- Node23&#45;&gt;Node4 -->
<g id="edge37" class="edge"><title>Node23&#45;&gt;Node4</title>
<path fill="none" stroke="midnightblue" d="M551.419,-168.444C516.539,-158.685 459.652,-142.768 423.295,-132.596"/>
<polygon fill="midnightblue" stroke="midnightblue" points="424.194,-129.213 413.62,-129.889 422.308,-135.954 424.194,-129.213"/>
</g>
<!-- Node23&#45;&gt;Node5 -->
<g id="edge35" class="edge"><title>Node23&#45;&gt;Node5</title>
<path fill="none" stroke="midnightblue" d="M576.26,-168.43C565.086,-151.435 540.178,-111.991 525,-76 518.576,-60.7661 513.476,-42.655 510.184,-29.4245"/>
<polygon fill="midnightblue" stroke="midnightblue" points="513.574,-28.5482 507.855,-19.6291 506.763,-30.1675 513.574,-28.5482"/>
</g>
<!-- Node23&#45;&gt;Node12 -->
<g id="edge38" class="edge"><title>Node23&#45;&gt;Node12</title>
<path fill="none" stroke="midnightblue" d="M582.543,-168.073C583.781,-154.602 587.828,-128.863 601,-112 612.209,-97.6513 629.367,-86.9896 644.644,-79.6553"/>
<polygon fill="midnightblue" stroke="midnightblue" points="646.161,-82.8111 653.843,-75.5155 643.288,-76.4277 646.161,-82.8111"/>
</g>
<!-- Node23&#45;&gt;Node13 -->
<g id="edge41" class="edge"><title>Node23&#45;&gt;Node13</title>
<path fill="none" stroke="midnightblue" d="M620.779,-171.475C689.79,-161.642 833.851,-141.116 910.499,-130.195"/>
<polygon fill="midnightblue" stroke="midnightblue" points="911.445,-133.596 920.852,-128.72 910.458,-126.666 911.445,-133.596"/>
</g>
<!-- Node23&#45;&gt;Node16 -->
<g id="edge31" class="edge"><title>Node23&#45;&gt;Node16</title>
<path fill="none" stroke="midnightblue" d="M579.009,-168.459C575.94,-159.47 571.178,-144.868 568,-132 564.213,-116.662 561.028,-99.0227 558.894,-85.9928"/>
<polygon fill="midnightblue" stroke="midnightblue" points="562.317,-85.2339 557.299,-75.9027 555.403,-86.3265 562.317,-85.2339"/>
</g>
<!-- Node23&#45;&gt;Node18 -->
<g id="edge32" class="edge"><title>Node23&#45;&gt;Node18</title>
<path fill="none" stroke="midnightblue" d="M620.51,-175.786C720.728,-172.239 983.721,-160.299 1010,-132 1021.26,-119.87 1020.28,-100.312 1017.39,-85.8137"/>
<polygon fill="midnightblue" stroke="midnightblue" points="1020.74,-84.8042 1014.97,-75.9203 1013.94,-86.4652 1020.74,-84.8042"/>
</g>
<!-- Node23&#45;&gt;Node19 -->
<g id="edge40" class="edge"><title>Node23&#45;&gt;Node19</title>
<path fill="none" stroke="midnightblue" d="M620.524,-176.486C698.618,-174.712 880.751,-166.841 1029,-132 1081.89,-119.57 1140.48,-94.9371 1173.81,-79.8215"/>
<polygon fill="midnightblue" stroke="midnightblue" points="1175.29,-82.9961 1182.91,-75.6443 1172.37,-76.634 1175.29,-82.9961"/>
</g>
<!-- Node23&#45;&gt;Node22 -->
<g id="edge34" class="edge"><title>Node23&#45;&gt;Node22</title>
<path fill="none" stroke="midnightblue" d="M561.876,-168.444C540.976,-159.557 508.065,-145.563 484.284,-135.451"/>
<polygon fill="midnightblue" stroke="midnightblue" points="485.602,-132.208 475.029,-131.516 482.862,-138.65 485.602,-132.208"/>
</g>
<!-- Node24 -->
<g id="node24" class="node"><title>Node24</title>
<polygon fill="white" stroke="#bfbfbf" points="610.5,-112.5 610.5,-131.5 659.5,-131.5 659.5,-112.5 610.5,-112.5"/>
<text text-anchor="middle" x="635" y="-119.5" font-family="Helvetica,sans-Serif" font-size="10.00">cstdarg</text>
</g>
<!-- Node23&#45;&gt;Node24 -->
<g id="edge33" class="edge"><title>Node23&#45;&gt;Node24</title>
<path fill="none" stroke="midnightblue" d="M590.752,-168.083C598.47,-160.22 609.905,-148.569 619.217,-139.081"/>
<polygon fill="midnightblue" stroke="midnightblue" points="621.904,-141.34 626.411,-131.751 616.908,-136.436 621.904,-141.34"/>
</g>
<!-- Node25 -->
<g id="node25" class="node"><title>Node25</title>
<polygon fill="white" stroke="#bfbfbf" points="677.5,-112.5 677.5,-131.5 718.5,-131.5 718.5,-112.5 677.5,-112.5"/>
<text text-anchor="middle" x="698" y="-119.5" font-family="Helvetica,sans-Serif" font-size="10.00">ctime</text>
</g>
<!-- Node23&#45;&gt;Node25 -->
<g id="edge36" class="edge"><title>Node23&#45;&gt;Node25</title>
<path fill="none" stroke="midnightblue" d="M600.381,-168.444C619.216,-159.675 648.731,-145.935 670.379,-135.858"/>
<polygon fill="midnightblue" stroke="midnightblue" points="672.117,-138.91 679.705,-131.516 669.162,-132.564 672.117,-138.91"/>
</g>
<!-- Node26 -->
<g id="node26" class="node"><title>Node26</title>
<polygon fill="white" stroke="#bfbfbf" points="737,-112.5 737,-131.5 789,-131.5 789,-112.5 737,-112.5"/>
<text text-anchor="middle" x="763" y="-119.5" font-family="Helvetica,sans-Serif" font-size="10.00">mutex.h</text>
</g>
<!-- Node23&#45;&gt;Node26 -->
<g id="edge39" class="edge"><title>Node23&#45;&gt;Node26</title>
<path fill="none" stroke="midnightblue" d="M610.68,-168.444C642.253,-159.024 693.054,-143.868 727.211,-133.677"/>
<polygon fill="midnightblue" stroke="midnightblue" points="728.223,-137.028 736.805,-130.815 726.222,-130.32 728.223,-137.028"/>
</g>
<!-- Node27&#45;&gt;Node7 -->
<g id="edge45" class="edge"><title>Node27&#45;&gt;Node7</title>
<path fill="none" stroke="midnightblue" d="M777.439,-284.916C706.654,-277.507 553.69,-261.033 425,-244 416.85,-242.921 408.093,-241.664 399.856,-240.437"/>
<polygon fill="midnightblue" stroke="midnightblue" points="400.197,-236.949 389.786,-238.915 399.15,-243.87 400.197,-236.949"/>
</g>
<!-- Node27&#45;&gt;Node12 -->
<g id="edge44" class="edge"><title>Node27&#45;&gt;Node12</title>
<path fill="none" stroke="midnightblue" d="M818.906,-280.491C824.574,-252.837 838.523,-164.27 798,-112 779.444,-88.0656 746.698,-76.8613 720.096,-71.6163"/>
<polygon fill="midnightblue" stroke="midnightblue" points="720.698,-68.1687 710.243,-69.8838 719.486,-75.0629 720.698,-68.1687"/>
</g>
<!-- Node27&#45;&gt;Node13 -->
<g id="edge49" class="edge"><title>Node27&#45;&gt;Node13</title>
<path fill="none" stroke="midnightblue" d="M845.693,-280.386C865.12,-273.302 890.211,-261.543 907,-244 935.264,-214.467 950.309,-167.631 956.868,-141.745"/>
<polygon fill="midnightblue" stroke="midnightblue" points="960.335,-142.29 959.237,-131.753 953.524,-140.675 960.335,-142.29"/>
</g>
<!-- Node27&#45;&gt;Node14 -->
<g id="edge43" class="edge"><title>Node27&#45;&gt;Node14</title>
<path fill="none" stroke="midnightblue" d="M820.6,-280.222C824.056,-271.285 829.033,-256.942 831,-244 839.863,-185.674 831.755,-169.121 817,-112 814.748,-103.281 812.184,-93.6311 810.006,-85.5106"/>
<polygon fill="midnightblue" stroke="midnightblue" points="813.321,-84.3617 807.341,-75.6163 806.562,-86.1825 813.321,-84.3617"/>
</g>
<!-- Node27&#45;&gt;Node19 -->
<g id="edge46" class="edge"><title>Node27&#45;&gt;Node19</title>
<path fill="none" stroke="midnightblue" d="M854.216,-280.475C883.174,-273.039 923.869,-260.8 957,-244 1049.86,-196.912 1145.76,-116.11 1183.88,-82.4361"/>
<polygon fill="midnightblue" stroke="midnightblue" points="1186.38,-84.9035 1191.52,-75.6395 1181.72,-79.6756 1186.38,-84.9035"/>
</g>
<!-- Node27&#45;&gt;Node20 -->
<g id="edge47" class="edge"><title>Node27&#45;&gt;Node20</title>
<path fill="none" stroke="midnightblue" d="M848.251,-280.477C871.767,-273.141 904.091,-261.032 929,-244 997.026,-197.486 1058.01,-118.714 1083,-84.1371"/>
<polygon fill="midnightblue" stroke="midnightblue" points="1086.12,-85.7952 1089.07,-75.6203 1080.42,-81.7328 1086.12,-85.7952"/>
</g>
<!-- Node27&#45;&gt;Node21 -->
<g id="edge48" class="edge"><title>Node27&#45;&gt;Node21</title>
<path fill="none" stroke="midnightblue" d="M777.191,-282.858C710.727,-272.604 577.742,-252.086 509.518,-241.56"/>
<polygon fill="midnightblue" stroke="midnightblue" points="509.957,-238.086 499.541,-240.021 508.89,-245.005 509.957,-238.086"/>
</g>
</g>
</svg>
        <g id="navigator" transform="translate(0 0)" fill="#404254">
                <rect fill="#f2f5e9" fill-opacity="0.5" stroke="#606060" stroke-width=".5" x="0" y="0" width="60" height="60"/>
                <use id="zoomplus" xlink:href="#zoomPlus" x="17" y="9" onmousedown="handleZoom(evt,'in')"/>
                <use id="zoomminus" xlink:href="#zoomMin" x="42" y="9" onmousedown="handleZoom(evt,'out')"/>
                <use id="reset" xlink:href="#resetDef" x="30" y="36" onmousedown="handleReset()"/>
                <g id="arrowUp" xlink:href="#dirArrow" transform="translate(30 24)" onmousedown="handlePan(0,-1)">
                  <use xlink:href="#rim" fill="#404040">
                        <set attributeName="fill" to="#808080" begin="arrowUp.mouseover" end="arrowUp.mouseout"/>
                  </use>
                  <path fill="none" stroke="white" stroke-width="1.5" d="M0,-3.0v7 M-2.5,-0.5L0,-3.0L2.5,-0.5"/>
                </g>
                <g id="arrowRight" xlink:href="#dirArrow" transform="rotate(90) translate(36 -43)" onmousedown="handlePan(1,0)">
                  <use xlink:href="#rim" fill="#404040">
                        <set attributeName="fill" to="#808080" begin="arrowRight.mouseover" end="arrowRight.mouseout"/>
                  </use>
                  <path fill="none" stroke="white" stroke-width="1.5" d="M0,-3.0v7 M-2.5,-0.5L0,-3.0L2.5,-0.5"/>
                </g>
                <g id="arrowDown" xlink:href="#dirArrow" transform="rotate(180) translate(-30 -48)" onmousedown="handlePan(0,1)">
                  <use xlink:href="#rim" fill="#404040">
                        <set attributeName="fill" to="#808080" begin="arrowDown.mouseover" end="arrowDown.mouseout"/>
                  </use>
                  <path fill="none" stroke="white" stroke-width="1.5" d="M0,-3.0v7 M-2.5,-0.5L0,-3.0L2.5,-0.5"/>
                </g>
                <g id="arrowLeft" xlink:href="#dirArrow" transform="rotate(270) translate(-36 17)" onmousedown="handlePan(-1,0)">
                  <use xlink:href="#rim" fill="#404040">
                        <set attributeName="fill" to="#808080" begin="arrowLeft.mouseover" end="arrowLeft.mouseout"/>
                  </use>
                  <path fill="none" stroke="white" stroke-width="1.5" d="M0,-3.0v7 M-2.5,-0.5L0,-3.0L2.5,-0.5"/>
                </g>
        </g>
        <svg viewBox="0 0 15 15" width="100%" height="30px" preserveAspectRatio="xMaxYMin meet">
         <g id="arrow_out" transform="scale(0.3 0.3)">
          <a xlink:href="_i_plug_plugin_base_8h__incl_org.svg" target="_base">
           <rect id="button" ry="5" rx="5" y="6" x="6" height="38" width="38"
                fill="#f2f5e9" fill-opacity="0.5" stroke="#606060" stroke-width="1.0"/>
           <path id="arrow"
             d="M 11.500037,31.436501 C 11.940474,20.09759 22.043105,11.32322 32.158766,21.979434 L 37.068811,17.246167 C 37.068811,17.246167 37.088388,32 37.088388,32 L 22.160133,31.978069 C 22.160133,31.978069 26.997745,27.140456 26.997745,27.140456 C 18.528582,18.264221 13.291696,25.230495 11.500037,31.436501 z"
             style="fill:#404040;"/>
          </a>
         </g>
        </svg>
</svg>
