<?xml version="1.0" encoding="UTF-8" standalone="no"?>
<!DOCTYPE svg PUBLIC "-//W3C//DTD SVG 1.1//EN"
 "http://www.w3.org/Graphics/SVG/1.1/DTD/svg11.dtd">
<!-- Generated by graphviz version 2.36.0 (20140111.2315)
 -->
<!-- Title: IPlugVST3_Processor.h Pages: 1 -->
<svg width="1886pt" height="600pt"
 viewBox="0.00 0.00 1886.00 600.00" xmlns="http://www.w3.org/2000/svg" xmlns:xlink="http://www.w3.org/1999/xlink">
<g id="graph0" class="graph" transform="scale(1 1) rotate(0) translate(4 596)">
<title>IPlugVST3_Processor.h</title>
<polygon fill="white" stroke="none" points="-4,4 -4,-596 1882,-596 1882,4 -4,4"/>
<!-- Node1 -->
<g id="node1" class="node"><title>Node1</title>
<polygon fill="#bfbfbf" stroke="black" points="284,-572.5 284,-591.5 406,-591.5 406,-572.5 284,-572.5"/>
<text text-anchor="middle" x="345" y="-579.5" font-family="Helvetica,sans-Serif" font-size="10.00">IPlugVST3_Processor.h</text>
</g>
<!-- Node2 -->
<g id="node2" class="node"><title>Node2</title>
<polygon fill="white" stroke="#bfbfbf" points="0,-505 0,-535 110,-535 110,-505 0,-505"/>
<text text-anchor="start" x="8" y="-523" font-family="Helvetica,sans-Serif" font-size="10.00">public.sdk/source/vst</text>
<text text-anchor="middle" x="55" y="-512" font-family="Helvetica,sans-Serif" font-size="10.00">/vstaudioeffect.h</text>
</g>
<!-- Node1&#45;&gt;Node2 -->
<g id="edge1" class="edge"><title>Node1&#45;&gt;Node2</title>
<path fill="none" stroke="midnightblue" d="M299.884,-572.48C256.342,-564.154 188.309,-550.873 120.181,-536.218"/>
<polygon fill="midnightblue" stroke="midnightblue" points="120.645,-532.737 110.131,-534.046 119.166,-539.579 120.645,-532.737"/>
</g>
<!-- Node3 -->
<g id="node3" class="node"><title>Node3</title>
<polygon fill="white" stroke="#bfbfbf" points="128.5,-505 128.5,-535 271.5,-535 271.5,-505 128.5,-505"/>
<text text-anchor="start" x="136.5" y="-523" font-family="Helvetica,sans-Serif" font-size="10.00">public.sdk/source/vst</text>
<text text-anchor="middle" x="200" y="-512" font-family="Helvetica,sans-Serif" font-size="10.00">/hosting/parameterchanges.h</text>
</g>
<!-- Node1&#45;&gt;Node3 -->
<g id="edge2" class="edge"><title>Node1&#45;&gt;Node3</title>
<path fill="none" stroke="midnightblue" d="M324.225,-572.403C303.232,-563.717 270.167,-550.035 243.426,-538.969"/>
<polygon fill="midnightblue" stroke="midnightblue" points="244.473,-535.615 233.895,-535.025 241.796,-542.083 244.473,-535.615"/>
</g>
<!-- Node4 -->
<g id="node4" class="node"><title>Node4</title>
<polygon fill="white" stroke="#bfbfbf" points="290,-505 290,-535 400,-535 400,-505 290,-505"/>
<text text-anchor="start" x="298" y="-523" font-family="Helvetica,sans-Serif" font-size="10.00">pluginterfaces/vst</text>
<text text-anchor="middle" x="345" y="-512" font-family="Helvetica,sans-Serif" font-size="10.00">/ivstprocesscontext.h</text>
</g>
<!-- Node1&#45;&gt;Node4 -->
<g id="edge3" class="edge"><title>Node1&#45;&gt;Node4</title>
<path fill="none" stroke="midnightblue" d="M345,-572.403C345,-565.341 345,-554.975 345,-545.399"/>
<polygon fill="midnightblue" stroke="midnightblue" points="348.5,-545.141 345,-535.141 341.5,-545.141 348.5,-545.141"/>
</g>
<!-- Node5 -->
<g id="node5" class="node"><title>Node5</title>
<g id="a_node5"><a xlink:href="_i_plug_a_p_i_base_8h.html" target="_top" xlink:title="The base class of an IPlug plug&#45;in, which interacts with the different plug&#45;in APIs. ">
<polygon fill="white" stroke="black" points="1001,-510.5 1001,-529.5 1087,-529.5 1087,-510.5 1001,-510.5"/>
<text text-anchor="middle" x="1044" y="-517.5" font-family="Helvetica,sans-Serif" font-size="10.00">IPlugAPIBase.h</text>
</a>
</g>
</g>
<!-- Node1&#45;&gt;Node5 -->
<g id="edge4" class="edge"><title>Node1&#45;&gt;Node5</title>
<path fill="none" stroke="midnightblue" d="M406.114,-575.754C541.035,-564.173 862.5,-536.579 990.284,-525.611"/>
<polygon fill="midnightblue" stroke="midnightblue" points="990.93,-529.068 1000.59,-524.726 990.331,-522.094 990.93,-529.068"/>
</g>
<!-- Node36 -->
<g id="node36" class="node"><title>Node36</title>
<g id="a_node36"><a xlink:href="_i_plug_processor_8h.html" target="_top" xlink:title="The base class for IPlug Audio Processing. ">
<polygon fill="white" stroke="black" points="634,-336.5 634,-355.5 726,-355.5 726,-336.5 634,-336.5"/>
<text text-anchor="middle" x="680" y="-343.5" font-family="Helvetica,sans-Serif" font-size="10.00">IPlugProcessor.h</text>
</a>
</g>
</g>
<!-- Node1&#45;&gt;Node36 -->
<g id="edge77" class="edge"><title>Node1&#45;&gt;Node36</title>
<path fill="none" stroke="midnightblue" d="M357.32,-572.394C407.387,-537.422 595.941,-405.716 659.178,-361.544"/>
<polygon fill="midnightblue" stroke="midnightblue" points="661.374,-364.28 667.568,-355.684 657.366,-358.541 661.374,-364.28"/>
</g>
<!-- Node6 -->
<g id="node6" class="node"><title>Node6</title>
<polygon fill="white" stroke="#bfbfbf" points="1429,-0.5 1429,-19.5 1475,-19.5 1475,-0.5 1429,-0.5"/>
<text text-anchor="middle" x="1452" y="-7.5" font-family="Helvetica,sans-Serif" font-size="10.00">cstring</text>
</g>
<!-- Node5&#45;&gt;Node6 -->
<g id="edge5" class="edge"><title>Node5&#45;&gt;Node6</title>
<path fill="none" stroke="midnightblue" d="M1087.14,-517.627C1217.17,-513.196 1603.88,-497.804 1726,-468 1797.38,-450.58 1878,-476.473 1878,-403 1878,-403 1878,-403 1878,-121 1878,-40.0235 1585.79,-17.7254 1485.39,-12.4541"/>
<polygon fill="midnightblue" stroke="midnightblue" points="1485.37,-8.94863 1475.21,-11.9437 1485.02,-15.9399 1485.37,-8.94863"/>
</g>
<!-- Node7 -->
<g id="node7" class="node"><title>Node7</title>
<polygon fill="white" stroke="#bfbfbf" points="898,-112.5 898,-131.5 944,-131.5 944,-112.5 898,-112.5"/>
<text text-anchor="middle" x="921" y="-119.5" font-family="Helvetica,sans-Serif" font-size="10.00">cstdint</text>
</g>
<!-- Node5&#45;&gt;Node7 -->
<g id="edge6" class="edge"><title>Node5&#45;&gt;Node7</title>
<path fill="none" stroke="midnightblue" d="M1033.11,-510.377C1012.1,-492.679 968,-449.949 968,-403 968,-403 968,-403 968,-345 968,-314.775 959.848,-307.806 948,-280 940.825,-263.162 933.101,-261.578 928,-244 917.87,-209.093 918.223,-166.204 919.525,-141.997"/>
<polygon fill="midnightblue" stroke="midnightblue" points="923.036,-141.938 920.198,-131.731 916.051,-141.48 923.036,-141.938"/>
</g>
<!-- Node8 -->
<g id="node8" class="node"><title>Node8</title>
<polygon fill="white" stroke="#bfbfbf" points="936.5,-224.5 936.5,-243.5 985.5,-243.5 985.5,-224.5 936.5,-224.5"/>
<text text-anchor="middle" x="961" y="-231.5" font-family="Helvetica,sans-Serif" font-size="10.00">ptrlist.h</text>
</g>
<!-- Node5&#45;&gt;Node8 -->
<g id="edge7" class="edge"><title>Node5&#45;&gt;Node8</title>
<path fill="none" stroke="midnightblue" d="M1044,-510.269C1044,-490.941 1044,-443.076 1044,-403 1044,-403 1044,-403 1044,-345 1044,-303.911 1006.64,-268.444 982.052,-249.549"/>
<polygon fill="midnightblue" stroke="midnightblue" points="984.091,-246.704 973.969,-243.575 979.93,-252.333 984.091,-246.704"/>
</g>
<!-- Node9 -->
<g id="node9" class="node"><title>Node9</title>
<polygon fill="white" stroke="#bfbfbf" points="1654,-112.5 1654,-131.5 1706,-131.5 1706,-112.5 1654,-112.5"/>
<text text-anchor="middle" x="1680" y="-119.5" font-family="Helvetica,sans-Serif" font-size="10.00">mutex.h</text>
</g>
<!-- Node5&#45;&gt;Node9 -->
<g id="edge8" class="edge"><title>Node5&#45;&gt;Node9</title>
<path fill="none" stroke="midnightblue" d="M1087.08,-517.308C1252.8,-510.237 1840,-479.766 1840,-403 1840,-403 1840,-403 1840,-233 1840,-173.174 1763.1,-143.43 1715.93,-130.813"/>
<polygon fill="midnightblue" stroke="midnightblue" points="1716.62,-127.377 1706.06,-128.307 1714.89,-134.162 1716.62,-127.377"/>
</g>
<!-- Node10 -->
<g id="node10" class="node"><title>Node10</title>
<g id="a_node10"><a xlink:href="_i_plug_platform_8h.html" target="_top" xlink:title="Include to get consistently named preprocessor macros for different platforms and logging functionali...">
<polygon fill="white" stroke="black" points="454,-56.5 454,-75.5 538,-75.5 538,-56.5 454,-56.5"/>
<text text-anchor="middle" x="496" y="-63.5" font-family="Helvetica,sans-Serif" font-size="10.00">IPlugPlatform.h</text>
</a>
</g>
</g>
<!-- Node5&#45;&gt;Node10 -->
<g id="edge9" class="edge"><title>Node5&#45;&gt;Node10</title>
<path fill="none" stroke="midnightblue" d="M1000.84,-515.931C855.053,-504.995 390,-465.233 390,-403 390,-403 390,-403 390,-177 390,-131.815 436.95,-98.0516 468.357,-80.5209"/>
<polygon fill="midnightblue" stroke="midnightblue" points="470.372,-83.4123 477.536,-75.6068 467.068,-77.2411 470.372,-83.4123"/>
</g>
<!-- Node12 -->
<g id="node12" class="node"><title>Node12</title>
<g id="a_node12"><a xlink:href="_i_plug_plugin_base_8h.html" target="_top" xlink:title="Base class that contains plug&#45;in info and state manipulation methods. ">
<polygon fill="white" stroke="black" points="1207.5,-448.5 1207.5,-467.5 1304.5,-467.5 1304.5,-448.5 1207.5,-448.5"/>
<text text-anchor="middle" x="1256" y="-455.5" font-family="Helvetica,sans-Serif" font-size="10.00">IPlugPluginBase.h</text>
</a>
</g>
</g>
<!-- Node5&#45;&gt;Node12 -->
<g id="edge12" class="edge"><title>Node5&#45;&gt;Node12</title>
<path fill="none" stroke="midnightblue" d="M1074.37,-510.403C1111.61,-499.866 1174.81,-481.978 1215.98,-470.328"/>
<polygon fill="midnightblue" stroke="midnightblue" points="1217.01,-473.672 1225.68,-467.581 1215.11,-466.936 1217.01,-473.672"/>
</g>
<!-- Node17 -->
<g id="node17" class="node"><title>Node17</title>
<g id="a_node17"><a xlink:href="_i_plug_parameter_8h.html" target="_top" xlink:title="IPlug&#39;s parameter class. ">
<polygon fill="white" stroke="black" points="1430,-280.5 1430,-299.5 1522,-299.5 1522,-280.5 1430,-280.5"/>
<text text-anchor="middle" x="1476" y="-287.5" font-family="Helvetica,sans-Serif" font-size="10.00">IPlugParameter.h</text>
</a>
</g>
</g>
<!-- Node5&#45;&gt;Node17 -->
<g id="edge66" class="edge"><title>Node5&#45;&gt;Node17</title>
<path fill="none" stroke="midnightblue" d="M1087.23,-514.218C1141.08,-507.49 1235.46,-493.148 1313,-468 1368.6,-449.968 1390.77,-453.439 1432,-412 1460.15,-383.702 1470.44,-336.006 1474.09,-309.744"/>
<polygon fill="midnightblue" stroke="midnightblue" points="1477.58,-309.972 1475.3,-299.626 1470.63,-309.135 1477.58,-309.972"/>
</g>
<!-- Node22 -->
<g id="node22" class="node"><title>Node22</title>
<g id="a_node22"><a xlink:href="_i_plug_utilities_8h.html" target="_top" xlink:title="Utility functions and macros. ">
<polygon fill="white" stroke="black" points="762,-112.5 762,-131.5 842,-131.5 842,-112.5 762,-112.5"/>
<text text-anchor="middle" x="802" y="-119.5" font-family="Helvetica,sans-Serif" font-size="10.00">IPlugUtilities.h</text>
</a>
</g>
</g>
<!-- Node5&#45;&gt;Node22 -->
<g id="edge65" class="edge"><title>Node5&#45;&gt;Node22</title>
<path fill="none" stroke="midnightblue" d="M1000.74,-517.853C929.185,-513.401 794,-493.073 794,-403 794,-403 794,-403 794,-345 794,-269.855 798.634,-180.496 800.848,-142.09"/>
<polygon fill="midnightblue" stroke="midnightblue" points="804.356,-142.067 801.45,-131.878 797.368,-141.655 804.356,-142.067"/>
</g>
<!-- Node27 -->
<g id="node27" class="node"><title>Node27</title>
<g id="a_node27"><a xlink:href="_i_plug_constants_8h.html" target="_top" xlink:title="IPlug Constant definitions, Types, magic numbers. ">
<polygon fill="white" stroke="black" points="596,-56.5 596,-75.5 688,-75.5 688,-56.5 596,-56.5"/>
<text text-anchor="middle" x="642" y="-63.5" font-family="Helvetica,sans-Serif" font-size="10.00">IPlugConstants.h</text>
</a>
</g>
</g>
<!-- Node5&#45;&gt;Node27 -->
<g id="edge63" class="edge"><title>Node5&#45;&gt;Node27</title>
<path fill="none" stroke="midnightblue" d="M1000.83,-517.98C890.947,-512.713 601.716,-481.465 493,-300 446.852,-222.971 500.666,-172.523 567,-112 580.987,-99.2387 599.141,-88.2332 614.085,-80.3004"/>
<polygon fill="midnightblue" stroke="midnightblue" points="616.063,-83.2197 623.365,-75.5437 612.87,-76.9903 616.063,-83.2197"/>
</g>
<!-- Node32 -->
<g id="node32" class="node"><title>Node32</title>
<g id="a_node32"><a xlink:href="_i_plug_structs_8h_source.html" target="_top" xlink:title="IPlugStructs.h">
<polygon fill="white" stroke="black" points="860.5,-280.5 860.5,-299.5 939.5,-299.5 939.5,-280.5 860.5,-280.5"/>
<text text-anchor="middle" x="900" y="-287.5" font-family="Helvetica,sans-Serif" font-size="10.00">IPlugStructs.h</text>
</a>
</g>
</g>
<!-- Node5&#45;&gt;Node32 -->
<g id="edge64" class="edge"><title>Node5&#45;&gt;Node32</title>
<path fill="none" stroke="midnightblue" d="M1017.93,-510.34C997.736,-502.358 970.511,-488.6 954,-468 915.548,-420.027 904.409,-344.869 901.235,-309.976"/>
<polygon fill="midnightblue" stroke="midnightblue" points="904.707,-309.48 900.436,-299.784 897.728,-310.027 904.707,-309.48"/>
</g>
<!-- Node33 -->
<g id="node33" class="node"><title>Node33</title>
<g id="a_node33"><a xlink:href="_i_plug_queue_8h.html" target="_top" xlink:title="A lock&#45;free SPSC queue used to transfer data between threads based on MLQueue.h by Randy Jones based ...">
<polygon fill="white" stroke="black" points="1500,-448.5 1500,-467.5 1576,-467.5 1576,-448.5 1500,-448.5"/>
<text text-anchor="middle" x="1538" y="-455.5" font-family="Helvetica,sans-Serif" font-size="10.00">IPlugQueue.h</text>
</a>
</g>
</g>
<!-- Node5&#45;&gt;Node33 -->
<g id="edge67" class="edge"><title>Node5&#45;&gt;Node33</title>
<path fill="none" stroke="midnightblue" d="M1087.08,-514.845C1166.26,-507.029 1340.16,-489.017 1486,-468 1487.28,-467.816 1488.57,-467.625 1489.87,-467.429"/>
<polygon fill="midnightblue" stroke="midnightblue" points="1490.65,-470.849 1499.98,-465.835 1489.56,-463.935 1490.65,-470.849"/>
</g>
<!-- Node35 -->
<g id="node35" class="node"><title>Node35</title>
<g id="a_node35"><a xlink:href="_i_plug_timer_8h.html" target="_top" xlink:title="This file includes classes for implementing timers &#45; in order to get a regular callback on the main t...">
<polygon fill="white" stroke="black" points="1606,-280.5 1606,-299.5 1678,-299.5 1678,-280.5 1606,-280.5"/>
<text text-anchor="middle" x="1642" y="-287.5" font-family="Helvetica,sans-Serif" font-size="10.00">IPlugTimer.h</text>
</a>
</g>
</g>
<!-- Node5&#45;&gt;Node35 -->
<g id="edge70" class="edge"><title>Node5&#45;&gt;Node35</title>
<path fill="none" stroke="midnightblue" d="M1087.25,-517.626C1208.69,-513.395 1546.47,-498.939 1585,-468 1633.83,-428.783 1641.39,-347.354 1642.18,-310.214"/>
<polygon fill="midnightblue" stroke="midnightblue" points="1645.68,-309.843 1642.25,-299.822 1638.68,-309.8 1645.68,-309.843"/>
</g>
<!-- Node10&#45;&gt;Node6 -->
<g id="edge10" class="edge"><title>Node10&#45;&gt;Node6</title>
<path fill="none" stroke="midnightblue" d="M538.131,-57.7226C542.801,-57.0669 547.495,-56.4732 552,-56 889.215,-20.5794 1300.53,-12.8799 1418.77,-11.3513"/>
<polygon fill="midnightblue" stroke="midnightblue" points="1419.02,-14.8486 1428.98,-11.2256 1418.94,-7.84915 1419.02,-14.8486"/>
</g>
<!-- Node11 -->
<g id="node11" class="node"><title>Node11</title>
<polygon fill="white" stroke="#bfbfbf" points="617.5,-0.5 617.5,-19.5 662.5,-19.5 662.5,-0.5 617.5,-0.5"/>
<text text-anchor="middle" x="640" y="-7.5" font-family="Helvetica,sans-Serif" font-size="10.00">cstdlib</text>
</g>
<!-- Node10&#45;&gt;Node11 -->
<g id="edge11" class="edge"><title>Node10&#45;&gt;Node11</title>
<path fill="none" stroke="midnightblue" d="M518.817,-56.4435C542.832,-47.4381 580.829,-33.1891 607.869,-23.049"/>
<polygon fill="midnightblue" stroke="midnightblue" points="609.155,-26.3049 617.29,-19.5164 606.697,-19.7506 609.155,-26.3049"/>
</g>
<!-- Node13 -->
<g id="node13" class="node"><title>Node13</title>
<g id="a_node13"><a xlink:href="_i_plug_delegate__select_8h.html" target="_top" xlink:title="Used for choosing an editor delegate. ">
<polygon fill="white" stroke="black" points="1197,-392.5 1197,-411.5 1315,-411.5 1315,-392.5 1197,-392.5"/>
<text text-anchor="middle" x="1256" y="-399.5" font-family="Helvetica,sans-Serif" font-size="10.00">IPlugDelegate_select.h</text>
</a>
</g>
</g>
<!-- Node12&#45;&gt;Node13 -->
<g id="edge13" class="edge"><title>Node12&#45;&gt;Node13</title>
<path fill="none" stroke="midnightblue" d="M1256,-448.083C1256,-441.006 1256,-430.861 1256,-421.986"/>
<polygon fill="midnightblue" stroke="midnightblue" points="1259.5,-421.751 1256,-411.751 1252.5,-421.751 1259.5,-421.751"/>
</g>
<!-- Node12&#45;&gt;Node17 -->
<g id="edge60" class="edge"><title>Node12&#45;&gt;Node17</title>
<path fill="none" stroke="midnightblue" d="M1304.56,-452.553C1337.34,-447.38 1379.95,-436.194 1410,-412 1427.51,-397.905 1454.86,-339.343 1468.18,-309.162"/>
<polygon fill="midnightblue" stroke="midnightblue" points="1471.48,-310.355 1472.27,-299.79 1465.06,-307.557 1471.48,-310.355"/>
</g>
<!-- Node29 -->
<g id="node29" class="node"><title>Node29</title>
<g id="a_node29"><a xlink:href="_i_plug_logger_8h.html" target="_top" xlink:title="IPlug logging a.k.a tracing functionality. ">
<polygon fill="white" stroke="black" points="1284.5,-168.5 1284.5,-187.5 1361.5,-187.5 1361.5,-168.5 1284.5,-168.5"/>
<text text-anchor="middle" x="1323" y="-175.5" font-family="Helvetica,sans-Serif" font-size="10.00">IPlugLogger.h</text>
</a>
</g>
</g>
<!-- Node12&#45;&gt;Node29 -->
<g id="edge62" class="edge"><title>Node12&#45;&gt;Node29</title>
<path fill="none" stroke="midnightblue" d="M1275.53,-448.4C1290.69,-440.816 1311.21,-428.415 1324,-412 1372.64,-349.578 1369.7,-322.012 1383,-244 1384.49,-235.238 1386.98,-231.95 1383,-224 1376.27,-210.543 1363.39,-200.067 1351.29,-192.621"/>
<polygon fill="midnightblue" stroke="midnightblue" points="1352.72,-189.41 1342.3,-187.52 1349.27,-195.498 1352.72,-189.41"/>
</g>
<!-- Node12&#45;&gt;Node32 -->
<g id="edge61" class="edge"><title>Node12&#45;&gt;Node32</title>
<path fill="none" stroke="midnightblue" d="M1237.36,-448.309C1178.73,-420.968 997.795,-336.601 927.929,-304.023"/>
<polygon fill="midnightblue" stroke="midnightblue" points="928.997,-300.659 918.454,-299.605 926.038,-307.003 928.997,-300.659"/>
</g>
<!-- Node14 -->
<g id="node14" class="node"><title>Node14</title>
<g id="a_node14"><a xlink:href="_i_plug_editor_delegate_8h.html" target="_top" xlink:title="This pure virtual interface delegates communication in both directions between a UI editor and someth...">
<polygon fill="white" stroke="black" points="1200,-336.5 1200,-355.5 1312,-355.5 1312,-336.5 1200,-336.5"/>
<text text-anchor="middle" x="1256" y="-343.5" font-family="Helvetica,sans-Serif" font-size="10.00">IPlugEditorDelegate.h</text>
</a>
</g>
</g>
<!-- Node13&#45;&gt;Node14 -->
<g id="edge14" class="edge"><title>Node13&#45;&gt;Node14</title>
<path fill="none" stroke="midnightblue" d="M1256,-392.083C1256,-385.006 1256,-374.861 1256,-365.986"/>
<polygon fill="midnightblue" stroke="midnightblue" points="1259.5,-365.751 1256,-355.751 1252.5,-365.751 1259.5,-365.751"/>
</g>
<!-- Node14&#45;&gt;Node6 -->
<g id="edge16" class="edge"><title>Node14&#45;&gt;Node6</title>
<path fill="none" stroke="midnightblue" d="M1269.39,-336.462C1293.89,-320.412 1346.75,-283.759 1383,-244 1443.13,-178.053 1467.49,-161.525 1493,-76 1495.54,-67.4819 1496.21,-64.2891 1493,-56 1488.55,-44.498 1479.63,-34.1311 1471.25,-26.2546"/>
<polygon fill="midnightblue" stroke="midnightblue" points="1473.37,-23.4599 1463.54,-19.5103 1468.76,-28.7286 1473.37,-23.4599"/>
</g>
<!-- Node14&#45;&gt;Node8 -->
<g id="edge18" class="edge"><title>Node14&#45;&gt;Node8</title>
<path fill="none" stroke="midnightblue" d="M1232.85,-336.368C1180.61,-316.89 1053.47,-269.479 993.421,-247.089"/>
<polygon fill="midnightblue" stroke="midnightblue" points="994.633,-243.806 984.041,-243.591 992.188,-250.365 994.633,-243.806"/>
</g>
<!-- Node15 -->
<g id="node15" class="node"><title>Node15</title>
<polygon fill="white" stroke="#bfbfbf" points="1076.5,-112.5 1076.5,-131.5 1125.5,-131.5 1125.5,-112.5 1076.5,-112.5"/>
<text text-anchor="middle" x="1101" y="-119.5" font-family="Helvetica,sans-Serif" font-size="10.00">cassert</text>
</g>
<!-- Node14&#45;&gt;Node15 -->
<g id="edge15" class="edge"><title>Node14&#45;&gt;Node15</title>
<path fill="none" stroke="midnightblue" d="M1256.3,-336.407C1256.79,-308.495 1254.64,-219.226 1210,-168 1199.79,-156.281 1163.34,-142.631 1135.37,-133.465"/>
<polygon fill="midnightblue" stroke="midnightblue" points="1136.11,-130.025 1125.52,-130.302 1133.97,-136.69 1136.11,-130.025"/>
</g>
<!-- Node16 -->
<g id="node16" class="node"><title>Node16</title>
<polygon fill="white" stroke="#bfbfbf" points="1762.5,-224.5 1762.5,-243.5 1811.5,-243.5 1811.5,-224.5 1762.5,-224.5"/>
<text text-anchor="middle" x="1787" y="-231.5" font-family="Helvetica,sans-Serif" font-size="10.00">stdint.h</text>
</g>
<!-- Node14&#45;&gt;Node16 -->
<g id="edge17" class="edge"><title>Node14&#45;&gt;Node16</title>
<path fill="none" stroke="midnightblue" d="M1312.15,-342.407C1412.69,-337.224 1619.27,-323.974 1687,-300 1718.82,-288.736 1750.67,-265.457 1769.6,-250.034"/>
<polygon fill="midnightblue" stroke="midnightblue" points="1771.91,-252.667 1777.35,-243.573 1767.43,-247.292 1771.91,-252.667"/>
</g>
<!-- Node14&#45;&gt;Node17 -->
<g id="edge19" class="edge"><title>Node14&#45;&gt;Node17</title>
<path fill="none" stroke="midnightblue" d="M1290.86,-336.444C1328.92,-327.102 1389.96,-312.119 1431.46,-301.933"/>
<polygon fill="midnightblue" stroke="midnightblue" points="1432.43,-305.299 1441.3,-299.516 1430.76,-298.501 1432.43,-305.299"/>
</g>
<!-- Node28 -->
<g id="node28" class="node"><title>Node28</title>
<g id="a_node28"><a xlink:href="_i_plug_midi_8h.html" target="_top" xlink:title="MIDI and sysex structs/utilites. ">
<polygon fill="white" stroke="black" points="1147.5,-224.5 1147.5,-243.5 1212.5,-243.5 1212.5,-224.5 1147.5,-224.5"/>
<text text-anchor="middle" x="1180" y="-231.5" font-family="Helvetica,sans-Serif" font-size="10.00">IPlugMidi.h</text>
</a>
</g>
</g>
<!-- Node14&#45;&gt;Node28 -->
<g id="edge35" class="edge"><title>Node14&#45;&gt;Node28</title>
<path fill="none" stroke="midnightblue" d="M1250.04,-336.368C1237.49,-318.215 1208.19,-275.802 1191.74,-251.99"/>
<polygon fill="midnightblue" stroke="midnightblue" points="1194.5,-249.829 1185.94,-243.591 1188.74,-253.808 1194.5,-249.829"/>
</g>
<!-- Node14&#45;&gt;Node32 -->
<g id="edge52" class="edge"><title>Node14&#45;&gt;Node32</title>
<path fill="none" stroke="midnightblue" d="M1199.98,-336.503C1131.21,-326.072 1015.64,-308.54 949.826,-298.558"/>
<polygon fill="midnightblue" stroke="midnightblue" points="950.118,-295.062 939.706,-297.023 949.068,-301.983 950.118,-295.062"/>
</g>
<!-- Node17&#45;&gt;Node6 -->
<g id="edge21" class="edge"><title>Node17&#45;&gt;Node6</title>
<path fill="none" stroke="midnightblue" d="M1481.9,-280.319C1502.87,-248.301 1570.2,-134.616 1526,-56 1517.09,-40.1535 1500.09,-29.2377 1484.63,-22.1298"/>
<polygon fill="midnightblue" stroke="midnightblue" points="1485.86,-18.851 1475.29,-18.1862 1483.14,-25.2999 1485.86,-18.851"/>
</g>
<!-- Node18 -->
<g id="node18" class="node"><title>Node18</title>
<polygon fill="white" stroke="#bfbfbf" points="1544,-224.5 1544,-243.5 1590,-243.5 1590,-224.5 1544,-224.5"/>
<text text-anchor="middle" x="1567" y="-231.5" font-family="Helvetica,sans-Serif" font-size="10.00">atomic</text>
</g>
<!-- Node17&#45;&gt;Node18 -->
<g id="edge20" class="edge"><title>Node17&#45;&gt;Node18</title>
<path fill="none" stroke="midnightblue" d="M1490.62,-280.324C1504.95,-271.822 1527.01,-258.729 1543.75,-248.797"/>
<polygon fill="midnightblue" stroke="midnightblue" points="1545.6,-251.768 1552.42,-243.655 1542.03,-245.748 1545.6,-251.768"/>
</g>
<!-- Node19 -->
<g id="node19" class="node"><title>Node19</title>
<polygon fill="white" stroke="#bfbfbf" points="1608.5,-224.5 1608.5,-243.5 1667.5,-243.5 1667.5,-224.5 1608.5,-224.5"/>
<text text-anchor="middle" x="1638" y="-231.5" font-family="Helvetica,sans-Serif" font-size="10.00">functional</text>
</g>
<!-- Node17&#45;&gt;Node19 -->
<g id="edge22" class="edge"><title>Node17&#45;&gt;Node19</title>
<path fill="none" stroke="midnightblue" d="M1501.67,-280.444C1528.92,-271.359 1572.18,-256.939 1602.65,-246.783"/>
<polygon fill="midnightblue" stroke="midnightblue" points="1604.07,-249.999 1612.45,-243.516 1601.86,-243.358 1604.07,-249.999"/>
</g>
<!-- Node20 -->
<g id="node20" class="node"><title>Node20</title>
<polygon fill="white" stroke="#bfbfbf" points="1322,-224.5 1322,-243.5 1374,-243.5 1374,-224.5 1322,-224.5"/>
<text text-anchor="middle" x="1348" y="-231.5" font-family="Helvetica,sans-Serif" font-size="10.00">memory</text>
</g>
<!-- Node17&#45;&gt;Node20 -->
<g id="edge23" class="edge"><title>Node17&#45;&gt;Node20</title>
<path fill="none" stroke="midnightblue" d="M1455.72,-280.444C1434.65,-271.557 1401.48,-257.563 1377.51,-247.451"/>
<polygon fill="midnightblue" stroke="midnightblue" points="1378.76,-244.179 1368.19,-243.516 1376.04,-250.628 1378.76,-244.179"/>
</g>
<!-- Node21 -->
<g id="node21" class="node"><title>Node21</title>
<polygon fill="white" stroke="#bfbfbf" points="1420,-56.5 1420,-75.5 1484,-75.5 1484,-56.5 1420,-56.5"/>
<text text-anchor="middle" x="1452" y="-63.5" font-family="Helvetica,sans-Serif" font-size="10.00">wdlstring.h</text>
</g>
<!-- Node17&#45;&gt;Node21 -->
<g id="edge24" class="edge"><title>Node17&#45;&gt;Node21</title>
<path fill="none" stroke="midnightblue" d="M1478.61,-280.235C1485.99,-253.934 1505.2,-173.7 1485,-112 1481.51,-101.34 1474.43,-91.1174 1467.71,-83.1175"/>
<polygon fill="midnightblue" stroke="midnightblue" points="1470.3,-80.7633 1461.02,-75.66 1465.1,-85.4395 1470.3,-80.7633"/>
</g>
<!-- Node17&#45;&gt;Node22 -->
<g id="edge25" class="edge"><title>Node17&#45;&gt;Node22</title>
<path fill="none" stroke="midnightblue" d="M1430,-285.603C1364.66,-280.16 1241.53,-267.613 1139,-244 1061.89,-226.241 1044.48,-214.729 970,-188 921.717,-170.672 866.335,-148.863 832.774,-135.43"/>
<polygon fill="midnightblue" stroke="midnightblue" points="833.675,-132.021 823.091,-131.545 831.068,-138.517 833.675,-132.021"/>
</g>
<!-- Node22&#45;&gt;Node6 -->
<g id="edge30" class="edge"><title>Node22&#45;&gt;Node6</title>
<path fill="none" stroke="midnightblue" d="M804.334,-112.424C808.775,-97.9468 819.933,-68.9729 841,-56 890.343,-25.6154 1298.44,-14.3522 1418.74,-11.6739"/>
<polygon fill="midnightblue" stroke="midnightblue" points="1418.91,-15.1712 1428.83,-11.4545 1418.76,-8.17281 1418.91,-15.1712"/>
</g>
<!-- Node22&#45;&gt;Node10 -->
<g id="edge34" class="edge"><title>Node22&#45;&gt;Node10</title>
<path fill="none" stroke="midnightblue" d="M761.996,-113.94C707.324,-104.292 609.16,-86.9695 548.591,-76.2808"/>
<polygon fill="midnightblue" stroke="midnightblue" points="548.929,-72.7864 538.473,-74.4952 547.712,-79.6798 548.929,-72.7864"/>
</g>
<!-- Node22&#45;&gt;Node11 -->
<g id="edge29" class="edge"><title>Node22&#45;&gt;Node11</title>
<path fill="none" stroke="midnightblue" d="M799.057,-112.122C794.022,-98.2424 782.474,-71.4014 764,-56 737.756,-34.1208 699.985,-22.4595 673.037,-16.5375"/>
<polygon fill="midnightblue" stroke="midnightblue" points="673.428,-13.0452 662.93,-14.4721 672.026,-19.9034 673.428,-13.0452"/>
</g>
<!-- Node22&#45;&gt;Node21 -->
<g id="edge32" class="edge"><title>Node22&#45;&gt;Node21</title>
<path fill="none" stroke="midnightblue" d="M842.263,-116.637C856.964,-115.096 873.727,-113.4 889,-112 1083.39,-94.1791 1315.91,-76.8619 1409.71,-70.0419"/>
<polygon fill="midnightblue" stroke="midnightblue" points="1410.2,-73.5152 1419.92,-69.3007 1409.69,-66.5336 1410.2,-73.5152"/>
</g>
<!-- Node23 -->
<g id="node23" class="node"><title>Node23</title>
<polygon fill="white" stroke="#bfbfbf" points="850,-56.5 850,-75.5 906,-75.5 906,-56.5 850,-56.5"/>
<text text-anchor="middle" x="878" y="-63.5" font-family="Helvetica,sans-Serif" font-size="10.00">algorithm</text>
</g>
<!-- Node22&#45;&gt;Node23 -->
<g id="edge26" class="edge"><title>Node22&#45;&gt;Node23</title>
<path fill="none" stroke="midnightblue" d="M814.211,-112.324C825.776,-104.107 843.375,-91.6017 857.161,-81.8069"/>
<polygon fill="midnightblue" stroke="midnightblue" points="859.443,-84.4791 865.567,-75.8339 855.388,-78.7729 859.443,-84.4791"/>
</g>
<!-- Node24 -->
<g id="node24" class="node"><title>Node24</title>
<polygon fill="white" stroke="#bfbfbf" points="712,-56.5 712,-75.5 756,-75.5 756,-56.5 712,-56.5"/>
<text text-anchor="middle" x="734" y="-63.5" font-family="Helvetica,sans-Serif" font-size="10.00">cmath</text>
</g>
<!-- Node22&#45;&gt;Node24 -->
<g id="edge27" class="edge"><title>Node22&#45;&gt;Node24</title>
<path fill="none" stroke="midnightblue" d="M791.075,-112.324C780.825,-104.185 765.279,-91.8395 752.999,-82.0874"/>
<polygon fill="midnightblue" stroke="midnightblue" points="755.132,-79.3119 745.124,-75.8339 750.779,-84.7937 755.132,-79.3119"/>
</g>
<!-- Node25 -->
<g id="node25" class="node"><title>Node25</title>
<polygon fill="white" stroke="#bfbfbf" points="1007.5,-56.5 1007.5,-75.5 1050.5,-75.5 1050.5,-56.5 1007.5,-56.5"/>
<text text-anchor="middle" x="1029" y="-63.5" font-family="Helvetica,sans-Serif" font-size="10.00">cstdio</text>
</g>
<!-- Node22&#45;&gt;Node25 -->
<g id="edge28" class="edge"><title>Node22&#45;&gt;Node25</title>
<path fill="none" stroke="midnightblue" d="M837.969,-112.444C881.879,-101.998 955.443,-84.498 997.312,-74.538"/>
<polygon fill="midnightblue" stroke="midnightblue" points="998.318,-77.8965 1007.24,-72.1772 996.698,-71.0865 998.318,-77.8965"/>
</g>
<!-- Node26 -->
<g id="node26" class="node"><title>Node26</title>
<polygon fill="white" stroke="#bfbfbf" points="1186,-56.5 1186,-75.5 1232,-75.5 1232,-56.5 1186,-56.5"/>
<text text-anchor="middle" x="1209" y="-63.5" font-family="Helvetica,sans-Serif" font-size="10.00">cctype</text>
</g>
<!-- Node22&#45;&gt;Node26 -->
<g id="edge31" class="edge"><title>Node22&#45;&gt;Node26</title>
<path fill="none" stroke="midnightblue" d="M842.139,-115.674C922.42,-105.023 1101.43,-81.2724 1175.71,-71.4175"/>
<polygon fill="midnightblue" stroke="midnightblue" points="1176.43,-74.8524 1185.88,-70.0675 1175.51,-67.9132 1176.43,-74.8524"/>
</g>
<!-- Node22&#45;&gt;Node27 -->
<g id="edge33" class="edge"><title>Node22&#45;&gt;Node27</title>
<path fill="none" stroke="midnightblue" d="M776.648,-112.444C749.731,-103.359 707.004,-88.9388 676.913,-78.7831"/>
<polygon fill="midnightblue" stroke="midnightblue" points="677.828,-75.3981 667.234,-75.5164 675.59,-82.0305 677.828,-75.3981"/>
</g>
<!-- Node28&#45;&gt;Node7 -->
<g id="edge37" class="edge"><title>Node28&#45;&gt;Node7</title>
<path fill="none" stroke="midnightblue" d="M1147.32,-228.306C1111.72,-222.328 1053.75,-210.029 1008,-188 981.094,-175.043 954.178,-153.237 937.564,-138.492"/>
<polygon fill="midnightblue" stroke="midnightblue" points="939.627,-135.638 929.87,-131.509 934.923,-140.821 939.627,-135.638"/>
</g>
<!-- Node28&#45;&gt;Node15 -->
<g id="edge36" class="edge"><title>Node28&#45;&gt;Node15</title>
<path fill="none" stroke="midnightblue" d="M1185.63,-224.308C1193.38,-211.143 1205.16,-185.799 1194,-168 1187.17,-157.115 1158.86,-144.32 1135.25,-135.162"/>
<polygon fill="midnightblue" stroke="midnightblue" points="1136.42,-131.862 1125.83,-131.598 1133.94,-138.409 1136.42,-131.862"/>
</g>
<!-- Node28&#45;&gt;Node23 -->
<g id="edge39" class="edge"><title>Node28&#45;&gt;Node23</title>
<path fill="none" stroke="midnightblue" d="M1147.31,-226.321C1118.14,-219.474 1074.93,-207.1 1041,-188 995.967,-162.649 994.867,-142.295 953,-112 937.056,-100.463 918.032,-89.073 903.133,-80.6389"/>
<polygon fill="midnightblue" stroke="midnightblue" points="904.451,-77.3662 894.013,-75.5514 901.041,-83.4794 904.451,-77.3662"/>
</g>
<!-- Node28&#45;&gt;Node25 -->
<g id="edge38" class="edge"><title>Node28&#45;&gt;Node25</title>
<path fill="none" stroke="midnightblue" d="M1179.65,-224.246C1178.65,-210.536 1174.78,-183.923 1160,-168 1130.13,-135.818 1101.53,-160.343 1068,-132 1053.12,-119.422 1042.4,-99.6504 1036.02,-85.2136"/>
<polygon fill="midnightblue" stroke="midnightblue" points="1039.19,-83.7256 1032.13,-75.8234 1032.72,-86.4019 1039.19,-83.7256"/>
</g>
<!-- Node28&#45;&gt;Node29 -->
<g id="edge40" class="edge"><title>Node28&#45;&gt;Node29</title>
<path fill="none" stroke="midnightblue" d="M1202.66,-224.444C1226.4,-215.478 1263.91,-201.314 1290.74,-191.183"/>
<polygon fill="midnightblue" stroke="midnightblue" points="1292.33,-194.324 1300.45,-187.516 1289.86,-187.775 1292.33,-194.324"/>
</g>
<!-- Node29&#45;&gt;Node6 -->
<g id="edge45" class="edge"><title>Node29&#45;&gt;Node6</title>
<path fill="none" stroke="midnightblue" d="M1328.87,-168.249C1342.58,-147.982 1378.01,-96.47 1411,-56 1419.1,-46.0667 1428.72,-35.4481 1436.61,-27.0217"/>
<polygon fill="midnightblue" stroke="midnightblue" points="1439.2,-29.3761 1443.53,-19.7084 1434.12,-24.5631 1439.2,-29.3761"/>
</g>
<!-- Node29&#45;&gt;Node7 -->
<g id="edge44" class="edge"><title>Node29&#45;&gt;Node7</title>
<path fill="none" stroke="midnightblue" d="M1284.45,-171.822C1205.97,-161.28 1028.8,-137.48 954.638,-127.519"/>
<polygon fill="midnightblue" stroke="midnightblue" points="954.845,-124.015 944.468,-126.152 953.913,-130.953 954.845,-124.015"/>
</g>
<!-- Node29&#45;&gt;Node9 -->
<g id="edge49" class="edge"><title>Node29&#45;&gt;Node9</title>
<path fill="none" stroke="midnightblue" d="M1361.54,-171.17C1430.86,-160.686 1575.62,-138.789 1643.45,-128.528"/>
<polygon fill="midnightblue" stroke="midnightblue" points="1644.29,-131.941 1653.66,-126.985 1643.24,-125.02 1644.29,-131.941"/>
</g>
<!-- Node29&#45;&gt;Node15 -->
<g id="edge47" class="edge"><title>Node29&#45;&gt;Node15</title>
<path fill="none" stroke="midnightblue" d="M1286.19,-168.463C1250.25,-160.065 1193.75,-146.706 1135.59,-132.104"/>
<polygon fill="midnightblue" stroke="midnightblue" points="1136.42,-128.703 1125.86,-129.655 1134.71,-135.491 1136.42,-128.703"/>
</g>
<!-- Node29&#45;&gt;Node21 -->
<g id="edge48" class="edge"><title>Node29&#45;&gt;Node21</title>
<path fill="none" stroke="midnightblue" d="M1346.49,-168.499C1364.98,-160.971 1390.61,-148.597 1409,-132 1423.87,-118.577 1435.93,-98.938 1443.44,-84.763"/>
<polygon fill="midnightblue" stroke="midnightblue" points="1446.7,-86.0772 1448.09,-75.5743 1440.46,-82.9165 1446.7,-86.0772"/>
</g>
<!-- Node29&#45;&gt;Node22 -->
<g id="edge51" class="edge"><title>Node29&#45;&gt;Node22</title>
<path fill="none" stroke="midnightblue" d="M1284.27,-172.985C1191.36,-163.356 955.886,-138.95 852.259,-128.209"/>
<polygon fill="midnightblue" stroke="midnightblue" points="852.367,-124.702 842.059,-127.152 851.645,-131.664 852.367,-124.702"/>
</g>
<!-- Node29&#45;&gt;Node25 -->
<g id="edge41" class="edge"><title>Node29&#45;&gt;Node25</title>
<path fill="none" stroke="midnightblue" d="M1313.1,-168.42C1296.46,-154.461 1261.34,-126.9 1227,-112 1171.19,-87.7875 1100.64,-75.7694 1060.59,-70.5079"/>
<polygon fill="midnightblue" stroke="midnightblue" points="1060.98,-67.0287 1050.62,-69.2554 1060.11,-73.9742 1060.98,-67.0287"/>
</g>
<!-- Node29&#45;&gt;Node26 -->
<g id="edge42" class="edge"><title>Node29&#45;&gt;Node26</title>
<path fill="none" stroke="midnightblue" d="M1328.88,-168.144C1336.95,-154.764 1349.14,-129.143 1337,-112 1315.68,-81.911 1272.57,-71.7938 1242.3,-68.4743"/>
<polygon fill="midnightblue" stroke="midnightblue" points="1242.45,-64.9742 1232.18,-67.562 1241.82,-71.9459 1242.45,-64.9742"/>
</g>
<!-- Node29&#45;&gt;Node27 -->
<g id="edge50" class="edge"><title>Node29&#45;&gt;Node27</title>
<path fill="none" stroke="midnightblue" d="M1303.25,-168.391C1283.65,-159.7 1252.89,-145.645 1227,-132 1211.49,-123.826 1209.74,-117.223 1193,-112 984.552,-46.941 920.047,-99.9524 703,-76 701.504,-75.8349 699.988,-75.6607 698.459,-75.4791"/>
<polygon fill="midnightblue" stroke="midnightblue" points="698.61,-71.9704 688.25,-74.1866 697.731,-78.915 698.61,-71.9704"/>
</g>
<!-- Node30 -->
<g id="node30" class="node"><title>Node30</title>
<polygon fill="white" stroke="#bfbfbf" points="1279.5,-112.5 1279.5,-131.5 1328.5,-131.5 1328.5,-112.5 1279.5,-112.5"/>
<text text-anchor="middle" x="1304" y="-119.5" font-family="Helvetica,sans-Serif" font-size="10.00">cstdarg</text>
</g>
<!-- Node29&#45;&gt;Node30 -->
<g id="edge43" class="edge"><title>Node29&#45;&gt;Node30</title>
<path fill="none" stroke="midnightblue" d="M1319.86,-168.083C1317.32,-160.849 1313.64,-150.409 1310.47,-141.397"/>
<polygon fill="midnightblue" stroke="midnightblue" points="1313.7,-140.023 1307.08,-131.751 1307.1,-142.346 1313.7,-140.023"/>
</g>
<!-- Node31 -->
<g id="node31" class="node"><title>Node31</title>
<polygon fill="white" stroke="#bfbfbf" points="1143.5,-112.5 1143.5,-131.5 1184.5,-131.5 1184.5,-112.5 1143.5,-112.5"/>
<text text-anchor="middle" x="1164" y="-119.5" font-family="Helvetica,sans-Serif" font-size="10.00">ctime</text>
</g>
<!-- Node29&#45;&gt;Node31 -->
<g id="edge46" class="edge"><title>Node29&#45;&gt;Node31</title>
<path fill="none" stroke="midnightblue" d="M1297.81,-168.444C1269.64,-158.878 1224.06,-143.397 1194.06,-133.207"/>
<polygon fill="midnightblue" stroke="midnightblue" points="1195.12,-129.873 1184.53,-129.971 1192.87,-136.501 1195.12,-129.873"/>
</g>
<!-- Node32&#45;&gt;Node8 -->
<g id="edge55" class="edge"><title>Node32&#45;&gt;Node8</title>
<path fill="none" stroke="midnightblue" d="M909.801,-280.324C918.818,-272.341 932.406,-260.313 943.318,-250.653"/>
<polygon fill="midnightblue" stroke="midnightblue" points="945.853,-253.083 951.021,-243.834 941.213,-247.842 945.853,-253.083"/>
</g>
<!-- Node32&#45;&gt;Node10 -->
<g id="edge57" class="edge"><title>Node32&#45;&gt;Node10</title>
<path fill="none" stroke="midnightblue" d="M882.912,-280.364C865.308,-271.42 837.114,-256.964 813,-244 702.721,-184.712 572.726,-110.865 520.005,-80.748"/>
<polygon fill="midnightblue" stroke="midnightblue" points="521.501,-77.5716 511.083,-75.6467 518.027,-83.6486 521.501,-77.5716"/>
</g>
<!-- Node32&#45;&gt;Node21 -->
<g id="edge54" class="edge"><title>Node32&#45;&gt;Node21</title>
<path fill="none" stroke="midnightblue" d="M939.764,-284.535C1013.46,-276.077 1168.51,-257.368 1221,-244 1289.56,-226.539 1309.73,-225.044 1370,-188 1401.35,-168.729 1411.13,-162.979 1431,-132 1440.1,-117.807 1445.57,-99.3278 1448.64,-85.7026"/>
<polygon fill="midnightblue" stroke="midnightblue" points="1452.13,-86.0938 1450.67,-75.5996 1445.27,-84.7117 1452.13,-86.0938"/>
</g>
<!-- Node32&#45;&gt;Node22 -->
<g id="edge59" class="edge"><title>Node32&#45;&gt;Node22</title>
<path fill="none" stroke="midnightblue" d="M889.49,-280.218C879.825,-271.724 865.582,-258.097 856,-244 833.246,-210.523 816.26,-165.9 807.862,-141.27"/>
<polygon fill="midnightblue" stroke="midnightblue" points="811.176,-140.142 804.708,-131.75 804.531,-142.344 811.176,-140.142"/>
</g>
<!-- Node32&#45;&gt;Node23 -->
<g id="edge53" class="edge"><title>Node32&#45;&gt;Node23</title>
<path fill="none" stroke="midnightblue" d="M898.741,-280.387C897.445,-271.339 895.419,-256.689 894,-244 887.587,-186.65 882.005,-118.623 879.462,-86.1309"/>
<polygon fill="midnightblue" stroke="midnightblue" points="882.928,-85.5538 878.667,-75.8536 875.949,-86.0938 882.928,-85.5538"/>
</g>
<!-- Node32&#45;&gt;Node27 -->
<g id="edge56" class="edge"><title>Node32&#45;&gt;Node27</title>
<path fill="none" stroke="midnightblue" d="M887.585,-280.373C875.07,-271.554 855.323,-257.302 839,-244 769.671,-187.501 691.963,-114.672 658.635,-82.9484"/>
<polygon fill="midnightblue" stroke="midnightblue" points="660.8,-80.1768 651.15,-75.8036 655.967,-85.2402 660.8,-80.1768"/>
</g>
<!-- Node32&#45;&gt;Node28 -->
<g id="edge58" class="edge"><title>Node32&#45;&gt;Node28</title>
<path fill="none" stroke="midnightblue" d="M939.523,-281.378C991.781,-271.299 1083.51,-253.608 1137.31,-243.233"/>
<polygon fill="midnightblue" stroke="midnightblue" points="1138.06,-246.652 1147.22,-241.322 1136.74,-239.779 1138.06,-246.652"/>
</g>
<!-- Node33&#45;&gt;Node18 -->
<g id="edge68" class="edge"><title>Node33&#45;&gt;Node18</title>
<path fill="none" stroke="midnightblue" d="M1542.99,-448.375C1547.8,-439.557 1554.82,-425.305 1558,-412 1571.44,-355.761 1570,-286.711 1568.28,-253.963"/>
<polygon fill="midnightblue" stroke="midnightblue" points="1571.75,-253.405 1567.66,-243.631 1564.77,-253.822 1571.75,-253.405"/>
</g>
<!-- Node34 -->
<g id="node34" class="node"><title>Node34</title>
<polygon fill="white" stroke="#bfbfbf" points="1500.5,-392.5 1500.5,-411.5 1549.5,-411.5 1549.5,-392.5 1500.5,-392.5"/>
<text text-anchor="middle" x="1525" y="-399.5" font-family="Helvetica,sans-Serif" font-size="10.00">cstddef</text>
</g>
<!-- Node33&#45;&gt;Node34 -->
<g id="edge69" class="edge"><title>Node33&#45;&gt;Node34</title>
<path fill="none" stroke="midnightblue" d="M1535.85,-448.083C1534.13,-440.927 1531.65,-430.635 1529.5,-421.691"/>
<polygon fill="midnightblue" stroke="midnightblue" points="1532.85,-420.654 1527.11,-411.751 1526.04,-422.293 1532.85,-420.654"/>
</g>
<!-- Node35&#45;&gt;Node6 -->
<g id="edge71" class="edge"><title>Node35&#45;&gt;Node6</title>
<path fill="none" stroke="midnightblue" d="M1657.19,-280.268C1683.32,-263.983 1734,-226.303 1734,-179 1734,-179 1734,-179 1734,-121 1734,-68.1574 1559.97,-30.4538 1485.33,-16.7146"/>
<polygon fill="midnightblue" stroke="midnightblue" points="1485.54,-13.1952 1475.08,-14.8625 1484.3,-20.0838 1485.54,-13.1952"/>
</g>
<!-- Node35&#45;&gt;Node8 -->
<g id="edge74" class="edge"><title>Node35&#45;&gt;Node8</title>
<path fill="none" stroke="midnightblue" d="M1605.77,-285.941C1584.08,-284.14 1555.97,-281.859 1531,-280 1295.11,-262.441 1233.98,-278.704 1000,-244 998.539,-243.783 997.052,-243.541 995.554,-243.278"/>
<polygon fill="midnightblue" stroke="midnightblue" points="996.135,-239.825 985.644,-241.311 994.772,-246.691 996.135,-239.825"/>
</g>
<!-- Node35&#45;&gt;Node9 -->
<g id="edge75" class="edge"><title>Node35&#45;&gt;Node9</title>
<path fill="none" stroke="midnightblue" d="M1651.18,-280.357C1659.39,-271.961 1670.91,-258.4 1676,-244 1688.22,-209.446 1685.65,-165.822 1682.77,-141.518"/>
<polygon fill="midnightblue" stroke="midnightblue" points="1686.23,-140.985 1681.43,-131.537 1679.29,-141.913 1686.23,-140.985"/>
</g>
<!-- Node35&#45;&gt;Node10 -->
<g id="edge76" class="edge"><title>Node35&#45;&gt;Node10</title>
<path fill="none" stroke="midnightblue" d="M1605.75,-285.936C1494.15,-276.481 1161.94,-248.15 1139,-244 902.1,-201.155 625.852,-111.146 530.449,-78.8495"/>
<polygon fill="midnightblue" stroke="midnightblue" points="531.346,-75.4577 520.752,-75.5541 529.094,-82.0855 531.346,-75.4577"/>
</g>
<!-- Node35&#45;&gt;Node16 -->
<g id="edge72" class="edge"><title>Node35&#45;&gt;Node16</title>
<path fill="none" stroke="midnightblue" d="M1664.98,-280.444C1689.16,-271.438 1727.42,-257.189 1754.65,-247.049"/>
<polygon fill="midnightblue" stroke="midnightblue" points="1755.98,-250.286 1764.13,-243.516 1753.54,-243.727 1755.98,-250.286"/>
</g>
<!-- Node35&#45;&gt;Node19 -->
<g id="edge73" class="edge"><title>Node35&#45;&gt;Node19</title>
<path fill="none" stroke="midnightblue" d="M1641.34,-280.083C1640.82,-273.006 1640.06,-262.861 1639.41,-253.986"/>
<polygon fill="midnightblue" stroke="midnightblue" points="1642.88,-253.465 1638.65,-243.751 1635.9,-253.982 1642.88,-253.465"/>
</g>
<!-- Node36&#45;&gt;Node6 -->
<g id="edge78" class="edge"><title>Node36&#45;&gt;Node6</title>
<path fill="none" stroke="midnightblue" d="M671.962,-336.34C637.292,-297.971 505.895,-141.434 587,-56 616.131,-25.3137 1262.81,-13.8 1418.5,-11.4674"/>
<polygon fill="midnightblue" stroke="midnightblue" points="1418.9,-14.962 1428.85,-11.3152 1418.8,-7.96277 1418.9,-14.962"/>
</g>
<!-- Node36&#45;&gt;Node7 -->
<g id="edge79" class="edge"><title>Node36&#45;&gt;Node7</title>
<path fill="none" stroke="midnightblue" d="M689.447,-336.297C725.816,-302.796 857.081,-181.88 904.099,-138.569"/>
<polygon fill="midnightblue" stroke="midnightblue" points="906.634,-140.992 911.618,-131.643 901.891,-135.843 906.634,-140.992"/>
</g>
<!-- Node36&#45;&gt;Node8 -->
<g id="edge81" class="edge"><title>Node36&#45;&gt;Node8</title>
<path fill="none" stroke="midnightblue" d="M702.05,-336.368C751.603,-316.97 871.924,-269.87 929.407,-247.367"/>
<polygon fill="midnightblue" stroke="midnightblue" points="931.017,-250.496 939.053,-243.591 928.465,-243.978 931.017,-250.496"/>
</g>
<!-- Node36&#45;&gt;Node10 -->
<g id="edge82" class="edge"><title>Node36&#45;&gt;Node10</title>
<path fill="none" stroke="midnightblue" d="M633.768,-338.931C588.738,-331.996 524.825,-319.081 509,-300 456.895,-237.174 478.748,-128.932 490.424,-85.6642"/>
<polygon fill="midnightblue" stroke="midnightblue" points="493.828,-86.4902 493.187,-75.9148 487.093,-84.582 493.828,-86.4902"/>
</g>
<!-- Node36&#45;&gt;Node20 -->
<g id="edge80" class="edge"><title>Node36&#45;&gt;Node20</title>
<path fill="none" stroke="midnightblue" d="M726.263,-338.56C830.473,-323.836 1091.4,-285.743 1308,-244 1309.26,-243.758 1310.54,-243.505 1311.83,-243.244"/>
<polygon fill="midnightblue" stroke="midnightblue" points="1312.74,-246.629 1321.8,-241.139 1311.29,-239.78 1312.74,-246.629"/>
</g>
<!-- Node36&#45;&gt;Node22 -->
<g id="edge85" class="edge"><title>Node36&#45;&gt;Node22</title>
<path fill="none" stroke="midnightblue" d="M678.476,-336.189C674.178,-308.363 664.684,-221.077 704,-168 715.753,-152.133 734.456,-141.702 752.387,-134.921"/>
<polygon fill="midnightblue" stroke="midnightblue" points="753.915,-138.096 762.22,-131.518 751.626,-131.481 753.915,-138.096"/>
</g>
<!-- Node36&#45;&gt;Node27 -->
<g id="edge83" class="edge"><title>Node36&#45;&gt;Node27</title>
<path fill="none" stroke="midnightblue" d="M633.732,-337.991C592.411,-330.673 536.396,-317.775 523,-300 466.896,-225.556 577.223,-120.729 623.193,-82.0754"/>
<polygon fill="midnightblue" stroke="midnightblue" points="625.491,-84.7168 630.973,-75.6504 621.034,-79.3194 625.491,-84.7168"/>
</g>
<!-- Node36&#45;&gt;Node32 -->
<g id="edge84" class="edge"><title>Node36&#45;&gt;Node32</title>
<path fill="none" stroke="midnightblue" d="M714.86,-336.444C752.916,-327.102 813.958,-312.119 855.46,-301.933"/>
<polygon fill="midnightblue" stroke="midnightblue" points="856.426,-305.299 865.303,-299.516 854.757,-298.501 856.426,-305.299"/>
</g>
<!-- Node37 -->
<g id="node37" class="node"><title>Node37</title>
<polygon fill="white" stroke="#bfbfbf" points="532.5,-280.5 532.5,-299.5 613.5,-299.5 613.5,-280.5 532.5,-280.5"/>
<text text-anchor="middle" x="573" y="-287.5" font-family="Helvetica,sans-Serif" font-size="10.00">NChanDelay.h</text>
</g>
<!-- Node36&#45;&gt;Node37 -->
<g id="edge86" class="edge"><title>Node36&#45;&gt;Node37</title>
<path fill="none" stroke="midnightblue" d="M662.809,-336.324C645.649,-327.664 619.054,-314.242 599.253,-304.249"/>
<polygon fill="midnightblue" stroke="midnightblue" points="600.653,-301.035 590.149,-299.655 597.499,-307.285 600.653,-301.035"/>
</g>
<!-- Node38 -->
<g id="node38" class="node"><title>Node38</title>
<g id="a_node38"><a xlink:href="_i_plug_processor_8cpp.html" target="_top" xlink:title="IPlugProcessor implementation. ">
<polygon fill="white" stroke="black" points="1050,-168.5 1050,-187.5 1152,-187.5 1152,-168.5 1050,-168.5"/>
<text text-anchor="middle" x="1101" y="-175.5" font-family="Helvetica,sans-Serif" font-size="10.00">IPlugProcessor.cpp</text>
</a>
</g>
</g>
<!-- Node36&#45;&gt;Node38 -->
<g id="edge87" class="edge"><title>Node36&#45;&gt;Node38</title>
<path fill="none" stroke="midnightblue" d="M693.328,-336.359C713.831,-323.261 754.561,-298.003 791,-280 849.974,-250.863 865.586,-244.77 928,-224 969.273,-210.265 1017.21,-198.08 1052.14,-189.866"/>
<polygon fill="midnightblue" stroke="midnightblue" points="1053.14,-193.227 1062.09,-187.552 1051.56,-186.409 1053.14,-193.227"/>
</g>
<!-- Node38&#45;&gt;Node15 -->
<g id="edge91" class="edge"><title>Node38&#45;&gt;Node15</title>
<path fill="none" stroke="midnightblue" d="M1101,-168.083C1101,-161.006 1101,-150.861 1101,-141.986"/>
<polygon fill="midnightblue" stroke="midnightblue" points="1104.5,-141.751 1101,-131.751 1097.5,-141.751 1104.5,-141.751"/>
</g>
<!-- Node38&#45;&gt;Node24 -->
<g id="edge88" class="edge"><title>Node38&#45;&gt;Node24</title>
<path fill="none" stroke="midnightblue" d="M1049.94,-177.044C964.244,-176.059 796.578,-169.268 753,-132 739.756,-120.674 735.479,-100.674 734.225,-85.8408"/>
<polygon fill="midnightblue" stroke="midnightblue" points="737.716,-85.5613 733.757,-75.734 730.724,-85.8853 737.716,-85.5613"/>
</g>
<!-- Node38&#45;&gt;Node25 -->
<g id="edge89" class="edge"><title>Node38&#45;&gt;Node25</title>
<path fill="none" stroke="midnightblue" d="M1078.94,-168.401C1063.54,-161.153 1044.03,-149.187 1034,-132 1025.89,-118.099 1025.25,-99.5881 1026.28,-85.8762"/>
<polygon fill="midnightblue" stroke="midnightblue" points="1029.78,-86.0191 1027.41,-75.6935 1022.83,-85.2455 1029.78,-86.0191"/>
</g>
<!-- Node38&#45;&gt;Node31 -->
<g id="edge90" class="edge"><title>Node38&#45;&gt;Node31</title>
<path fill="none" stroke="midnightblue" d="M1111.12,-168.324C1120.53,-160.263 1134.74,-148.077 1146.07,-138.369"/>
<polygon fill="midnightblue" stroke="midnightblue" points="1148.38,-140.999 1153.69,-131.834 1143.82,-135.684 1148.38,-140.999"/>
</g>
</g>
</svg>
