<?xml version="1.0" encoding="UTF-8" standalone="no"?>
<!DOCTYPE svg PUBLIC "-//W3C//DTD SVG 1.1//EN"
 "http://www.w3.org/Graphics/SVG/1.1/DTD/svg11.dtd">
<!-- Generated by graphviz version 2.36.0 (20140111.2315)
 -->
<!-- Title: IPlugAPIBase.cpp Pages: 1 -->
<svg width="1355pt" height="588pt"
 viewBox="0.00 0.00 1355.00 588.00" xmlns="http://www.w3.org/2000/svg" xmlns:xlink="http://www.w3.org/1999/xlink">
<g id="graph0" class="graph" transform="scale(1 1) rotate(0) translate(4 584)">
<title>IPlugAPIBase.cpp</title>
<polygon fill="white" stroke="none" points="-4,4 -4,-584 1351,-584 1351,4 -4,4"/>
<!-- Node1 -->
<g id="node1" class="node"><title>Node1</title>
<polygon fill="#bfbfbf" stroke="black" points="1146.5,-560.5 1146.5,-579.5 1243.5,-579.5 1243.5,-560.5 1146.5,-560.5"/>
<text text-anchor="middle" x="1195" y="-567.5" font-family="Helvetica,sans-Serif" font-size="10.00">IPlugAPIBase.cpp</text>
</g>
<!-- Node2 -->
<g id="node2" class="node"><title>Node2</title>
<polygon fill="white" stroke="#bfbfbf" points="110,-56.5 110,-75.5 154,-75.5 154,-56.5 110,-56.5"/>
<text text-anchor="middle" x="132" y="-63.5" font-family="Helvetica,sans-Serif" font-size="10.00">cmath</text>
</g>
<!-- Node1&#45;&gt;Node2 -->
<g id="edge1" class="edge"><title>Node1&#45;&gt;Node2</title>
<path fill="none" stroke="midnightblue" d="M1146.3,-567.114C922.084,-558.119 0,-517.564 0,-459 0,-459 0,-459 0,-177 0,-124.887 61.4691,-92.674 100.514,-77.469"/>
<polygon fill="midnightblue" stroke="midnightblue" points="101.758,-80.7404 109.906,-73.968 99.3135,-74.1812 101.758,-80.7404"/>
</g>
<!-- Node3 -->
<g id="node3" class="node"><title>Node3</title>
<polygon fill="white" stroke="#bfbfbf" points="1062.5,-56.5 1062.5,-75.5 1105.5,-75.5 1105.5,-56.5 1062.5,-56.5"/>
<text text-anchor="middle" x="1084" y="-63.5" font-family="Helvetica,sans-Serif" font-size="10.00">cstdio</text>
</g>
<!-- Node1&#45;&gt;Node3 -->
<g id="edge2" class="edge"><title>Node1&#45;&gt;Node3</title>
<path fill="none" stroke="midnightblue" d="M1215.64,-560.421C1248.5,-545.231 1309,-510.293 1309,-459 1309,-459 1309,-459 1309,-177 1309,-91.9168 1177.54,-72.635 1115.59,-68.2721"/>
<polygon fill="midnightblue" stroke="midnightblue" points="1115.77,-64.7767 1105.57,-67.6549 1115.34,-71.7635 1115.77,-64.7767"/>
</g>
<!-- Node4 -->
<g id="node4" class="node"><title>Node4</title>
<polygon fill="white" stroke="#bfbfbf" points="1095.5,-112.5 1095.5,-131.5 1136.5,-131.5 1136.5,-112.5 1095.5,-112.5"/>
<text text-anchor="middle" x="1116" y="-119.5" font-family="Helvetica,sans-Serif" font-size="10.00">ctime</text>
</g>
<!-- Node1&#45;&gt;Node4 -->
<g id="edge3" class="edge"><title>Node1&#45;&gt;Node4</title>
<path fill="none" stroke="midnightblue" d="M1195,-560.442C1195,-541.936 1195,-496.812 1195,-459 1195,-459 1195,-459 1195,-401 1195,-299.273 1145.45,-184.307 1124.83,-140.879"/>
<polygon fill="midnightblue" stroke="midnightblue" points="1127.98,-139.338 1120.47,-131.857 1121.67,-142.384 1127.98,-139.338"/>
</g>
<!-- Node5 -->
<g id="node5" class="node"><title>Node5</title>
<polygon fill="white" stroke="#bfbfbf" points="1193.5,-112.5 1193.5,-131.5 1242.5,-131.5 1242.5,-112.5 1193.5,-112.5"/>
<text text-anchor="middle" x="1218" y="-119.5" font-family="Helvetica,sans-Serif" font-size="10.00">cassert</text>
</g>
<!-- Node1&#45;&gt;Node5 -->
<g id="edge4" class="edge"><title>Node1&#45;&gt;Node5</title>
<path fill="none" stroke="midnightblue" d="M1200.28,-560.231C1210.73,-542.043 1233,-498.601 1233,-459 1233,-459 1233,-459 1233,-233 1233,-200.502 1226.49,-163.095 1222.05,-141.343"/>
<polygon fill="midnightblue" stroke="midnightblue" points="1225.46,-140.559 1219.96,-131.504 1218.61,-142.013 1225.46,-140.559"/>
</g>
<!-- Node6 -->
<g id="node6" class="node"><title>Node6</title>
<g id="a_node6"><a xlink:href="_i_plug_a_p_i_base_8h.html" target="_top" xlink:title="The base class of an IPlug plug&#45;in, which interacts with the different plug&#45;in APIs. ">
<polygon fill="white" stroke="black" points="536,-504.5 536,-523.5 622,-523.5 622,-504.5 536,-504.5"/>
<text text-anchor="middle" x="579" y="-511.5" font-family="Helvetica,sans-Serif" font-size="10.00">IPlugAPIBase.h</text>
</a>
</g>
</g>
<!-- Node1&#45;&gt;Node6 -->
<g id="edge5" class="edge"><title>Node1&#45;&gt;Node6</title>
<path fill="none" stroke="midnightblue" d="M1146.41,-564.74C1032.79,-554.78 750.471,-530.032 632.324,-519.675"/>
<polygon fill="midnightblue" stroke="midnightblue" points="632.352,-516.164 622.084,-518.777 631.741,-523.137 632.352,-516.164"/>
</g>
<!-- Node7 -->
<g id="node7" class="node"><title>Node7</title>
<polygon fill="white" stroke="#bfbfbf" points="836,-0.5 836,-19.5 882,-19.5 882,-0.5 836,-0.5"/>
<text text-anchor="middle" x="859" y="-7.5" font-family="Helvetica,sans-Serif" font-size="10.00">cstring</text>
</g>
<!-- Node6&#45;&gt;Node7 -->
<g id="edge6" class="edge"><title>Node6&#45;&gt;Node7</title>
<path fill="none" stroke="midnightblue" d="M622.123,-512.197C687.302,-509.889 814.111,-501.107 916,-468 1123.1,-400.707 1347,-452.755 1347,-235 1347,-235 1347,-235 1347,-121 1347,-27.6004 1002.51,-13.4965 892.407,-11.374"/>
<polygon fill="midnightblue" stroke="midnightblue" points="892.267,-7.87115 882.209,-11.1993 892.148,-14.8701 892.267,-7.87115"/>
</g>
<!-- Node8 -->
<g id="node8" class="node"><title>Node8</title>
<polygon fill="white" stroke="#bfbfbf" points="1031,-112.5 1031,-131.5 1077,-131.5 1077,-112.5 1031,-112.5"/>
<text text-anchor="middle" x="1054" y="-119.5" font-family="Helvetica,sans-Serif" font-size="10.00">cstdint</text>
</g>
<!-- Node6&#45;&gt;Node8 -->
<g id="edge7" class="edge"><title>Node6&#45;&gt;Node8</title>
<path fill="none" stroke="midnightblue" d="M622.103,-512.84C701.641,-510.439 873.528,-495.195 985,-412 1031.86,-377.031 1044.02,-357.608 1054,-300 1063.86,-243.1 1059.24,-174.359 1056.09,-141.823"/>
<polygon fill="midnightblue" stroke="midnightblue" points="1059.54,-141.148 1055.03,-131.562 1052.58,-141.87 1059.54,-141.148"/>
</g>
<!-- Node9 -->
<g id="node9" class="node"><title>Node9</title>
<polygon fill="white" stroke="#bfbfbf" points="142.5,-224.5 142.5,-243.5 191.5,-243.5 191.5,-224.5 142.5,-224.5"/>
<text text-anchor="middle" x="167" y="-231.5" font-family="Helvetica,sans-Serif" font-size="10.00">ptrlist.h</text>
</g>
<!-- Node6&#45;&gt;Node9 -->
<g id="edge8" class="edge"><title>Node6&#45;&gt;Node9</title>
<path fill="none" stroke="midnightblue" d="M535.995,-509.946C434.974,-501.594 191,-474.066 191,-403 191,-403 191,-403 191,-345 191,-312.059 180.599,-274.818 173.491,-253.214"/>
<polygon fill="midnightblue" stroke="midnightblue" points="176.785,-252.028 170.237,-243.699 170.162,-254.294 176.785,-252.028"/>
</g>
<!-- Node10 -->
<g id="node10" class="node"><title>Node10</title>
<polygon fill="white" stroke="#bfbfbf" points="232,-112.5 232,-131.5 284,-131.5 284,-112.5 232,-112.5"/>
<text text-anchor="middle" x="258" y="-119.5" font-family="Helvetica,sans-Serif" font-size="10.00">mutex.h</text>
</g>
<!-- Node6&#45;&gt;Node10 -->
<g id="edge9" class="edge"><title>Node6&#45;&gt;Node10</title>
<path fill="none" stroke="midnightblue" d="M535.645,-511.161C430.642,-506.344 169.022,-492.046 138,-468 113.661,-449.134 114,-433.795 114,-403 114,-403 114,-403 114,-289 114,-258.902 116.31,-249.046 133,-224 158.993,-184.993 204.707,-153.684 233.061,-136.769"/>
<polygon fill="midnightblue" stroke="midnightblue" points="235.073,-139.648 241.958,-131.594 231.554,-133.597 235.073,-139.648"/>
</g>
<!-- Node11 -->
<g id="node11" class="node"><title>Node11</title>
<g id="a_node11"><a xlink:href="_i_plug_platform_8h.html" target="_top" xlink:title="Include to get consistently named preprocessor macros for different platforms and logging functionali...">
<polygon fill="white" stroke="black" points="303,-56.5 303,-75.5 387,-75.5 387,-56.5 303,-56.5"/>
<text text-anchor="middle" x="345" y="-63.5" font-family="Helvetica,sans-Serif" font-size="10.00">IPlugPlatform.h</text>
</a>
</g>
</g>
<!-- Node6&#45;&gt;Node11 -->
<g id="edge10" class="edge"><title>Node6&#45;&gt;Node11</title>
<path fill="none" stroke="midnightblue" d="M535.642,-513.372C407.265,-513.319 38,-504.357 38,-403 38,-403 38,-403 38,-177 38,-123.493 205.362,-89.0323 292.944,-74.662"/>
<polygon fill="midnightblue" stroke="midnightblue" points="293.64,-78.0951 302.957,-73.0497 292.527,-71.1841 293.64,-78.0951"/>
</g>
<!-- Node13 -->
<g id="node13" class="node"><title>Node13</title>
<g id="a_node13"><a xlink:href="_i_plug_plugin_base_8h.html" target="_top" xlink:title="Base class that contains plug&#45;in info and state manipulation methods. ">
<polygon fill="white" stroke="black" points="757.5,-448.5 757.5,-467.5 854.5,-467.5 854.5,-448.5 757.5,-448.5"/>
<text text-anchor="middle" x="806" y="-455.5" font-family="Helvetica,sans-Serif" font-size="10.00">IPlugPluginBase.h</text>
</a>
</g>
</g>
<!-- Node6&#45;&gt;Node13 -->
<g id="edge13" class="edge"><title>Node6&#45;&gt;Node13</title>
<path fill="none" stroke="midnightblue" d="M614.969,-504.444C654.319,-495.083 717.487,-480.056 760.314,-469.868"/>
<polygon fill="midnightblue" stroke="midnightblue" points="761.281,-473.236 770.199,-467.516 759.661,-466.426 761.281,-473.236"/>
</g>
<!-- Node17 -->
<g id="node17" class="node"><title>Node17</title>
<g id="a_node17"><a xlink:href="_i_plug_parameter_8h.html" target="_top" xlink:title="IPlug&#39;s parameter class. ">
<polygon fill="white" stroke="black" points="759,-280.5 759,-299.5 851,-299.5 851,-280.5 759,-280.5"/>
<text text-anchor="middle" x="805" y="-287.5" font-family="Helvetica,sans-Serif" font-size="10.00">IPlugParameter.h</text>
</a>
</g>
</g>
<!-- Node6&#45;&gt;Node17 -->
<g id="edge67" class="edge"><title>Node6&#45;&gt;Node17</title>
<path fill="none" stroke="midnightblue" d="M616.407,-504.441C640.029,-497.599 670.11,-486.096 692,-468 746.495,-422.951 783.274,-344.575 797.905,-309.221"/>
<polygon fill="midnightblue" stroke="midnightblue" points="801.244,-310.299 801.729,-299.715 794.749,-307.686 801.244,-310.299"/>
</g>
<!-- Node22 -->
<g id="node22" class="node"><title>Node22</title>
<g id="a_node22"><a xlink:href="_i_plug_utilities_8h.html" target="_top" xlink:title="Utility functions and macros. ">
<polygon fill="white" stroke="black" points="523,-112.5 523,-131.5 603,-131.5 603,-112.5 523,-112.5"/>
<text text-anchor="middle" x="563" y="-119.5" font-family="Helvetica,sans-Serif" font-size="10.00">IPlugUtilities.h</text>
</a>
</g>
</g>
<!-- Node6&#45;&gt;Node22 -->
<g id="edge66" class="edge"><title>Node6&#45;&gt;Node22</title>
<path fill="none" stroke="midnightblue" d="M569.852,-504.253C552.605,-486.77 517,-445.528 517,-403 517,-403 517,-403 517,-289 517,-233.357 541.299,-170.908 554.576,-140.94"/>
<polygon fill="midnightblue" stroke="midnightblue" points="557.798,-142.31 558.755,-131.759 551.427,-139.411 557.798,-142.31"/>
</g>
<!-- Node25 -->
<g id="node25" class="node"><title>Node25</title>
<g id="a_node25"><a xlink:href="_i_plug_constants_8h.html" target="_top" xlink:title="IPlug Constant definitions, Types, magic numbers. ">
<polygon fill="white" stroke="black" points="443,-56.5 443,-75.5 535,-75.5 535,-56.5 443,-56.5"/>
<text text-anchor="middle" x="489" y="-63.5" font-family="Helvetica,sans-Serif" font-size="10.00">IPlugConstants.h</text>
</a>
</g>
</g>
<!-- Node6&#45;&gt;Node25 -->
<g id="edge64" class="edge"><title>Node6&#45;&gt;Node25</title>
<path fill="none" stroke="midnightblue" d="M535.853,-510.553C454.618,-505.444 282.263,-492.072 228,-468 187.372,-449.977 152,-447.447 152,-403 152,-403 152,-403 152,-345 152,-290.563 114.925,-275.348 133,-224 154.203,-163.765 167.927,-144.323 223,-112 240.819,-101.542 360.445,-84.1221 433.07,-74.3056"/>
<polygon fill="midnightblue" stroke="midnightblue" points="433.546,-77.7733 442.99,-72.9725 432.613,-70.8357 433.546,-77.7733"/>
</g>
<!-- Node29 -->
<g id="node29" class="node"><title>Node29</title>
<g id="a_node29"><a xlink:href="_i_plug_structs_8h_source.html" target="_top" xlink:title="IPlugStructs.h">
<polygon fill="white" stroke="black" points="583.5,-280.5 583.5,-299.5 662.5,-299.5 662.5,-280.5 583.5,-280.5"/>
<text text-anchor="middle" x="623" y="-287.5" font-family="Helvetica,sans-Serif" font-size="10.00">IPlugStructs.h</text>
</a>
</g>
</g>
<!-- Node6&#45;&gt;Node29 -->
<g id="edge65" class="edge"><title>Node6&#45;&gt;Node29</title>
<path fill="none" stroke="midnightblue" d="M580.725,-504.297C587.199,-471.633 610.144,-355.866 619.243,-309.957"/>
<polygon fill="midnightblue" stroke="midnightblue" points="622.728,-310.373 621.239,-299.884 615.862,-309.012 622.728,-310.373"/>
</g>
<!-- Node30 -->
<g id="node30" class="node"><title>Node30</title>
<g id="a_node30"><a xlink:href="_i_plug_queue_8h.html" target="_top" xlink:title="A lock&#45;free SPSC queue used to transfer data between threads based on MLQueue.h by Randy Jones based ...">
<polygon fill="white" stroke="black" points="607,-448.5 607,-467.5 683,-467.5 683,-448.5 607,-448.5"/>
<text text-anchor="middle" x="645" y="-455.5" font-family="Helvetica,sans-Serif" font-size="10.00">IPlugQueue.h</text>
</a>
</g>
</g>
<!-- Node6&#45;&gt;Node30 -->
<g id="edge68" class="edge"><title>Node6&#45;&gt;Node30</title>
<path fill="none" stroke="midnightblue" d="M589.604,-504.324C599.456,-496.263 614.351,-484.077 626.215,-474.369"/>
<polygon fill="midnightblue" stroke="midnightblue" points="628.68,-476.875 634.203,-467.834 624.247,-471.457 628.68,-476.875"/>
</g>
<!-- Node32 -->
<g id="node32" class="node"><title>Node32</title>
<g id="a_node32"><a xlink:href="_i_plug_timer_8h.html" target="_top" xlink:title="This file includes classes for implementing timers &#45; in order to get a regular callback on the main t...">
<polygon fill="white" stroke="black" points="260,-280.5 260,-299.5 332,-299.5 332,-280.5 260,-280.5"/>
<text text-anchor="middle" x="296" y="-287.5" font-family="Helvetica,sans-Serif" font-size="10.00">IPlugTimer.h</text>
</a>
</g>
</g>
<!-- Node6&#45;&gt;Node32 -->
<g id="edge71" class="edge"><title>Node6&#45;&gt;Node32</title>
<path fill="none" stroke="midnightblue" d="M562.777,-504.463C547.036,-495.934 522.704,-482.097 503,-468 427.843,-414.23 346.796,-339.399 312.655,-307.003"/>
<polygon fill="midnightblue" stroke="midnightblue" points="314.67,-304.088 305.018,-299.72 309.839,-309.154 314.67,-304.088"/>
</g>
<!-- Node11&#45;&gt;Node7 -->
<g id="edge11" class="edge"><title>Node11&#45;&gt;Node7</title>
<path fill="none" stroke="midnightblue" d="M387.157,-57.9404C391.822,-57.244 396.508,-56.5811 401,-56 559.219,-35.5328 749.263,-19.6165 825.225,-13.6039"/>
<polygon fill="midnightblue" stroke="midnightblue" points="825.893,-17.0623 835.587,-12.7893 825.344,-10.0838 825.893,-17.0623"/>
</g>
<!-- Node12 -->
<g id="node12" class="node"><title>Node12</title>
<polygon fill="white" stroke="#bfbfbf" points="431.5,-0.5 431.5,-19.5 476.5,-19.5 476.5,-0.5 431.5,-0.5"/>
<text text-anchor="middle" x="454" y="-7.5" font-family="Helvetica,sans-Serif" font-size="10.00">cstdlib</text>
</g>
<!-- Node11&#45;&gt;Node12 -->
<g id="edge12" class="edge"><title>Node11&#45;&gt;Node12</title>
<path fill="none" stroke="midnightblue" d="M362.513,-56.324C380.072,-47.6247 407.331,-34.1202 427.531,-24.113"/>
<polygon fill="midnightblue" stroke="midnightblue" points="429.124,-27.23 436.531,-19.6545 426.016,-20.9575 429.124,-27.23"/>
</g>
<!-- Node14 -->
<g id="node14" class="node"><title>Node14</title>
<g id="a_node14"><a xlink:href="_i_plug_delegate__select_8h.html" target="_top" xlink:title="Used for choosing an editor delegate. ">
<polygon fill="white" stroke="black" points="833,-392.5 833,-411.5 951,-411.5 951,-392.5 833,-392.5"/>
<text text-anchor="middle" x="892" y="-399.5" font-family="Helvetica,sans-Serif" font-size="10.00">IPlugDelegate_select.h</text>
</a>
</g>
</g>
<!-- Node13&#45;&gt;Node14 -->
<g id="edge14" class="edge"><title>Node13&#45;&gt;Node14</title>
<path fill="none" stroke="midnightblue" d="M819.817,-448.324C833.233,-439.9 853.824,-426.971 869.586,-417.074"/>
<polygon fill="midnightblue" stroke="midnightblue" points="871.609,-419.936 878.217,-411.655 867.887,-414.008 871.609,-419.936"/>
</g>
<!-- Node13&#45;&gt;Node17 -->
<g id="edge61" class="edge"><title>Node13&#45;&gt;Node17</title>
<path fill="none" stroke="midnightblue" d="M805.946,-448.075C805.789,-421.945 805.327,-345.211 805.112,-309.577"/>
<polygon fill="midnightblue" stroke="midnightblue" points="808.612,-309.547 805.052,-299.568 801.612,-309.589 808.612,-309.547"/>
</g>
<!-- Node27 -->
<g id="node27" class="node"><title>Node27</title>
<g id="a_node27"><a xlink:href="_i_plug_logger_8h.html" target="_top" xlink:title="IPlug logging a.k.a tracing functionality. ">
<polygon fill="white" stroke="black" points="875.5,-168.5 875.5,-187.5 952.5,-187.5 952.5,-168.5 875.5,-168.5"/>
<text text-anchor="middle" x="914" y="-175.5" font-family="Helvetica,sans-Serif" font-size="10.00">IPlugLogger.h</text>
</a>
</g>
</g>
<!-- Node13&#45;&gt;Node27 -->
<g id="edge63" class="edge"><title>Node13&#45;&gt;Node27</title>
<path fill="none" stroke="midnightblue" d="M854.727,-454.134C888.231,-449.703 931.628,-438.753 960,-412 1023.81,-351.829 1068.41,-297.139 1020,-224 1007.08,-204.482 983.812,-193.405 962.358,-187.13"/>
<polygon fill="midnightblue" stroke="midnightblue" points="963.235,-183.742 952.673,-184.572 961.448,-190.51 963.235,-183.742"/>
</g>
<!-- Node13&#45;&gt;Node29 -->
<g id="edge62" class="edge"><title>Node13&#45;&gt;Node29</title>
<path fill="none" stroke="midnightblue" d="M796.419,-448.309C767.019,-421.64 677.807,-340.716 640.108,-306.519"/>
<polygon fill="midnightblue" stroke="midnightblue" points="642.245,-303.731 632.486,-299.605 637.542,-308.916 642.245,-303.731"/>
</g>
<!-- Node15 -->
<g id="node15" class="node"><title>Node15</title>
<g id="a_node15"><a xlink:href="_i_plug_editor_delegate_8h.html" target="_top" xlink:title="This pure virtual interface delegates communication in both directions between a UI editor and someth...">
<polygon fill="white" stroke="black" points="834,-336.5 834,-355.5 946,-355.5 946,-336.5 834,-336.5"/>
<text text-anchor="middle" x="890" y="-343.5" font-family="Helvetica,sans-Serif" font-size="10.00">IPlugEditorDelegate.h</text>
</a>
</g>
</g>
<!-- Node14&#45;&gt;Node15 -->
<g id="edge15" class="edge"><title>Node14&#45;&gt;Node15</title>
<path fill="none" stroke="midnightblue" d="M891.67,-392.083C891.408,-385.006 891.032,-374.861 890.703,-365.986"/>
<polygon fill="midnightblue" stroke="midnightblue" points="894.192,-365.615 890.324,-355.751 887.197,-365.874 894.192,-365.615"/>
</g>
<!-- Node15&#45;&gt;Node5 -->
<g id="edge16" class="edge"><title>Node15&#45;&gt;Node5</title>
<path fill="none" stroke="midnightblue" d="M904.833,-336.484C939.273,-316.712 1027.34,-266.168 1101,-224 1128.99,-207.979 1139.3,-208.735 1164,-188 1180.78,-173.917 1196.35,-154.153 1206.42,-140.124"/>
<polygon fill="midnightblue" stroke="midnightblue" points="1209.34,-142.053 1212.2,-131.85 1203.6,-138.044 1209.34,-142.053"/>
</g>
<!-- Node15&#45;&gt;Node7 -->
<g id="edge17" class="edge"><title>Node15&#45;&gt;Node7</title>
<path fill="none" stroke="midnightblue" d="M935.32,-336.492C1050.01,-312.881 1336.77,-239.722 1251,-112 1210.47,-51.6525 979.464,-22.8834 892.292,-14.0639"/>
<polygon fill="midnightblue" stroke="midnightblue" points="892.455,-10.563 882.159,-13.0636 891.767,-17.5291 892.455,-10.563"/>
</g>
<!-- Node15&#45;&gt;Node9 -->
<g id="edge19" class="edge"><title>Node15&#45;&gt;Node9</title>
<path fill="none" stroke="midnightblue" d="M833.739,-345.187C698.149,-344.978 356.727,-340.332 251,-300 223.418,-289.478 197.483,-266.696 181.921,-251.103"/>
<polygon fill="midnightblue" stroke="midnightblue" points="184.241,-248.467 174.776,-243.707 179.207,-253.33 184.241,-248.467"/>
</g>
<!-- Node16 -->
<g id="node16" class="node"><title>Node16</title>
<polygon fill="white" stroke="#bfbfbf" points="324.5,-224.5 324.5,-243.5 373.5,-243.5 373.5,-224.5 324.5,-224.5"/>
<text text-anchor="middle" x="349" y="-231.5" font-family="Helvetica,sans-Serif" font-size="10.00">stdint.h</text>
</g>
<!-- Node15&#45;&gt;Node16 -->
<g id="edge18" class="edge"><title>Node15&#45;&gt;Node16</title>
<path fill="none" stroke="midnightblue" d="M833.928,-339.411C770.429,-332.529 664.077,-319.326 574,-300 505.399,-285.282 427.051,-260.873 383.264,-246.524"/>
<polygon fill="midnightblue" stroke="midnightblue" points="384.275,-243.172 373.682,-243.364 382.083,-249.82 384.275,-243.172"/>
</g>
<!-- Node15&#45;&gt;Node17 -->
<g id="edge20" class="edge"><title>Node15&#45;&gt;Node17</title>
<path fill="none" stroke="midnightblue" d="M876.343,-336.324C863.084,-327.9 842.732,-314.971 827.154,-305.074"/>
<polygon fill="midnightblue" stroke="midnightblue" points="828.94,-302.063 818.623,-299.655 825.187,-307.971 828.94,-302.063"/>
</g>
<!-- Node26 -->
<g id="node26" class="node"><title>Node26</title>
<g id="a_node26"><a xlink:href="_i_plug_midi_8h.html" target="_top" xlink:title="MIDI and sysex structs/utilites. ">
<polygon fill="white" stroke="black" points="875.5,-224.5 875.5,-243.5 940.5,-243.5 940.5,-224.5 875.5,-224.5"/>
<text text-anchor="middle" x="908" y="-231.5" font-family="Helvetica,sans-Serif" font-size="10.00">IPlugMidi.h</text>
</a>
</g>
</g>
<!-- Node15&#45;&gt;Node26 -->
<g id="edge36" class="edge"><title>Node15&#45;&gt;Node26</title>
<path fill="none" stroke="midnightblue" d="M891.412,-336.368C894.317,-318.617 901.018,-277.666 904.957,-253.597"/>
<polygon fill="midnightblue" stroke="midnightblue" points="908.433,-254.025 906.594,-243.591 901.525,-252.895 908.433,-254.025"/>
</g>
<!-- Node15&#45;&gt;Node29 -->
<g id="edge53" class="edge"><title>Node15&#45;&gt;Node29</title>
<path fill="none" stroke="midnightblue" d="M847.693,-336.444C800.232,-326.845 723.317,-311.289 672.944,-301.101"/>
<polygon fill="midnightblue" stroke="midnightblue" points="673.424,-297.627 662.929,-299.075 672.036,-304.488 673.424,-297.627"/>
</g>
<!-- Node17&#45;&gt;Node7 -->
<g id="edge22" class="edge"><title>Node17&#45;&gt;Node7</title>
<path fill="none" stroke="midnightblue" d="M806.675,-280.375C814.187,-241.701 844.86,-83.7937 855.413,-29.4651"/>
<polygon fill="midnightblue" stroke="midnightblue" points="858.873,-30.0082 857.344,-19.5243 852.002,-28.6734 858.873,-30.0082"/>
</g>
<!-- Node18 -->
<g id="node18" class="node"><title>Node18</title>
<polygon fill="white" stroke="#bfbfbf" points="697,-224.5 697,-243.5 743,-243.5 743,-224.5 697,-224.5"/>
<text text-anchor="middle" x="720" y="-231.5" font-family="Helvetica,sans-Serif" font-size="10.00">atomic</text>
</g>
<!-- Node17&#45;&gt;Node18 -->
<g id="edge21" class="edge"><title>Node17&#45;&gt;Node18</title>
<path fill="none" stroke="midnightblue" d="M791.343,-280.324C778.084,-271.9 757.732,-258.971 742.154,-249.074"/>
<polygon fill="midnightblue" stroke="midnightblue" points="743.94,-246.063 733.623,-243.655 740.187,-251.971 743.94,-246.063"/>
</g>
<!-- Node19 -->
<g id="node19" class="node"><title>Node19</title>
<polygon fill="white" stroke="#bfbfbf" points="391.5,-224.5 391.5,-243.5 450.5,-243.5 450.5,-224.5 391.5,-224.5"/>
<text text-anchor="middle" x="421" y="-231.5" font-family="Helvetica,sans-Serif" font-size="10.00">functional</text>
</g>
<!-- Node17&#45;&gt;Node19 -->
<g id="edge23" class="edge"><title>Node17&#45;&gt;Node19</title>
<path fill="none" stroke="midnightblue" d="M758.681,-282.486C682.63,-271.792 532.604,-250.694 460.939,-240.616"/>
<polygon fill="midnightblue" stroke="midnightblue" points="461.342,-237.139 450.952,-239.212 460.367,-244.071 461.342,-237.139"/>
</g>
<!-- Node20 -->
<g id="node20" class="node"><title>Node20</title>
<polygon fill="white" stroke="#bfbfbf" points="959,-224.5 959,-243.5 1011,-243.5 1011,-224.5 959,-224.5"/>
<text text-anchor="middle" x="985" y="-231.5" font-family="Helvetica,sans-Serif" font-size="10.00">memory</text>
</g>
<!-- Node17&#45;&gt;Node20 -->
<g id="edge24" class="edge"><title>Node17&#45;&gt;Node20</title>
<path fill="none" stroke="midnightblue" d="M833.522,-280.444C864.785,-271.064 915.007,-255.998 948.97,-245.809"/>
<polygon fill="midnightblue" stroke="midnightblue" points="950.377,-249.041 958.95,-242.815 948.366,-242.336 950.377,-249.041"/>
</g>
<!-- Node21 -->
<g id="node21" class="node"><title>Node21</title>
<polygon fill="white" stroke="#bfbfbf" points="703,-56.5 703,-75.5 767,-75.5 767,-56.5 703,-56.5"/>
<text text-anchor="middle" x="735" y="-63.5" font-family="Helvetica,sans-Serif" font-size="10.00">wdlstring.h</text>
</g>
<!-- Node17&#45;&gt;Node21 -->
<g id="edge25" class="edge"><title>Node17&#45;&gt;Node21</title>
<path fill="none" stroke="midnightblue" d="M802.256,-280.297C791.934,-247.563 755.298,-131.375 740.886,-85.6664"/>
<polygon fill="midnightblue" stroke="midnightblue" points="744.146,-84.3683 737.801,-75.8837 737.47,-86.4734 744.146,-84.3683"/>
</g>
<!-- Node17&#45;&gt;Node22 -->
<g id="edge26" class="edge"><title>Node17&#45;&gt;Node22</title>
<path fill="none" stroke="midnightblue" d="M799.403,-280.068C790.616,-266.591 772.459,-240.843 752,-224 738.132,-212.583 637.626,-160.912 589.093,-136.219"/>
<polygon fill="midnightblue" stroke="midnightblue" points="590.621,-133.069 580.12,-131.66 587.45,-139.31 590.621,-133.069"/>
</g>
<!-- Node22&#45;&gt;Node2 -->
<g id="edge28" class="edge"><title>Node22&#45;&gt;Node2</title>
<path fill="none" stroke="midnightblue" d="M522.84,-115.968C438.014,-105.341 242.038,-80.7866 164.463,-71.0673"/>
<polygon fill="midnightblue" stroke="midnightblue" points="164.684,-67.5677 154.326,-69.7973 163.814,-74.5134 164.684,-67.5677"/>
</g>
<!-- Node22&#45;&gt;Node3 -->
<g id="edge29" class="edge"><title>Node22&#45;&gt;Node3</title>
<path fill="none" stroke="midnightblue" d="M603.017,-116.852C702.963,-106.493 961.961,-79.6489 1052.33,-70.2825"/>
<polygon fill="midnightblue" stroke="midnightblue" points="1052.91,-73.7415 1062.49,-69.2291 1052.19,-66.7788 1052.91,-73.7415"/>
</g>
<!-- Node22&#45;&gt;Node7 -->
<g id="edge31" class="edge"><title>Node22&#45;&gt;Node7</title>
<path fill="none" stroke="midnightblue" d="M568.016,-112.181C576.65,-97.879 595.752,-69.8348 620,-56 685.972,-18.3588 777.245,-11.3982 825.683,-10.5864"/>
<polygon fill="midnightblue" stroke="midnightblue" points="825.939,-14.0844 835.908,-10.4971 825.878,-7.08468 825.939,-14.0844"/>
</g>
<!-- Node22&#45;&gt;Node11 -->
<g id="edge35" class="edge"><title>Node22&#45;&gt;Node11</title>
<path fill="none" stroke="midnightblue" d="M528.457,-112.444C490.747,-103.102 430.26,-88.1194 389.135,-77.9326"/>
<polygon fill="midnightblue" stroke="midnightblue" points="389.929,-74.5236 379.381,-75.5164 388.246,-81.3182 389.929,-74.5236"/>
</g>
<!-- Node22&#45;&gt;Node12 -->
<g id="edge30" class="edge"><title>Node22&#45;&gt;Node12</title>
<path fill="none" stroke="midnightblue" d="M562.627,-112.408C561.615,-98.9191 557.866,-72.6045 544,-56 529.22,-38.3015 505.756,-26.8908 486.491,-19.9889"/>
<polygon fill="midnightblue" stroke="midnightblue" points="487.462,-16.6232 476.868,-16.7812 485.248,-23.264 487.462,-16.6232"/>
</g>
<!-- Node22&#45;&gt;Node21 -->
<g id="edge33" class="edge"><title>Node22&#45;&gt;Node21</title>
<path fill="none" stroke="midnightblue" d="M590.254,-112.444C619.441,-103.28 665.921,-88.6876 698.309,-78.5192"/>
<polygon fill="midnightblue" stroke="midnightblue" points="699.381,-81.8512 707.874,-75.5164 697.284,-75.1726 699.381,-81.8512"/>
</g>
<!-- Node23 -->
<g id="node23" class="node"><title>Node23</title>
<polygon fill="white" stroke="#bfbfbf" points="629,-56.5 629,-75.5 685,-75.5 685,-56.5 629,-56.5"/>
<text text-anchor="middle" x="657" y="-63.5" font-family="Helvetica,sans-Serif" font-size="10.00">algorithm</text>
</g>
<!-- Node22&#45;&gt;Node23 -->
<g id="edge27" class="edge"><title>Node22&#45;&gt;Node23</title>
<path fill="none" stroke="midnightblue" d="M578.103,-112.324C592.903,-103.822 615.694,-90.7288 632.982,-80.7975"/>
<polygon fill="midnightblue" stroke="midnightblue" points="635.007,-83.6707 641.935,-75.6545 631.52,-77.6009 635.007,-83.6707"/>
</g>
<!-- Node24 -->
<g id="node24" class="node"><title>Node24</title>
<polygon fill="white" stroke="#bfbfbf" points="785,-56.5 785,-75.5 831,-75.5 831,-56.5 785,-56.5"/>
<text text-anchor="middle" x="808" y="-63.5" font-family="Helvetica,sans-Serif" font-size="10.00">cctype</text>
</g>
<!-- Node22&#45;&gt;Node24 -->
<g id="edge32" class="edge"><title>Node22&#45;&gt;Node24</title>
<path fill="none" stroke="midnightblue" d="M603.222,-113.324C644.084,-105.345 709.406,-92.0898 774.893,-76.1474"/>
<polygon fill="midnightblue" stroke="midnightblue" points="776.099,-79.4552 784.976,-73.6713 774.43,-72.6572 776.099,-79.4552"/>
</g>
<!-- Node22&#45;&gt;Node25 -->
<g id="edge34" class="edge"><title>Node22&#45;&gt;Node25</title>
<path fill="none" stroke="midnightblue" d="M551.111,-112.324C539.85,-104.107 522.713,-91.6017 509.291,-81.8069"/>
<polygon fill="midnightblue" stroke="midnightblue" points="511.247,-78.9014 501.106,-75.8339 507.12,-84.5559 511.247,-78.9014"/>
</g>
<!-- Node26&#45;&gt;Node3 -->
<g id="edge39" class="edge"><title>Node26&#45;&gt;Node3</title>
<path fill="none" stroke="midnightblue" d="M938.761,-224.466C997.31,-207.534 1121.08,-168.195 1145,-132 1158.07,-112.23 1133.68,-92.855 1111.96,-80.4759"/>
<polygon fill="midnightblue" stroke="midnightblue" points="1113.41,-77.2763 1102.94,-75.6181 1110.09,-83.44 1113.41,-77.2763"/>
</g>
<!-- Node26&#45;&gt;Node5 -->
<g id="edge37" class="edge"><title>Node26&#45;&gt;Node5</title>
<path fill="none" stroke="midnightblue" d="M940.548,-225.969C943.74,-225.296 946.932,-224.63 950,-224 1031.2,-207.315 1057.43,-222.068 1133,-188 1159.82,-175.907 1185.99,-153.896 1202.05,-138.869"/>
<polygon fill="midnightblue" stroke="midnightblue" points="1204.69,-141.188 1209.48,-131.737 1199.84,-136.14 1204.69,-141.188"/>
</g>
<!-- Node26&#45;&gt;Node8 -->
<g id="edge38" class="edge"><title>Node26&#45;&gt;Node8</title>
<path fill="none" stroke="midnightblue" d="M919.456,-224.368C944.297,-205.653 1003.36,-161.151 1034.31,-137.832"/>
<polygon fill="midnightblue" stroke="midnightblue" points="1036.72,-140.404 1042.6,-131.591 1032.5,-134.814 1036.72,-140.404"/>
</g>
<!-- Node26&#45;&gt;Node23 -->
<g id="edge40" class="edge"><title>Node26&#45;&gt;Node23</title>
<path fill="none" stroke="midnightblue" d="M894.859,-224.309C854.026,-197.304 729.075,-114.667 678.544,-81.2479"/>
<polygon fill="midnightblue" stroke="midnightblue" points="680.283,-78.2021 670.011,-75.6051 676.422,-84.0408 680.283,-78.2021"/>
</g>
<!-- Node26&#45;&gt;Node27 -->
<g id="edge41" class="edge"><title>Node26&#45;&gt;Node27</title>
<path fill="none" stroke="midnightblue" d="M908.991,-224.083C909.786,-216.927 910.929,-206.635 911.923,-197.691"/>
<polygon fill="midnightblue" stroke="midnightblue" points="915.402,-198.076 913.028,-187.751 908.445,-197.303 915.402,-198.076"/>
</g>
<!-- Node27&#45;&gt;Node3 -->
<g id="edge42" class="edge"><title>Node27&#45;&gt;Node3</title>
<path fill="none" stroke="midnightblue" d="M927.34,-168.368C956.512,-149.492 1026.22,-104.385 1062,-81.2367"/>
<polygon fill="midnightblue" stroke="midnightblue" points="1064.23,-83.9625 1070.72,-75.5914 1060.43,-78.0855 1064.23,-83.9625"/>
</g>
<!-- Node27&#45;&gt;Node4 -->
<g id="edge47" class="edge"><title>Node27&#45;&gt;Node4</title>
<path fill="none" stroke="midnightblue" d="M948.037,-168.475C980.837,-160.176 1032.08,-146.99 1085.69,-132.011"/>
<polygon fill="midnightblue" stroke="midnightblue" points="1086.69,-135.366 1095.37,-129.294 1084.8,-128.627 1086.69,-135.366"/>
</g>
<!-- Node27&#45;&gt;Node5 -->
<g id="edge48" class="edge"><title>Node27&#45;&gt;Node5</title>
<path fill="none" stroke="midnightblue" d="M952.502,-170.161C1012.21,-159.554 1126.22,-139.303 1183.44,-129.139"/>
<polygon fill="midnightblue" stroke="midnightblue" points="1184.2,-132.559 1193.43,-127.364 1182.98,-125.667 1184.2,-132.559"/>
</g>
<!-- Node27&#45;&gt;Node7 -->
<g id="edge46" class="edge"><title>Node27&#45;&gt;Node7</title>
<path fill="none" stroke="midnightblue" d="M911.043,-168.075C902.348,-141.832 876.741,-64.5453 865.002,-29.1165"/>
<polygon fill="midnightblue" stroke="midnightblue" points="868.306,-27.9598 861.839,-19.5681 861.662,-30.1615 868.306,-27.9598"/>
</g>
<!-- Node27&#45;&gt;Node8 -->
<g id="edge45" class="edge"><title>Node27&#45;&gt;Node8</title>
<path fill="none" stroke="midnightblue" d="M936.183,-168.444C959.428,-159.478 996.149,-145.314 1022.42,-135.183"/>
<polygon fill="midnightblue" stroke="midnightblue" points="1023.85,-138.381 1031.92,-131.516 1021.33,-131.85 1023.85,-138.381"/>
</g>
<!-- Node27&#45;&gt;Node10 -->
<g id="edge50" class="edge"><title>Node27&#45;&gt;Node10</title>
<path fill="none" stroke="midnightblue" d="M875.413,-173.824C758.346,-164.187 408.278,-135.37 294.303,-125.988"/>
<polygon fill="midnightblue" stroke="midnightblue" points="294.279,-122.475 284.026,-125.142 293.705,-129.451 294.279,-122.475"/>
</g>
<!-- Node27&#45;&gt;Node21 -->
<g id="edge49" class="edge"><title>Node27&#45;&gt;Node21</title>
<path fill="none" stroke="midnightblue" d="M899.954,-168.368C869.107,-149.412 795.21,-104.001 757.688,-80.9424"/>
<polygon fill="midnightblue" stroke="midnightblue" points="759.333,-77.8452 748.981,-75.5914 755.668,-83.8091 759.333,-77.8452"/>
</g>
<!-- Node27&#45;&gt;Node22 -->
<g id="edge52" class="edge"><title>Node27&#45;&gt;Node22</title>
<path fill="none" stroke="midnightblue" d="M875.433,-171.067C811.611,-161.248 684.063,-141.625 613.267,-130.733"/>
<polygon fill="midnightblue" stroke="midnightblue" points="613.664,-127.253 603.248,-129.192 612.6,-134.172 613.664,-127.253"/>
</g>
<!-- Node27&#45;&gt;Node24 -->
<g id="edge43" class="edge"><title>Node27&#45;&gt;Node24</title>
<path fill="none" stroke="midnightblue" d="M905.682,-168.368C887.957,-149.974 846.229,-106.671 823.468,-83.0519"/>
<polygon fill="midnightblue" stroke="midnightblue" points="825.738,-80.3636 816.279,-75.5914 820.698,-85.2209 825.738,-80.3636"/>
</g>
<!-- Node27&#45;&gt;Node25 -->
<g id="edge51" class="edge"><title>Node27&#45;&gt;Node25</title>
<path fill="none" stroke="midnightblue" d="M875.239,-177.6C786.074,-178.216 569.784,-175.1 514,-132 499.819,-121.043 493.679,-100.985 491.022,-86.0371"/>
<polygon fill="midnightblue" stroke="midnightblue" points="494.447,-85.256 489.594,-75.8379 487.514,-86.2267 494.447,-85.256"/>
</g>
<!-- Node28 -->
<g id="node28" class="node"><title>Node28</title>
<polygon fill="white" stroke="#bfbfbf" points="925.5,-112.5 925.5,-131.5 974.5,-131.5 974.5,-112.5 925.5,-112.5"/>
<text text-anchor="middle" x="950" y="-119.5" font-family="Helvetica,sans-Serif" font-size="10.00">cstdarg</text>
</g>
<!-- Node27&#45;&gt;Node28 -->
<g id="edge44" class="edge"><title>Node27&#45;&gt;Node28</title>
<path fill="none" stroke="midnightblue" d="M919.945,-168.083C924.977,-160.534 932.337,-149.495 938.513,-140.23"/>
<polygon fill="midnightblue" stroke="midnightblue" points="941.531,-142.013 944.166,-131.751 935.707,-138.13 941.531,-142.013"/>
</g>
<!-- Node29&#45;&gt;Node9 -->
<g id="edge56" class="edge"><title>Node29&#45;&gt;Node9</title>
<path fill="none" stroke="midnightblue" d="M583.331,-284.302C495.225,-273.869 284.484,-248.913 201.459,-239.081"/>
<polygon fill="midnightblue" stroke="midnightblue" points="201.869,-235.605 191.527,-237.904 201.046,-242.556 201.869,-235.605"/>
</g>
<!-- Node29&#45;&gt;Node11 -->
<g id="edge58" class="edge"><title>Node29&#45;&gt;Node11</title>
<path fill="none" stroke="midnightblue" d="M608.642,-280.365C594.436,-271.654 572.235,-257.585 554,-244 479.479,-188.482 396.931,-114.573 362.045,-82.7098"/>
<polygon fill="midnightblue" stroke="midnightblue" points="363.973,-79.729 354.236,-75.5518 359.242,-84.8891 363.973,-79.729"/>
</g>
<!-- Node29&#45;&gt;Node21 -->
<g id="edge55" class="edge"><title>Node29&#45;&gt;Node21</title>
<path fill="none" stroke="midnightblue" d="M627.426,-280.382C632.07,-271.33 639.573,-256.678 646,-244 675.471,-185.867 710.076,-116.816 726.068,-84.8613"/>
<polygon fill="midnightblue" stroke="midnightblue" points="729.231,-86.3599 730.575,-75.8506 722.971,-83.2279 729.231,-86.3599"/>
</g>
<!-- Node29&#45;&gt;Node22 -->
<g id="edge60" class="edge"><title>Node29&#45;&gt;Node22</title>
<path fill="none" stroke="midnightblue" d="M618.599,-280.282C610.026,-263.028 590.887,-223.15 579,-188 573.817,-172.673 569.539,-154.793 566.715,-141.67"/>
<polygon fill="midnightblue" stroke="midnightblue" points="570.074,-140.629 564.621,-131.545 563.219,-142.047 570.074,-140.629"/>
</g>
<!-- Node29&#45;&gt;Node23 -->
<g id="edge54" class="edge"><title>Node29&#45;&gt;Node23</title>
<path fill="none" stroke="midnightblue" d="M624.333,-280.297C629.336,-247.633 647.066,-131.866 654.097,-85.9573"/>
<polygon fill="midnightblue" stroke="midnightblue" points="657.585,-86.2984 655.639,-75.8837 650.666,-85.2386 657.585,-86.2984"/>
</g>
<!-- Node29&#45;&gt;Node25 -->
<g id="edge57" class="edge"><title>Node29&#45;&gt;Node25</title>
<path fill="none" stroke="midnightblue" d="M612.805,-280.373C587.792,-258.528 523.436,-198.047 496,-132 489.938,-117.408 488.399,-99.4633 488.257,-86.1283"/>
<polygon fill="midnightblue" stroke="midnightblue" points="491.761,-85.8479 488.412,-75.7964 484.762,-85.7425 491.761,-85.8479"/>
</g>
<!-- Node29&#45;&gt;Node26 -->
<g id="edge59" class="edge"><title>Node29&#45;&gt;Node26</title>
<path fill="none" stroke="midnightblue" d="M662.628,-281.492C715.937,-271.391 810.373,-253.498 865.239,-243.102"/>
<polygon fill="midnightblue" stroke="midnightblue" points="866.159,-246.49 875.333,-241.19 864.856,-239.612 866.159,-246.49"/>
</g>
<!-- Node30&#45;&gt;Node18 -->
<g id="edge69" class="edge"><title>Node30&#45;&gt;Node18</title>
<path fill="none" stroke="midnightblue" d="M650.872,-448.378C656.657,-439.563 665.418,-425.314 671,-412 694.269,-356.499 709.862,-286.622 716.449,-253.738"/>
<polygon fill="midnightblue" stroke="midnightblue" points="719.921,-254.218 718.401,-243.733 713.051,-252.878 719.921,-254.218"/>
</g>
<!-- Node31 -->
<g id="node31" class="node"><title>Node31</title>
<polygon fill="white" stroke="#bfbfbf" points="613.5,-392.5 613.5,-411.5 662.5,-411.5 662.5,-392.5 613.5,-392.5"/>
<text text-anchor="middle" x="638" y="-399.5" font-family="Helvetica,sans-Serif" font-size="10.00">cstddef</text>
</g>
<!-- Node30&#45;&gt;Node31 -->
<g id="edge70" class="edge"><title>Node30&#45;&gt;Node31</title>
<path fill="none" stroke="midnightblue" d="M643.844,-448.083C642.916,-440.927 641.582,-430.635 640.423,-421.691"/>
<polygon fill="midnightblue" stroke="midnightblue" points="643.891,-421.218 639.134,-411.751 636.949,-422.118 643.891,-421.218"/>
</g>
<!-- Node32&#45;&gt;Node7 -->
<g id="edge72" class="edge"><title>Node32&#45;&gt;Node7</title>
<path fill="none" stroke="midnightblue" d="M298.006,-280.071C306.642,-244.007 344.353,-108.525 434,-56 500.294,-17.1575 737.495,-11.7107 825.674,-11.0469"/>
<polygon fill="midnightblue" stroke="midnightblue" points="825.928,-14.5455 835.907,-10.9867 825.886,-7.54566 825.928,-14.5455"/>
</g>
<!-- Node32&#45;&gt;Node9 -->
<g id="edge75" class="edge"><title>Node32&#45;&gt;Node9</title>
<path fill="none" stroke="midnightblue" d="M275.56,-280.444C254.33,-271.557 220.901,-257.563 196.745,-247.451"/>
<polygon fill="midnightblue" stroke="midnightblue" points="197.921,-244.149 187.345,-243.516 195.218,-250.606 197.921,-244.149"/>
</g>
<!-- Node32&#45;&gt;Node10 -->
<g id="edge76" class="edge"><title>Node32&#45;&gt;Node10</title>
<path fill="none" stroke="midnightblue" d="M293.043,-280.45C290.002,-271.455 285.263,-256.847 282,-244 272.894,-208.145 265.15,-165.587 261.075,-141.696"/>
<polygon fill="midnightblue" stroke="midnightblue" points="264.484,-140.862 259.38,-131.578 257.581,-142.019 264.484,-140.862"/>
</g>
<!-- Node32&#45;&gt;Node11 -->
<g id="edge77" class="edge"><title>Node32&#45;&gt;Node11</title>
<path fill="none" stroke="midnightblue" d="M286.701,-280.235C259.211,-253.258 182.705,-169.812 223,-112 238.784,-89.355 267.321,-78.076 292.828,-72.4715"/>
<polygon fill="midnightblue" stroke="midnightblue" points="293.645,-75.8781 302.788,-70.5262 292.303,-69.0079 293.645,-75.8781"/>
</g>
<!-- Node32&#45;&gt;Node16 -->
<g id="edge73" class="edge"><title>Node32&#45;&gt;Node16</title>
<path fill="none" stroke="midnightblue" d="M304.752,-280.083C312.47,-272.22 323.905,-260.569 333.217,-251.081"/>
<polygon fill="midnightblue" stroke="midnightblue" points="335.904,-253.34 340.411,-243.751 330.908,-248.436 335.904,-253.34"/>
</g>
<!-- Node32&#45;&gt;Node19 -->
<g id="edge74" class="edge"><title>Node32&#45;&gt;Node19</title>
<path fill="none" stroke="midnightblue" d="M315.807,-280.444C336.287,-271.596 368.483,-257.687 391.865,-247.586"/>
<polygon fill="midnightblue" stroke="midnightblue" points="393.494,-250.695 401.286,-243.516 390.718,-244.269 393.494,-250.695"/>
</g>
</g>
</svg>
