<?xml version="1.0" encoding="UTF-8" standalone="no"?>
<!DOCTYPE svg PUBLIC "-//W3C//DTD SVG 1.1//EN"
 "http://www.w3.org/Graphics/SVG/1.1/DTD/svg11.dtd">
<!-- Generated by graphviz version 2.36.0 (20140111.2315)
 -->
<!-- Title: IPlugVST3_Controller.h Pages: 1 -->
<svg width="1196pt" height="600pt"
 viewBox="0.00 0.00 1196.00 600.00" xmlns="http://www.w3.org/2000/svg" xmlns:xlink="http://www.w3.org/1999/xlink">
<g id="graph0" class="graph" transform="scale(1 1) rotate(0) translate(4 596)">
<title>IPlugVST3_Controller.h</title>
<polygon fill="white" stroke="none" points="-4,4 -4,-596 1192,-596 1192,4 -4,4"/>
<!-- Node1 -->
<g id="node1" class="node"><title>Node1</title>
<polygon fill="#bfbfbf" stroke="black" points="651.5,-572.5 651.5,-591.5 770.5,-591.5 770.5,-572.5 651.5,-572.5"/>
<text text-anchor="middle" x="711" y="-579.5" font-family="Helvetica,sans-Serif" font-size="10.00">IPlugVST3_Controller.h</text>
</g>
<!-- Node2 -->
<g id="node2" class="node"><title>Node2</title>
<polygon fill="white" stroke="#bfbfbf" points="598,-505 598,-535 708,-535 708,-505 598,-505"/>
<text text-anchor="start" x="606" y="-523" font-family="Helvetica,sans-Serif" font-size="10.00">public.sdk/source/vst</text>
<text text-anchor="middle" x="653" y="-512" font-family="Helvetica,sans-Serif" font-size="10.00">/vsteditcontroller.h</text>
</g>
<!-- Node1&#45;&gt;Node2 -->
<g id="edge1" class="edge"><title>Node1&#45;&gt;Node2</title>
<path fill="none" stroke="midnightblue" d="M702.69,-572.403C695.128,-564.581 683.651,-552.708 673.631,-542.342"/>
<polygon fill="midnightblue" stroke="midnightblue" points="676.136,-539.898 666.669,-535.141 671.103,-544.763 676.136,-539.898"/>
</g>
<!-- Node3 -->
<g id="node3" class="node"><title>Node3</title>
<g id="a_node3"><a xlink:href="_i_plug_a_p_i_base_8h.html" target="_top" xlink:title="The base class of an IPlug plug&#45;in, which interacts with the different plug&#45;in APIs. ">
<polygon fill="white" stroke="black" points="726,-510.5 726,-529.5 812,-529.5 812,-510.5 726,-510.5"/>
<text text-anchor="middle" x="769" y="-517.5" font-family="Helvetica,sans-Serif" font-size="10.00">IPlugAPIBase.h</text>
</a>
</g>
</g>
<!-- Node1&#45;&gt;Node3 -->
<g id="edge2" class="edge"><title>Node1&#45;&gt;Node3</title>
<path fill="none" stroke="midnightblue" d="M719.31,-572.403C728.268,-563.136 742.723,-548.183 753.739,-536.788"/>
<polygon fill="midnightblue" stroke="midnightblue" points="756.272,-539.203 760.705,-529.581 751.239,-534.338 756.272,-539.203"/>
</g>
<!-- Node4 -->
<g id="node4" class="node"><title>Node4</title>
<polygon fill="white" stroke="#bfbfbf" points="401,-0.5 401,-19.5 447,-19.5 447,-0.5 401,-0.5"/>
<text text-anchor="middle" x="424" y="-7.5" font-family="Helvetica,sans-Serif" font-size="10.00">cstring</text>
</g>
<!-- Node3&#45;&gt;Node4 -->
<g id="edge3" class="edge"><title>Node3&#45;&gt;Node4</title>
<path fill="none" stroke="midnightblue" d="M743.61,-510.438C735.23,-507.947 725.8,-505.496 717,-504 575.692,-479.985 205.48,-522.715 73,-468 32.8477,-451.417 0,-446.442 0,-403 0,-403 0,-403 0,-121 0,-40.3798 290.842,-17.8478 390.764,-12.4857"/>
<polygon fill="midnightblue" stroke="midnightblue" points="391.095,-15.9734 400.903,-11.9659 390.737,-8.98257 391.095,-15.9734"/>
</g>
<!-- Node5 -->
<g id="node5" class="node"><title>Node5</title>
<polygon fill="white" stroke="#bfbfbf" points="244,-112.5 244,-131.5 290,-131.5 290,-112.5 244,-112.5"/>
<text text-anchor="middle" x="267" y="-119.5" font-family="Helvetica,sans-Serif" font-size="10.00">cstdint</text>
</g>
<!-- Node3&#45;&gt;Node5 -->
<g id="edge4" class="edge"><title>Node3&#45;&gt;Node5</title>
<path fill="none" stroke="midnightblue" d="M741.63,-510.45C733.731,-508.161 725.066,-505.82 717,-504 614.273,-480.825 254,-508.308 254,-403 254,-403 254,-403 254,-233 254,-200.576 259.639,-163.146 263.49,-141.369"/>
<polygon fill="midnightblue" stroke="midnightblue" points="266.935,-141.985 265.3,-131.517 260.05,-140.72 266.935,-141.985"/>
</g>
<!-- Node6 -->
<g id="node6" class="node"><title>Node6</title>
<polygon fill="white" stroke="#bfbfbf" points="814.5,-224.5 814.5,-243.5 863.5,-243.5 863.5,-224.5 814.5,-224.5"/>
<text text-anchor="middle" x="839" y="-231.5" font-family="Helvetica,sans-Serif" font-size="10.00">ptrlist.h</text>
</g>
<!-- Node3&#45;&gt;Node6 -->
<g id="edge5" class="edge"><title>Node3&#45;&gt;Node6</title>
<path fill="none" stroke="midnightblue" d="M773.314,-510.219C782.259,-491.177 802,-444.457 802,-403 802,-403 802,-403 802,-345 802,-310.889 818.182,-273.787 829.142,-252.568"/>
<polygon fill="midnightblue" stroke="midnightblue" points="832.359,-253.976 834.01,-243.51 826.193,-250.662 832.359,-253.976"/>
</g>
<!-- Node7 -->
<g id="node7" class="node"><title>Node7</title>
<polygon fill="white" stroke="#bfbfbf" points="1026,-112.5 1026,-131.5 1078,-131.5 1078,-112.5 1026,-112.5"/>
<text text-anchor="middle" x="1052" y="-119.5" font-family="Helvetica,sans-Serif" font-size="10.00">mutex.h</text>
</g>
<!-- Node3&#45;&gt;Node7 -->
<g id="edge6" class="edge"><title>Node3&#45;&gt;Node7</title>
<path fill="none" stroke="midnightblue" d="M812.094,-513.659C904.217,-501.037 1112,-465.626 1112,-403 1112,-403 1112,-403 1112,-289 1112,-231.734 1080.03,-169.617 1062.76,-140.247"/>
<polygon fill="midnightblue" stroke="midnightblue" points="1065.7,-138.347 1057.54,-131.597 1059.71,-141.966 1065.7,-138.347"/>
</g>
<!-- Node8 -->
<g id="node8" class="node"><title>Node8</title>
<g id="a_node8"><a xlink:href="_i_plug_platform_8h.html" target="_top" xlink:title="Include to get consistently named preprocessor macros for different platforms and logging functionali...">
<polygon fill="white" stroke="black" points="988,-56.5 988,-75.5 1072,-75.5 1072,-56.5 988,-56.5"/>
<text text-anchor="middle" x="1030" y="-63.5" font-family="Helvetica,sans-Serif" font-size="10.00">IPlugPlatform.h</text>
</a>
</g>
</g>
<!-- Node3&#45;&gt;Node8 -->
<g id="edge7" class="edge"><title>Node3&#45;&gt;Node8</title>
<path fill="none" stroke="midnightblue" d="M812.262,-516.234C919.316,-508.211 1188,-480.366 1188,-403 1188,-403 1188,-403 1188,-177 1188,-122.393 1123.65,-92.6834 1077.08,-78.3336"/>
<polygon fill="midnightblue" stroke="midnightblue" points="1078.02,-74.9631 1067.44,-75.5012 1076.05,-81.6791 1078.02,-74.9631"/>
</g>
<!-- Node10 -->
<g id="node10" class="node"><title>Node10</title>
<g id="a_node10"><a xlink:href="_i_plug_plugin_base_8h.html" target="_top" xlink:title="Base class that contains plug&#45;in info and state manipulation methods. ">
<polygon fill="white" stroke="black" points="507.5,-448.5 507.5,-467.5 604.5,-467.5 604.5,-448.5 507.5,-448.5"/>
<text text-anchor="middle" x="556" y="-455.5" font-family="Helvetica,sans-Serif" font-size="10.00">IPlugPluginBase.h</text>
</a>
</g>
</g>
<!-- Node3&#45;&gt;Node10 -->
<g id="edge10" class="edge"><title>Node3&#45;&gt;Node10</title>
<path fill="none" stroke="midnightblue" d="M739.587,-510.469C732.215,-508.344 724.321,-506.079 717,-504 676.188,-492.41 629.49,-479.384 596.934,-470.34"/>
<polygon fill="midnightblue" stroke="midnightblue" points="597.458,-466.854 586.886,-467.551 595.585,-473.598 597.458,-466.854"/>
</g>
<!-- Node15 -->
<g id="node15" class="node"><title>Node15</title>
<g id="a_node15"><a xlink:href="_i_plug_parameter_8h.html" target="_top" xlink:title="IPlug&#39;s parameter class. ">
<polygon fill="white" stroke="black" points="134,-280.5 134,-299.5 226,-299.5 226,-280.5 134,-280.5"/>
<text text-anchor="middle" x="180" y="-287.5" font-family="Helvetica,sans-Serif" font-size="10.00">IPlugParameter.h</text>
</a>
</g>
</g>
<!-- Node3&#45;&gt;Node15 -->
<g id="edge64" class="edge"><title>Node3&#45;&gt;Node15</title>
<path fill="none" stroke="midnightblue" d="M743.327,-510.462C735.012,-508.003 725.692,-505.565 717,-504 612.38,-485.169 324,-533.146 240,-468 190.258,-429.423 181.45,-347.664 180.101,-310.327"/>
<polygon fill="midnightblue" stroke="midnightblue" points="183.59,-309.801 179.882,-299.876 176.592,-309.947 183.59,-309.801"/>
</g>
<!-- Node20 -->
<g id="node20" class="node"><title>Node20</title>
<g id="a_node20"><a xlink:href="_i_plug_utilities_8h.html" target="_top" xlink:title="Utility functions and macros. ">
<polygon fill="white" stroke="black" points="693,-112.5 693,-131.5 773,-131.5 773,-112.5 693,-112.5"/>
<text text-anchor="middle" x="733" y="-119.5" font-family="Helvetica,sans-Serif" font-size="10.00">IPlugUtilities.h</text>
</a>
</g>
</g>
<!-- Node3&#45;&gt;Node20 -->
<g id="edge63" class="edge"><title>Node3&#45;&gt;Node20</title>
<path fill="none" stroke="midnightblue" d="M790.425,-510.475C825.665,-494.875 892,-458.183 892,-403 892,-403 892,-403 892,-289 892,-258.775 889.573,-248.592 872,-224 842.923,-183.31 792.314,-152.597 760.847,-136.245"/>
<polygon fill="midnightblue" stroke="midnightblue" points="762.244,-133.03 751.741,-131.636 759.083,-139.275 762.244,-133.03"/>
</g>
<!-- Node25 -->
<g id="node25" class="node"><title>Node25</title>
<g id="a_node25"><a xlink:href="_i_plug_constants_8h.html" target="_top" xlink:title="IPlug Constant definitions, Types, magic numbers. ">
<polygon fill="white" stroke="black" points="840,-56.5 840,-75.5 932,-75.5 932,-56.5 840,-56.5"/>
<text text-anchor="middle" x="886" y="-63.5" font-family="Helvetica,sans-Serif" font-size="10.00">IPlugConstants.h</text>
</a>
</g>
</g>
<!-- Node3&#45;&gt;Node25 -->
<g id="edge61" class="edge"><title>Node3&#45;&gt;Node25</title>
<path fill="none" stroke="midnightblue" d="M812.335,-515.053C912.194,-504.764 1150,-472.922 1150,-403 1150,-403 1150,-403 1150,-177 1150,-136.769 1122.1,-131.662 1087,-112 1042.18,-86.8935 984.37,-75.794 942.26,-70.8872"/>
<polygon fill="midnightblue" stroke="midnightblue" points="942.499,-67.3927 932.181,-69.7954 941.745,-74.352 942.499,-67.3927"/>
</g>
<!-- Node30 -->
<g id="node30" class="node"><title>Node30</title>
<g id="a_node30"><a xlink:href="_i_plug_structs_8h_source.html" target="_top" xlink:title="IPlugStructs.h">
<polygon fill="white" stroke="black" points="634.5,-280.5 634.5,-299.5 713.5,-299.5 713.5,-280.5 634.5,-280.5"/>
<text text-anchor="middle" x="674" y="-287.5" font-family="Helvetica,sans-Serif" font-size="10.00">IPlugStructs.h</text>
</a>
</g>
</g>
<!-- Node3&#45;&gt;Node30 -->
<g id="edge62" class="edge"><title>Node3&#45;&gt;Node30</title>
<path fill="none" stroke="midnightblue" d="M765.392,-510.341C751.431,-476.835 700.78,-355.273 681.511,-309.027"/>
<polygon fill="midnightblue" stroke="midnightblue" points="684.689,-307.553 677.612,-299.668 678.227,-310.245 684.689,-307.553"/>
</g>
<!-- Node31 -->
<g id="node31" class="node"><title>Node31</title>
<g id="a_node31"><a xlink:href="_i_plug_queue_8h.html" target="_top" xlink:title="A lock&#45;free SPSC queue used to transfer data between threads based on MLQueue.h by Randy Jones based ...">
<polygon fill="white" stroke="black" points="82,-448.5 82,-467.5 158,-467.5 158,-448.5 82,-448.5"/>
<text text-anchor="middle" x="120" y="-455.5" font-family="Helvetica,sans-Serif" font-size="10.00">IPlugQueue.h</text>
</a>
</g>
</g>
<!-- Node3&#45;&gt;Node31 -->
<g id="edge65" class="edge"><title>Node3&#45;&gt;Node31</title>
<path fill="none" stroke="midnightblue" d="M743.599,-510.499C735.218,-508.011 725.791,-505.547 717,-504 483.162,-462.863 420.156,-492.548 184,-468 178.899,-467.47 173.58,-466.842 168.283,-466.169"/>
<polygon fill="midnightblue" stroke="midnightblue" points="168.56,-462.675 158.186,-464.83 167.64,-469.614 168.56,-462.675"/>
</g>
<!-- Node33 -->
<g id="node33" class="node"><title>Node33</title>
<g id="a_node33"><a xlink:href="_i_plug_timer_8h.html" target="_top" xlink:title="This file includes classes for implementing timers &#45; in order to get a regular callback on the main t...">
<polygon fill="white" stroke="black" points="920,-280.5 920,-299.5 992,-299.5 992,-280.5 920,-280.5"/>
<text text-anchor="middle" x="956" y="-287.5" font-family="Helvetica,sans-Serif" font-size="10.00">IPlugTimer.h</text>
</a>
</g>
</g>
<!-- Node3&#45;&gt;Node33 -->
<g id="edge68" class="edge"><title>Node3&#45;&gt;Node33</title>
<path fill="none" stroke="midnightblue" d="M812.094,-513.364C842.368,-507.198 881.656,-494.401 906,-468 947.617,-422.865 954.925,-345.688 955.984,-310.057"/>
<polygon fill="midnightblue" stroke="midnightblue" points="959.49,-309.726 956.145,-299.673 952.491,-309.618 959.49,-309.726"/>
</g>
<!-- Node8&#45;&gt;Node4 -->
<g id="edge8" class="edge"><title>Node8&#45;&gt;Node4</title>
<path fill="none" stroke="midnightblue" d="M987.852,-57.8665C983.186,-57.1839 978.497,-56.5445 974,-56 778.812,-32.3665 543.115,-17.7056 457.293,-12.8195"/>
<polygon fill="midnightblue" stroke="midnightblue" points="457.3,-9.31443 447.119,-12.2463 456.906,-16.3033 457.3,-9.31443"/>
</g>
<!-- Node9 -->
<g id="node9" class="node"><title>Node9</title>
<polygon fill="white" stroke="#bfbfbf" points="861.5,-0.5 861.5,-19.5 906.5,-19.5 906.5,-0.5 861.5,-0.5"/>
<text text-anchor="middle" x="884" y="-7.5" font-family="Helvetica,sans-Serif" font-size="10.00">cstdlib</text>
</g>
<!-- Node8&#45;&gt;Node9 -->
<g id="edge9" class="edge"><title>Node8&#45;&gt;Node9</title>
<path fill="none" stroke="midnightblue" d="M1006.87,-56.4435C982.375,-47.3851 943.539,-33.0213 916.094,-22.8705"/>
<polygon fill="midnightblue" stroke="midnightblue" points="917.139,-19.5253 906.546,-19.339 914.711,-26.0907 917.139,-19.5253"/>
</g>
<!-- Node11 -->
<g id="node11" class="node"><title>Node11</title>
<g id="a_node11"><a xlink:href="_i_plug_delegate__select_8h.html" target="_top" xlink:title="Used for choosing an editor delegate. ">
<polygon fill="white" stroke="black" points="404,-392.5 404,-411.5 522,-411.5 522,-392.5 404,-392.5"/>
<text text-anchor="middle" x="463" y="-399.5" font-family="Helvetica,sans-Serif" font-size="10.00">IPlugDelegate_select.h</text>
</a>
</g>
</g>
<!-- Node10&#45;&gt;Node11 -->
<g id="edge11" class="edge"><title>Node10&#45;&gt;Node11</title>
<path fill="none" stroke="midnightblue" d="M541.058,-448.324C526.415,-439.822 503.866,-426.729 486.762,-416.797"/>
<polygon fill="midnightblue" stroke="midnightblue" points="488.31,-413.649 477.905,-411.655 484.795,-419.703 488.31,-413.649"/>
</g>
<!-- Node10&#45;&gt;Node15 -->
<g id="edge58" class="edge"><title>Node10&#45;&gt;Node15</title>
<path fill="none" stroke="midnightblue" d="M515.067,-448.427C481.974,-440.821 434.552,-428.377 395,-412 320.578,-381.184 239.471,-330.344 201.665,-305.531"/>
<polygon fill="midnightblue" stroke="midnightblue" points="203.288,-302.408 193.016,-299.811 199.426,-308.247 203.288,-302.408"/>
</g>
<!-- Node27 -->
<g id="node27" class="node"><title>Node27</title>
<g id="a_node27"><a xlink:href="_i_plug_logger_8h.html" target="_top" xlink:title="IPlug logging a.k.a tracing functionality. ">
<polygon fill="white" stroke="black" points="490.5,-168.5 490.5,-187.5 567.5,-187.5 567.5,-168.5 490.5,-168.5"/>
<text text-anchor="middle" x="529" y="-175.5" font-family="Helvetica,sans-Serif" font-size="10.00">IPlugLogger.h</text>
</a>
</g>
</g>
<!-- Node10&#45;&gt;Node27 -->
<g id="edge60" class="edge"><title>Node10&#45;&gt;Node27</title>
<path fill="none" stroke="midnightblue" d="M556,-448.442C556,-429.936 556,-384.812 556,-347 556,-347 556,-347 556,-289 556,-255.861 544.299,-218.682 536.303,-197.144"/>
<polygon fill="midnightblue" stroke="midnightblue" points="539.509,-195.73 532.641,-187.662 532.978,-198.252 539.509,-195.73"/>
</g>
<!-- Node10&#45;&gt;Node30 -->
<g id="edge59" class="edge"><title>Node10&#45;&gt;Node30</title>
<path fill="none" stroke="midnightblue" d="M562.344,-448.075C581.24,-421.493 637.365,-342.538 662.084,-307.763"/>
<polygon fill="midnightblue" stroke="midnightblue" points="664.968,-309.747 667.909,-299.568 659.263,-305.691 664.968,-309.747"/>
</g>
<!-- Node12 -->
<g id="node12" class="node"><title>Node12</title>
<g id="a_node12"><a xlink:href="_i_plug_editor_delegate_8h.html" target="_top" xlink:title="This pure virtual interface delegates communication in both directions between a UI editor and someth...">
<polygon fill="white" stroke="black" points="404,-336.5 404,-355.5 516,-355.5 516,-336.5 404,-336.5"/>
<text text-anchor="middle" x="460" y="-343.5" font-family="Helvetica,sans-Serif" font-size="10.00">IPlugEditorDelegate.h</text>
</a>
</g>
</g>
<!-- Node11&#45;&gt;Node12 -->
<g id="edge12" class="edge"><title>Node11&#45;&gt;Node12</title>
<path fill="none" stroke="midnightblue" d="M462.505,-392.083C462.111,-385.006 461.548,-374.861 461.055,-365.986"/>
<polygon fill="midnightblue" stroke="midnightblue" points="464.536,-365.542 460.486,-355.751 457.546,-365.93 464.536,-365.542"/>
</g>
<!-- Node12&#45;&gt;Node4 -->
<g id="edge14" class="edge"><title>Node12&#45;&gt;Node4</title>
<path fill="none" stroke="midnightblue" d="M439.871,-336.335C388.355,-312.716 254.031,-241.552 229,-132 221.22,-97.9497 223.201,-79.5445 249,-56 288.184,-20.2411 351.959,-12.0886 390.741,-10.6743"/>
<polygon fill="midnightblue" stroke="midnightblue" points="391.06,-14.1679 400.976,-10.4367 390.897,-7.1698 391.06,-14.1679"/>
</g>
<!-- Node12&#45;&gt;Node6 -->
<g id="edge16" class="edge"><title>Node12&#45;&gt;Node6</title>
<path fill="none" stroke="midnightblue" d="M516.064,-340.864C570.069,-335.613 653.438,-324.145 722,-300 757.83,-287.382 795.61,-264.373 818.239,-249.39"/>
<polygon fill="midnightblue" stroke="midnightblue" points="820.345,-252.191 826.684,-243.702 816.435,-246.385 820.345,-252.191"/>
</g>
<!-- Node13 -->
<g id="node13" class="node"><title>Node13</title>
<polygon fill="white" stroke="#bfbfbf" points="308.5,-112.5 308.5,-131.5 357.5,-131.5 357.5,-112.5 308.5,-112.5"/>
<text text-anchor="middle" x="333" y="-119.5" font-family="Helvetica,sans-Serif" font-size="10.00">cassert</text>
</g>
<!-- Node12&#45;&gt;Node13 -->
<g id="edge13" class="edge"><title>Node12&#45;&gt;Node13</title>
<path fill="none" stroke="midnightblue" d="M455.021,-336.297C436.176,-303.356 368.982,-185.898 343.186,-140.805"/>
<polygon fill="midnightblue" stroke="midnightblue" points="346.086,-138.826 338.082,-131.884 340.01,-142.302 346.086,-138.826"/>
</g>
<!-- Node14 -->
<g id="node14" class="node"><title>Node14</title>
<polygon fill="white" stroke="#bfbfbf" points="920.5,-224.5 920.5,-243.5 969.5,-243.5 969.5,-224.5 920.5,-224.5"/>
<text text-anchor="middle" x="945" y="-231.5" font-family="Helvetica,sans-Serif" font-size="10.00">stdint.h</text>
</g>
<!-- Node12&#45;&gt;Node14 -->
<g id="edge15" class="edge"><title>Node12&#45;&gt;Node14</title>
<path fill="none" stroke="midnightblue" d="M516.074,-339.657C576.428,-333.183 674.949,-320.518 758,-300 814.577,-286.022 878.243,-262.046 914.788,-247.447"/>
<polygon fill="midnightblue" stroke="midnightblue" points="916.381,-250.579 924.348,-243.595 913.764,-244.086 916.381,-250.579"/>
</g>
<!-- Node12&#45;&gt;Node15 -->
<g id="edge17" class="edge"><title>Node12&#45;&gt;Node15</title>
<path fill="none" stroke="midnightblue" d="M415.633,-336.444C366.378,-326.944 286.872,-311.611 234.029,-301.42"/>
<polygon fill="midnightblue" stroke="midnightblue" points="234.641,-297.974 224.159,-299.516 233.316,-304.847 234.641,-297.974"/>
</g>
<!-- Node26 -->
<g id="node26" class="node"><title>Node26</title>
<g id="a_node26"><a xlink:href="_i_plug_midi_8h.html" target="_top" xlink:title="MIDI and sysex structs/utilites. ">
<polygon fill="white" stroke="black" points="424.5,-224.5 424.5,-243.5 489.5,-243.5 489.5,-224.5 424.5,-224.5"/>
<text text-anchor="middle" x="457" y="-231.5" font-family="Helvetica,sans-Serif" font-size="10.00">IPlugMidi.h</text>
</a>
</g>
</g>
<!-- Node12&#45;&gt;Node26 -->
<g id="edge33" class="edge"><title>Node12&#45;&gt;Node26</title>
<path fill="none" stroke="midnightblue" d="M459.765,-336.368C459.28,-318.617 458.164,-277.666 457.507,-253.597"/>
<polygon fill="midnightblue" stroke="midnightblue" points="461.006,-253.492 457.234,-243.591 454.008,-253.683 461.006,-253.492"/>
</g>
<!-- Node12&#45;&gt;Node30 -->
<g id="edge50" class="edge"><title>Node12&#45;&gt;Node30</title>
<path fill="none" stroke="midnightblue" d="M493.909,-336.444C530.849,-327.122 590.054,-312.183 630.418,-301.997"/>
<polygon fill="midnightblue" stroke="midnightblue" points="631.41,-305.357 640.25,-299.516 629.697,-298.57 631.41,-305.357"/>
</g>
<!-- Node15&#45;&gt;Node4 -->
<g id="edge19" class="edge"><title>Node15&#45;&gt;Node4</title>
<path fill="none" stroke="midnightblue" d="M163.657,-280.437C150.315,-272.641 131.94,-259.929 121,-244 103.961,-219.19 102,-209.098 102,-179 102,-179 102,-179 102,-121 102,-90.2048 102.122,-75.4471 126,-56 166.05,-23.3817 321.577,-14.31 390.638,-11.8664"/>
<polygon fill="midnightblue" stroke="midnightblue" points="391.069,-15.3543 400.949,-11.5286 390.84,-8.35805 391.069,-15.3543"/>
</g>
<!-- Node16 -->
<g id="node16" class="node"><title>Node16</title>
<polygon fill="white" stroke="#bfbfbf" points="28,-224.5 28,-243.5 74,-243.5 74,-224.5 28,-224.5"/>
<text text-anchor="middle" x="51" y="-231.5" font-family="Helvetica,sans-Serif" font-size="10.00">atomic</text>
</g>
<!-- Node15&#45;&gt;Node16 -->
<g id="edge18" class="edge"><title>Node15&#45;&gt;Node16</title>
<path fill="none" stroke="midnightblue" d="M159.56,-280.444C138.33,-271.557 104.901,-257.563 80.745,-247.451"/>
<polygon fill="midnightblue" stroke="midnightblue" points="81.9207,-244.149 71.3448,-243.516 79.2177,-250.606 81.9207,-244.149"/>
</g>
<!-- Node17 -->
<g id="node17" class="node"><title>Node17</title>
<polygon fill="white" stroke="#bfbfbf" points="584.5,-224.5 584.5,-243.5 643.5,-243.5 643.5,-224.5 584.5,-224.5"/>
<text text-anchor="middle" x="614" y="-231.5" font-family="Helvetica,sans-Serif" font-size="10.00">functional</text>
</g>
<!-- Node15&#45;&gt;Node17 -->
<g id="edge20" class="edge"><title>Node15&#45;&gt;Node17</title>
<path fill="none" stroke="midnightblue" d="M226.035,-283.272C311.53,-272.634 493.45,-249.999 574.089,-239.966"/>
<polygon fill="midnightblue" stroke="midnightblue" points="574.829,-243.401 584.32,-238.693 573.964,-236.455 574.829,-243.401"/>
</g>
<!-- Node18 -->
<g id="node18" class="node"><title>Node18</title>
<polygon fill="white" stroke="#bfbfbf" points="130,-224.5 130,-243.5 182,-243.5 182,-224.5 130,-224.5"/>
<text text-anchor="middle" x="156" y="-231.5" font-family="Helvetica,sans-Serif" font-size="10.00">memory</text>
</g>
<!-- Node15&#45;&gt;Node18 -->
<g id="edge21" class="edge"><title>Node15&#45;&gt;Node18</title>
<path fill="none" stroke="midnightblue" d="M176.037,-280.083C172.787,-272.77 168.081,-262.181 164.046,-253.103"/>
<polygon fill="midnightblue" stroke="midnightblue" points="167.149,-251.468 159.889,-243.751 160.752,-254.311 167.149,-251.468"/>
</g>
<!-- Node19 -->
<g id="node19" class="node"><title>Node19</title>
<polygon fill="white" stroke="#bfbfbf" points="258,-56.5 258,-75.5 322,-75.5 322,-56.5 258,-56.5"/>
<text text-anchor="middle" x="290" y="-63.5" font-family="Helvetica,sans-Serif" font-size="10.00">wdlstring.h</text>
</g>
<!-- Node15&#45;&gt;Node19 -->
<g id="edge22" class="edge"><title>Node15&#45;&gt;Node19</title>
<path fill="none" stroke="midnightblue" d="M182.513,-280.455C185.057,-271.464 188.906,-256.859 191,-244 200.463,-185.895 169.217,-160.897 202,-112 212.704,-96.0349 230.889,-85.4256 247.959,-78.5417"/>
<polygon fill="midnightblue" stroke="midnightblue" points="249.644,-81.6506 257.816,-74.9067 247.222,-75.083 249.644,-81.6506"/>
</g>
<!-- Node15&#45;&gt;Node20 -->
<g id="edge23" class="edge"><title>Node15&#45;&gt;Node20</title>
<path fill="none" stroke="midnightblue" d="M226.09,-287.294C288.921,-283.894 404.351,-273.795 498,-244 581.572,-217.411 671.335,-163.086 711.468,-137.255"/>
<polygon fill="midnightblue" stroke="midnightblue" points="713.44,-140.148 719.917,-131.764 709.625,-134.279 713.44,-140.148"/>
</g>
<!-- Node20&#45;&gt;Node4 -->
<g id="edge28" class="edge"><title>Node20&#45;&gt;Node4</title>
<path fill="none" stroke="midnightblue" d="M718.429,-112.376C690.075,-95.6404 629.345,-60.0422 619,-56 564.191,-34.584 496.554,-21.8088 457.051,-15.6148"/>
<polygon fill="midnightblue" stroke="midnightblue" points="457.577,-12.1546 447.164,-14.1104 456.524,-19.0749 457.577,-12.1546"/>
</g>
<!-- Node20&#45;&gt;Node8 -->
<g id="edge32" class="edge"><title>Node20&#45;&gt;Node8</title>
<path fill="none" stroke="midnightblue" d="M773.055,-113.717C825.931,-104.103 919.141,-87.1561 977.575,-76.5318"/>
<polygon fill="midnightblue" stroke="midnightblue" points="978.496,-79.9219 987.708,-74.6894 977.244,-73.0348 978.496,-79.9219"/>
</g>
<!-- Node20&#45;&gt;Node9 -->
<g id="edge27" class="edge"><title>Node20&#45;&gt;Node9</title>
<path fill="none" stroke="midnightblue" d="M733.889,-112.157C735.74,-98.3247 741.246,-71.5477 757,-56 782.392,-30.9399 822.606,-19.7675 850.968,-14.83"/>
<polygon fill="midnightblue" stroke="midnightblue" points="851.864,-18.2324 861.202,-13.2269 850.781,-11.3167 851.864,-18.2324"/>
</g>
<!-- Node20&#45;&gt;Node19 -->
<g id="edge30" class="edge"><title>Node20&#45;&gt;Node19</title>
<path fill="none" stroke="midnightblue" d="M692.905,-116.113C609.384,-105.932 417.453,-82.536 332.169,-72.1403"/>
<polygon fill="midnightblue" stroke="midnightblue" points="332.42,-68.6451 322.07,-70.9093 331.573,-75.5936 332.42,-68.6451"/>
</g>
<!-- Node21 -->
<g id="node21" class="node"><title>Node21</title>
<polygon fill="white" stroke="#bfbfbf" points="766,-56.5 766,-75.5 822,-75.5 822,-56.5 766,-56.5"/>
<text text-anchor="middle" x="794" y="-63.5" font-family="Helvetica,sans-Serif" font-size="10.00">algorithm</text>
</g>
<!-- Node20&#45;&gt;Node21 -->
<g id="edge24" class="edge"><title>Node20&#45;&gt;Node21</title>
<path fill="none" stroke="midnightblue" d="M742.801,-112.324C751.818,-104.341 765.406,-92.3128 776.318,-82.6529"/>
<polygon fill="midnightblue" stroke="midnightblue" points="778.853,-85.083 784.021,-75.8339 774.213,-79.8416 778.853,-85.083"/>
</g>
<!-- Node22 -->
<g id="node22" class="node"><title>Node22</title>
<polygon fill="white" stroke="#bfbfbf" points="666,-56.5 666,-75.5 710,-75.5 710,-56.5 666,-56.5"/>
<text text-anchor="middle" x="688" y="-63.5" font-family="Helvetica,sans-Serif" font-size="10.00">cmath</text>
</g>
<!-- Node20&#45;&gt;Node22 -->
<g id="edge25" class="edge"><title>Node20&#45;&gt;Node22</title>
<path fill="none" stroke="midnightblue" d="M725.569,-112.083C719.147,-104.377 709.694,-93.0333 701.878,-83.6531"/>
<polygon fill="midnightblue" stroke="midnightblue" points="704.383,-81.1927 695.293,-75.7511 699.006,-85.674 704.383,-81.1927"/>
</g>
<!-- Node23 -->
<g id="node23" class="node"><title>Node23</title>
<polygon fill="white" stroke="#bfbfbf" points="478.5,-56.5 478.5,-75.5 521.5,-75.5 521.5,-56.5 478.5,-56.5"/>
<text text-anchor="middle" x="500" y="-63.5" font-family="Helvetica,sans-Serif" font-size="10.00">cstdio</text>
</g>
<!-- Node20&#45;&gt;Node23 -->
<g id="edge26" class="edge"><title>Node20&#45;&gt;Node23</title>
<path fill="none" stroke="midnightblue" d="M696.08,-112.444C650.678,-101.921 574.385,-84.2394 531.579,-74.3188"/>
<polygon fill="midnightblue" stroke="midnightblue" points="532.242,-70.8797 521.71,-72.0315 530.662,-77.699 532.242,-70.8797"/>
</g>
<!-- Node24 -->
<g id="node24" class="node"><title>Node24</title>
<polygon fill="white" stroke="#bfbfbf" points="564,-56.5 564,-75.5 610,-75.5 610,-56.5 564,-56.5"/>
<text text-anchor="middle" x="587" y="-63.5" font-family="Helvetica,sans-Serif" font-size="10.00">cctype</text>
</g>
<!-- Node20&#45;&gt;Node24 -->
<g id="edge29" class="edge"><title>Node20&#45;&gt;Node24</title>
<path fill="none" stroke="midnightblue" d="M709.866,-112.444C685.518,-103.438 646.993,-89.1891 619.577,-79.049"/>
<polygon fill="midnightblue" stroke="midnightblue" points="620.619,-75.7028 610.026,-75.5164 618.191,-82.2681 620.619,-75.7028"/>
</g>
<!-- Node20&#45;&gt;Node25 -->
<g id="edge31" class="edge"><title>Node20&#45;&gt;Node25</title>
<path fill="none" stroke="midnightblue" d="M757.243,-112.444C782.871,-103.399 823.485,-89.064 852.238,-78.9158"/>
<polygon fill="midnightblue" stroke="midnightblue" points="853.605,-82.1452 861.87,-75.5164 851.275,-75.5442 853.605,-82.1452"/>
</g>
<!-- Node26&#45;&gt;Node5 -->
<g id="edge35" class="edge"><title>Node26&#45;&gt;Node5</title>
<path fill="none" stroke="midnightblue" d="M442.091,-224.368C409.209,-205.332 330.245,-159.615 290.578,-136.65"/>
<polygon fill="midnightblue" stroke="midnightblue" points="292.248,-133.573 281.84,-131.591 288.74,-139.631 292.248,-133.573"/>
</g>
<!-- Node26&#45;&gt;Node13 -->
<g id="edge34" class="edge"><title>Node26&#45;&gt;Node13</title>
<path fill="none" stroke="midnightblue" d="M447.27,-224.368C426.354,-205.814 376.865,-161.913 350.402,-138.438"/>
<polygon fill="midnightblue" stroke="midnightblue" points="352.488,-135.609 342.685,-131.591 347.843,-140.846 352.488,-135.609"/>
</g>
<!-- Node26&#45;&gt;Node21 -->
<g id="edge37" class="edge"><title>Node26&#45;&gt;Node21</title>
<path fill="none" stroke="midnightblue" d="M489.544,-227.269C563.822,-213.528 742.479,-176.517 782,-132 793.061,-119.541 795.436,-100.307 795.419,-85.9898"/>
<polygon fill="midnightblue" stroke="midnightblue" points="798.908,-85.6385 795.013,-75.7856 791.913,-85.9169 798.908,-85.6385"/>
</g>
<!-- Node26&#45;&gt;Node23 -->
<g id="edge36" class="edge"><title>Node26&#45;&gt;Node23</title>
<path fill="none" stroke="midnightblue" d="M459.312,-224.075C466.08,-197.945 485.957,-121.211 495.188,-85.577"/>
<polygon fill="midnightblue" stroke="midnightblue" points="498.661,-86.1263 497.781,-75.5681 491.885,-84.3709 498.661,-86.1263"/>
</g>
<!-- Node26&#45;&gt;Node27 -->
<g id="edge38" class="edge"><title>Node26&#45;&gt;Node27</title>
<path fill="none" stroke="midnightblue" d="M468.568,-224.324C479.42,-216.185 495.881,-203.839 508.883,-194.087"/>
<polygon fill="midnightblue" stroke="midnightblue" points="511.321,-196.634 517.221,-187.834 507.121,-191.034 511.321,-196.634"/>
</g>
<!-- Node27&#45;&gt;Node4 -->
<g id="edge43" class="edge"><title>Node27&#45;&gt;Node4</title>
<path fill="none" stroke="midnightblue" d="M523.355,-168.075C506.612,-141.606 457.024,-63.2089 434.886,-28.2097"/>
<polygon fill="midnightblue" stroke="midnightblue" points="437.723,-26.1484 429.42,-19.5681 431.807,-29.8904 437.723,-26.1484"/>
</g>
<!-- Node27&#45;&gt;Node5 -->
<g id="edge42" class="edge"><title>Node27&#45;&gt;Node5</title>
<path fill="none" stroke="midnightblue" d="M490.134,-170.387C446.208,-162.694 372.384,-149.108 299.783,-132.034"/>
<polygon fill="midnightblue" stroke="midnightblue" points="300.552,-128.619 290.014,-129.713 298.934,-135.43 300.552,-128.619"/>
</g>
<!-- Node27&#45;&gt;Node7 -->
<g id="edge47" class="edge"><title>Node27&#45;&gt;Node7</title>
<path fill="none" stroke="midnightblue" d="M567.883,-172.985C665.771,-162.878 921.309,-136.494 1016.01,-126.716"/>
<polygon fill="midnightblue" stroke="midnightblue" points="1016.38,-130.197 1025.96,-125.688 1015.66,-123.234 1016.38,-130.197"/>
</g>
<!-- Node27&#45;&gt;Node13 -->
<g id="edge45" class="edge"><title>Node27&#45;&gt;Node13</title>
<path fill="none" stroke="midnightblue" d="M497.943,-168.444C462.423,-158.657 404.429,-142.679 367.52,-132.511"/>
<polygon fill="midnightblue" stroke="midnightblue" points="368.276,-129.089 357.706,-129.807 366.417,-135.837 368.276,-129.089"/>
</g>
<!-- Node27&#45;&gt;Node19 -->
<g id="edge46" class="edge"><title>Node27&#45;&gt;Node19</title>
<path fill="none" stroke="midnightblue" d="M503.523,-168.487C479.148,-160.081 441.535,-146.424 410,-132 375.381,-116.166 336.948,-94.6031 313.125,-80.74"/>
<polygon fill="midnightblue" stroke="midnightblue" points="314.851,-77.6946 304.454,-75.6577 311.311,-83.7338 314.851,-77.6946"/>
</g>
<!-- Node27&#45;&gt;Node20 -->
<g id="edge49" class="edge"><title>Node27&#45;&gt;Node20</title>
<path fill="none" stroke="midnightblue" d="M561.324,-168.444C596.389,-159.162 652.498,-144.309 690.965,-134.127"/>
<polygon fill="midnightblue" stroke="midnightblue" points="692.055,-137.459 700.827,-131.516 690.264,-130.692 692.055,-137.459"/>
</g>
<!-- Node27&#45;&gt;Node23 -->
<g id="edge39" class="edge"><title>Node27&#45;&gt;Node23</title>
<path fill="none" stroke="midnightblue" d="M526.724,-168.368C522.023,-150.537 511.151,-109.295 504.817,-85.2717"/>
<polygon fill="midnightblue" stroke="midnightblue" points="508.199,-84.3688 502.265,-75.5914 501.43,-86.1533 508.199,-84.3688"/>
</g>
<!-- Node27&#45;&gt;Node24 -->
<g id="edge40" class="edge"><title>Node27&#45;&gt;Node24</title>
<path fill="none" stroke="midnightblue" d="M562.744,-168.456C593.432,-159.922 635.359,-146.081 645,-132 658.1,-112.868 634.707,-93.3387 613.833,-80.75"/>
<polygon fill="midnightblue" stroke="midnightblue" points="615.28,-77.5464 604.858,-75.641 611.817,-83.6298 615.28,-77.5464"/>
</g>
<!-- Node27&#45;&gt;Node25 -->
<g id="edge48" class="edge"><title>Node27&#45;&gt;Node25</title>
<path fill="none" stroke="midnightblue" d="M567.508,-174.722C618.186,-170.709 709.343,-159.956 782,-132 814.225,-119.601 847.355,-96.8281 867.313,-81.7995"/>
<polygon fill="midnightblue" stroke="midnightblue" points="869.709,-84.3728 875.506,-75.5045 865.444,-78.8222 869.709,-84.3728"/>
</g>
<!-- Node28 -->
<g id="node28" class="node"><title>Node28</title>
<polygon fill="white" stroke="#bfbfbf" points="528.5,-112.5 528.5,-131.5 577.5,-131.5 577.5,-112.5 528.5,-112.5"/>
<text text-anchor="middle" x="553" y="-119.5" font-family="Helvetica,sans-Serif" font-size="10.00">cstdarg</text>
</g>
<!-- Node27&#45;&gt;Node28 -->
<g id="edge41" class="edge"><title>Node27&#45;&gt;Node28</title>
<path fill="none" stroke="midnightblue" d="M532.963,-168.083C536.213,-160.77 540.919,-150.181 544.954,-141.103"/>
<polygon fill="midnightblue" stroke="midnightblue" points="548.248,-142.311 549.111,-131.751 541.851,-139.468 548.248,-142.311"/>
</g>
<!-- Node29 -->
<g id="node29" class="node"><title>Node29</title>
<polygon fill="white" stroke="#bfbfbf" points="595.5,-112.5 595.5,-131.5 636.5,-131.5 636.5,-112.5 595.5,-112.5"/>
<text text-anchor="middle" x="616" y="-119.5" font-family="Helvetica,sans-Serif" font-size="10.00">ctime</text>
</g>
<!-- Node27&#45;&gt;Node29 -->
<g id="edge44" class="edge"><title>Node27&#45;&gt;Node29</title>
<path fill="none" stroke="midnightblue" d="M542.978,-168.324C556.55,-159.9 577.38,-146.971 593.325,-137.074"/>
<polygon fill="midnightblue" stroke="midnightblue" points="595.406,-139.902 602.057,-131.655 591.714,-133.954 595.406,-139.902"/>
</g>
<!-- Node30&#45;&gt;Node6 -->
<g id="edge53" class="edge"><title>Node30&#45;&gt;Node6</title>
<path fill="none" stroke="midnightblue" d="M700.145,-280.444C728.433,-271.185 773.656,-256.385 804.761,-246.205"/>
<polygon fill="midnightblue" stroke="midnightblue" points="805.91,-249.512 814.325,-243.075 803.732,-242.86 805.91,-249.512"/>
</g>
<!-- Node30&#45;&gt;Node8 -->
<g id="edge55" class="edge"><title>Node30&#45;&gt;Node8</title>
<path fill="none" stroke="midnightblue" d="M691.186,-280.486C708.537,-271.755 735.986,-257.569 759,-244 855.009,-187.393 964.916,-112.257 1009.56,-81.2796"/>
<polygon fill="midnightblue" stroke="midnightblue" points="1011.62,-84.1099 1017.83,-75.5266 1007.62,-78.3633 1011.62,-84.1099"/>
</g>
<!-- Node30&#45;&gt;Node19 -->
<g id="edge52" class="edge"><title>Node30&#45;&gt;Node19</title>
<path fill="none" stroke="midnightblue" d="M634.142,-286.816C582.186,-282.915 489.2,-272.295 415,-244 326.962,-210.428 280.758,-214.365 235,-132 224.154,-112.478 245.264,-93.3603 264.39,-80.9686"/>
<polygon fill="midnightblue" stroke="midnightblue" points="266.469,-83.8004 273.193,-75.6123 262.83,-77.8204 266.469,-83.8004"/>
</g>
<!-- Node30&#45;&gt;Node20 -->
<g id="edge57" class="edge"><title>Node30&#45;&gt;Node20</title>
<path fill="none" stroke="midnightblue" d="M676.92,-280.145C681.07,-267.613 688.953,-244.001 696,-224 706.258,-194.887 718.694,-161.262 726.22,-141.09"/>
<polygon fill="midnightblue" stroke="midnightblue" points="729.536,-142.213 729.76,-131.621 722.979,-139.762 729.536,-142.213"/>
</g>
<!-- Node30&#45;&gt;Node21 -->
<g id="edge51" class="edge"><title>Node30&#45;&gt;Node21</title>
<path fill="none" stroke="midnightblue" d="M682.492,-280.179C708.897,-252.512 788.546,-167.199 801,-132 806.324,-116.953 803.687,-98.8237 800.228,-85.5385"/>
<polygon fill="midnightblue" stroke="midnightblue" points="803.503,-84.272 797.286,-75.6924 796.795,-86.2759 803.503,-84.272"/>
</g>
<!-- Node30&#45;&gt;Node25 -->
<g id="edge54" class="edge"><title>Node30&#45;&gt;Node25</title>
<path fill="none" stroke="midnightblue" d="M686.896,-280.285C699.389,-271.624 718.645,-257.692 734,-244 792.583,-191.762 849.57,-117.189 873.81,-84.0266"/>
<polygon fill="midnightblue" stroke="midnightblue" points="876.72,-85.9756 879.753,-75.8241 871.051,-81.8687 876.72,-85.9756"/>
</g>
<!-- Node30&#45;&gt;Node26 -->
<g id="edge56" class="edge"><title>Node30&#45;&gt;Node26</title>
<path fill="none" stroke="midnightblue" d="M639.616,-280.444C601.717,-271.012 540.708,-255.83 499.756,-245.64"/>
<polygon fill="midnightblue" stroke="midnightblue" points="500.352,-242.181 489.803,-243.163 498.662,-248.974 500.352,-242.181"/>
</g>
<!-- Node31&#45;&gt;Node16 -->
<g id="edge66" class="edge"><title>Node31&#45;&gt;Node16</title>
<path fill="none" stroke="midnightblue" d="M111.648,-448.473C103.793,-439.951 92.3245,-426.119 86,-412 61.7161,-357.787 54.2038,-286.764 51.9409,-253.585"/>
<polygon fill="midnightblue" stroke="midnightblue" points="55.4297,-253.292 51.3405,-243.518 48.4421,-253.709 55.4297,-253.292"/>
</g>
<!-- Node32 -->
<g id="node32" class="node"><title>Node32</title>
<polygon fill="white" stroke="#bfbfbf" points="95.5,-392.5 95.5,-411.5 144.5,-411.5 144.5,-392.5 95.5,-392.5"/>
<text text-anchor="middle" x="120" y="-399.5" font-family="Helvetica,sans-Serif" font-size="10.00">cstddef</text>
</g>
<!-- Node31&#45;&gt;Node32 -->
<g id="edge67" class="edge"><title>Node31&#45;&gt;Node32</title>
<path fill="none" stroke="midnightblue" d="M120,-448.083C120,-441.006 120,-430.861 120,-421.986"/>
<polygon fill="midnightblue" stroke="midnightblue" points="123.5,-421.751 120,-411.751 116.5,-421.751 123.5,-421.751"/>
</g>
<!-- Node33&#45;&gt;Node4 -->
<g id="edge69" class="edge"><title>Node33&#45;&gt;Node4</title>
<path fill="none" stroke="midnightblue" d="M961.638,-280.481C967.054,-271.745 974.864,-257.556 978,-244 993.635,-176.423 1024.23,-129.062 941,-56 904.673,-24.1117 565.935,-14.0638 457.334,-11.648"/>
<polygon fill="midnightblue" stroke="midnightblue" points="457.343,-8.14748 447.27,-11.4315 457.193,-15.1459 457.343,-8.14748"/>
</g>
<!-- Node33&#45;&gt;Node6 -->
<g id="edge72" class="edge"><title>Node33&#45;&gt;Node6</title>
<path fill="none" stroke="midnightblue" d="M937.461,-280.444C918.377,-271.636 888.425,-257.812 866.564,-247.722"/>
<polygon fill="midnightblue" stroke="midnightblue" points="867.999,-244.529 857.452,-243.516 865.065,-250.885 867.999,-244.529"/>
</g>
<!-- Node33&#45;&gt;Node7 -->
<g id="edge73" class="edge"><title>Node33&#45;&gt;Node7</title>
<path fill="none" stroke="midnightblue" d="M970.867,-280.466C983.477,-272.52 1001.19,-259.576 1012,-244 1034.2,-212 1044.78,-166.793 1049.23,-141.674"/>
<polygon fill="midnightblue" stroke="midnightblue" points="1052.71,-142.099 1050.86,-131.666 1045.8,-140.974 1052.71,-142.099"/>
</g>
<!-- Node33&#45;&gt;Node8 -->
<g id="edge74" class="edge"><title>Node33&#45;&gt;Node8</title>
<path fill="none" stroke="midnightblue" d="M977.278,-280.473C993.908,-272.93 1016.7,-260.549 1032,-244 1069.65,-203.285 1074.45,-186.018 1087,-132 1089.01,-123.342 1090.88,-119.999 1087,-112 1080.6,-98.7996 1068.25,-88.3032 1056.67,-80.7794"/>
<polygon fill="midnightblue" stroke="midnightblue" points="1058.45,-77.7678 1048.08,-75.6099 1054.84,-83.7653 1058.45,-77.7678"/>
</g>
<!-- Node33&#45;&gt;Node14 -->
<g id="edge70" class="edge"><title>Node33&#45;&gt;Node14</title>
<path fill="none" stroke="midnightblue" d="M954.184,-280.083C952.726,-272.927 950.629,-262.635 948.807,-253.691"/>
<polygon fill="midnightblue" stroke="midnightblue" points="952.208,-252.851 946.783,-243.751 945.349,-254.248 952.208,-252.851"/>
</g>
<!-- Node33&#45;&gt;Node17 -->
<g id="edge71" class="edge"><title>Node33&#45;&gt;Node17</title>
<path fill="none" stroke="midnightblue" d="M919.724,-283.272C855.268,-273.095 721.263,-251.936 654.138,-241.338"/>
<polygon fill="midnightblue" stroke="midnightblue" points="654.384,-237.833 643.96,-239.731 653.292,-244.747 654.384,-237.833"/>
</g>
</g>
</svg>
