<?xml version="1.0" encoding="UTF-8" standalone="no"?>
<!DOCTYPE svg PUBLIC "-//W3C//DTD SVG 1.1//EN"
 "http://www.w3.org/Graphics/SVG/1.1/DTD/svg11.dtd">
<!-- Generated by graphviz version 2.36.0 (20140111.2315)
 -->
<!-- Title: IPlugEditorDelegate.h Pages: 1 -->
<!--zoomable 364 -->
<svg id="main" version="1.1" xmlns="http://www.w3.org/2000/svg" xmlns:xlink="http://www.w3.org/1999/xlink" xml:space="preserve" onload="init(evt)">
<style type="text/css"><![CDATA[
.edge:hover path { stroke: red; }
.edge:hover polygon { stroke: red; fill: red; }
]]></style>
<script type="text/javascript"><![CDATA[
var edges = document.getElementsByTagName('g');
if (edges && edges.length) {
  for (var i=0;i<edges.length;i++) {
    if (edges[i].id.substr(0,4)=='edge') {
      edges[i].setAttribute('class','edge');
    }
  }
}
]]></script>
        <defs>
                <circle id="rim" cx="0" cy="0" r="7"/>
                <circle id="rim2" cx="0" cy="0" r="3.5"/>
                <g id="zoomPlus">
                        <use xlink:href="#rim" fill="#404040">
                                <set attributeName="fill" to="#808080" begin="zoomplus.mouseover" end="zoomplus.mouseout"/>
                        </use>
                        <path d="M-4,0h8M0,-4v8" fill="none" stroke="white" stroke-width="1.5" pointer-events="none"/>
                </g>
                <g id="zoomMin">
                        <use xlink:href="#rim" fill="#404040">
                                <set attributeName="fill" to="#808080" begin="zoomminus.mouseover" end="zoomminus.mouseout"/>
                        </use>
                        <path d="M-4,0h8" fill="none" stroke="white" stroke-width="1.5" pointer-events="none"/>
                </g>
                <g id="dirArrow">
                        <path fill="none" stroke="white" stroke-width="1.5" d="M0,-3.0v7 M-2.5,-0.5L0,-3.0L2.5,-0.5"/>
                </g>
               <g id="resetDef">
                       <use xlink:href="#rim2" fill="#404040">
                               <set attributeName="fill" to="#808080" begin="reset.mouseover" end="reset.mouseout"/>
                       </use>
               </g>
        </defs>

<script type="text/javascript">
var viewWidth = 1102;
var viewHeight = 364;
var sectionId = 'dynsection-0';
</script>
<script xlink:href="svgpan.js"/>
<svg id="graph" class="graph">
<g id="viewport">
<title>IPlugEditorDelegate.h</title>
<polygon fill="white" stroke="none" points="-4,4 -4,-360 1098,-360 1098,4 -4,4"/>
<!-- Node1 -->
<g id="node1" class="node"><title>Node1</title>
<polygon fill="#bfbfbf" stroke="black" points="441,-336.5 441,-355.5 553,-355.5 553,-336.5 441,-336.5"/>
<text text-anchor="middle" x="497" y="-343.5" font-family="Helvetica,sans-Serif" font-size="10.00">IPlugEditorDelegate.h</text>
</g>
<!-- Node2 -->
<g id="node2" class="node"><title>Node2</title>
<polygon fill="white" stroke="#bfbfbf" points="950.5,-112.5 950.5,-131.5 999.5,-131.5 999.5,-112.5 950.5,-112.5"/>
<text text-anchor="middle" x="975" y="-119.5" font-family="Helvetica,sans-Serif" font-size="10.00">cassert</text>
</g>
<!-- Node1&#45;&gt;Node2 -->
<g id="edge1" class="edge"><title>Node1&#45;&gt;Node2</title>
<path fill="none" stroke="midnightblue" d="M553.216,-342.169C670.148,-334.961 933.112,-311.45 986,-244 1009.34,-214.238 994.588,-166.811 983.656,-141.063"/>
<polygon fill="midnightblue" stroke="midnightblue" points="986.762,-139.438 979.464,-131.758 980.38,-142.313 986.762,-139.438"/>
</g>
<!-- Node3 -->
<g id="node3" class="node"><title>Node3</title>
<polygon fill="white" stroke="#bfbfbf" points="452,-0.5 452,-19.5 498,-19.5 498,-0.5 452,-0.5"/>
<text text-anchor="middle" x="475" y="-7.5" font-family="Helvetica,sans-Serif" font-size="10.00">cstring</text>
</g>
<!-- Node1&#45;&gt;Node3 -->
<g id="edge2" class="edge"><title>Node1&#45;&gt;Node3</title>
<path fill="none" stroke="midnightblue" d="M440.757,-338.26C381.602,-327.665 297,-300.98 297,-235 297,-235 297,-235 297,-121 297,-53.7076 390.197,-26.2054 441.719,-16.1429"/>
<polygon fill="midnightblue" stroke="midnightblue" points="442.526,-19.5532 451.73,-14.3042 441.262,-12.6683 442.526,-19.5532"/>
</g>
<!-- Node4 -->
<g id="node4" class="node"><title>Node4</title>
<polygon fill="white" stroke="#bfbfbf" points="419.5,-280.5 419.5,-299.5 468.5,-299.5 468.5,-280.5 419.5,-280.5"/>
<text text-anchor="middle" x="444" y="-287.5" font-family="Helvetica,sans-Serif" font-size="10.00">stdint.h</text>
</g>
<!-- Node1&#45;&gt;Node4 -->
<g id="edge3" class="edge"><title>Node1&#45;&gt;Node4</title>
<path fill="none" stroke="midnightblue" d="M488.248,-336.083C480.53,-328.22 469.095,-316.569 459.783,-307.081"/>
<polygon fill="midnightblue" stroke="midnightblue" points="462.092,-304.436 452.589,-299.751 457.096,-309.34 462.092,-304.436"/>
</g>
<!-- Node5 -->
<g id="node5" class="node"><title>Node5</title>
<polygon fill="white" stroke="#bfbfbf" points="325.5,-224.5 325.5,-243.5 374.5,-243.5 374.5,-224.5 325.5,-224.5"/>
<text text-anchor="middle" x="350" y="-231.5" font-family="Helvetica,sans-Serif" font-size="10.00">ptrlist.h</text>
</g>
<!-- Node1&#45;&gt;Node5 -->
<g id="edge4" class="edge"><title>Node1&#45;&gt;Node5</title>
<path fill="none" stroke="midnightblue" d="M496.712,-336.189C495.789,-322.4 492.035,-295.681 477,-280 464.016,-266.458 417.441,-252.219 384.469,-243.473"/>
<polygon fill="midnightblue" stroke="midnightblue" points="385.284,-240.069 374.725,-240.942 383.524,-246.844 385.284,-240.069"/>
</g>
<!-- Node6 -->
<g id="node6" class="node"><title>Node6</title>
<g id="a_node6"><a xlink:href="_i_plug_parameter_8h.html" target="_top" xlink:title="IPlug&#39;s parameter class. ">
<polygon fill="white" stroke="black" points="162,-168.5 162,-187.5 254,-187.5 254,-168.5 162,-168.5"/>
<text text-anchor="middle" x="208" y="-175.5" font-family="Helvetica,sans-Serif" font-size="10.00">IPlugParameter.h</text>
</a>
</g>
</g>
<!-- Node1&#45;&gt;Node6 -->
<g id="edge5" class="edge"><title>Node1&#45;&gt;Node6</title>
<path fill="none" stroke="midnightblue" d="M440.833,-345.036C394.647,-342.462 329.47,-332.589 283,-300 246.363,-274.307 224.034,-224.433 214.1,-197.433"/>
<polygon fill="midnightblue" stroke="midnightblue" points="217.301,-195.982 210.695,-187.699 210.693,-198.294 217.301,-195.982"/>
</g>
<!-- Node19 -->
<g id="node19" class="node"><title>Node19</title>
<g id="a_node19"><a xlink:href="_i_plug_midi_8h.html" target="_top" xlink:title="MIDI and sysex structs/utilites. ">
<polygon fill="white" stroke="black" points="912.5,-224.5 912.5,-243.5 977.5,-243.5 977.5,-224.5 912.5,-224.5"/>
<text text-anchor="middle" x="945" y="-231.5" font-family="Helvetica,sans-Serif" font-size="10.00">IPlugMidi.h</text>
</a>
</g>
</g>
<!-- Node1&#45;&gt;Node19 -->
<g id="edge23" class="edge"><title>Node1&#45;&gt;Node19</title>
<path fill="none" stroke="midnightblue" d="M540.194,-336.474C582.761,-327.9 649.579,-313.982 707,-300 777.565,-282.818 859.063,-259.881 906.055,-246.351"/>
<polygon fill="midnightblue" stroke="midnightblue" points="907.187,-249.667 915.824,-243.531 905.245,-242.942 907.187,-249.667"/>
</g>
<!-- Node25 -->
<g id="node25" class="node"><title>Node25</title>
<g id="a_node25"><a xlink:href="_i_plug_structs_8h_source.html" target="_top" xlink:title="IPlugStructs.h">
<polygon fill="white" stroke="black" points="619.5,-280.5 619.5,-299.5 698.5,-299.5 698.5,-280.5 619.5,-280.5"/>
<text text-anchor="middle" x="659" y="-287.5" font-family="Helvetica,sans-Serif" font-size="10.00">IPlugStructs.h</text>
</a>
</g>
</g>
<!-- Node1&#45;&gt;Node25 -->
<g id="edge40" class="edge"><title>Node1&#45;&gt;Node25</title>
<path fill="none" stroke="midnightblue" d="M522.669,-336.444C549.923,-327.359 593.184,-312.939 623.651,-302.783"/>
<polygon fill="midnightblue" stroke="midnightblue" points="625.071,-305.999 633.451,-299.516 622.857,-299.358 625.071,-305.999"/>
</g>
<!-- Node6&#45;&gt;Node3 -->
<g id="edge7" class="edge"><title>Node6&#45;&gt;Node3</title>
<path fill="none" stroke="midnightblue" d="M198.114,-168.336C184.859,-155.635 164.276,-131.369 176,-112 204.327,-65.2021 370.375,-29.9606 442.065,-16.7193"/>
<polygon fill="midnightblue" stroke="midnightblue" points="442.717,-20.1582 451.93,-14.9265 441.466,-13.271 442.717,-20.1582"/>
</g>
<!-- Node7 -->
<g id="node7" class="node"><title>Node7</title>
<polygon fill="white" stroke="#bfbfbf" points="185,-112.5 185,-131.5 231,-131.5 231,-112.5 185,-112.5"/>
<text text-anchor="middle" x="208" y="-119.5" font-family="Helvetica,sans-Serif" font-size="10.00">atomic</text>
</g>
<!-- Node6&#45;&gt;Node7 -->
<g id="edge6" class="edge"><title>Node6&#45;&gt;Node7</title>
<path fill="none" stroke="midnightblue" d="M208,-168.083C208,-161.006 208,-150.861 208,-141.986"/>
<polygon fill="midnightblue" stroke="midnightblue" points="211.5,-141.751 208,-131.751 204.5,-141.751 211.5,-141.751"/>
</g>
<!-- Node8 -->
<g id="node8" class="node"><title>Node8</title>
<polygon fill="white" stroke="#bfbfbf" points="-0.5,-112.5 -0.5,-131.5 58.5,-131.5 58.5,-112.5 -0.5,-112.5"/>
<text text-anchor="middle" x="29" y="-119.5" font-family="Helvetica,sans-Serif" font-size="10.00">functional</text>
</g>
<!-- Node6&#45;&gt;Node8 -->
<g id="edge8" class="edge"><title>Node6&#45;&gt;Node8</title>
<path fill="none" stroke="midnightblue" d="M179.637,-168.444C149.262,-159.28 100.89,-144.688 67.184,-134.519"/>
<polygon fill="midnightblue" stroke="midnightblue" points="67.8151,-131.054 57.2304,-131.516 65.7933,-137.756 67.8151,-131.054"/>
</g>
<!-- Node9 -->
<g id="node9" class="node"><title>Node9</title>
<polygon fill="white" stroke="#bfbfbf" points="77,-112.5 77,-131.5 129,-131.5 129,-112.5 77,-112.5"/>
<text text-anchor="middle" x="103" y="-119.5" font-family="Helvetica,sans-Serif" font-size="10.00">memory</text>
</g>
<!-- Node6&#45;&gt;Node9 -->
<g id="edge9" class="edge"><title>Node6&#45;&gt;Node9</title>
<path fill="none" stroke="midnightblue" d="M191.13,-168.324C174.291,-159.664 148.193,-146.242 128.762,-136.249"/>
<polygon fill="midnightblue" stroke="midnightblue" points="130.322,-133.116 119.828,-131.655 127.12,-139.341 130.322,-133.116"/>
</g>
<!-- Node10 -->
<g id="node10" class="node"><title>Node10</title>
<polygon fill="white" stroke="#bfbfbf" points="354,-56.5 354,-75.5 418,-75.5 418,-56.5 354,-56.5"/>
<text text-anchor="middle" x="386" y="-63.5" font-family="Helvetica,sans-Serif" font-size="10.00">wdlstring.h</text>
</g>
<!-- Node6&#45;&gt;Node10 -->
<g id="edge10" class="edge"><title>Node6&#45;&gt;Node10</title>
<path fill="none" stroke="midnightblue" d="M221.967,-168.368C252.642,-149.412 326.126,-104.001 363.439,-80.9424"/>
<polygon fill="midnightblue" stroke="midnightblue" points="365.431,-83.8258 372.098,-75.5914 361.751,-77.8711 365.431,-83.8258"/>
</g>
<!-- Node11 -->
<g id="node11" class="node"><title>Node11</title>
<g id="a_node11"><a xlink:href="_i_plug_utilities_8h.html" target="_top" xlink:title="Utility functions and macros. ">
<polygon fill="white" stroke="black" points="541,-112.5 541,-131.5 621,-131.5 621,-112.5 541,-112.5"/>
<text text-anchor="middle" x="581" y="-119.5" font-family="Helvetica,sans-Serif" font-size="10.00">IPlugUtilities.h</text>
</a>
</g>
</g>
<!-- Node6&#45;&gt;Node11 -->
<g id="edge11" class="edge"><title>Node6&#45;&gt;Node11</title>
<path fill="none" stroke="midnightblue" d="M254.111,-170.324C324.428,-160.144 457.944,-140.815 530.688,-130.284"/>
<polygon fill="midnightblue" stroke="midnightblue" points="531.569,-133.693 540.965,-128.796 530.566,-126.765 531.569,-133.693"/>
</g>
<!-- Node11&#45;&gt;Node3 -->
<g id="edge16" class="edge"><title>Node11&#45;&gt;Node3</title>
<path fill="none" stroke="midnightblue" d="M579.961,-112.441C577.93,-98.9985 572.307,-72.7457 558,-56 544.738,-40.4779 524.733,-29.4075 507.686,-22.1315"/>
<polygon fill="midnightblue" stroke="midnightblue" points="508.649,-18.7469 498.064,-18.2809 506.048,-25.2458 508.649,-18.7469"/>
</g>
<!-- Node11&#45;&gt;Node10 -->
<g id="edge18" class="edge"><title>Node11&#45;&gt;Node10</title>
<path fill="none" stroke="midnightblue" d="M550.102,-112.444C516.726,-103.201 463.406,-88.4356 426.651,-78.2572"/>
<polygon fill="midnightblue" stroke="midnightblue" points="427.325,-74.8122 416.754,-75.5164 425.457,-81.5583 427.325,-74.8122"/>
</g>
<!-- Node12 -->
<g id="node12" class="node"><title>Node12</title>
<polygon fill="white" stroke="#bfbfbf" points="1038,-56.5 1038,-75.5 1094,-75.5 1094,-56.5 1038,-56.5"/>
<text text-anchor="middle" x="1066" y="-63.5" font-family="Helvetica,sans-Serif" font-size="10.00">algorithm</text>
</g>
<!-- Node11&#45;&gt;Node12 -->
<g id="edge12" class="edge"><title>Node11&#45;&gt;Node12</title>
<path fill="none" stroke="midnightblue" d="M621.069,-113.372C624.087,-112.879 627.089,-112.416 630,-112 785.682,-89.7777 825.595,-92.3768 982,-76 996.907,-74.4391 1013.3,-72.6902 1027.61,-71.1521"/>
<polygon fill="midnightblue" stroke="midnightblue" points="1028.05,-74.6253 1037.62,-70.0751 1027.3,-67.6655 1028.05,-74.6253"/>
</g>
<!-- Node13 -->
<g id="node13" class="node"><title>Node13</title>
<polygon fill="white" stroke="#bfbfbf" points="605,-56.5 605,-75.5 649,-75.5 649,-56.5 605,-56.5"/>
<text text-anchor="middle" x="627" y="-63.5" font-family="Helvetica,sans-Serif" font-size="10.00">cmath</text>
</g>
<!-- Node11&#45;&gt;Node13 -->
<g id="edge13" class="edge"><title>Node11&#45;&gt;Node13</title>
<path fill="none" stroke="midnightblue" d="M588.596,-112.083C595.227,-104.298 605.021,-92.8015 613.058,-83.3665"/>
<polygon fill="midnightblue" stroke="midnightblue" points="615.725,-85.6332 619.545,-75.7511 610.396,-81.0939 615.725,-85.6332"/>
</g>
<!-- Node14 -->
<g id="node14" class="node"><title>Node14</title>
<polygon fill="white" stroke="#bfbfbf" points="819.5,-56.5 819.5,-75.5 862.5,-75.5 862.5,-56.5 819.5,-56.5"/>
<text text-anchor="middle" x="841" y="-63.5" font-family="Helvetica,sans-Serif" font-size="10.00">cstdio</text>
</g>
<!-- Node11&#45;&gt;Node14 -->
<g id="edge14" class="edge"><title>Node11&#45;&gt;Node14</title>
<path fill="none" stroke="midnightblue" d="M621.055,-112.681C672.835,-101.927 761.957,-83.4167 809.296,-73.5846"/>
<polygon fill="midnightblue" stroke="midnightblue" points="810.207,-76.9703 819.286,-71.5099 808.783,-70.1166 810.207,-76.9703"/>
</g>
<!-- Node15 -->
<g id="node15" class="node"><title>Node15</title>
<polygon fill="white" stroke="#bfbfbf" points="689.5,-0.5 689.5,-19.5 734.5,-19.5 734.5,-0.5 689.5,-0.5"/>
<text text-anchor="middle" x="712" y="-7.5" font-family="Helvetica,sans-Serif" font-size="10.00">cstdlib</text>
</g>
<!-- Node11&#45;&gt;Node15 -->
<g id="edge15" class="edge"><title>Node11&#45;&gt;Node15</title>
<path fill="none" stroke="midnightblue" d="M599.306,-112.362C615.433,-104.258 639.08,-91.142 657,-76 673.858,-61.7559 689.759,-42.0186 700.086,-28.0398"/>
<polygon fill="midnightblue" stroke="midnightblue" points="703.016,-29.9606 706.021,-19.801 697.336,-25.8689 703.016,-29.9606"/>
</g>
<!-- Node16 -->
<g id="node16" class="node"><title>Node16</title>
<polygon fill="white" stroke="#bfbfbf" points="503,-56.5 503,-75.5 549,-75.5 549,-56.5 503,-56.5"/>
<text text-anchor="middle" x="526" y="-63.5" font-family="Helvetica,sans-Serif" font-size="10.00">cctype</text>
</g>
<!-- Node11&#45;&gt;Node16 -->
<g id="edge17" class="edge"><title>Node11&#45;&gt;Node16</title>
<path fill="none" stroke="midnightblue" d="M571.918,-112.083C563.829,-104.141 551.805,-92.3354 542.09,-82.7973"/>
<polygon fill="midnightblue" stroke="midnightblue" points="544.501,-80.2595 534.913,-75.7511 539.597,-85.2545 544.501,-80.2595"/>
</g>
<!-- Node17 -->
<g id="node17" class="node"><title>Node17</title>
<g id="a_node17"><a xlink:href="_i_plug_constants_8h.html" target="_top" xlink:title="IPlug Constant definitions, Types, magic numbers. ">
<polygon fill="white" stroke="black" points="881,-56.5 881,-75.5 973,-75.5 973,-56.5 881,-56.5"/>
<text text-anchor="middle" x="927" y="-63.5" font-family="Helvetica,sans-Serif" font-size="10.00">IPlugConstants.h</text>
</a>
</g>
</g>
<!-- Node11&#45;&gt;Node17 -->
<g id="edge19" class="edge"><title>Node11&#45;&gt;Node17</title>
<path fill="none" stroke="midnightblue" d="M621.092,-113.524C624.105,-112.996 627.099,-112.483 630,-112 733.7,-94.7363 762.32,-92.7016 870.816,-76.0089"/>
<polygon fill="midnightblue" stroke="midnightblue" points="871.513,-79.4427 880.862,-74.4566 870.444,-72.5248 871.513,-79.4427"/>
</g>
<!-- Node18 -->
<g id="node18" class="node"><title>Node18</title>
<g id="a_node18"><a xlink:href="_i_plug_platform_8h.html" target="_top" xlink:title="Include to get consistently named preprocessor macros for different platforms and logging functionali...">
<polygon fill="white" stroke="black" points="705,-56.5 705,-75.5 789,-75.5 789,-56.5 705,-56.5"/>
<text text-anchor="middle" x="747" y="-63.5" font-family="Helvetica,sans-Serif" font-size="10.00">IPlugPlatform.h</text>
</a>
</g>
</g>
<!-- Node11&#45;&gt;Node18 -->
<g id="edge20" class="edge"><title>Node11&#45;&gt;Node18</title>
<path fill="none" stroke="midnightblue" d="M607.303,-112.444C635.351,-103.32 679.944,-88.8133 711.184,-78.6509"/>
<polygon fill="midnightblue" stroke="midnightblue" points="712.393,-81.9383 720.82,-75.5164 710.228,-75.2816 712.393,-81.9383"/>
</g>
<!-- Node18&#45;&gt;Node3 -->
<g id="edge21" class="edge"><title>Node18&#45;&gt;Node3</title>
<path fill="none" stroke="midnightblue" d="M704.798,-56.6217C650.468,-45.8355 557.198,-27.3187 507.847,-17.521"/>
<polygon fill="midnightblue" stroke="midnightblue" points="508.502,-14.0829 498.012,-15.5685 507.139,-20.9489 508.502,-14.0829"/>
</g>
<!-- Node18&#45;&gt;Node15 -->
<g id="edge22" class="edge"><title>Node18&#45;&gt;Node15</title>
<path fill="none" stroke="midnightblue" d="M741.22,-56.083C736.328,-48.5341 729.173,-37.4948 723.167,-28.2298"/>
<polygon fill="midnightblue" stroke="midnightblue" points="726.048,-26.239 717.672,-19.7511 720.174,-30.0463 726.048,-26.239"/>
</g>
<!-- Node19&#45;&gt;Node2 -->
<g id="edge24" class="edge"><title>Node19&#45;&gt;Node2</title>
<path fill="none" stroke="midnightblue" d="M947.354,-224.368C952.217,-206.537 963.465,-165.295 970.017,-141.272"/>
<polygon fill="midnightblue" stroke="midnightblue" points="973.402,-142.16 972.657,-131.591 966.649,-140.318 973.402,-142.16"/>
</g>
<!-- Node19&#45;&gt;Node12 -->
<g id="edge27" class="edge"><title>Node19&#45;&gt;Node12</title>
<path fill="none" stroke="midnightblue" d="M964.205,-224.379C979.441,-216.707 1000.37,-204.197 1014,-188 1040.16,-156.908 1055.06,-110.677 1061.72,-85.307"/>
<polygon fill="midnightblue" stroke="midnightblue" points="1065.14,-86.0799 1064.15,-75.531 1058.34,-84.392 1065.14,-86.0799"/>
</g>
<!-- Node19&#45;&gt;Node14 -->
<g id="edge26" class="edge"><title>Node19&#45;&gt;Node14</title>
<path fill="none" stroke="midnightblue" d="M955.754,-224.487C980.528,-203.86 1037.33,-150.099 1008,-112 971.724,-64.8716 935.924,-89.9523 872.63,-75.8557"/>
<polygon fill="midnightblue" stroke="midnightblue" points="873.212,-72.3935 862.662,-73.36 871.512,-79.1839 873.212,-72.3935"/>
</g>
<!-- Node20 -->
<g id="node20" class="node"><title>Node20</title>
<polygon fill="white" stroke="#bfbfbf" points="363,-112.5 363,-131.5 409,-131.5 409,-112.5 363,-112.5"/>
<text text-anchor="middle" x="386" y="-119.5" font-family="Helvetica,sans-Serif" font-size="10.00">cstdint</text>
</g>
<!-- Node19&#45;&gt;Node20 -->
<g id="edge25" class="edge"><title>Node19&#45;&gt;Node20</title>
<path fill="none" stroke="midnightblue" d="M912.306,-229.055C857.419,-222.208 743.385,-207.016 648,-188 564.972,-171.448 468.657,-145.889 419.153,-132.277"/>
<polygon fill="midnightblue" stroke="midnightblue" points="419.892,-128.85 409.321,-129.561 418.029,-135.597 419.892,-128.85"/>
</g>
<!-- Node21 -->
<g id="node21" class="node"><title>Node21</title>
<g id="a_node21"><a xlink:href="_i_plug_logger_8h.html" target="_top" xlink:title="IPlug logging a.k.a tracing functionality. ">
<polygon fill="white" stroke="black" points="657.5,-168.5 657.5,-187.5 734.5,-187.5 734.5,-168.5 657.5,-168.5"/>
<text text-anchor="middle" x="696" y="-175.5" font-family="Helvetica,sans-Serif" font-size="10.00">IPlugLogger.h</text>
</a>
</g>
</g>
<!-- Node19&#45;&gt;Node21 -->
<g id="edge28" class="edge"><title>Node19&#45;&gt;Node21</title>
<path fill="none" stroke="midnightblue" d="M912.448,-225.94C869.653,-216.66 794.109,-200.277 744.551,-189.529"/>
<polygon fill="midnightblue" stroke="midnightblue" points="745.212,-186.091 734.697,-187.392 743.728,-192.932 745.212,-186.091"/>
</g>
<!-- Node21&#45;&gt;Node2 -->
<g id="edge35" class="edge"><title>Node21&#45;&gt;Node2</title>
<path fill="none" stroke="midnightblue" d="M734.755,-170.243C782.283,-161.84 865.25,-146.79 936,-132 937.445,-131.698 938.92,-131.384 940.408,-131.062"/>
<polygon fill="midnightblue" stroke="midnightblue" points="941.274,-134.455 950.276,-128.868 939.755,-127.622 941.274,-134.455"/>
</g>
<!-- Node21&#45;&gt;Node3 -->
<g id="edge33" class="edge"><title>Node21&#45;&gt;Node3</title>
<path fill="none" stroke="midnightblue" d="M657.138,-171.044C611.884,-163.437 540.681,-149.181 520,-132 488.926,-106.184 479.301,-56.7356 476.326,-29.7322"/>
<polygon fill="midnightblue" stroke="midnightblue" points="479.802,-29.3116 475.415,-19.6679 472.831,-29.9427 479.802,-29.3116"/>
</g>
<!-- Node21&#45;&gt;Node10 -->
<g id="edge36" class="edge"><title>Node21&#45;&gt;Node10</title>
<path fill="none" stroke="midnightblue" d="M657.463,-175.717C609.269,-172.778 525.284,-163.183 461,-132 436.67,-120.198 413.985,-98.4382 400.071,-83.365"/>
<polygon fill="midnightblue" stroke="midnightblue" points="402.565,-80.9033 393.288,-75.7846 397.348,-85.5708 402.565,-80.9033"/>
</g>
<!-- Node21&#45;&gt;Node11 -->
<g id="edge39" class="edge"><title>Node21&#45;&gt;Node11</title>
<path fill="none" stroke="midnightblue" d="M677.778,-168.444C659.104,-159.675 629.844,-145.935 608.383,-135.858"/>
<polygon fill="midnightblue" stroke="midnightblue" points="609.676,-132.599 599.137,-131.516 606.701,-138.935 609.676,-132.599"/>
</g>
<!-- Node21&#45;&gt;Node14 -->
<g id="edge29" class="edge"><title>Node21&#45;&gt;Node14</title>
<path fill="none" stroke="midnightblue" d="M734.561,-173.804C764.09,-169.275 803.611,-158.345 827,-132 838.127,-119.467 841.136,-100.243 841.656,-85.9483"/>
<polygon fill="midnightblue" stroke="midnightblue" points="845.156,-85.7603 841.647,-75.7634 838.156,-85.7665 845.156,-85.7603"/>
</g>
<!-- Node21&#45;&gt;Node16 -->
<g id="edge30" class="edge"><title>Node21&#45;&gt;Node16</title>
<path fill="none" stroke="midnightblue" d="M657.219,-171.504C613.972,-164.528 547.977,-151.065 532,-132 521.431,-119.389 520.921,-100.176 522.459,-85.9048"/>
<polygon fill="midnightblue" stroke="midnightblue" points="525.961,-86.1477 523.978,-75.7401 519.038,-85.1126 525.961,-86.1477"/>
</g>
<!-- Node21&#45;&gt;Node17 -->
<g id="edge38" class="edge"><title>Node21&#45;&gt;Node17</title>
<path fill="none" stroke="midnightblue" d="M734.516,-169.896C766.024,-163.077 811.082,-150.973 847,-132 871.566,-119.024 895.758,-97.8807 910.995,-83.2488"/>
<polygon fill="midnightblue" stroke="midnightblue" points="913.809,-85.3905 918.484,-75.883 908.901,-80.3998 913.809,-85.3905"/>
</g>
<!-- Node21&#45;&gt;Node20 -->
<g id="edge32" class="edge"><title>Node21&#45;&gt;Node20</title>
<path fill="none" stroke="midnightblue" d="M657.404,-171.573C604.367,-163.903 506.076,-148.926 423,-132 421.725,-131.74 420.427,-131.467 419.117,-131.184"/>
<polygon fill="midnightblue" stroke="midnightblue" points="419.56,-127.696 409.032,-128.886 418.005,-134.521 419.56,-127.696"/>
</g>
<!-- Node22 -->
<g id="node22" class="node"><title>Node22</title>
<polygon fill="white" stroke="#bfbfbf" points="639.5,-112.5 639.5,-131.5 688.5,-131.5 688.5,-112.5 639.5,-112.5"/>
<text text-anchor="middle" x="664" y="-119.5" font-family="Helvetica,sans-Serif" font-size="10.00">cstdarg</text>
</g>
<!-- Node21&#45;&gt;Node22 -->
<g id="edge31" class="edge"><title>Node21&#45;&gt;Node22</title>
<path fill="none" stroke="midnightblue" d="M690.716,-168.083C686.289,-160.613 679.837,-149.724 674.382,-140.52"/>
<polygon fill="midnightblue" stroke="midnightblue" points="677.295,-138.57 669.186,-131.751 671.273,-142.138 677.295,-138.57"/>
</g>
<!-- Node23 -->
<g id="node23" class="node"><title>Node23</title>
<polygon fill="white" stroke="#bfbfbf" points="706.5,-112.5 706.5,-131.5 747.5,-131.5 747.5,-112.5 706.5,-112.5"/>
<text text-anchor="middle" x="727" y="-119.5" font-family="Helvetica,sans-Serif" font-size="10.00">ctime</text>
</g>
<!-- Node21&#45;&gt;Node23 -->
<g id="edge34" class="edge"><title>Node21&#45;&gt;Node23</title>
<path fill="none" stroke="midnightblue" d="M701.119,-168.083C705.408,-160.613 711.658,-149.724 716.942,-140.52"/>
<polygon fill="midnightblue" stroke="midnightblue" points="720.033,-142.166 721.976,-131.751 713.962,-138.681 720.033,-142.166"/>
</g>
<!-- Node24 -->
<g id="node24" class="node"><title>Node24</title>
<polygon fill="white" stroke="#bfbfbf" points="766,-112.5 766,-131.5 818,-131.5 818,-112.5 766,-112.5"/>
<text text-anchor="middle" x="792" y="-119.5" font-family="Helvetica,sans-Serif" font-size="10.00">mutex.h</text>
</g>
<!-- Node21&#45;&gt;Node24 -->
<g id="edge37" class="edge"><title>Node21&#45;&gt;Node24</title>
<path fill="none" stroke="midnightblue" d="M711.424,-168.324C726.54,-159.822 749.815,-146.729 767.471,-136.797"/>
<polygon fill="midnightblue" stroke="midnightblue" points="769.614,-139.608 776.614,-131.655 766.183,-133.507 769.614,-139.608"/>
</g>
<!-- Node25&#45;&gt;Node5 -->
<g id="edge43" class="edge"><title>Node25&#45;&gt;Node5</title>
<path fill="none" stroke="midnightblue" d="M619.06,-283.131C566.24,-275.19 470.338,-260.147 389,-244 387.552,-243.712 386.075,-243.411 384.585,-243.099"/>
<polygon fill="midnightblue" stroke="midnightblue" points="385.224,-239.656 374.708,-240.944 383.732,-246.495 385.224,-239.656"/>
</g>
<!-- Node25&#45;&gt;Node10 -->
<g id="edge42" class="edge"><title>Node25&#45;&gt;Node10</title>
<path fill="none" stroke="midnightblue" d="M619.305,-282.113C550.923,-267.873 412.613,-228.094 354,-132 344.237,-115.993 356.693,-96.5894 368.803,-83.1714"/>
<polygon fill="midnightblue" stroke="midnightblue" points="371.632,-85.2825 376.096,-75.6742 366.615,-80.4013 371.632,-85.2825"/>
</g>
<!-- Node25&#45;&gt;Node11 -->
<g id="edge47" class="edge"><title>Node25&#45;&gt;Node11</title>
<path fill="none" stroke="midnightblue" d="M654.806,-280.075C642.422,-253.719 605.846,-175.878 589.298,-140.661"/>
<polygon fill="midnightblue" stroke="midnightblue" points="592.446,-139.13 585.026,-131.568 586.111,-142.107 592.446,-139.13"/>
</g>
<!-- Node25&#45;&gt;Node12 -->
<g id="edge41" class="edge"><title>Node25&#45;&gt;Node12</title>
<path fill="none" stroke="midnightblue" d="M698.561,-287.845C779.258,-284.871 959.648,-274.872 1012,-244 1066.42,-211.907 1069.1,-124.671 1067.41,-85.9507"/>
<polygon fill="midnightblue" stroke="midnightblue" points="1070.89,-85.383 1066.8,-75.6065 1063.9,-85.7953 1070.89,-85.383"/>
</g>
<!-- Node25&#45;&gt;Node17 -->
<g id="edge44" class="edge"><title>Node25&#45;&gt;Node17</title>
<path fill="none" stroke="midnightblue" d="M698.706,-288.078C775.479,-285.577 940.706,-276.47 986,-244 1035.82,-208.285 1059.19,-163.54 1026,-112 1015.69,-95.9949 998.149,-85.6167 980.666,-78.9158"/>
<polygon fill="midnightblue" stroke="midnightblue" points="981.6,-75.5353 971.006,-75.559 979.303,-82.1475 981.6,-75.5353"/>
</g>
<!-- Node25&#45;&gt;Node18 -->
<g id="edge45" class="edge"><title>Node25&#45;&gt;Node18</title>
<path fill="none" stroke="midnightblue" d="M674.77,-280.414C710.126,-260.139 795.123,-205.419 827,-132 837.427,-107.983 809.805,-90.1875 784.22,-79.3465"/>
<polygon fill="midnightblue" stroke="midnightblue" points="785.183,-75.9635 774.597,-75.5336 782.604,-82.4713 785.183,-75.9635"/>
</g>
<!-- Node25&#45;&gt;Node19 -->
<g id="edge46" class="edge"><title>Node25&#45;&gt;Node19</title>
<path fill="none" stroke="midnightblue" d="M698.758,-281.553C746.194,-272.659 827.897,-257.312 898,-244 899.454,-243.724 900.933,-243.443 902.427,-243.158"/>
<polygon fill="midnightblue" stroke="midnightblue" points="903.219,-246.57 912.386,-241.259 901.908,-239.694 903.219,-246.57"/>
</g>
</g>
</svg>
        <g id="navigator" transform="translate(0 0)" fill="#404254">
                <rect fill="#f2f5e9" fill-opacity="0.5" stroke="#606060" stroke-width=".5" x="0" y="0" width="60" height="60"/>
                <use id="zoomplus" xlink:href="#zoomPlus" x="17" y="9" onmousedown="handleZoom(evt,'in')"/>
                <use id="zoomminus" xlink:href="#zoomMin" x="42" y="9" onmousedown="handleZoom(evt,'out')"/>
                <use id="reset" xlink:href="#resetDef" x="30" y="36" onmousedown="handleReset()"/>
                <g id="arrowUp" xlink:href="#dirArrow" transform="translate(30 24)" onmousedown="handlePan(0,-1)">
                  <use xlink:href="#rim" fill="#404040">
                        <set attributeName="fill" to="#808080" begin="arrowUp.mouseover" end="arrowUp.mouseout"/>
                  </use>
                  <path fill="none" stroke="white" stroke-width="1.5" d="M0,-3.0v7 M-2.5,-0.5L0,-3.0L2.5,-0.5"/>
                </g>
                <g id="arrowRight" xlink:href="#dirArrow" transform="rotate(90) translate(36 -43)" onmousedown="handlePan(1,0)">
                  <use xlink:href="#rim" fill="#404040">
                        <set attributeName="fill" to="#808080" begin="arrowRight.mouseover" end="arrowRight.mouseout"/>
                  </use>
                  <path fill="none" stroke="white" stroke-width="1.5" d="M0,-3.0v7 M-2.5,-0.5L0,-3.0L2.5,-0.5"/>
                </g>
                <g id="arrowDown" xlink:href="#dirArrow" transform="rotate(180) translate(-30 -48)" onmousedown="handlePan(0,1)">
                  <use xlink:href="#rim" fill="#404040">
                        <set attributeName="fill" to="#808080" begin="arrowDown.mouseover" end="arrowDown.mouseout"/>
                  </use>
                  <path fill="none" stroke="white" stroke-width="1.5" d="M0,-3.0v7 M-2.5,-0.5L0,-3.0L2.5,-0.5"/>
                </g>
                <g id="arrowLeft" xlink:href="#dirArrow" transform="rotate(270) translate(-36 17)" onmousedown="handlePan(-1,0)">
                  <use xlink:href="#rim" fill="#404040">
                        <set attributeName="fill" to="#808080" begin="arrowLeft.mouseover" end="arrowLeft.mouseout"/>
                  </use>
                  <path fill="none" stroke="white" stroke-width="1.5" d="M0,-3.0v7 M-2.5,-0.5L0,-3.0L2.5,-0.5"/>
                </g>
        </g>
        <svg viewBox="0 0 15 15" width="100%" height="30px" preserveAspectRatio="xMaxYMin meet">
         <g id="arrow_out" transform="scale(0.3 0.3)">
          <a xlink:href="_i_plug_editor_delegate_8h__incl_org.svg" target="_base">
           <rect id="button" ry="5" rx="5" y="6" x="6" height="38" width="38"
                fill="#f2f5e9" fill-opacity="0.5" stroke="#606060" stroke-width="1.0"/>
           <path id="arrow"
             d="M 11.500037,31.436501 C 11.940474,20.09759 22.043105,11.32322 32.158766,21.979434 L 37.068811,17.246167 C 37.068811,17.246167 37.088388,32 37.088388,32 L 22.160133,31.978069 C 22.160133,31.978069 26.997745,27.140456 26.997745,27.140456 C 18.528582,18.264221 13.291696,25.230495 11.500037,31.436501 z"
             style="fill:#404040;"/>
          </a>
         </g>
        </svg>
</svg>
