<?xml version="1.0" encoding="UTF-8" standalone="no"?>
<!DOCTYPE svg PUBLIC "-//W3C//DTD SVG 1.1//EN"
 "http://www.w3.org/Graphics/SVG/1.1/DTD/svg11.dtd">
<!-- Generated by graphviz version 2.36.0 (20140111.2315)
 -->
<!-- Title: IPlugAPP.h Pages: 1 -->
<svg width="1534pt" height="588pt"
 viewBox="0.00 0.00 1534.00 588.00" xmlns="http://www.w3.org/2000/svg" xmlns:xlink="http://www.w3.org/1999/xlink">
<g id="graph0" class="graph" transform="scale(1 1) rotate(0) translate(4 584)">
<title>IPlugAPP.h</title>
<polygon fill="white" stroke="none" points="-4,4 -4,-584 1530,-584 1530,4 -4,4"/>
<!-- Node1 -->
<g id="node1" class="node"><title>Node1</title>
<polygon fill="#bfbfbf" stroke="black" points="4,-560.5 4,-579.5 72,-579.5 72,-560.5 4,-560.5"/>
<text text-anchor="middle" x="38" y="-567.5" font-family="Helvetica,sans-Serif" font-size="10.00">IPlugAPP.h</text>
</g>
<!-- Node2 -->
<g id="node2" class="node"><title>Node2</title>
<g id="a_node2"><a xlink:href="_i_plug_platform_8h.html" target="_top" xlink:title="Include to get consistently named preprocessor macros for different platforms and logging functionali...">
<polygon fill="white" stroke="black" points="130,-56.5 130,-75.5 214,-75.5 214,-56.5 130,-56.5"/>
<text text-anchor="middle" x="172" y="-63.5" font-family="Helvetica,sans-Serif" font-size="10.00">IPlugPlatform.h</text>
</a>
</g>
</g>
<!-- Node1&#45;&gt;Node2 -->
<g id="edge1" class="edge"><title>Node1&#45;&gt;Node2</title>
<path fill="none" stroke="midnightblue" d="M32.7163,-560.231C22.2749,-542.043 0,-498.601 0,-459 0,-459 0,-459 0,-177 0,-119.346 69.4369,-90.5483 120.074,-77.2132"/>
<polygon fill="midnightblue" stroke="midnightblue" points="121.073,-80.5711 129.924,-74.7483 119.374,-73.7805 121.073,-80.5711"/>
</g>
<!-- Node5 -->
<g id="node5" class="node"><title>Node5</title>
<g id="a_node5"><a xlink:href="_i_plug_a_p_i_base_8h.html" target="_top" xlink:title="The base class of an IPlug plug&#45;in, which interacts with the different plug&#45;in APIs. ">
<polygon fill="white" stroke="black" points="687,-504.5 687,-523.5 773,-523.5 773,-504.5 687,-504.5"/>
<text text-anchor="middle" x="730" y="-511.5" font-family="Helvetica,sans-Serif" font-size="10.00">IPlugAPIBase.h</text>
</a>
</g>
</g>
<!-- Node1&#45;&gt;Node5 -->
<g id="edge4" class="edge"><title>Node1&#45;&gt;Node5</title>
<path fill="none" stroke="midnightblue" d="M72.3164,-566.322C184.481,-557.569 540.832,-529.762 676.686,-519.16"/>
<polygon fill="midnightblue" stroke="midnightblue" points="677.15,-522.635 686.847,-518.367 676.605,-515.656 677.15,-522.635"/>
</g>
<!-- Node33 -->
<g id="node33" class="node"><title>Node33</title>
<g id="a_node33"><a xlink:href="_i_plug_processor_8h.html" target="_top" xlink:title="The base class for IPlug Audio Processing. ">
<polygon fill="white" stroke="black" points="358,-336.5 358,-355.5 450,-355.5 450,-336.5 358,-336.5"/>
<text text-anchor="middle" x="404" y="-343.5" font-family="Helvetica,sans-Serif" font-size="10.00">IPlugProcessor.h</text>
</a>
</g>
</g>
<!-- Node1&#45;&gt;Node33 -->
<g id="edge75" class="edge"><title>Node1&#45;&gt;Node33</title>
<path fill="none" stroke="midnightblue" d="M52.3476,-560.297C108.266,-526.379 311.903,-402.862 380.934,-360.991"/>
<polygon fill="midnightblue" stroke="midnightblue" points="383.017,-363.821 389.752,-355.643 379.386,-357.836 383.017,-363.821"/>
</g>
<!-- Node3 -->
<g id="node3" class="node"><title>Node3</title>
<polygon fill="white" stroke="#bfbfbf" points="1146,-0.5 1146,-19.5 1192,-19.5 1192,-0.5 1146,-0.5"/>
<text text-anchor="middle" x="1169" y="-7.5" font-family="Helvetica,sans-Serif" font-size="10.00">cstring</text>
</g>
<!-- Node2&#45;&gt;Node3 -->
<g id="edge2" class="edge"><title>Node2&#45;&gt;Node3</title>
<path fill="none" stroke="midnightblue" d="M214.13,-57.7127C218.8,-57.0589 223.495,-56.4683 228,-56 581.724,-19.2339 1013.42,-12.4595 1135.46,-11.2529"/>
<polygon fill="midnightblue" stroke="midnightblue" points="1135.68,-14.751 1145.65,-11.1582 1135.62,-7.75133 1135.68,-14.751"/>
</g>
<!-- Node4 -->
<g id="node4" class="node"><title>Node4</title>
<polygon fill="white" stroke="#bfbfbf" points="341.5,-0.5 341.5,-19.5 386.5,-19.5 386.5,-0.5 341.5,-0.5"/>
<text text-anchor="middle" x="364" y="-7.5" font-family="Helvetica,sans-Serif" font-size="10.00">cstdlib</text>
</g>
<!-- Node2&#45;&gt;Node4 -->
<g id="edge3" class="edge"><title>Node2&#45;&gt;Node4</title>
<path fill="none" stroke="midnightblue" d="M202.423,-56.4435C237.55,-46.5639 295.117,-30.3734 331.215,-20.2208"/>
<polygon fill="midnightblue" stroke="midnightblue" points="332.556,-23.4794 341.235,-17.4026 330.661,-16.7408 332.556,-23.4794"/>
</g>
<!-- Node5&#45;&gt;Node2 -->
<g id="edge9" class="edge"><title>Node5&#45;&gt;Node2</title>
<path fill="none" stroke="midnightblue" d="M686.97,-513.627C567.867,-514.755 236.241,-513.602 139,-468 102.575,-450.918 76,-443.231 76,-403 76,-403 76,-403 76,-177 76,-133.543 119.057,-98.9573 147.5,-80.851"/>
<polygon fill="midnightblue" stroke="midnightblue" points="149.443,-83.765 156.148,-75.5611 145.791,-77.7936 149.443,-83.765"/>
</g>
<!-- Node5&#45;&gt;Node3 -->
<g id="edge5" class="edge"><title>Node5&#45;&gt;Node3</title>
<path fill="none" stroke="midnightblue" d="M773.118,-511.681C896.796,-507.62 1251.09,-493.987 1364,-468 1439.6,-450.6 1526,-480.579 1526,-403 1526,-403 1526,-403 1526,-121 1526,-53.6152 1290.77,-23.1473 1202.2,-14.0634"/>
<polygon fill="midnightblue" stroke="midnightblue" points="1202.45,-10.571 1192.15,-13.0606 1201.75,-17.5364 1202.45,-10.571"/>
</g>
<!-- Node6 -->
<g id="node6" class="node"><title>Node6</title>
<polygon fill="white" stroke="#bfbfbf" points="346,-112.5 346,-131.5 392,-131.5 392,-112.5 346,-112.5"/>
<text text-anchor="middle" x="369" y="-119.5" font-family="Helvetica,sans-Serif" font-size="10.00">cstdint</text>
</g>
<!-- Node5&#45;&gt;Node6 -->
<g id="edge6" class="edge"><title>Node5&#45;&gt;Node6</title>
<path fill="none" stroke="midnightblue" d="M686.556,-509.336C552.136,-497.423 152,-457.394 152,-403 152,-403 152,-403 152,-345 152,-238.808 280.543,-164.573 339.763,-136.008"/>
<polygon fill="midnightblue" stroke="midnightblue" points="341.422,-139.095 348.974,-131.664 338.436,-132.763 341.422,-139.095"/>
</g>
<!-- Node7 -->
<g id="node7" class="node"><title>Node7</title>
<polygon fill="white" stroke="#bfbfbf" points="660.5,-224.5 660.5,-243.5 709.5,-243.5 709.5,-224.5 660.5,-224.5"/>
<text text-anchor="middle" x="685" y="-231.5" font-family="Helvetica,sans-Serif" font-size="10.00">ptrlist.h</text>
</g>
<!-- Node5&#45;&gt;Node7 -->
<g id="edge7" class="edge"><title>Node5&#45;&gt;Node7</title>
<path fill="none" stroke="midnightblue" d="M730,-504.442C730,-485.936 730,-440.812 730,-403 730,-403 730,-403 730,-345 730,-309.93 710.163,-272.939 696.831,-252.037"/>
<polygon fill="midnightblue" stroke="midnightblue" points="699.7,-250.031 691.257,-243.63 693.866,-253.899 699.7,-250.031"/>
</g>
<!-- Node8 -->
<g id="node8" class="node"><title>Node8</title>
<polygon fill="white" stroke="#bfbfbf" points="1318,-112.5 1318,-131.5 1370,-131.5 1370,-112.5 1318,-112.5"/>
<text text-anchor="middle" x="1344" y="-119.5" font-family="Helvetica,sans-Serif" font-size="10.00">mutex.h</text>
</g>
<!-- Node5&#45;&gt;Node8 -->
<g id="edge8" class="edge"><title>Node5&#45;&gt;Node8</title>
<path fill="none" stroke="midnightblue" d="M773.2,-511.322C933.908,-504.513 1488,-475.763 1488,-403 1488,-403 1488,-403 1488,-289 1488,-258.775 1484.89,-249.067 1468,-224 1441.94,-185.313 1396.67,-153.904 1368.64,-136.883"/>
<polygon fill="midnightblue" stroke="midnightblue" points="1370.23,-133.759 1359.85,-131.672 1366.67,-139.781 1370.23,-133.759"/>
</g>
<!-- Node9 -->
<g id="node9" class="node"><title>Node9</title>
<g id="a_node9"><a xlink:href="_i_plug_plugin_base_8h.html" target="_top" xlink:title="Base class that contains plug&#45;in info and state manipulation methods. ">
<polygon fill="white" stroke="black" points="882.5,-448.5 882.5,-467.5 979.5,-467.5 979.5,-448.5 882.5,-448.5"/>
<text text-anchor="middle" x="931" y="-455.5" font-family="Helvetica,sans-Serif" font-size="10.00">IPlugPluginBase.h</text>
</a>
</g>
</g>
<!-- Node5&#45;&gt;Node9 -->
<g id="edge10" class="edge"><title>Node5&#45;&gt;Node9</title>
<path fill="none" stroke="midnightblue" d="M761.849,-504.444C796.398,-495.162 851.682,-480.309 889.583,-470.127"/>
<polygon fill="midnightblue" stroke="midnightblue" points="890.551,-473.491 899.3,-467.516 888.734,-466.731 890.551,-473.491"/>
</g>
<!-- Node14 -->
<g id="node14" class="node"><title>Node14</title>
<g id="a_node14"><a xlink:href="_i_plug_parameter_8h.html" target="_top" xlink:title="IPlug&#39;s parameter class. ">
<polygon fill="white" stroke="black" points="1084,-280.5 1084,-299.5 1176,-299.5 1176,-280.5 1084,-280.5"/>
<text text-anchor="middle" x="1130" y="-287.5" font-family="Helvetica,sans-Serif" font-size="10.00">IPlugParameter.h</text>
</a>
</g>
</g>
<!-- Node5&#45;&gt;Node14 -->
<g id="edge64" class="edge"><title>Node5&#45;&gt;Node14</title>
<path fill="none" stroke="midnightblue" d="M773.116,-512.235C826.05,-509.81 917.473,-500.725 988,-468 1058.88,-435.109 1105.17,-346.928 1122.42,-308.881"/>
<polygon fill="midnightblue" stroke="midnightblue" points="1125.7,-310.13 1126.52,-299.567 1119.29,-307.314 1125.7,-310.13"/>
</g>
<!-- Node19 -->
<g id="node19" class="node"><title>Node19</title>
<g id="a_node19"><a xlink:href="_i_plug_utilities_8h.html" target="_top" xlink:title="Utility functions and macros. ">
<polygon fill="white" stroke="black" points="524,-112.5 524,-131.5 604,-131.5 604,-112.5 524,-112.5"/>
<text text-anchor="middle" x="564" y="-119.5" font-family="Helvetica,sans-Serif" font-size="10.00">IPlugUtilities.h</text>
</a>
</g>
</g>
<!-- Node5&#45;&gt;Node19 -->
<g id="edge63" class="edge"><title>Node5&#45;&gt;Node19</title>
<path fill="none" stroke="midnightblue" d="M686.662,-504.663C636.295,-492.167 560,-463.288 560,-403 560,-403 560,-403 560,-345 560,-269.892 562.317,-180.513 563.424,-142.096"/>
<polygon fill="midnightblue" stroke="midnightblue" points="566.929,-141.98 563.725,-131.881 559.932,-141.774 566.929,-141.98"/>
</g>
<!-- Node24 -->
<g id="node24" class="node"><title>Node24</title>
<g id="a_node24"><a xlink:href="_i_plug_constants_8h.html" target="_top" xlink:title="IPlug Constant definitions, Types, magic numbers. ">
<polygon fill="white" stroke="black" points="373,-56.5 373,-75.5 465,-75.5 465,-56.5 373,-56.5"/>
<text text-anchor="middle" x="419" y="-63.5" font-family="Helvetica,sans-Serif" font-size="10.00">IPlugConstants.h</text>
</a>
</g>
</g>
<!-- Node5&#45;&gt;Node24 -->
<g id="edge61" class="edge"><title>Node5&#45;&gt;Node24</title>
<path fill="none" stroke="midnightblue" d="M686.861,-511.026C584.157,-506 327.57,-491.436 245,-468 182.474,-450.254 114,-467.995 114,-403 114,-403 114,-403 114,-345 114,-199.682 305.454,-110.126 384.989,-79.191"/>
<polygon fill="midnightblue" stroke="midnightblue" points="386.459,-82.3764 394.556,-75.5437 383.965,-75.8356 386.459,-82.3764"/>
</g>
<!-- Node29 -->
<g id="node29" class="node"><title>Node29</title>
<g id="a_node29"><a xlink:href="_i_plug_structs_8h_source.html" target="_top" xlink:title="IPlugStructs.h">
<polygon fill="white" stroke="black" points="614.5,-280.5 614.5,-299.5 693.5,-299.5 693.5,-280.5 614.5,-280.5"/>
<text text-anchor="middle" x="654" y="-287.5" font-family="Helvetica,sans-Serif" font-size="10.00">IPlugStructs.h</text>
</a>
</g>
</g>
<!-- Node5&#45;&gt;Node29 -->
<g id="edge62" class="edge"><title>Node5&#45;&gt;Node29</title>
<path fill="none" stroke="midnightblue" d="M727.021,-504.297C715.791,-471.494 675.87,-354.884 660.291,-309.377"/>
<polygon fill="midnightblue" stroke="midnightblue" points="663.592,-308.211 657.041,-299.884 656.969,-310.478 663.592,-308.211"/>
</g>
<!-- Node30 -->
<g id="node30" class="node"><title>Node30</title>
<g id="a_node30"><a xlink:href="_i_plug_queue_8h.html" target="_top" xlink:title="A lock&#45;free SPSC queue used to transfer data between threads based on MLQueue.h by Randy Jones based ...">
<polygon fill="white" stroke="black" points="1123,-448.5 1123,-467.5 1199,-467.5 1199,-448.5 1123,-448.5"/>
<text text-anchor="middle" x="1161" y="-455.5" font-family="Helvetica,sans-Serif" font-size="10.00">IPlugQueue.h</text>
</a>
</g>
</g>
<!-- Node5&#45;&gt;Node30 -->
<g id="edge65" class="edge"><title>Node5&#45;&gt;Node30</title>
<path fill="none" stroke="midnightblue" d="M773.011,-508.647C843.401,-501.353 987.536,-485.709 1109,-468 1110.27,-467.814 1111.57,-467.621 1112.87,-467.423"/>
<polygon fill="midnightblue" stroke="midnightblue" points="1113.65,-470.843 1122.98,-465.82 1112.56,-463.929 1113.65,-470.843"/>
</g>
<!-- Node32 -->
<g id="node32" class="node"><title>Node32</title>
<g id="a_node32"><a xlink:href="_i_plug_timer_8h.html" target="_top" xlink:title="This file includes classes for implementing timers &#45; in order to get a regular callback on the main t...">
<polygon fill="white" stroke="black" points="1250,-280.5 1250,-299.5 1322,-299.5 1322,-280.5 1250,-280.5"/>
<text text-anchor="middle" x="1286" y="-287.5" font-family="Helvetica,sans-Serif" font-size="10.00">IPlugTimer.h</text>
</a>
</g>
</g>
<!-- Node5&#45;&gt;Node32 -->
<g id="edge68" class="edge"><title>Node5&#45;&gt;Node32</title>
<path fill="none" stroke="midnightblue" d="M773.191,-511.41C884.184,-506.98 1173.14,-493.14 1208,-468 1261.09,-429.716 1278.55,-347.128 1283.86,-309.889"/>
<polygon fill="midnightblue" stroke="midnightblue" points="1287.39,-309.869 1285.19,-299.506 1280.45,-308.981 1287.39,-309.869"/>
</g>
<!-- Node10 -->
<g id="node10" class="node"><title>Node10</title>
<g id="a_node10"><a xlink:href="_i_plug_delegate__select_8h.html" target="_top" xlink:title="Used for choosing an editor delegate. ">
<polygon fill="white" stroke="black" points="872,-392.5 872,-411.5 990,-411.5 990,-392.5 872,-392.5"/>
<text text-anchor="middle" x="931" y="-399.5" font-family="Helvetica,sans-Serif" font-size="10.00">IPlugDelegate_select.h</text>
</a>
</g>
</g>
<!-- Node9&#45;&gt;Node10 -->
<g id="edge11" class="edge"><title>Node9&#45;&gt;Node10</title>
<path fill="none" stroke="midnightblue" d="M931,-448.083C931,-441.006 931,-430.861 931,-421.986"/>
<polygon fill="midnightblue" stroke="midnightblue" points="934.5,-421.751 931,-411.751 927.5,-421.751 934.5,-421.751"/>
</g>
<!-- Node9&#45;&gt;Node14 -->
<g id="edge58" class="edge"><title>Node9&#45;&gt;Node14</title>
<path fill="none" stroke="midnightblue" d="M961.851,-448.428C983.302,-441.309 1011.6,-429.49 1032,-412 1062.51,-385.845 1055.1,-366.731 1081,-336 1090.1,-325.207 1101.67,-314.464 1111.29,-306.183"/>
<polygon fill="midnightblue" stroke="midnightblue" points="1113.72,-308.713 1119.13,-299.6 1109.22,-303.353 1113.72,-308.713"/>
</g>
<!-- Node26 -->
<g id="node26" class="node"><title>Node26</title>
<g id="a_node26"><a xlink:href="_i_plug_logger_8h.html" target="_top" xlink:title="IPlug logging a.k.a tracing functionality. ">
<polygon fill="white" stroke="black" points="970.5,-168.5 970.5,-187.5 1047.5,-187.5 1047.5,-168.5 970.5,-168.5"/>
<text text-anchor="middle" x="1009" y="-175.5" font-family="Helvetica,sans-Serif" font-size="10.00">IPlugLogger.h</text>
</a>
</g>
</g>
<!-- Node9&#45;&gt;Node26 -->
<g id="edge60" class="edge"><title>Node9&#45;&gt;Node26</title>
<path fill="none" stroke="midnightblue" d="M951.082,-448.429C966.342,-440.933 986.735,-428.636 999,-412 1016.86,-387.774 1018,-377.098 1018,-347 1018,-347 1018,-347 1018,-289 1018,-256.841 1014.13,-219.569 1011.47,-197.711"/>
<polygon fill="midnightblue" stroke="midnightblue" points="1014.91,-197.018 1010.18,-187.538 1007.96,-197.899 1014.91,-197.018"/>
</g>
<!-- Node9&#45;&gt;Node29 -->
<g id="edge59" class="edge"><title>Node9&#45;&gt;Node29</title>
<path fill="none" stroke="midnightblue" d="M916.497,-448.309C871.248,-421.192 732.395,-337.98 677.085,-304.834"/>
<polygon fill="midnightblue" stroke="midnightblue" points="678.736,-301.743 668.359,-299.605 675.138,-307.748 678.736,-301.743"/>
</g>
<!-- Node11 -->
<g id="node11" class="node"><title>Node11</title>
<g id="a_node11"><a xlink:href="_i_plug_editor_delegate_8h.html" target="_top" xlink:title="This pure virtual interface delegates communication in both directions between a UI editor and someth...">
<polygon fill="white" stroke="black" points="876,-336.5 876,-355.5 988,-355.5 988,-336.5 876,-336.5"/>
<text text-anchor="middle" x="932" y="-343.5" font-family="Helvetica,sans-Serif" font-size="10.00">IPlugEditorDelegate.h</text>
</a>
</g>
</g>
<!-- Node10&#45;&gt;Node11 -->
<g id="edge12" class="edge"><title>Node10&#45;&gt;Node11</title>
<path fill="none" stroke="midnightblue" d="M931.165,-392.083C931.296,-385.006 931.484,-374.861 931.648,-365.986"/>
<polygon fill="midnightblue" stroke="midnightblue" points="935.152,-365.814 931.838,-355.751 928.153,-365.685 935.152,-365.814"/>
</g>
<!-- Node11&#45;&gt;Node3 -->
<g id="edge14" class="edge"><title>Node11&#45;&gt;Node3</title>
<path fill="none" stroke="midnightblue" d="M938.232,-336.435C953.568,-315.689 994.957,-261.687 1037,-224 1057.93,-205.238 1066.83,-205.283 1089,-188 1144.77,-144.524 1177.13,-142.193 1202,-76 1208.5,-58.7014 1196.85,-39.9899 1185.64,-27.105"/>
<polygon fill="midnightblue" stroke="midnightblue" points="1187.93,-24.4358 1178.53,-19.5526 1182.84,-29.2334 1187.93,-24.4358"/>
</g>
<!-- Node11&#45;&gt;Node7 -->
<g id="edge16" class="edge"><title>Node11&#45;&gt;Node7</title>
<path fill="none" stroke="midnightblue" d="M912.618,-336.368C869.331,-317.091 764.61,-270.454 713.718,-247.789"/>
<polygon fill="midnightblue" stroke="midnightblue" points="714.851,-244.462 704.292,-243.591 712.003,-250.857 714.851,-244.462"/>
</g>
<!-- Node12 -->
<g id="node12" class="node"><title>Node12</title>
<polygon fill="white" stroke="#bfbfbf" points="736.5,-112.5 736.5,-131.5 785.5,-131.5 785.5,-112.5 736.5,-112.5"/>
<text text-anchor="middle" x="761" y="-119.5" font-family="Helvetica,sans-Serif" font-size="10.00">cassert</text>
</g>
<!-- Node11&#45;&gt;Node12 -->
<g id="edge13" class="edge"><title>Node11&#45;&gt;Node12</title>
<path fill="none" stroke="midnightblue" d="M930.979,-336.388C927.23,-308.417 911.804,-218.988 863,-168 853.15,-157.709 820.906,-144.375 795.276,-134.9"/>
<polygon fill="midnightblue" stroke="midnightblue" points="796.432,-131.596 785.838,-131.472 794.042,-138.175 796.432,-131.596"/>
</g>
<!-- Node13 -->
<g id="node13" class="node"><title>Node13</title>
<polygon fill="white" stroke="#bfbfbf" points="1410.5,-224.5 1410.5,-243.5 1459.5,-243.5 1459.5,-224.5 1410.5,-224.5"/>
<text text-anchor="middle" x="1435" y="-231.5" font-family="Helvetica,sans-Serif" font-size="10.00">stdint.h</text>
</g>
<!-- Node11&#45;&gt;Node13 -->
<g id="edge15" class="edge"><title>Node11&#45;&gt;Node13</title>
<path fill="none" stroke="midnightblue" d="M988.027,-341.752C1082.45,-335.766 1269.04,-321.6 1331,-300 1363.93,-288.521 1397.29,-265.129 1417.05,-249.763"/>
<polygon fill="midnightblue" stroke="midnightblue" points="1419.24,-252.496 1424.89,-243.533 1414.88,-247.017 1419.24,-252.496"/>
</g>
<!-- Node11&#45;&gt;Node14 -->
<g id="edge17" class="edge"><title>Node11&#45;&gt;Node14</title>
<path fill="none" stroke="midnightblue" d="M963.374,-336.444C997.263,-327.201 1051.4,-312.436 1088.72,-302.257"/>
<polygon fill="midnightblue" stroke="midnightblue" points="1090.05,-305.524 1098.77,-299.516 1088.2,-298.771 1090.05,-305.524"/>
</g>
<!-- Node25 -->
<g id="node25" class="node"><title>Node25</title>
<g id="a_node25"><a xlink:href="_i_plug_midi_8h.html" target="_top" xlink:title="MIDI and sysex structs/utilites. ">
<polygon fill="white" stroke="black" points="810.5,-224.5 810.5,-243.5 875.5,-243.5 875.5,-224.5 810.5,-224.5"/>
<text text-anchor="middle" x="843" y="-231.5" font-family="Helvetica,sans-Serif" font-size="10.00">IPlugMidi.h</text>
</a>
</g>
</g>
<!-- Node11&#45;&gt;Node25 -->
<g id="edge33" class="edge"><title>Node11&#45;&gt;Node25</title>
<path fill="none" stroke="midnightblue" d="M925.016,-336.368C910.264,-318.135 875.708,-275.426 856.492,-251.675"/>
<polygon fill="midnightblue" stroke="midnightblue" points="858.962,-249.164 849.951,-243.591 853.52,-253.567 858.962,-249.164"/>
</g>
<!-- Node11&#45;&gt;Node29 -->
<g id="edge50" class="edge"><title>Node11&#45;&gt;Node29</title>
<path fill="none" stroke="midnightblue" d="M887.95,-336.444C837.857,-326.713 756.248,-310.861 703.86,-300.685"/>
<polygon fill="midnightblue" stroke="midnightblue" points="704.274,-297.2 693.79,-298.729 702.939,-304.072 704.274,-297.2"/>
</g>
<!-- Node14&#45;&gt;Node3 -->
<g id="edge19" class="edge"><title>Node14&#45;&gt;Node3</title>
<path fill="none" stroke="midnightblue" d="M1137.18,-280.154C1147.36,-267.633 1166.56,-244.034 1183,-224 1216.65,-183.003 1241.05,-181.907 1259,-132 1270.43,-100.215 1276.76,-84.7331 1259,-56 1246.59,-35.9143 1222.19,-24.4939 1201.93,-18.1878"/>
<polygon fill="midnightblue" stroke="midnightblue" points="1202.66,-14.7588 1192.09,-15.4124 1200.76,-21.4959 1202.66,-14.7588"/>
</g>
<!-- Node15 -->
<g id="node15" class="node"><title>Node15</title>
<polygon fill="white" stroke="#bfbfbf" points="1192,-224.5 1192,-243.5 1238,-243.5 1238,-224.5 1192,-224.5"/>
<text text-anchor="middle" x="1215" y="-231.5" font-family="Helvetica,sans-Serif" font-size="10.00">atomic</text>
</g>
<!-- Node14&#45;&gt;Node15 -->
<g id="edge18" class="edge"><title>Node14&#45;&gt;Node15</title>
<path fill="none" stroke="midnightblue" d="M1143.66,-280.324C1156.92,-271.9 1177.27,-258.971 1192.85,-249.074"/>
<polygon fill="midnightblue" stroke="midnightblue" points="1194.81,-251.971 1201.38,-243.655 1191.06,-246.063 1194.81,-251.971"/>
</g>
<!-- Node16 -->
<g id="node16" class="node"><title>Node16</title>
<polygon fill="white" stroke="#bfbfbf" points="1256.5,-224.5 1256.5,-243.5 1315.5,-243.5 1315.5,-224.5 1256.5,-224.5"/>
<text text-anchor="middle" x="1286" y="-231.5" font-family="Helvetica,sans-Serif" font-size="10.00">functional</text>
</g>
<!-- Node14&#45;&gt;Node16 -->
<g id="edge20" class="edge"><title>Node14&#45;&gt;Node16</title>
<path fill="none" stroke="midnightblue" d="M1154.72,-280.444C1180.85,-271.399 1222.26,-257.064 1251.58,-246.916"/>
<polygon fill="midnightblue" stroke="midnightblue" points="1253.09,-250.095 1261.4,-243.516 1250.8,-243.48 1253.09,-250.095"/>
</g>
<!-- Node17 -->
<g id="node17" class="node"><title>Node17</title>
<polygon fill="white" stroke="#bfbfbf" points="1046,-224.5 1046,-243.5 1098,-243.5 1098,-224.5 1046,-224.5"/>
<text text-anchor="middle" x="1072" y="-231.5" font-family="Helvetica,sans-Serif" font-size="10.00">memory</text>
</g>
<!-- Node14&#45;&gt;Node17 -->
<g id="edge21" class="edge"><title>Node14&#45;&gt;Node17</title>
<path fill="none" stroke="midnightblue" d="M1120.68,-280.324C1112.11,-272.341 1099.19,-260.313 1088.81,-250.653"/>
<polygon fill="midnightblue" stroke="midnightblue" points="1091.19,-248.086 1081.49,-243.834 1086.42,-253.21 1091.19,-248.086"/>
</g>
<!-- Node18 -->
<g id="node18" class="node"><title>Node18</title>
<polygon fill="white" stroke="#bfbfbf" points="1129,-56.5 1129,-75.5 1193,-75.5 1193,-56.5 1129,-56.5"/>
<text text-anchor="middle" x="1161" y="-63.5" font-family="Helvetica,sans-Serif" font-size="10.00">wdlstring.h</text>
</g>
<!-- Node14&#45;&gt;Node18 -->
<g id="edge22" class="edge"><title>Node14&#45;&gt;Node18</title>
<path fill="none" stroke="midnightblue" d="M1132.59,-280.128C1136.28,-267.576 1143.36,-243.94 1150,-224 1163.72,-182.785 1175.56,-174.797 1183,-132 1184.52,-123.243 1185,-120.66 1183,-112 1180.77,-102.363 1176.18,-92.4052 1171.76,-84.3149"/>
<polygon fill="midnightblue" stroke="midnightblue" points="1174.7,-82.3968 1166.64,-75.5194 1168.65,-85.9216 1174.7,-82.3968"/>
</g>
<!-- Node14&#45;&gt;Node19 -->
<g id="edge23" class="edge"><title>Node14&#45;&gt;Node19</title>
<path fill="none" stroke="midnightblue" d="M1083.98,-287.555C1019.38,-284.446 898.774,-274.673 801,-244 716.553,-217.508 625.772,-162.903 585.429,-137.098"/>
<polygon fill="midnightblue" stroke="midnightblue" points="587.245,-134.105 576.946,-131.619 583.447,-139.985 587.245,-134.105"/>
</g>
<!-- Node19&#45;&gt;Node2 -->
<g id="edge32" class="edge"><title>Node19&#45;&gt;Node2</title>
<path fill="none" stroke="midnightblue" d="M523.891,-115.475C452.554,-105.648 303.681,-85.1397 224.37,-74.2142"/>
<polygon fill="midnightblue" stroke="midnightblue" points="224.505,-70.6999 214.121,-72.8024 223.55,-77.6344 224.505,-70.6999"/>
</g>
<!-- Node19&#45;&gt;Node3 -->
<g id="edge28" class="edge"><title>Node19&#45;&gt;Node3</title>
<path fill="none" stroke="midnightblue" d="M567.483,-112.392C573.87,-97.8661 588.953,-68.821 612,-56 657.788,-30.528 1022.95,-16.0008 1135.86,-12.0855"/>
<polygon fill="midnightblue" stroke="midnightblue" points="1136.1,-15.5793 1145.98,-11.7397 1135.86,-8.58336 1136.1,-15.5793"/>
</g>
<!-- Node19&#45;&gt;Node4 -->
<g id="edge27" class="edge"><title>Node19&#45;&gt;Node4</title>
<path fill="none" stroke="midnightblue" d="M562.61,-112.416C559.888,-98.4511 552.516,-70.8809 535,-56 495.82,-22.7146 434.723,-13.7206 397.15,-11.4807"/>
<polygon fill="midnightblue" stroke="midnightblue" points="396.907,-7.96571 386.755,-10.998 396.582,-14.9582 396.907,-7.96571"/>
</g>
<!-- Node19&#45;&gt;Node18 -->
<g id="edge30" class="edge"><title>Node19&#45;&gt;Node18</title>
<path fill="none" stroke="midnightblue" d="M604.098,-117.373C712.116,-107.603 1008.46,-80.7977 1118.84,-70.8138"/>
<polygon fill="midnightblue" stroke="midnightblue" points="1119.28,-74.288 1128.92,-69.9013 1118.65,-67.3164 1119.28,-74.288"/>
</g>
<!-- Node20 -->
<g id="node20" class="node"><title>Node20</title>
<polygon fill="white" stroke="#bfbfbf" points="621,-56.5 621,-75.5 677,-75.5 677,-56.5 621,-56.5"/>
<text text-anchor="middle" x="649" y="-63.5" font-family="Helvetica,sans-Serif" font-size="10.00">algorithm</text>
</g>
<!-- Node19&#45;&gt;Node20 -->
<g id="edge24" class="edge"><title>Node19&#45;&gt;Node20</title>
<path fill="none" stroke="midnightblue" d="M577.657,-112.324C590.916,-103.9 611.268,-90.9709 626.846,-81.0741"/>
<polygon fill="midnightblue" stroke="midnightblue" points="628.813,-83.9711 635.377,-75.6545 625.06,-78.0626 628.813,-83.9711"/>
</g>
<!-- Node21 -->
<g id="node21" class="node"><title>Node21</title>
<polygon fill="white" stroke="#bfbfbf" points="483,-56.5 483,-75.5 527,-75.5 527,-56.5 483,-56.5"/>
<text text-anchor="middle" x="505" y="-63.5" font-family="Helvetica,sans-Serif" font-size="10.00">cmath</text>
</g>
<!-- Node19&#45;&gt;Node21 -->
<g id="edge25" class="edge"><title>Node19&#45;&gt;Node21</title>
<path fill="none" stroke="midnightblue" d="M554.521,-112.324C545.799,-104.341 532.657,-92.3128 522.102,-82.6529"/>
<polygon fill="midnightblue" stroke="midnightblue" points="524.392,-80.0036 514.652,-75.8339 519.666,-85.1674 524.392,-80.0036"/>
</g>
<!-- Node22 -->
<g id="node22" class="node"><title>Node22</title>
<polygon fill="white" stroke="#bfbfbf" points="744.5,-56.5 744.5,-75.5 787.5,-75.5 787.5,-56.5 744.5,-56.5"/>
<text text-anchor="middle" x="766" y="-63.5" font-family="Helvetica,sans-Serif" font-size="10.00">cstdio</text>
</g>
<!-- Node19&#45;&gt;Node22 -->
<g id="edge26" class="edge"><title>Node19&#45;&gt;Node22</title>
<path fill="none" stroke="midnightblue" d="M596.008,-112.444C633.937,-102.304 696.732,-85.5173 734.457,-75.4324"/>
<polygon fill="midnightblue" stroke="midnightblue" points="735.634,-78.7407 744.391,-72.7767 733.826,-71.9781 735.634,-78.7407"/>
</g>
<!-- Node23 -->
<g id="node23" class="node"><title>Node23</title>
<polygon fill="white" stroke="#bfbfbf" points="865,-56.5 865,-75.5 911,-75.5 911,-56.5 865,-56.5"/>
<text text-anchor="middle" x="888" y="-63.5" font-family="Helvetica,sans-Serif" font-size="10.00">cctype</text>
</g>
<!-- Node19&#45;&gt;Node23 -->
<g id="edge29" class="edge"><title>Node19&#45;&gt;Node23</title>
<path fill="none" stroke="midnightblue" d="M604.054,-114.324C668.74,-103.543 794.997,-82.5004 854.916,-72.5139"/>
<polygon fill="midnightblue" stroke="midnightblue" points="855.676,-75.9358 864.964,-70.8393 854.525,-69.031 855.676,-75.9358"/>
</g>
<!-- Node19&#45;&gt;Node24 -->
<g id="edge31" class="edge"><title>Node19&#45;&gt;Node24</title>
<path fill="none" stroke="midnightblue" d="M541.024,-112.444C516.843,-103.438 478.582,-89.1891 451.354,-79.049"/>
<polygon fill="midnightblue" stroke="midnightblue" points="452.461,-75.7265 441.868,-75.5164 450.018,-82.2864 452.461,-75.7265"/>
</g>
<!-- Node25&#45;&gt;Node6 -->
<g id="edge35" class="edge"><title>Node25&#45;&gt;Node6</title>
<path fill="none" stroke="midnightblue" d="M810.42,-225.439C723.894,-205.359 489.02,-150.853 402.007,-130.66"/>
<polygon fill="midnightblue" stroke="midnightblue" points="402.681,-127.223 392.149,-128.372 401.099,-134.042 402.681,-127.223"/>
</g>
<!-- Node25&#45;&gt;Node12 -->
<g id="edge34" class="edge"><title>Node25&#45;&gt;Node12</title>
<path fill="none" stroke="midnightblue" d="M846.265,-224.262C850.615,-211.036 856.605,-185.614 846,-168 839.811,-157.72 813.777,-144.798 792.134,-135.442"/>
<polygon fill="midnightblue" stroke="midnightblue" points="793.466,-132.205 782.892,-131.542 790.745,-138.655 793.466,-132.205"/>
</g>
<!-- Node25&#45;&gt;Node20 -->
<g id="edge37" class="edge"><title>Node25&#45;&gt;Node20</title>
<path fill="none" stroke="midnightblue" d="M810.435,-226.188C785.499,-219.684 751.357,-207.864 727,-188 692.102,-159.54 667.69,-111.203 656.29,-85.0667"/>
<polygon fill="midnightblue" stroke="midnightblue" points="659.428,-83.4998 652.326,-75.6379 652.975,-86.2128 659.428,-83.4998"/>
</g>
<!-- Node25&#45;&gt;Node22 -->
<g id="edge36" class="edge"><title>Node25&#45;&gt;Node22</title>
<path fill="none" stroke="midnightblue" d="M848.13,-224.407C853.058,-215.614 860.16,-201.381 863,-188 870.072,-154.673 873.211,-139.426 853,-112 839.513,-93.6978 816.384,-82.2388 797.363,-75.467"/>
<polygon fill="midnightblue" stroke="midnightblue" points="798.457,-72.1423 787.864,-72.3417 796.269,-78.7916 798.457,-72.1423"/>
</g>
<!-- Node25&#45;&gt;Node26 -->
<g id="edge38" class="edge"><title>Node25&#45;&gt;Node26</title>
<path fill="none" stroke="midnightblue" d="M869.303,-224.444C897.351,-215.32 941.944,-200.813 973.184,-190.651"/>
<polygon fill="midnightblue" stroke="midnightblue" points="974.393,-193.938 982.82,-187.516 972.228,-187.282 974.393,-193.938"/>
</g>
<!-- Node26&#45;&gt;Node3 -->
<g id="edge43" class="edge"><title>Node26&#45;&gt;Node3</title>
<path fill="none" stroke="midnightblue" d="M1024.82,-168.352C1038.67,-160.242 1058.74,-147.122 1073,-132 1100.24,-103.102 1094.69,-86.6075 1120,-56 1128.99,-45.1222 1140.57,-34.3755 1150.21,-26.1134"/>
<polygon fill="midnightblue" stroke="midnightblue" points="1152.63,-28.6468 1158.07,-19.5516 1148.15,-23.273 1152.63,-28.6468"/>
</g>
<!-- Node26&#45;&gt;Node6 -->
<g id="edge42" class="edge"><title>Node26&#45;&gt;Node6</title>
<path fill="none" stroke="midnightblue" d="M970.406,-173.744C854.543,-163.968 511.036,-134.984 402.359,-125.815"/>
<polygon fill="midnightblue" stroke="midnightblue" points="402.56,-122.319 392.301,-124.966 401.971,-129.294 402.56,-122.319"/>
</g>
<!-- Node26&#45;&gt;Node8 -->
<g id="edge47" class="edge"><title>Node26&#45;&gt;Node8</title>
<path fill="none" stroke="midnightblue" d="M1047.76,-170.753C1113.02,-160.233 1243.93,-139.131 1307.58,-128.87"/>
<polygon fill="midnightblue" stroke="midnightblue" points="1308.25,-132.308 1317.56,-127.261 1307.13,-125.397 1308.25,-132.308"/>
</g>
<!-- Node26&#45;&gt;Node12 -->
<g id="edge45" class="edge"><title>Node26&#45;&gt;Node12</title>
<path fill="none" stroke="midnightblue" d="M970.395,-169.644C929.264,-161.647 862.036,-148.119 795.616,-132.293"/>
<polygon fill="midnightblue" stroke="midnightblue" points="796.366,-128.874 785.825,-129.942 794.731,-135.68 796.366,-128.874"/>
</g>
<!-- Node26&#45;&gt;Node18 -->
<g id="edge46" class="edge"><title>Node26&#45;&gt;Node18</title>
<path fill="none" stroke="midnightblue" d="M1035.72,-168.426C1056.48,-160.927 1085.31,-148.629 1107,-132 1124.57,-118.528 1140.2,-98.3464 1150.06,-84.0504"/>
<polygon fill="midnightblue" stroke="midnightblue" points="1153.04,-85.8969 1155.67,-75.6354 1147.21,-82.0128 1153.04,-85.8969"/>
</g>
<!-- Node26&#45;&gt;Node19 -->
<g id="edge49" class="edge"><title>Node26&#45;&gt;Node19</title>
<path fill="none" stroke="midnightblue" d="M970.288,-172.302C889.74,-162.528 704.161,-140.008 614.417,-129.118"/>
<polygon fill="midnightblue" stroke="midnightblue" points="614.569,-125.611 604.22,-127.881 613.726,-132.56 614.569,-125.611"/>
</g>
<!-- Node26&#45;&gt;Node22 -->
<g id="edge39" class="edge"><title>Node26&#45;&gt;Node22</title>
<path fill="none" stroke="midnightblue" d="M999.993,-168.094C985.434,-154.175 955.293,-127.281 925,-112 883.397,-91.0142 830.581,-78.5434 797.527,-72.2304"/>
<polygon fill="midnightblue" stroke="midnightblue" points="797.997,-68.7582 787.529,-70.3941 796.733,-75.643 797.997,-68.7582"/>
</g>
<!-- Node26&#45;&gt;Node23 -->
<g id="edge40" class="edge"><title>Node26&#45;&gt;Node23</title>
<path fill="none" stroke="midnightblue" d="M1004.32,-168.135C996.916,-154.744 981.45,-129.108 963,-112 949.208,-99.2112 931.204,-88.263 916.293,-80.3683"/>
<polygon fill="midnightblue" stroke="midnightblue" points="917.514,-77.0621 907.016,-75.6327 914.331,-83.2967 917.514,-77.0621"/>
</g>
<!-- Node26&#45;&gt;Node24 -->
<g id="edge48" class="edge"><title>Node26&#45;&gt;Node24</title>
<path fill="none" stroke="midnightblue" d="M992.712,-168.277C964.934,-153.85 906.231,-125.295 853,-112 691.966,-71.7811 643.642,-96.6831 475.132,-76.0431"/>
<polygon fill="midnightblue" stroke="midnightblue" points="475.54,-72.567 465.18,-74.7888 474.664,-79.512 475.54,-72.567"/>
</g>
<!-- Node27 -->
<g id="node27" class="node"><title>Node27</title>
<polygon fill="white" stroke="#bfbfbf" points="1015.5,-112.5 1015.5,-131.5 1064.5,-131.5 1064.5,-112.5 1015.5,-112.5"/>
<text text-anchor="middle" x="1040" y="-119.5" font-family="Helvetica,sans-Serif" font-size="10.00">cstdarg</text>
</g>
<!-- Node26&#45;&gt;Node27 -->
<g id="edge41" class="edge"><title>Node26&#45;&gt;Node27</title>
<path fill="none" stroke="midnightblue" d="M1014.12,-168.083C1018.41,-160.613 1024.66,-149.724 1029.94,-140.52"/>
<polygon fill="midnightblue" stroke="midnightblue" points="1033.03,-142.166 1034.98,-131.751 1026.96,-138.681 1033.03,-142.166"/>
</g>
<!-- Node28 -->
<g id="node28" class="node"><title>Node28</title>
<polygon fill="white" stroke="#bfbfbf" points="803.5,-112.5 803.5,-131.5 844.5,-131.5 844.5,-112.5 803.5,-112.5"/>
<text text-anchor="middle" x="824" y="-119.5" font-family="Helvetica,sans-Serif" font-size="10.00">ctime</text>
</g>
<!-- Node26&#45;&gt;Node28 -->
<g id="edge44" class="edge"><title>Node26&#45;&gt;Node28</title>
<path fill="none" stroke="midnightblue" d="M979.686,-168.444C945.523,-158.472 889.333,-142.07 854.62,-131.938"/>
<polygon fill="midnightblue" stroke="midnightblue" points="855.165,-128.451 844.584,-129.008 853.203,-135.17 855.165,-128.451"/>
</g>
<!-- Node29&#45;&gt;Node2 -->
<g id="edge55" class="edge"><title>Node29&#45;&gt;Node2</title>
<path fill="none" stroke="midnightblue" d="M635.4,-280.433C561.443,-246.37 287.955,-120.407 199.672,-79.745"/>
<polygon fill="midnightblue" stroke="midnightblue" points="201.091,-76.5456 190.544,-75.5411 198.163,-82.9036 201.091,-76.5456"/>
</g>
<!-- Node29&#45;&gt;Node7 -->
<g id="edge53" class="edge"><title>Node29&#45;&gt;Node7</title>
<path fill="none" stroke="midnightblue" d="M659.119,-280.083C663.408,-272.613 669.658,-261.724 674.942,-252.52"/>
<polygon fill="midnightblue" stroke="midnightblue" points="678.033,-254.166 679.976,-243.751 671.962,-250.681 678.033,-254.166"/>
</g>
<!-- Node29&#45;&gt;Node18 -->
<g id="edge52" class="edge"><title>Node29&#45;&gt;Node18</title>
<path fill="none" stroke="midnightblue" d="M693.807,-282.724C739.927,-275.104 818.035,-261.124 884,-244 961.815,-223.8 984.502,-224.76 1056,-188 1093.31,-168.815 1105.69,-164.685 1132,-132 1143.13,-118.176 1150.9,-99.4068 1155.57,-85.591"/>
<polygon fill="midnightblue" stroke="midnightblue" points="1159,-86.3515 1158.67,-75.7621 1152.33,-84.2502 1159,-86.3515"/>
</g>
<!-- Node29&#45;&gt;Node19 -->
<g id="edge57" class="edge"><title>Node29&#45;&gt;Node19</title>
<path fill="none" stroke="midnightblue" d="M645.62,-280.368C630.111,-263.877 596.972,-226.129 580,-188 573.354,-173.069 569.182,-154.928 566.771,-141.609"/>
<polygon fill="midnightblue" stroke="midnightblue" points="570.223,-141.03 565.144,-131.732 563.316,-142.168 570.223,-141.03"/>
</g>
<!-- Node29&#45;&gt;Node20 -->
<g id="edge51" class="edge"><title>Node29&#45;&gt;Node20</title>
<path fill="none" stroke="midnightblue" d="M653.283,-280.381C652.564,-271.328 651.494,-256.675 651,-244 648.763,-186.567 648.727,-118.578 648.87,-86.1128"/>
<polygon fill="midnightblue" stroke="midnightblue" points="652.371,-85.8639 648.927,-75.8446 645.372,-85.8249 652.371,-85.8639"/>
</g>
<!-- Node29&#45;&gt;Node24 -->
<g id="edge54" class="edge"><title>Node29&#45;&gt;Node24</title>
<path fill="none" stroke="midnightblue" d="M642.332,-280.408C630.586,-271.616 612.094,-257.384 597,-244 533.842,-187.996 464.359,-115.414 434.277,-83.3993"/>
<polygon fill="midnightblue" stroke="midnightblue" points="436.579,-80.7368 427.189,-75.8293 431.469,-85.5212 436.579,-80.7368"/>
</g>
<!-- Node29&#45;&gt;Node25 -->
<g id="edge56" class="edge"><title>Node29&#45;&gt;Node25</title>
<path fill="none" stroke="midnightblue" d="M683.948,-280.444C716.158,-271.241 767.534,-256.562 803.142,-246.388"/>
<polygon fill="midnightblue" stroke="midnightblue" points="804.539,-249.629 813.192,-243.516 802.616,-242.898 804.539,-249.629"/>
</g>
<!-- Node30&#45;&gt;Node15 -->
<g id="edge66" class="edge"><title>Node30&#45;&gt;Node15</title>
<path fill="none" stroke="midnightblue" d="M1169.64,-448.202C1177.42,-439.695 1188.46,-426.061 1194,-412 1215.42,-357.661 1216.67,-287.233 1215.85,-253.978"/>
<polygon fill="midnightblue" stroke="midnightblue" points="1219.34,-253.728 1215.5,-243.854 1212.35,-253.968 1219.34,-253.728"/>
</g>
<!-- Node31 -->
<g id="node31" class="node"><title>Node31</title>
<polygon fill="white" stroke="#bfbfbf" points="1136.5,-392.5 1136.5,-411.5 1185.5,-411.5 1185.5,-392.5 1136.5,-392.5"/>
<text text-anchor="middle" x="1161" y="-399.5" font-family="Helvetica,sans-Serif" font-size="10.00">cstddef</text>
</g>
<!-- Node30&#45;&gt;Node31 -->
<g id="edge67" class="edge"><title>Node30&#45;&gt;Node31</title>
<path fill="none" stroke="midnightblue" d="M1161,-448.083C1161,-441.006 1161,-430.861 1161,-421.986"/>
<polygon fill="midnightblue" stroke="midnightblue" points="1164.5,-421.751 1161,-411.751 1157.5,-421.751 1164.5,-421.751"/>
</g>
<!-- Node32&#45;&gt;Node2 -->
<g id="edge74" class="edge"><title>Node32&#45;&gt;Node2</title>
<path fill="none" stroke="midnightblue" d="M1249.7,-285.742C1138.92,-275.786 811.994,-246.293 801,-244 617.736,-205.775 582.088,-159.474 401,-112 340.935,-96.2533 270.716,-83.2329 224.027,-75.318"/>
<polygon fill="midnightblue" stroke="midnightblue" points="224.584,-71.8626 214.143,-73.6591 223.426,-78.7661 224.584,-71.8626"/>
</g>
<!-- Node32&#45;&gt;Node3 -->
<g id="edge69" class="edge"><title>Node32&#45;&gt;Node3</title>
<path fill="none" stroke="midnightblue" d="M1300.87,-280.466C1313.48,-272.52 1331.19,-259.577 1342,-244 1376.73,-193.938 1409.92,-164.499 1379,-112 1341.7,-48.6715 1251.58,-24.3613 1202.4,-15.5831"/>
<polygon fill="midnightblue" stroke="midnightblue" points="1202.71,-12.0866 1192.27,-13.8924 1201.56,-18.9911 1202.71,-12.0866"/>
</g>
<!-- Node32&#45;&gt;Node7 -->
<g id="edge72" class="edge"><title>Node32&#45;&gt;Node7</title>
<path fill="none" stroke="midnightblue" d="M1249.54,-285.654C1230.34,-283.917 1206.4,-281.789 1185,-280 980.202,-262.879 927.132,-275.192 724,-244 722.54,-243.776 721.055,-243.527 719.557,-243.259"/>
<polygon fill="midnightblue" stroke="midnightblue" points="720.143,-239.807 709.65,-241.272 718.767,-246.67 720.143,-239.807"/>
</g>
<!-- Node32&#45;&gt;Node8 -->
<g id="edge73" class="edge"><title>Node32&#45;&gt;Node8</title>
<path fill="none" stroke="midnightblue" d="M1295.8,-280.395C1304.67,-272.025 1317.31,-258.483 1324,-244 1339.56,-210.29 1343.2,-166.36 1343.94,-141.775"/>
<polygon fill="midnightblue" stroke="midnightblue" points="1347.44,-141.725 1344.11,-131.668 1340.45,-141.608 1347.44,-141.725"/>
</g>
<!-- Node32&#45;&gt;Node13 -->
<g id="edge70" class="edge"><title>Node32&#45;&gt;Node13</title>
<path fill="none" stroke="midnightblue" d="M1309.61,-280.444C1334.46,-271.438 1373.77,-257.189 1401.75,-247.049"/>
<polygon fill="midnightblue" stroke="midnightblue" points="1403.29,-250.214 1411.5,-243.516 1400.91,-243.633 1403.29,-250.214"/>
</g>
<!-- Node32&#45;&gt;Node16 -->
<g id="edge71" class="edge"><title>Node32&#45;&gt;Node16</title>
<path fill="none" stroke="midnightblue" d="M1286,-280.083C1286,-273.006 1286,-262.861 1286,-253.986"/>
<polygon fill="midnightblue" stroke="midnightblue" points="1289.5,-253.751 1286,-243.751 1282.5,-253.751 1289.5,-253.751"/>
</g>
<!-- Node33&#45;&gt;Node2 -->
<g id="edge80" class="edge"><title>Node33&#45;&gt;Node2</title>
<path fill="none" stroke="midnightblue" d="M357.773,-340.268C306.667,-334.051 228.909,-321.34 209,-300 152.572,-239.519 162.148,-129.459 168.706,-85.6834"/>
<polygon fill="midnightblue" stroke="midnightblue" points="172.192,-86.0505 170.343,-75.6184 165.283,-84.927 172.192,-86.0505"/>
</g>
<!-- Node33&#45;&gt;Node3 -->
<g id="edge76" class="edge"><title>Node33&#45;&gt;Node3</title>
<path fill="none" stroke="midnightblue" d="M398.387,-336.372C372.401,-295.351 269.007,-119.423 364,-56 428.883,-12.68 991.276,-10.6835 1135.44,-10.8902"/>
<polygon fill="midnightblue" stroke="midnightblue" points="1135.83,-14.3909 1145.84,-10.9102 1135.85,-7.39092 1135.83,-14.3909"/>
</g>
<!-- Node33&#45;&gt;Node6 -->
<g id="edge77" class="edge"><title>Node33&#45;&gt;Node6</title>
<path fill="none" stroke="midnightblue" d="M402.628,-336.297C397.478,-303.633 379.227,-187.866 371.989,-141.957"/>
<polygon fill="midnightblue" stroke="midnightblue" points="375.415,-141.217 370.401,-131.884 368.501,-142.307 375.415,-141.217"/>
</g>
<!-- Node33&#45;&gt;Node7 -->
<g id="edge79" class="edge"><title>Node33&#45;&gt;Node7</title>
<path fill="none" stroke="midnightblue" d="M426.05,-336.368C475.603,-316.97 595.924,-269.87 653.407,-247.367"/>
<polygon fill="midnightblue" stroke="midnightblue" points="655.017,-250.496 663.053,-243.591 652.465,-243.978 655.017,-250.496"/>
</g>
<!-- Node33&#45;&gt;Node17 -->
<g id="edge78" class="edge"><title>Node33&#45;&gt;Node17</title>
<path fill="none" stroke="midnightblue" d="M450.254,-338.367C508.889,-329.878 613.053,-314.527 702,-300 824.502,-279.993 969.356,-253.809 1035.62,-241.69"/>
<polygon fill="midnightblue" stroke="midnightblue" points="1036.36,-245.113 1045.57,-239.869 1035.1,-238.227 1036.36,-245.113"/>
</g>
<!-- Node33&#45;&gt;Node19 -->
<g id="edge83" class="edge"><title>Node33&#45;&gt;Node19</title>
<path fill="none" stroke="midnightblue" d="M406.113,-336.192C413.946,-304.143 442.105,-194.241 466,-168 480.169,-152.44 500.789,-141.868 519.464,-134.905"/>
<polygon fill="midnightblue" stroke="midnightblue" points="520.712,-138.176 529.007,-131.584 518.412,-131.564 520.712,-138.176"/>
</g>
<!-- Node33&#45;&gt;Node24 -->
<g id="edge81" class="edge"><title>Node33&#45;&gt;Node24</title>
<path fill="none" stroke="midnightblue" d="M388.835,-336.442C376.612,-328.65 360.162,-315.94 352,-300 313.796,-225.391 294.305,-184.132 337,-112 345.973,-96.8399 362.067,-86.4475 377.635,-79.5044"/>
<polygon fill="midnightblue" stroke="midnightblue" points="379.248,-82.6265 387.191,-75.6153 376.61,-76.1428 379.248,-82.6265"/>
</g>
<!-- Node33&#45;&gt;Node29 -->
<g id="edge82" class="edge"><title>Node33&#45;&gt;Node29</title>
<path fill="none" stroke="midnightblue" d="M443.613,-336.444C487.225,-327.023 557.4,-311.866 604.578,-301.675"/>
<polygon fill="midnightblue" stroke="midnightblue" points="605.536,-305.049 614.572,-299.516 604.059,-298.207 605.536,-305.049"/>
</g>
<!-- Node34 -->
<g id="node34" class="node"><title>Node34</title>
<polygon fill="white" stroke="#bfbfbf" points="218.5,-280.5 218.5,-299.5 299.5,-299.5 299.5,-280.5 218.5,-280.5"/>
<text text-anchor="middle" x="259" y="-287.5" font-family="Helvetica,sans-Serif" font-size="10.00">NChanDelay.h</text>
</g>
<!-- Node33&#45;&gt;Node34 -->
<g id="edge84" class="edge"><title>Node33&#45;&gt;Node34</title>
<path fill="none" stroke="midnightblue" d="M381.024,-336.444C356.843,-327.438 318.582,-313.189 291.354,-303.049"/>
<polygon fill="midnightblue" stroke="midnightblue" points="292.461,-299.727 281.868,-299.516 290.018,-306.286 292.461,-299.727"/>
</g>
<!-- Node35 -->
<g id="node35" class="node"><title>Node35</title>
<g id="a_node35"><a xlink:href="_i_plug_processor_8cpp.html" target="_top" xlink:title="IPlugProcessor implementation. ">
<polygon fill="white" stroke="black" points="736,-168.5 736,-187.5 838,-187.5 838,-168.5 736,-168.5"/>
<text text-anchor="middle" x="787" y="-175.5" font-family="Helvetica,sans-Serif" font-size="10.00">IPlugProcessor.cpp</text>
</a>
</g>
</g>
<!-- Node33&#45;&gt;Node35 -->
<g id="edge85" class="edge"><title>Node33&#45;&gt;Node35</title>
<path fill="none" stroke="midnightblue" d="M417.472,-336.395C438.191,-323.345 479.328,-298.148 516,-280 595.691,-240.564 694.807,-207.357 748.341,-190.633"/>
<polygon fill="midnightblue" stroke="midnightblue" points="749.59,-193.91 758.106,-187.607 747.518,-187.224 749.59,-193.91"/>
</g>
<!-- Node35&#45;&gt;Node12 -->
<g id="edge89" class="edge"><title>Node35&#45;&gt;Node12</title>
<path fill="none" stroke="midnightblue" d="M782.707,-168.083C779.148,-160.691 773.978,-149.953 769.576,-140.811"/>
<polygon fill="midnightblue" stroke="midnightblue" points="772.705,-139.243 765.213,-131.751 766.398,-142.279 772.705,-139.243"/>
</g>
<!-- Node35&#45;&gt;Node21 -->
<g id="edge86" class="edge"><title>Node35&#45;&gt;Node21</title>
<path fill="none" stroke="midnightblue" d="M735.795,-171.776C661.33,-163.697 530.312,-147.486 515,-132 503.218,-120.084 501.659,-100.467 502.473,-85.8956"/>
<polygon fill="midnightblue" stroke="midnightblue" points="505.996,-85.8277 503.485,-75.5348 499.029,-85.1471 505.996,-85.8277"/>
</g>
<!-- Node35&#45;&gt;Node22 -->
<g id="edge87" class="edge"><title>Node35&#45;&gt;Node22</title>
<path fill="none" stroke="midnightblue" d="M767.704,-168.48C753.571,-161.081 735.443,-148.887 727,-132 718.243,-114.485 732.841,-95.3717 746.604,-82.4349"/>
<polygon fill="midnightblue" stroke="midnightblue" points="749.205,-84.8091 754.427,-75.5904 744.596,-79.5407 749.205,-84.8091"/>
</g>
<!-- Node35&#45;&gt;Node28 -->
<g id="edge88" class="edge"><title>Node35&#45;&gt;Node28</title>
<path fill="none" stroke="midnightblue" d="M793.11,-168.083C798.282,-160.534 805.846,-149.495 812.194,-140.23"/>
<polygon fill="midnightblue" stroke="midnightblue" points="815.239,-141.979 818.004,-131.751 809.464,-138.022 815.239,-141.979"/>
</g>
</g>
</svg>
