<?xml version="1.0" encoding="UTF-8" standalone="no"?>
<!DOCTYPE svg PUBLIC "-//W3C//DTD SVG 1.1//EN"
 "http://www.w3.org/Graphics/SVG/1.1/DTD/svg11.dtd">
<!-- Generated by graphviz version 2.36.0 (20140111.2315)
 -->
<!-- Title: IPlugParameter.cpp Pages: 1 -->
<svg width="1015pt" height="252pt"
 viewBox="0.00 0.00 1015.26 252.00" xmlns="http://www.w3.org/2000/svg" xmlns:xlink="http://www.w3.org/1999/xlink">
<g id="graph0" class="graph" transform="scale(1 1) rotate(0) translate(4 248)">
<title>IPlugParameter.cpp</title>
<polygon fill="white" stroke="none" points="-4,4 -4,-248 1011.26,-248 1011.26,4 -4,4"/>
<!-- Node1 -->
<g id="node1" class="node"><title>Node1</title>
<polygon fill="#bfbfbf" stroke="black" points="71.7646,-224.5 71.7646,-243.5 174.765,-243.5 174.765,-224.5 71.7646,-224.5"/>
<text text-anchor="middle" x="123.265" y="-231.5" font-family="Helvetica,sans-Serif" font-size="10.00">IPlugParameter.cpp</text>
</g>
<!-- Node2 -->
<g id="node2" class="node"><title>Node2</title>
<polygon fill="white" stroke="#bfbfbf" points="259.765,-56.5 259.765,-75.5 302.765,-75.5 302.765,-56.5 259.765,-56.5"/>
<text text-anchor="middle" x="281.265" y="-63.5" font-family="Helvetica,sans-Serif" font-size="10.00">cstdio</text>
</g>
<!-- Node1&#45;&gt;Node2 -->
<g id="edge1" class="edge"><title>Node1&#45;&gt;Node2</title>
<path fill="none" stroke="midnightblue" d="M110.154,-224.294C80.6865,-203.691 14.2175,-150.766 46.2646,-112 71.6794,-81.2568 191.215,-71.3148 249.353,-68.2661"/>
<polygon fill="midnightblue" stroke="midnightblue" points="249.639,-71.7563 259.457,-67.7736 249.299,-64.7646 249.639,-71.7563"/>
</g>
<!-- Node3 -->
<g id="node3" class="node"><title>Node3</title>
<polygon fill="white" stroke="#bfbfbf" points="54.2646,-56.5 54.2646,-75.5 110.265,-75.5 110.265,-56.5 54.2646,-56.5"/>
<text text-anchor="middle" x="82.2646" y="-63.5" font-family="Helvetica,sans-Serif" font-size="10.00">algorithm</text>
</g>
<!-- Node1&#45;&gt;Node3 -->
<g id="edge2" class="edge"><title>Node1&#45;&gt;Node3</title>
<path fill="none" stroke="midnightblue" d="M71.6653,-224.932C49.8271,-218.686 26.4331,-207.615 13.2646,-188 -5.56275,-159.956 -2.82387,-141.7 13.2646,-112 21.0132,-97.6958 35.4988,-87.2188 49.2046,-79.992"/>
<polygon fill="midnightblue" stroke="midnightblue" points="51.0022,-83.0103 58.4763,-75.501 47.9507,-76.7104 51.0022,-83.0103"/>
</g>
<!-- Node4 -->
<g id="node4" class="node"><title>Node4</title>
<g id="a_node4"><a xlink:href="_i_plug_parameter_8h.html" target="_top" xlink:title="IPlug&#39;s parameter class. ">
<polygon fill="white" stroke="black" points="173.265,-168.5 173.265,-187.5 265.265,-187.5 265.265,-168.5 173.265,-168.5"/>
<text text-anchor="middle" x="219.265" y="-175.5" font-family="Helvetica,sans-Serif" font-size="10.00">IPlugParameter.h</text>
</a>
</g>
</g>
<!-- Node1&#45;&gt;Node4 -->
<g id="edge3" class="edge"><title>Node1&#45;&gt;Node4</title>
<path fill="none" stroke="midnightblue" d="M138.689,-224.324C153.804,-215.822 177.08,-202.729 194.736,-192.797"/>
<polygon fill="midnightblue" stroke="midnightblue" points="196.879,-195.608 203.879,-187.655 193.447,-189.507 196.879,-195.608"/>
</g>
<!-- Node16 -->
<g id="node16" class="node"><title>Node16</title>
<g id="a_node16"><a xlink:href="_i_plug_logger_8h.html" target="_top" xlink:title="IPlug logging a.k.a tracing functionality. ">
<polygon fill="white" stroke="black" points="636.765,-168.5 636.765,-187.5 713.765,-187.5 713.765,-168.5 636.765,-168.5"/>
<text text-anchor="middle" x="675.265" y="-175.5" font-family="Helvetica,sans-Serif" font-size="10.00">IPlugLogger.h</text>
</a>
</g>
</g>
<!-- Node1&#45;&gt;Node16 -->
<g id="edge21" class="edge"><title>Node1&#45;&gt;Node16</title>
<path fill="none" stroke="midnightblue" d="M175.195,-227.92C281.579,-217.513 522.969,-193.899 626.559,-183.765"/>
<polygon fill="midnightblue" stroke="midnightblue" points="627.122,-187.226 636.734,-182.769 626.44,-180.26 627.122,-187.226"/>
</g>
<!-- Node5 -->
<g id="node5" class="node"><title>Node5</title>
<polygon fill="white" stroke="#bfbfbf" points="125.265,-112.5 125.265,-131.5 171.265,-131.5 171.265,-112.5 125.265,-112.5"/>
<text text-anchor="middle" x="148.265" y="-119.5" font-family="Helvetica,sans-Serif" font-size="10.00">atomic</text>
</g>
<!-- Node4&#45;&gt;Node5 -->
<g id="edge4" class="edge"><title>Node4&#45;&gt;Node5</title>
<path fill="none" stroke="midnightblue" d="M207.857,-168.324C197.156,-160.185 180.924,-147.839 168.102,-138.087"/>
<polygon fill="midnightblue" stroke="midnightblue" points="169.958,-135.102 159.88,-131.834 165.72,-140.673 169.958,-135.102"/>
</g>
<!-- Node6 -->
<g id="node6" class="node"><title>Node6</title>
<polygon fill="white" stroke="#bfbfbf" points="493.265,-0.5 493.265,-19.5 539.265,-19.5 539.265,-0.5 493.265,-0.5"/>
<text text-anchor="middle" x="516.265" y="-7.5" font-family="Helvetica,sans-Serif" font-size="10.00">cstring</text>
</g>
<!-- Node4&#45;&gt;Node6 -->
<g id="edge5" class="edge"><title>Node4&#45;&gt;Node6</title>
<path fill="none" stroke="midnightblue" d="M229.979,-168.305C239.203,-160.069 251.856,-146.789 257.265,-132 268.916,-100.143 228.211,-81.7735 250.265,-56 283.899,-16.6922 429.564,-30.2839 480.265,-20 481.176,-19.8151 482.099,-19.6224 483.03,-19.4235"/>
<polygon fill="midnightblue" stroke="midnightblue" points="484.13,-22.7623 493.096,-17.1171 482.566,-15.9391 484.13,-22.7623"/>
</g>
<!-- Node7 -->
<g id="node7" class="node"><title>Node7</title>
<polygon fill="white" stroke="#bfbfbf" points="189.765,-112.5 189.765,-131.5 248.765,-131.5 248.765,-112.5 189.765,-112.5"/>
<text text-anchor="middle" x="219.265" y="-119.5" font-family="Helvetica,sans-Serif" font-size="10.00">functional</text>
</g>
<!-- Node4&#45;&gt;Node7 -->
<g id="edge6" class="edge"><title>Node4&#45;&gt;Node7</title>
<path fill="none" stroke="midnightblue" d="M219.265,-168.083C219.265,-161.006 219.265,-150.861 219.265,-141.986"/>
<polygon fill="midnightblue" stroke="midnightblue" points="222.765,-141.751 219.265,-131.751 215.765,-141.751 222.765,-141.751"/>
</g>
<!-- Node8 -->
<g id="node8" class="node"><title>Node8</title>
<polygon fill="white" stroke="#bfbfbf" points="55.2646,-112.5 55.2646,-131.5 107.265,-131.5 107.265,-112.5 55.2646,-112.5"/>
<text text-anchor="middle" x="81.2646" y="-119.5" font-family="Helvetica,sans-Serif" font-size="10.00">memory</text>
</g>
<!-- Node4&#45;&gt;Node8 -->
<g id="edge7" class="edge"><title>Node4&#45;&gt;Node8</title>
<path fill="none" stroke="midnightblue" d="M197.398,-168.444C174.485,-159.478 138.289,-145.314 112.398,-135.183"/>
<polygon fill="midnightblue" stroke="midnightblue" points="113.617,-131.901 103.029,-131.516 111.066,-138.42 113.617,-131.901"/>
</g>
<!-- Node9 -->
<g id="node9" class="node"><title>Node9</title>
<polygon fill="white" stroke="#bfbfbf" points="321.265,-56.5 321.265,-75.5 385.265,-75.5 385.265,-56.5 321.265,-56.5"/>
<text text-anchor="middle" x="353.265" y="-63.5" font-family="Helvetica,sans-Serif" font-size="10.00">wdlstring.h</text>
</g>
<!-- Node4&#45;&gt;Node9 -->
<g id="edge8" class="edge"><title>Node4&#45;&gt;Node9</title>
<path fill="none" stroke="midnightblue" d="M235.481,-168.415C250.602,-160.06 273.439,-146.527 291.265,-132 309.485,-117.151 327.741,-97.2561 339.676,-83.4039"/>
<polygon fill="midnightblue" stroke="midnightblue" points="342.443,-85.5526 346.233,-75.6589 337.1,-81.0295 342.443,-85.5526"/>
</g>
<!-- Node10 -->
<g id="node10" class="node"><title>Node10</title>
<g id="a_node10"><a xlink:href="_i_plug_utilities_8h.html" target="_top" xlink:title="Utility functions and macros. ">
<polygon fill="white" stroke="black" points="443.265,-112.5 443.265,-131.5 523.265,-131.5 523.265,-112.5 443.265,-112.5"/>
<text text-anchor="middle" x="483.265" y="-119.5" font-family="Helvetica,sans-Serif" font-size="10.00">IPlugUtilities.h</text>
</a>
</g>
</g>
<!-- Node4&#45;&gt;Node10 -->
<g id="edge9" class="edge"><title>Node4&#45;&gt;Node10</title>
<path fill="none" stroke="midnightblue" d="M261.096,-168.444C307.752,-158.9 383.194,-143.469 433.013,-133.279"/>
<polygon fill="midnightblue" stroke="midnightblue" points="433.832,-136.684 442.927,-131.251 432.429,-129.826 433.832,-136.684"/>
</g>
<!-- Node10&#45;&gt;Node2 -->
<g id="edge12" class="edge"><title>Node10&#45;&gt;Node2</title>
<path fill="none" stroke="midnightblue" d="M449.776,-112.454C417.208,-104.083 366.103,-90.7937 312.587,-76.0371"/>
<polygon fill="midnightblue" stroke="midnightblue" points="313.496,-72.6573 302.925,-73.364 311.63,-79.4038 313.496,-72.6573"/>
</g>
<!-- Node10&#45;&gt;Node3 -->
<g id="edge10" class="edge"><title>Node10&#45;&gt;Node3</title>
<path fill="none" stroke="midnightblue" d="M442.979,-115.575C365.397,-105.128 196.231,-82.3471 120.387,-72.1336"/>
<polygon fill="midnightblue" stroke="midnightblue" points="120.701,-68.6445 110.323,-70.7785 119.767,-75.5818 120.701,-68.6445"/>
</g>
<!-- Node10&#45;&gt;Node6 -->
<g id="edge14" class="edge"><title>Node10&#45;&gt;Node6</title>
<path fill="none" stroke="midnightblue" d="M523.501,-116.171C548.693,-110.836 579.305,-99.6115 595.265,-76 610.923,-52.8331 577.443,-33.5772 549.342,-22.1839"/>
<polygon fill="midnightblue" stroke="midnightblue" points="550.306,-18.8049 539.716,-18.4883 547.797,-25.3399 550.306,-18.8049"/>
</g>
<!-- Node10&#45;&gt;Node9 -->
<g id="edge16" class="edge"><title>Node10&#45;&gt;Node9</title>
<path fill="none" stroke="midnightblue" d="M462.666,-112.444C441.271,-103.557 407.583,-89.5632 383.24,-79.4514"/>
<polygon fill="midnightblue" stroke="midnightblue" points="384.345,-76.1203 373.767,-75.5164 381.659,-82.5848 384.345,-76.1203"/>
</g>
<!-- Node11 -->
<g id="node11" class="node"><title>Node11</title>
<polygon fill="white" stroke="#bfbfbf" points="543.265,-56.5 543.265,-75.5 587.265,-75.5 587.265,-56.5 543.265,-56.5"/>
<text text-anchor="middle" x="565.265" y="-63.5" font-family="Helvetica,sans-Serif" font-size="10.00">cmath</text>
</g>
<!-- Node10&#45;&gt;Node11 -->
<g id="edge11" class="edge"><title>Node10&#45;&gt;Node11</title>
<path fill="none" stroke="midnightblue" d="M496.439,-112.324C509.111,-103.979 528.498,-91.2122 543.47,-81.3524"/>
<polygon fill="midnightblue" stroke="midnightblue" points="545.696,-84.0776 552.123,-75.6545 541.846,-78.2313 545.696,-84.0776"/>
</g>
<!-- Node12 -->
<g id="node12" class="node"><title>Node12</title>
<polygon fill="white" stroke="#bfbfbf" points="426.765,-0.5 426.765,-19.5 471.765,-19.5 471.765,-0.5 426.765,-0.5"/>
<text text-anchor="middle" x="449.265" y="-7.5" font-family="Helvetica,sans-Serif" font-size="10.00">cstdlib</text>
</g>
<!-- Node10&#45;&gt;Node12 -->
<g id="edge13" class="edge"><title>Node10&#45;&gt;Node12</title>
<path fill="none" stroke="midnightblue" d="M467.531,-112.236C455.375,-104.481 439.453,-91.9292 432.265,-76 425.383,-60.7499 431.55,-42.1831 438.303,-28.8039"/>
<polygon fill="midnightblue" stroke="midnightblue" points="441.554,-30.1618 443.376,-19.7248 435.443,-26.7476 441.554,-30.1618"/>
</g>
<!-- Node13 -->
<g id="node13" class="node"><title>Node13</title>
<polygon fill="white" stroke="#bfbfbf" points="643.265,-56.5 643.265,-75.5 689.265,-75.5 689.265,-56.5 643.265,-56.5"/>
<text text-anchor="middle" x="666.265" y="-63.5" font-family="Helvetica,sans-Serif" font-size="10.00">cctype</text>
</g>
<!-- Node10&#45;&gt;Node13 -->
<g id="edge15" class="edge"><title>Node10&#45;&gt;Node13</title>
<path fill="none" stroke="midnightblue" d="M512.262,-112.444C545.284,-102.699 599.111,-86.8158 633.591,-76.6414"/>
<polygon fill="midnightblue" stroke="midnightblue" points="634.597,-79.9938 643.198,-73.8067 632.616,-73.28 634.597,-79.9938"/>
</g>
<!-- Node14 -->
<g id="node14" class="node"><title>Node14</title>
<g id="a_node14"><a xlink:href="_i_plug_constants_8h.html" target="_top" xlink:title="IPlug Constant definitions, Types, magic numbers. ">
<polygon fill="white" stroke="black" points="707.265,-56.5 707.265,-75.5 799.265,-75.5 799.265,-56.5 707.265,-56.5"/>
<text text-anchor="middle" x="753.265" y="-63.5" font-family="Helvetica,sans-Serif" font-size="10.00">IPlugConstants.h</text>
</a>
</g>
</g>
<!-- Node10&#45;&gt;Node14 -->
<g id="edge17" class="edge"><title>Node10&#45;&gt;Node14</title>
<path fill="none" stroke="midnightblue" d="M523.395,-112.974C570.495,-103.554 648.749,-87.9031 700.668,-77.5193"/>
<polygon fill="midnightblue" stroke="midnightblue" points="701.564,-80.9095 710.684,-75.5162 700.191,-74.0454 701.564,-80.9095"/>
</g>
<!-- Node15 -->
<g id="node15" class="node"><title>Node15</title>
<g id="a_node15"><a xlink:href="_i_plug_platform_8h.html" target="_top" xlink:title="Include to get consistently named preprocessor macros for different platforms and logging functionali...">
<polygon fill="white" stroke="black" points="441.265,-56.5 441.265,-75.5 525.265,-75.5 525.265,-56.5 441.265,-56.5"/>
<text text-anchor="middle" x="483.265" y="-63.5" font-family="Helvetica,sans-Serif" font-size="10.00">IPlugPlatform.h</text>
</a>
</g>
</g>
<!-- Node10&#45;&gt;Node15 -->
<g id="edge18" class="edge"><title>Node10&#45;&gt;Node15</title>
<path fill="none" stroke="midnightblue" d="M483.265,-112.083C483.265,-105.006 483.265,-94.8611 483.265,-85.9865"/>
<polygon fill="midnightblue" stroke="midnightblue" points="486.765,-85.751 483.265,-75.7511 479.765,-85.7511 486.765,-85.751"/>
</g>
<!-- Node15&#45;&gt;Node6 -->
<g id="edge19" class="edge"><title>Node15&#45;&gt;Node6</title>
<path fill="none" stroke="midnightblue" d="M488.714,-56.083C493.279,-48.6127 499.933,-37.7244 505.558,-28.5199"/>
<polygon fill="midnightblue" stroke="midnightblue" points="508.689,-30.109 510.917,-19.7511 502.716,-26.4588 508.689,-30.109"/>
</g>
<!-- Node15&#45;&gt;Node12 -->
<g id="edge20" class="edge"><title>Node15&#45;&gt;Node12</title>
<path fill="none" stroke="midnightblue" d="M477.65,-56.083C472.897,-48.5341 465.947,-37.4948 460.113,-28.2298"/>
<polygon fill="midnightblue" stroke="midnightblue" points="463.065,-26.3486 454.775,-19.7511 457.141,-30.0783 463.065,-26.3486"/>
</g>
<!-- Node16&#45;&gt;Node2 -->
<g id="edge22" class="edge"><title>Node16&#45;&gt;Node2</title>
<path fill="none" stroke="midnightblue" d="M636.76,-174.87C582.475,-170.947 480.948,-160.212 399.265,-132 362.93,-119.451 324.613,-96.2232 301.835,-81.2013"/>
<polygon fill="midnightblue" stroke="midnightblue" points="303.605,-78.1741 293.351,-75.5089 299.705,-83.9869 303.605,-78.1741"/>
</g>
<!-- Node16&#45;&gt;Node6 -->
<g id="edge26" class="edge"><title>Node16&#45;&gt;Node6</title>
<path fill="none" stroke="midnightblue" d="M698.849,-168.406C746.937,-149.641 848.504,-102.915 808.265,-56 775.299,-17.565 619.497,-11.6487 549.94,-10.9532"/>
<polygon fill="midnightblue" stroke="midnightblue" points="549.573,-7.45075 539.549,-10.8823 549.525,-14.4506 549.573,-7.45075"/>
</g>
<!-- Node16&#45;&gt;Node9 -->
<g id="edge29" class="edge"><title>Node16&#45;&gt;Node9</title>
<path fill="none" stroke="midnightblue" d="M636.368,-175.538C587.217,-172.417 500.99,-162.635 434.265,-132 408.311,-120.084 383.466,-98.0306 368.293,-82.9458"/>
<polygon fill="midnightblue" stroke="midnightblue" points="370.78,-80.4836 361.285,-75.7832 365.776,-85.3789 370.78,-80.4836"/>
</g>
<!-- Node16&#45;&gt;Node10 -->
<g id="edge32" class="edge"><title>Node16&#45;&gt;Node10</title>
<path fill="none" stroke="midnightblue" d="M644.842,-168.444C611.98,-159.201 559.48,-144.436 523.29,-134.257"/>
<polygon fill="midnightblue" stroke="midnightblue" points="524.119,-130.855 513.545,-131.516 522.224,-137.593 524.119,-130.855"/>
</g>
<!-- Node16&#45;&gt;Node13 -->
<g id="edge23" class="edge"><title>Node16&#45;&gt;Node13</title>
<path fill="none" stroke="midnightblue" d="M678.053,-168.119C681.612,-155.557 686.9,-131.909 683.265,-112 681.577,-102.757 678.09,-92.9479 674.71,-84.8546"/>
<polygon fill="midnightblue" stroke="midnightblue" points="677.896,-83.4045 670.631,-75.6928 671.501,-86.2518 677.896,-83.4045"/>
</g>
<!-- Node16&#45;&gt;Node14 -->
<g id="edge31" class="edge"><title>Node16&#45;&gt;Node14</title>
<path fill="none" stroke="midnightblue" d="M681.385,-168.368C694.257,-150.215 724.333,-107.802 741.217,-83.9902"/>
<polygon fill="midnightblue" stroke="midnightblue" points="744.243,-85.7733 747.173,-75.5914 738.533,-81.7243 744.243,-85.7733"/>
</g>
<!-- Node17 -->
<g id="node17" class="node"><title>Node17</title>
<polygon fill="white" stroke="#bfbfbf" points="833.765,-112.5 833.765,-131.5 882.765,-131.5 882.765,-112.5 833.765,-112.5"/>
<text text-anchor="middle" x="858.265" y="-119.5" font-family="Helvetica,sans-Serif" font-size="10.00">cstdarg</text>
</g>
<!-- Node16&#45;&gt;Node17 -->
<g id="edge24" class="edge"><title>Node16&#45;&gt;Node17</title>
<path fill="none" stroke="midnightblue" d="M704.262,-168.444C736.733,-158.862 789.323,-143.344 823.851,-133.155"/>
<polygon fill="midnightblue" stroke="midnightblue" points="824.911,-136.491 833.512,-130.304 822.93,-129.778 824.911,-136.491"/>
</g>
<!-- Node18 -->
<g id="node18" class="node"><title>Node18</title>
<polygon fill="white" stroke="#bfbfbf" points="901.265,-112.5 901.265,-131.5 947.265,-131.5 947.265,-112.5 901.265,-112.5"/>
<text text-anchor="middle" x="924.265" y="-119.5" font-family="Helvetica,sans-Serif" font-size="10.00">cstdint</text>
</g>
<!-- Node16&#45;&gt;Node18 -->
<g id="edge25" class="edge"><title>Node16&#45;&gt;Node18</title>
<path fill="none" stroke="midnightblue" d="M714.051,-169.658C757.407,-161.28 829.624,-146.812 891.265,-132 891.366,-131.976 891.467,-131.951 891.568,-131.927"/>
<polygon fill="midnightblue" stroke="midnightblue" points="892.4,-135.327 901.232,-129.474 890.678,-128.542 892.4,-135.327"/>
</g>
<!-- Node19 -->
<g id="node19" class="node"><title>Node19</title>
<polygon fill="white" stroke="#bfbfbf" points="965.765,-112.5 965.765,-131.5 1006.76,-131.5 1006.76,-112.5 965.765,-112.5"/>
<text text-anchor="middle" x="986.265" y="-119.5" font-family="Helvetica,sans-Serif" font-size="10.00">ctime</text>
</g>
<!-- Node16&#45;&gt;Node19 -->
<g id="edge27" class="edge"><title>Node16&#45;&gt;Node19</title>
<path fill="none" stroke="midnightblue" d="M714.213,-172.423C766.885,-165.871 863.862,-152.529 955.948,-131.79"/>
<polygon fill="midnightblue" stroke="midnightblue" points="956.735,-135.2 965.704,-129.56 955.175,-128.376 956.735,-135.2"/>
</g>
<!-- Node20 -->
<g id="node20" class="node"><title>Node20</title>
<polygon fill="white" stroke="#bfbfbf" points="554.765,-112.5 554.765,-131.5 603.765,-131.5 603.765,-112.5 554.765,-112.5"/>
<text text-anchor="middle" x="579.265" y="-119.5" font-family="Helvetica,sans-Serif" font-size="10.00">cassert</text>
</g>
<!-- Node16&#45;&gt;Node20 -->
<g id="edge28" class="edge"><title>Node16&#45;&gt;Node20</title>
<path fill="none" stroke="midnightblue" d="M659.841,-168.324C644.725,-159.822 621.449,-146.729 603.793,-136.797"/>
<polygon fill="midnightblue" stroke="midnightblue" points="605.082,-133.507 594.65,-131.655 601.65,-139.608 605.082,-133.507"/>
</g>
<!-- Node21 -->
<g id="node21" class="node"><title>Node21</title>
<polygon fill="white" stroke="#bfbfbf" points="622.265,-112.5 622.265,-131.5 674.265,-131.5 674.265,-112.5 622.265,-112.5"/>
<text text-anchor="middle" x="648.265" y="-119.5" font-family="Helvetica,sans-Serif" font-size="10.00">mutex.h</text>
</g>
<!-- Node16&#45;&gt;Node21 -->
<g id="edge30" class="edge"><title>Node16&#45;&gt;Node21</title>
<path fill="none" stroke="midnightblue" d="M670.806,-168.083C667.11,-160.691 661.741,-149.953 657.17,-140.811"/>
<polygon fill="midnightblue" stroke="midnightblue" points="660.243,-139.13 652.64,-131.751 653.982,-142.261 660.243,-139.13"/>
</g>
</g>
</svg>
